<?xml version="1.0" encoding="utf-8"?>
<!-- Generator: Adobe Illustrator 16.2.1, SVG Export Plug-In . SVG Version: 6.00 Build 0)  -->
<!DOCTYPE svg PUBLIC "-//W3C//DTD SVG 1.1//EN" "http://www.w3.org/Graphics/SVG/1.1/DTD/svg11.dtd">
<svg version="1.1" id="Layer_1" xmlns="http://www.w3.org/2000/svg" xmlns:xlink="http://www.w3.org/1999/xlink" x="0px" y="0px"
	 width="440px" height="162.335px" viewBox="144 0 440 162.335" enable-background="new 144 0 440 162.335" xml:space="preserve">
<g display="none">
	<g display="inline">
		<g>
			<defs>
				<rect id="SVGID_1_" x="307.222" width="93.556" height="162.335"/>
			</defs>
			<clipPath id="SVGID_2_">
				<use xlink:href="#SVGID_1_"  overflow="visible"/>
			</clipPath>
			<path clip-path="url(#SVGID_2_)" fill="#231F20" d="M385.609,161.835h4.482l1.746-6.541c0.717-2.674,2.184-4.765,3.988-6.229
				l1.43,1.402c1.84-0.098,3.521-1.402,3.521-3.27c0-1.246-0.84-2.246-2.146-2.246c-1.496,0-2.68,1.217-5.572,5.487l-0.188-0.101
				l0.84-3.336v-1.674h-6.604l-0.5,1.799l1.867,0.347l0.625,1.308L385.609,161.835z M366.852,160.067
				c-1.375,0-2.055-1.21-2.055-3.585c0-4.359,2.119-9.378,4.801-9.378c1.465,0,2.082,1.218,2.082,3.585
				C371.68,155.08,369.598,160.067,366.852,160.067 M366.916,162.335c5.299,0,9.559-5.01,9.559-10.469
				c0-4.33-2.584-7.033-6.938-7.033c-5.302,0-9.566,5.01-9.566,10.461C359.969,159.632,362.556,162.335,366.916,162.335
				 M344.762,162.216l4.951-0.656l0.374-1.375c-2.336-0.553-2.613-0.866-2.277-2.18l2.219-8.289c0.746-2.771-0.28-4.822-2.926-4.822
				c-2.366,0-3.709,1.718-6.232,5.175l-0.216-0.098l1.026-2.964l1.713-6.914v-1.613h-6.978l-0.471,1.801l1.87,0.342l0.653,1.314
				l-4.95,19.898h4.483l1.932-7.879c0.345-1.434,0.845-2.365,2.244-3.771c1.153-1.157,1.59-1.494,2.273-1.494
				c0.75,0,1.275,0.463,0.938,1.683l-2.215,8.16c-0.157,0.629-0.219,1.061-0.219,1.59
				C342.957,161.158,343.704,161.806,344.762,162.216 M307.627,161.835h10.777l0.593-2.172l-2.18-0.314l-0.373-1.344l4.174-15.516
				h1.991l1.561,1.244l-0.562,3.771h2.616l2.024-7.601h-19.001l-2.025,7.601h2.619l1.431-3.771l2.242-1.244h1.996l-4.175,15.516
				l-1.059,1.344l-2.058,0.314L307.627,161.835z"/>
		</g>
	</g>
	<g display="inline">
		<g>
			<defs>
				<rect id="SVGID_3_" x="307.222" width="93.556" height="162.335"/>
			</defs>
			<clipPath id="SVGID_4_">
				<use xlink:href="#SVGID_3_"  overflow="visible"/>
			</clipPath>
			<path clip-path="url(#SVGID_4_)" fill="#EC1B2E" d="M351.895,23.322c0,0.652,0.344,0.962,0.964,0.962h0.065
				c0.62,0,0.964-0.31,0.964-0.962V0.583c0-0.377-0.238-0.586-0.553-0.586h-0.101c-0.414,0-0.55,0.175-0.754,0.482
				c-0.243,0.414-0.378,0.552-0.481,0.657c-0.377,0.41-0.896,0.616-1.718,0.787c-0.448,0.135-0.691,0.344-0.691,0.788v0.138
				c0,0.415,0.243,0.725,0.825,0.725h1.479L351.895,23.322L351.895,23.322z"/>
		</g>
	</g>
</g>
<g>
	<line fill="none" stroke="#231F20" stroke-width="0.5" x1="335.226" y1="84.429" x2="369.633" y2="84.429"/>
</g>
<g>
	<g>
		<defs>
			<rect id="SVGID_5_" x="203.625" y="0.054" width="295.875" height="162.281"/>
		</defs>
		<clipPath id="SVGID_6_">
			<use xlink:href="#SVGID_5_"  overflow="visible"/>
		</clipPath>
		<path clip-path="url(#SVGID_6_)" fill="#231F20" d="M483.496,162.335c2.869,0.027,6.616-2.262,10.452-6.758
			c3.107-3.623,5.522-8.098,5.552-11.236c0.032-2.234-1.057-3.719-2.776-3.748c-1.566-0.028-2.508,1.301-2.508,2.658
			c-0.028,0.67,0.187,1.304,0.519,1.812l1.775,0.637c-0.449,2.686-2.08,6.008-4.284,8.697h-0.665l0.15-3.833l-1.479-9.548h-5.859
			l-0.481,1.748l2.175,0.604l2.418,14.653c-1.027,0.906-1.998,1.416-3.296,1.872l-0.693-1.784c-2.026-0.754-3.865,0.241-3.9,1.875
			C480.593,161.373,481.656,162.307,483.496,162.335 M469.358,142.583c1.208,0,1.692,0.877,1.692,1.844
			c0,3.205-3.388,4.26-6.258,4.683C465.34,145.968,466.94,142.583,469.358,142.583 M466.002,157.474c2.48,0,4.868-1.236,6.979-2.861
			l-0.964-1.542c-1.692,1.087-3.23,1.724-4.593,1.724c-2.358,0-2.812-1.875-2.812-3.565v-0.547
			c7.344-0.452,10.571-2.72,10.571-6.073c0-2.627-2.232-4.07-5.255-4.07c-5.47,0-9.846,5.1-9.846,10.721
			C460.085,154.613,462.17,157.474,466.002,157.474 M438.246,157.023h4.351l1.693-6.342c0.691-2.6,2.11-4.621,3.866-6.04l1.39,1.36
			c1.776-0.094,3.409-1.36,3.409-3.174c0-1.207-0.818-2.177-2.085-2.177c-1.447,0-2.599,1.181-5.403,5.319l-0.182-0.092l0.813-3.237
			v-1.624h-6.404l-0.479,1.748l1.811,0.333l0.604,1.267L438.246,157.023z M416.168,157.023h4.352l1.687-6.342
			c0.698-2.6,2.116-4.621,3.865-6.04l1.39,1.36c1.784-0.094,3.417-1.36,3.417-3.174c0-1.207-0.817-2.177-2.084-2.177
			c-1.456,0-2.599,1.181-5.408,5.319l-0.181-0.092l0.814-3.237v-1.624h-6.403l-0.485,1.748l1.813,0.333l0.604,1.267L416.168,157.023
			z M402.153,142.583c1.209,0,1.693,0.877,1.693,1.844c0,3.205-3.388,4.26-6.257,4.683
			C398.129,145.968,399.736,142.583,402.153,142.583 M398.798,157.474c2.478,0,4.869-1.236,6.979-2.861l-0.968-1.542
			c-1.693,1.087-3.23,1.724-4.593,1.724c-2.355,0-2.809-1.875-2.809-3.565v-0.547c7.344-0.452,10.567-2.72,10.567-6.073
			c0-2.627-2.229-4.07-5.253-4.07c-5.468,0-9.844,5.1-9.844,10.721C392.881,154.613,394.962,157.474,398.798,157.474
			 M367.505,157.023h10.453l0.567-2.109l-2.108-0.301l-0.366-1.304l4.047-15.043h1.937l1.51,1.21l-0.544,3.65h2.537l1.966-7.365
			h-18.422l-1.97,7.365h2.541l1.389-3.65l2.172-1.21h1.934l-4.045,15.043l-1.024,1.304l-1.995,0.301L367.505,157.023z
			 M332.96,153.762c-0.815,0-1.268-0.485-1.268-1.753c0-4.17,2.78-8.85,5.711-8.85c0.665,0,1.27,0.334,1.599,0.785l-0.963,4.104
			c-0.304,1.268-1.086,2.724-2.266,3.867C334.503,153.158,333.658,153.762,332.96,153.762 M338.337,157.388l4.289-0.637l0.363-1.328
			c-2.265-0.547-2.539-0.879-2.206-2.118l3.355-12.468l-1.149-0.244l-1.572,1.087c-0.966-0.662-1.9-1.115-3.622-1.115
			c-4.624,0-10.751,5.403-10.751,12.288c0,3.081,1.509,4.834,3.922,4.562c2.086-0.242,3.809-2.174,6.044-5.195l0.241,0.121
			l-0.362,1.269c-0.148,0.548-0.3,1.147-0.3,1.752C336.589,156.357,337.311,156.994,338.337,157.388 M305.383,157.445
			c2.297,0,3.628-1.658,6.073-5.012l0.183,0.086l-0.3,1.243c-0.123,0.542-0.211,1.085-0.211,1.6c0,0.995,0.722,1.632,1.75,2.026
			l4.47-0.637l0.358-1.328c-2.264-0.547-2.535-0.844-2.204-2.118l3.293-12.287h-4.351l-2.02,7.636
			c-0.364,1.395-0.874,2.299-2.234,3.66c-1.121,1.119-1.542,1.452-2.21,1.452c-0.725,0-1.207-0.457-0.902-1.634l2.537-9.549v-1.565
			h-6.733l-0.485,1.748l1.812,0.333l0.604,1.268l-2.235,8.403C301.854,155.453,302.817,157.445,305.383,157.445 M286.718,157.388
			l4.799-0.637l0.363-1.328c-2.266-0.547-2.535-0.844-2.206-2.114l2.146-8.034c0.722-2.688-0.27-4.682-2.839-4.682
			c-2.293,0-3.591,1.662-6.038,5.015l-0.211-0.09l0.997-2.871l1.661-6.706v-1.566h-6.769l-0.452,1.748l1.813,0.33l0.634,1.268
			l-4.803,19.304h4.35l1.872-7.642c0.335-1.391,0.816-2.297,2.177-3.654c1.118-1.119,1.54-1.452,2.204-1.452
			c0.726,0,1.238,0.457,0.909,1.634l-2.147,7.914c-0.151,0.605-0.211,1.024-0.211,1.543
			C284.968,156.361,285.691,156.994,286.718,157.388 M259.862,157.503c3.869,0,6.345-2.02,6.345-5.066
			c0-2.146-1.359-3.45-3.894-5.05c-2.147-1.359-2.872-1.993-2.872-2.988c0-0.876,0.754-1.903,2.508-1.903
			c0.485,0,1.449,0.118,2.083,0.57l-0.389,1.785c0.512,0.876,1.298,1.391,2.324,1.391c0.994,0,1.81-0.785,1.81-1.963
			c0-2.023-3.018-3.742-6.097-3.742c-3.869,0-6.101,2.049-6.101,4.981c0,1.897,1.144,3.287,3.862,4.953
			c2.115,1.296,2.901,2.081,2.901,2.962c0,1.236-1.149,2.113-2.628,2.113c-0.966,0-2.052-0.271-2.839-0.785l0.546-1.812
			c-0.515-0.968-1.332-1.482-2.235-1.482c-1.057,0-1.813,0.849-1.813,1.968C253.373,155.91,256.965,157.503,259.862,157.503
			 M235.913,155.304c-1.331,0-1.998-1.178-1.998-3.473c0-4.234,2.058-9.096,4.655-9.096c1.424,0,2.029,1.178,2.029,3.473
			C240.599,150.471,238.57,155.304,235.913,155.304 M235.973,157.503c5.136,0,9.272-4.856,9.272-10.146
			c0-4.196-2.506-6.821-6.734-6.821c-5.137,0-9.272,4.857-9.272,10.146C229.239,154.884,231.744,157.503,235.973,157.503
			 M209.45,157.474c4.534,0,7.069-2.833,8.124-6.73l2.991-11.268l1.057-1.305l1.663-0.301l0.575-2.109h-10.152l-0.574,2.109
			l2.146,0.301l0.333,1.305l-3.144,11.752c-0.603,2.205-1.69,3.471-3.414,3.471c-1.115,0-1.9-0.48-2.294-1.176l1.994-1.721
			c0.572-1.331-0.244-2.692-1.842-2.692c-1.871,0-3.29,1.938-3.29,3.961C203.625,155.968,206.464,157.474,209.45,157.474"/>
	</g>
	<g>
		<defs>
			<rect id="SVGID_7_" x="203.625" y="0.054" width="295.875" height="162.281"/>
		</defs>
		<clipPath id="SVGID_8_">
			<use xlink:href="#SVGID_7_"  overflow="visible"/>
		</clipPath>
		<path clip-path="url(#SVGID_8_)" fill="#EC1B2E" d="M347.786,20.001v2.501c0,0.695,0.368,1.097,1.096,1.097h6.938
			c0.601,0,0.901-0.3,0.901-0.897v-0.065c0-0.569-0.3-0.901-0.901-0.901h-6.07v-1.6c0-1.636,0.266-2.371,1.235-3.604l3.972-5.002
			c1.263-1.538,1.63-2.804,1.63-4.34V4.05c0-2.635-1.33-3.996-3.999-3.996h-0.737c-2.669,0-4,1.361-4,3.996v3.503
			c0,0.633,0.333,0.966,0.93,0.966h0.067c0.601,0,0.934-0.333,0.934-0.966v-3.6c0-1.368,0.701-2.034,2.101-2.034h0.605
			c1.4,0,2.101,0.666,2.101,2.034V7.49c0,1.031-0.301,1.835-1.101,2.833l-3.972,4.973C348.153,16.997,347.786,18.166,347.786,20.001
			"/>
	</g>
</g>
<line display="none" fill="none" stroke="#231F20" stroke-width="0.5" x1="335.458" y1="81.97" x2="368.812" y2="81.97"/>
</svg>
