<?xml version="1.0" encoding="utf-8"?>
<!-- Generator: Adobe Illustrator 16.2.1, SVG Export Plug-In . SVG Version: 6.00 Build 0)  -->
<!DOCTYPE svg PUBLIC "-//W3C//DTD SVG 1.1//EN" "http://www.w3.org/Graphics/SVG/1.1/DTD/svg11.dtd">
<svg version="1.1" id="Layer_1" xmlns="http://www.w3.org/2000/svg" xmlns:xlink="http://www.w3.org/1999/xlink" x="0px" y="0px"
	 width="440px" height="162.335px" viewBox="144 0 440 162.335" enable-background="new 144 0 440 162.335" xml:space="preserve">
<g display="none">
	<g display="inline">
		<g>
			<defs>
				<rect id="SVGID_1_" x="307.222" width="93.557" height="162.335"/>
			</defs>
			<clipPath id="SVGID_2_">
				<use xlink:href="#SVGID_1_"  overflow="visible"/>
			</clipPath>
			<path clip-path="url(#SVGID_2_)" fill="#231F20" d="M385.609,161.835h4.482l1.746-6.541c0.717-2.674,2.184-4.764,3.988-6.229
				l1.43,1.402c1.84-0.098,3.521-1.402,3.521-3.27c0-1.246-0.84-2.246-2.146-2.246c-1.496,0-2.68,1.217-5.572,5.487l-0.188-0.101
				l0.84-3.336v-1.674h-6.604l-0.5,1.799l1.867,0.347l0.625,1.308L385.609,161.835z M366.852,160.067
				c-1.375,0-2.055-1.21-2.055-3.585c0-4.359,2.119-9.378,4.801-9.378c1.465,0,2.082,1.218,2.082,3.585
				C371.68,155.08,369.598,160.067,366.852,160.067 M366.916,162.335c5.299,0,9.559-5.01,9.559-10.469
				c0-4.33-2.584-7.033-6.938-7.033c-5.302,0-9.566,5.01-9.566,10.461C359.969,159.632,362.556,162.335,366.916,162.335
				 M344.762,162.216l4.951-0.656l0.374-1.375c-2.336-0.553-2.613-0.866-2.277-2.18l2.22-8.289c0.746-2.771-0.28-4.822-2.927-4.822
				c-2.365,0-3.709,1.718-6.231,5.175l-0.216-0.098l1.025-2.964l1.713-6.914v-1.613h-6.978l-0.471,1.801l1.87,0.342l0.652,1.314
				l-4.95,19.898h4.483l1.932-7.879c0.346-1.434,0.846-2.365,2.244-3.771c1.153-1.157,1.59-1.494,2.273-1.494
				c0.75,0,1.274,0.463,0.938,1.683l-2.215,8.16c-0.157,0.629-0.219,1.061-0.219,1.59
				C342.957,161.158,343.704,161.806,344.762,162.216 M307.627,161.835h10.777l0.593-2.172l-2.18-0.314l-0.373-1.344l4.174-15.516
				h1.991l1.561,1.244l-0.562,3.771h2.615l2.024-7.6h-19.001l-2.025,7.6h2.619l1.432-3.771l2.241-1.244h1.996l-4.175,15.516
				l-1.059,1.344l-2.059,0.314L307.627,161.835z"/>
		</g>
	</g>
	<g display="inline">
		<g>
			<defs>
				<rect id="SVGID_3_" x="307.222" width="93.557" height="162.335"/>
			</defs>
			<clipPath id="SVGID_4_">
				<use xlink:href="#SVGID_3_"  overflow="visible"/>
			</clipPath>
			<path clip-path="url(#SVGID_4_)" fill="#EC1B2E" d="M351.895,23.322c0,0.652,0.345,0.962,0.965,0.962h0.064
				c0.62,0,0.964-0.31,0.964-0.962V0.583c0-0.377-0.237-0.586-0.553-0.586h-0.101c-0.414,0-0.551,0.175-0.755,0.482
				c-0.242,0.414-0.378,0.552-0.48,0.657c-0.377,0.41-0.896,0.616-1.718,0.787c-0.448,0.135-0.691,0.344-0.691,0.788v0.138
				c0,0.415,0.243,0.725,0.825,0.725h1.479L351.895,23.322L351.895,23.322z"/>
		</g>
	</g>
</g>
<g>
	<line fill="none" stroke="#231F20" stroke-width="0.5" x1="335.226" y1="84.429" x2="369.633" y2="84.429"/>
</g>
<g display="none">
	<g display="inline">
		<defs>
			<rect id="SVGID_5_" x="203.625" y="0.054" width="295.875" height="162.281"/>
		</defs>
		<clipPath id="SVGID_6_">
			<use xlink:href="#SVGID_5_"  overflow="visible"/>
		</clipPath>
		<path clip-path="url(#SVGID_6_)" fill="#231F20" d="M483.496,162.335c2.869,0.027,6.616-2.262,10.452-6.758
			c3.107-3.623,5.522-8.098,5.552-11.236c0.032-2.234-1.057-3.719-2.776-3.748c-1.566-0.028-2.508,1.301-2.508,2.658
			c-0.028,0.67,0.187,1.304,0.519,1.812l1.775,0.637c-0.449,2.686-2.08,6.008-4.284,8.697h-0.666l0.151-3.833l-1.479-9.548h-5.859
			l-0.481,1.748l2.175,0.604l2.418,14.653c-1.027,0.906-1.998,1.416-3.296,1.872l-0.693-1.784c-2.026-0.754-3.865,0.241-3.9,1.875
			C480.593,161.373,481.656,162.307,483.496,162.335 M469.358,142.583c1.208,0,1.692,0.877,1.692,1.844
			c0,3.205-3.388,4.26-6.258,4.683C465.34,145.968,466.94,142.583,469.358,142.583 M466.002,157.474c2.48,0,4.868-1.236,6.979-2.861
			l-0.964-1.542c-1.692,1.087-3.23,1.724-4.593,1.724c-2.358,0-2.812-1.875-2.812-3.565v-0.547
			c7.344-0.452,10.571-2.72,10.571-6.073c0-2.627-2.232-4.07-5.255-4.07c-5.47,0-9.846,5.1-9.846,10.721
			C460.085,154.613,462.17,157.474,466.002,157.474 M438.246,157.023h4.351l1.693-6.342c0.691-2.6,2.11-4.621,3.866-6.04l1.39,1.36
			c1.776-0.094,3.409-1.36,3.409-3.174c0-1.207-0.818-2.177-2.085-2.177c-1.447,0-2.599,1.181-5.403,5.319l-0.182-0.092l0.813-3.237
			v-1.624h-6.404l-0.479,1.748l1.811,0.333l0.604,1.267L438.246,157.023z M416.168,157.023h4.351l1.688-6.342
			c0.698-2.6,2.116-4.621,3.865-6.04l1.39,1.36c1.784-0.094,3.417-1.36,3.417-3.174c0-1.207-0.818-2.177-2.084-2.177
			c-1.456,0-2.599,1.181-5.408,5.319l-0.181-0.092l0.813-3.237v-1.624h-6.402l-0.485,1.748l1.813,0.333l0.604,1.267L416.168,157.023
			z M402.153,142.583c1.209,0,1.693,0.877,1.693,1.844c0,3.205-3.388,4.26-6.257,4.683
			C398.129,145.968,399.736,142.583,402.153,142.583 M398.798,157.474c2.478,0,4.869-1.236,6.979-2.861l-0.968-1.542
			c-1.693,1.087-3.23,1.724-4.593,1.724c-2.355,0-2.809-1.875-2.809-3.565v-0.547c7.344-0.452,10.567-2.72,10.567-6.073
			c0-2.627-2.229-4.07-5.253-4.07c-5.468,0-9.844,5.1-9.844,10.721C392.881,154.613,394.962,157.474,398.798,157.474
			 M367.505,157.023h10.453l0.568-2.109l-2.109-0.301l-0.366-1.304l4.047-15.043h1.937l1.51,1.21l-0.544,3.65h2.537l1.966-7.365
			h-18.422l-1.97,7.365h2.541l1.389-3.65l2.172-1.21h1.934l-4.046,15.043l-1.023,1.304l-1.995,0.301L367.505,157.023z
			 M332.96,153.761c-0.815,0-1.268-0.484-1.268-1.752c0-4.17,2.779-8.85,5.711-8.85c0.665,0,1.27,0.334,1.599,0.785l-0.963,4.104
			c-0.304,1.268-1.086,2.724-2.266,3.867C334.503,153.158,333.658,153.761,332.96,153.761 M338.337,157.388l4.289-0.637l0.363-1.328
			c-2.266-0.547-2.539-0.879-2.206-2.118l3.354-12.468l-1.148-0.244l-1.572,1.087c-0.966-0.662-1.9-1.115-3.622-1.115
			c-4.624,0-10.751,5.403-10.751,12.288c0,3.081,1.509,4.834,3.922,4.562c2.086-0.242,3.81-2.174,6.044-5.195l0.241,0.121
			l-0.362,1.269c-0.147,0.548-0.3,1.147-0.3,1.752C336.589,156.357,337.311,156.994,338.337,157.388 M305.383,157.445
			c2.297,0,3.628-1.658,6.073-5.012l0.183,0.086l-0.3,1.243c-0.123,0.542-0.211,1.085-0.211,1.6c0,0.995,0.722,1.632,1.75,2.026
			l4.47-0.637l0.358-1.328c-2.264-0.547-2.535-0.844-2.204-2.118l3.293-12.287h-4.351l-2.021,7.636
			c-0.364,1.395-0.874,2.299-2.233,3.66c-1.121,1.119-1.542,1.452-2.21,1.452c-0.726,0-1.207-0.457-0.902-1.634l2.537-9.549v-1.565
			h-6.733l-0.485,1.748l1.812,0.333l0.604,1.268l-2.235,8.403C301.854,155.453,302.817,157.445,305.383,157.445 M286.718,157.388
			l4.799-0.637l0.363-1.328c-2.266-0.547-2.535-0.844-2.206-2.114l2.146-8.034c0.722-2.688-0.27-4.682-2.839-4.682
			c-2.293,0-3.591,1.662-6.038,5.015l-0.211-0.09l0.997-2.871l1.661-6.706v-1.566h-6.769l-0.452,1.748l1.813,0.33l0.634,1.268
			l-4.803,19.304h4.35l1.872-7.642c0.335-1.391,0.816-2.297,2.177-3.654c1.118-1.119,1.54-1.452,2.204-1.452
			c0.726,0,1.238,0.457,0.909,1.634l-2.147,7.914c-0.151,0.605-0.211,1.024-0.211,1.543
			C284.968,156.361,285.691,156.994,286.718,157.388 M259.862,157.503c3.869,0,6.345-2.02,6.345-5.066
			c0-2.146-1.359-3.45-3.894-5.051c-2.147-1.358-2.872-1.992-2.872-2.987c0-0.876,0.754-1.903,2.508-1.903
			c0.485,0,1.449,0.119,2.083,0.57l-0.389,1.785c0.512,0.876,1.298,1.391,2.324,1.391c0.994,0,1.81-0.785,1.81-1.963
			c0-2.023-3.018-3.742-6.097-3.742c-3.869,0-6.101,2.049-6.101,4.981c0,1.897,1.144,3.287,3.862,4.953
			c2.115,1.296,2.901,2.081,2.901,2.962c0,1.236-1.149,2.113-2.628,2.113c-0.966,0-2.052-0.271-2.839-0.785l0.546-1.812
			c-0.515-0.968-1.332-1.482-2.235-1.482c-1.057,0-1.813,0.849-1.813,1.968C253.373,155.91,256.965,157.503,259.862,157.503
			 M235.913,155.304c-1.331,0-1.998-1.178-1.998-3.473c0-4.234,2.058-9.096,4.655-9.096c1.424,0,2.029,1.178,2.029,3.473
			C240.599,150.471,238.57,155.304,235.913,155.304 M235.973,157.503c5.136,0,9.272-4.856,9.272-10.146
			c0-4.196-2.506-6.821-6.734-6.821c-5.137,0-9.272,4.857-9.272,10.146C229.239,154.884,231.744,157.503,235.973,157.503
			 M209.45,157.474c4.534,0,7.069-2.833,8.124-6.73l2.991-11.268l1.057-1.305l1.663-0.301l0.575-2.109h-10.152l-0.574,2.109
			l2.146,0.301l0.333,1.305l-3.144,11.752c-0.603,2.205-1.69,3.471-3.414,3.471c-1.115,0-1.9-0.48-2.294-1.176l1.994-1.721
			c0.572-1.331-0.244-2.692-1.842-2.692c-1.871,0-3.29,1.938-3.29,3.961C203.625,155.968,206.464,157.474,209.45,157.474"/>
	</g>
	<g display="inline">
		<defs>
			<rect id="SVGID_7_" x="203.625" y="0.054" width="295.875" height="162.281"/>
		</defs>
		<clipPath id="SVGID_8_">
			<use xlink:href="#SVGID_7_"  overflow="visible"/>
		</clipPath>
		<path clip-path="url(#SVGID_8_)" fill="#EC1B2E" d="M347.786,20.001v2.501c0,0.695,0.368,1.097,1.096,1.097h6.938
			c0.601,0,0.9-0.3,0.9-0.897v-0.065c0-0.569-0.3-0.901-0.9-0.901h-6.07v-1.6c0-1.636,0.266-2.371,1.235-3.604l3.972-5.002
			c1.263-1.538,1.63-2.804,1.63-4.34V4.05c0-2.635-1.33-3.996-3.999-3.996h-0.737c-2.669,0-4,1.361-4,3.996v3.503
			c0,0.633,0.333,0.966,0.931,0.966h0.066c0.602,0,0.935-0.333,0.935-0.966v-3.6c0-1.368,0.701-2.034,2.101-2.034h0.605
			c1.399,0,2.101,0.666,2.101,2.034V7.49c0,1.031-0.301,1.835-1.101,2.833l-3.973,4.973
			C348.153,16.997,347.786,18.166,347.786,20.001"/>
	</g>
</g>
<line display="none" fill="none" stroke="#231F20" stroke-width="0.5" x1="335.458" y1="81.97" x2="368.812" y2="81.97"/>
<g display="none">
	<g display="inline">
		<defs>
			<rect id="SVGID_9_" x="134.378" y="-0.073" width="439.122" height="162.084"/>
		</defs>
		<clipPath id="SVGID_10_">
			<use xlink:href="#SVGID_9_"  overflow="visible"/>
		</clipPath>
		<path clip-path="url(#SVGID_10_)" fill="#231F20" d="M561.011,153.595c-0.812,0-1.235-0.809-1.235-2.139
			c0-4.317,2.472-8.301,4.768-8.301c0.908,0,1.604,0.426,2.411,1.271l-1.113,4.46c-0.303,1.18-0.842,2.11-2.169,3.261
			C562.427,153.207,561.704,153.595,561.011,153.595 M566.506,157.067l4.461-0.638l0.361-1.322c-2.264-0.55-2.531-0.848-2.205-2.119
			l4.377-17.344v-1.562h-6.756l-0.449,1.744l1.804,0.332l0.634,1.266l-0.78,3.021l-0.332,1.988l-0.152,0.027
			c-1.025-1.142-2.017-1.987-4.189-1.987c-3.835,0-8.145,5.161-8.145,11.25c0,3.384,1.294,5.372,3.705,5.372
			c2.114,0,3.8-1.809,6.069-4.555l0.238,0.121c-0.238,0.875-0.391,1.866-0.391,2.381
			C564.756,156.041,565.479,156.675,566.506,157.067 M535.247,153.444c-0.813,0-1.269-0.483-1.269-1.75
			c0-4.163,2.778-8.834,5.706-8.834c0.661,0,1.267,0.332,1.596,0.78l-0.962,4.1c-0.304,1.266-1.088,2.719-2.264,3.86
			C536.786,152.843,535.944,153.444,535.247,153.444 M540.619,157.067l4.284-0.638l0.36-1.322c-2.264-0.55-2.538-0.883-2.206-2.119
			l3.349-12.449l-1.143-0.246l-1.568,1.086c-0.969-0.658-1.901-1.113-3.623-1.113c-4.611,0-10.735,5.398-10.735,12.275
			c0,3.072,1.511,4.83,3.919,4.555c2.081-0.238,3.803-2.168,6.037-5.19l0.241,0.123l-0.365,1.267
			c-0.151,0.549-0.296,1.148-0.296,1.75C538.873,156.041,539.592,156.675,540.619,157.067 M515.307,142.281
			c1.212,0,1.688,0.875,1.688,1.844c0,3.203-3.376,4.252-6.247,4.678C511.291,145.664,512.893,142.281,515.307,142.281
			 M511.956,157.153c2.477,0,4.858-1.235,6.969-2.854l-0.961-1.541c-1.69,1.086-3.231,1.722-4.591,1.722
			c-2.354,0-2.806-1.872-2.806-3.563v-0.543c7.332-0.455,10.562-2.719,10.562-6.065c0-2.624-2.232-4.069-5.249-4.069
			c-5.465,0-9.832,5.098-9.832,10.707C506.049,154.296,508.124,157.153,511.956,157.153 M474.039,156.705h9.743l0.482-1.836
			l-1.753-0.334l-0.329-1.236l1.627-6.094h6.396l-1.631,6.094l-0.994,1.236l-1.629,0.334l-0.479,1.836h9.738l0.546-2.111
			l-1.811-0.295l-0.333-1.303l3.68-13.815l1.059-1.302l1.688-0.305l0.542-2.104h-9.741l-0.484,1.836l1.754,0.333l0.324,1.235
			l-1.504,5.676h-6.397l1.511-5.676l0.998-1.235l1.626-0.333l0.481-1.836h-9.742l-0.542,2.104l1.807,0.305l0.333,1.302l-3.68,13.815
			l-1.057,1.303l-1.69,0.295L474.039,156.705z M449.312,142.281c1.203,0,1.688,0.875,1.688,1.844c0,3.203-3.381,4.252-6.248,4.678
			C445.297,145.664,446.895,142.281,449.312,142.281 M445.959,157.153c2.476,0,4.861-1.235,6.973-2.854l-0.965-1.541
			c-1.688,1.086-3.229,1.722-4.588,1.722c-2.353,0-2.809-1.872-2.809-3.563v-0.543c7.335-0.455,10.56-2.719,10.56-6.065
			c0-2.624-2.229-4.069-5.241-4.069c-5.466,0-9.837,5.098-9.837,10.707C440.052,154.296,442.13,157.153,445.959,157.153
			 M425.479,157.067l4.795-0.638l0.36-1.322c-2.263-0.55-2.531-0.848-2.205-2.111l2.147-8.023c0.72-2.684-0.274-4.68-2.838-4.68
			c-2.291,0-3.586,1.664-6.029,5.01l-0.214-0.094l0.998-2.861l1.659-6.702v-1.562h-6.761l-0.451,1.744l1.808,0.33l0.636,1.268
			l-4.801,19.281h4.349l1.869-7.635c0.333-1.389,0.817-2.293,2.174-3.65c1.116-1.114,1.539-1.447,2.2-1.447
			c0.729,0,1.236,0.456,0.911,1.627l-2.146,7.91c-0.152,0.6-0.211,1.02-0.211,1.539
			C423.729,156.041,424.453,156.675,425.479,157.067 M399.229,157.067c1.871,0,3.593-0.544,5.068-1.418l-0.329-1.778
			c-0.785,0.334-1.479,0.514-2.055,0.514c-1.056,0-1.601-0.391-1.601-1.235c0-0.42,0.095-0.875,0.246-1.446l2.289-8.545h4.313
			l0.636-2.438h-4.316l1.18-4.316h-2.685l-2.864,4.164l-2.625,0.754l-0.48,1.836h2.502l-2.413,9.08
			c-0.184,0.645-0.358,1.389-0.358,2.061C395.735,155.982,396.908,157.067,399.229,157.067 M366.27,157.182
			c3.86,0,6.333-2.019,6.333-5.062c0-2.141-1.357-3.441-3.886-5.039c-2.146-1.359-2.874-1.996-2.874-2.985
			c0-0.875,0.756-1.902,2.511-1.902c0.48,0,1.447,0.115,2.08,0.571l-0.392,1.779c0.509,0.875,1.296,1.388,2.321,1.388
			c0.995,0,1.809-0.78,1.809-1.96c0-2.018-3.017-3.736-6.094-3.736c-3.86,0-6.093,2.045-6.093,4.973
			c0,1.902,1.145,3.291,3.856,4.953c2.114,1.295,2.903,2.074,2.903,2.957c0,1.236-1.148,2.111-2.629,2.111
			c-0.967,0-2.051-0.273-2.836-0.788l0.545-1.808c-0.515-0.969-1.329-1.482-2.232-1.482c-1.054,0-1.81,0.848-1.81,1.967
			C359.784,155.591,363.374,157.182,366.27,157.182 M346.51,142.281c1.206,0,1.692,0.875,1.692,1.844
			c0,3.203-3.383,4.252-6.248,4.678C342.494,145.664,344.096,142.281,346.51,142.281 M343.159,157.153
			c2.473,0,4.859-1.235,6.972-2.854l-0.967-1.541c-1.688,1.086-3.229,1.722-4.586,1.722c-2.355,0-2.808-1.872-2.808-3.563v-0.543
			c7.333-0.455,10.558-2.719,10.558-6.065c0-2.624-2.229-4.069-5.245-4.069c-5.464,0-9.834,5.098-9.834,10.707
			C337.249,154.296,339.329,157.153,343.159,157.153 M322.315,157.067l4.673-0.638l0.36-1.322c-2.261-0.55-2.536-0.848-2.201-2.119
			l2.956-10.707v-1.562h-6.726l-0.48,1.742l1.806,0.334l0.604,1.265l-2.531,9.233c-0.152,0.513-0.241,1.148-0.241,1.662
			C320.535,155.946,321.291,156.675,322.315,157.067 M326.599,138.66c1.657,0,2.982-1.533,2.982-2.922c0-1.388-0.965-2.32-2.38-2.32
			c-1.657,0-2.986,1.533-2.986,2.92C324.215,137.726,325.181,138.66,326.599,138.66 M293.443,156.705h16.076l1.903-7.057h-2.536
			l-1.325,3.348l-2.172,1.209h-4.043l4.043-15.024l1.025-1.302l2.292-0.305l0.572-2.104h-10.465l-0.544,2.104l1.811,0.305
			l0.333,1.302l-3.68,13.815l-1.057,1.303l-1.688,0.295L293.443,156.705z M258.099,162.011c2.865,0.027,6.607-2.264,10.44-6.754
			c3.105-3.613,5.514-8.082,5.545-11.221c0.032-2.234-1.056-3.716-2.773-3.744c-1.567-0.028-2.503,1.301-2.503,2.654
			c-0.029,0.672,0.183,1.301,0.515,1.812l1.777,0.637c-0.452,2.684-2.081,6.001-4.284,8.684h-0.661l0.151-3.824l-1.48-9.537h-5.853
			l-0.483,1.742l2.175,0.607l2.413,14.635c-1.025,0.902-1.992,1.416-3.291,1.871l-0.693-1.785c-2.021-0.752-3.861,0.246-3.89,1.873
			C255.205,161.048,256.258,161.983,258.099,162.011 M241.985,157.182c3.864,0,6.333-2.019,6.333-5.062
			c0-2.141-1.354-3.441-3.886-5.039c-2.144-1.359-2.869-1.996-2.869-2.985c0-0.875,0.755-1.902,2.505-1.902
			c0.487,0,1.448,0.115,2.081,0.571l-0.392,1.779c0.515,0.875,1.296,1.388,2.321,1.388c0.996,0,1.811-0.78,1.811-1.96
			c0-2.018-3.017-3.736-6.089-3.736c-3.865,0-6.093,2.045-6.093,4.973c0,1.902,1.144,3.291,3.857,4.953
			c2.113,1.295,2.897,2.074,2.897,2.957c0,1.236-1.146,2.111-2.628,2.111c-0.965,0-2.049-0.273-2.83-0.788l0.54-1.808
			c-0.511-0.969-1.326-1.482-2.228-1.482c-1.06,0-1.812,0.848-1.812,1.967C235.503,155.591,239.091,157.182,241.985,157.182
			 M216.462,153.444c-0.813,0-1.265-0.483-1.265-1.75c0-4.163,2.776-8.834,5.704-8.834c0.664,0,1.266,0.332,1.596,0.78l-0.964,4.1
			c-0.304,1.266-1.084,2.719-2.261,3.86C218.002,152.843,217.158,153.444,216.462,153.444 M221.833,157.067l4.284-0.638l0.361-1.322
			c-2.261-0.55-2.536-0.883-2.201-2.119l3.346-12.449l-1.145-0.246l-1.569,1.086c-0.967-0.658-1.899-1.113-3.617-1.113
			c-4.62,0-10.738,5.398-10.738,12.275c0,3.072,1.506,4.83,3.917,4.555c2.084-0.238,3.805-2.168,6.038-5.19l0.24,0.123l-0.363,1.267
			c-0.148,0.549-0.3,1.148-0.3,1.75C220.086,156.041,220.809,156.675,221.833,157.067 M196.525,142.281
			c1.208,0,1.688,0.875,1.688,1.844c0,3.203-3.38,4.252-6.248,4.678C192.51,145.664,194.109,142.281,196.525,142.281
			 M193.171,157.153c2.476,0,4.86-1.235,6.971-2.854l-0.963-1.541c-1.688,1.086-3.229,1.722-4.585,1.722
			c-2.355,0-2.811-1.872-2.811-3.563v-0.543c7.338-0.455,10.561-2.719,10.561-6.065c0-2.624-2.232-4.069-5.245-4.069
			c-5.464,0-9.834,5.098-9.834,10.707C187.264,154.296,189.345,157.153,193.171,157.153 M172.631,157.067l4.793-0.638l0.364-1.322
			c-2.262-0.55-2.537-0.848-2.204-2.111l2.143-8.023c0.722-2.684-0.272-4.68-2.835-4.68c-2.29,0-3.586,1.664-6.033,5.01
			l-0.181-0.094l0.696-2.869v-1.619h-6.396l-0.481,1.742l1.81,0.332l0.604,1.266l-3.38,12.646h4.345l2.023-7.636
			c0.357-1.388,0.873-2.292,2.232-3.649c1.114-1.114,1.536-1.447,2.201-1.447c0.724,0,1.236,0.456,0.904,1.627l-2.144,7.91
			c-0.148,0.6-0.211,1.02-0.211,1.539C170.879,156.041,171.606,156.675,172.631,157.067 M141.615,157.153
			c3.982,0,7.21-1.952,8.418-6.515l3.045-11.459l1.026-1.301l1.688-0.305l0.573-2.105h-7.962l-0.515,1.837l1.932,0.333l0.331,1.236
			l-2.955,10.981c-0.784,2.929-2.202,4.347-4.557,4.347c-1.932,0-3.316-0.818-3.316-2.625c0-0.486,0.089-0.998,0.24-1.599
			l2.955-11.104l0.995-1.236l1.963-0.333l0.515-1.837h-10.077l-0.569,2.105l1.806,0.305l0.363,1.301l-2.744,10.137
			c-0.211,0.788-0.392,1.684-0.392,2.355C134.378,155.048,136.939,157.153,141.615,157.153"/>
	</g>
	<g display="inline">
		<defs>
			<rect id="SVGID_11_" x="134.378" y="-0.073" width="439.122" height="162.084"/>
		</defs>
		<clipPath id="SVGID_12_">
			<use xlink:href="#SVGID_11_"  overflow="visible"/>
		</clipPath>
		<path clip-path="url(#SVGID_12_)" fill="#EC1B2E" d="M352.793,21.78h-0.801c-1.436,0-2.169-0.698-2.169-2.129v-2.936
			c0-0.601-0.329-0.937-0.93-0.937h-0.066c-0.598,0-0.934,0.336-0.934,0.937v2.899c0,2.668,1.335,4.027,4.032,4.027h0.933
			c2.766,0,4.095-1.396,4.095-4.092v-4.934c0-1.866-0.73-2.831-2.162-3.229c1.332-0.433,2.095-1.463,2.095-3.531V3.987
			c0-2.665-1.328-4.06-4.094-4.06h-0.767c-2.732,0-4.065,1.396-4.065,4.06v2.432c0,0.604,0.333,0.937,0.933,0.937h0.066
			c0.6,0,0.929-0.332,0.929-0.937V3.921c0-1.435,0.738-2.132,2.103-2.132h0.801c1.399,0,2.099,0.698,2.099,2.132v4.4
			c0,1.533-0.731,2.299-2.231,2.299h-1.632c-0.569,0-0.904,0.3-0.904,0.896v0.065c0,0.567,0.335,0.868,0.904,0.868h1.697
			c1.499,0,2.233,0.767,2.233,2.299v4.902C354.959,21.082,354.259,21.78,352.793,21.78"/>
	</g>
</g>
<line display="none" fill="none" stroke="#231F20" stroke-width="0.5" x1="335.819" y1="81.746" x2="369.135" y2="81.746"/>
<g display="none">
	<g display="inline">
		<defs>
			<rect id="SVGID_13_" x="294.141" y="-0.073" width="119.613" height="162.083"/>
		</defs>
		<clipPath id="SVGID_14_">
			<use xlink:href="#SVGID_13_"  overflow="visible"/>
		</clipPath>
		<path clip-path="url(#SVGID_14_)" fill="#231F20" d="M402.24,158.183c-0.841,0-1.312-0.5-1.312-1.807
			c0-4.295,2.868-9.121,5.887-9.121c0.688,0,1.307,0.344,1.648,0.812l-0.997,4.229c-0.31,1.312-1.118,2.806-2.334,3.99
			C403.83,157.565,402.954,158.183,402.24,158.183 M407.781,161.919l4.419-0.655l0.369-1.373c-2.332-0.56-2.61-0.896-2.271-2.17
			l3.455-12.854l-1.185-0.252l-1.614,1.118c-0.996-0.688-1.964-1.147-3.736-1.147c-4.762,0-11.078,5.562-11.078,12.666
			c0,3.178,1.555,4.975,4.045,4.699c2.146-0.246,3.923-2.246,6.229-5.357l0.248,0.129l-0.375,1.305
			c-0.154,0.561-0.309,1.188-0.309,1.805C405.979,160.862,406.724,161.518,407.781,161.919 M373.172,161.546h11.979l0.591-2.178
			l-2.828-0.312l-0.346-1.335l4.854-18.089l-0.34-0.463l-8.776,2.08l-0.561,2.029h3.08l0.375,1.336l-3.518,13.105l-1.058,1.335
			l-2.864,0.313L373.172,161.546z M355.302,159.026c-1.123,0-1.807-0.499-1.807-1.215c0-0.246,0.062-0.709,0.156-1.089l0.871-3.61
			c0.277-1.217,0.87-2.179,2.211-3.364c1.275-1.148,2.023-1.492,2.741-1.492c1.027,0,1.308,1.148,1.308,2.305
			C360.783,154.423,358.728,159.026,355.302,159.026 M353.961,162.009c6.011,0,11.611-5.75,11.611-11.979
			c0-3.482-1.398-5.378-3.89-5.378c-2.176,0-3.922,1.864-6.225,4.69l-0.253-0.119l0.906-2.491l1.71-6.914v-1.612h-6.97l-0.467,1.799
			l1.863,0.343l0.655,1.313l-3.793,15.312c-0.157,0.65-0.284,1.492-0.284,1.926C348.828,160.617,350.448,162.009,353.961,162.009
			 M327.91,158.183c-0.839,0-1.31-0.5-1.31-1.807c0-4.295,2.868-9.121,5.89-9.121c0.685,0,1.306,0.344,1.646,0.812l-0.994,4.229
			c-0.312,1.312-1.122,2.806-2.337,3.99C329.499,157.565,328.628,158.183,327.91,158.183 M333.452,161.919l4.42-0.655l0.369-1.373
			c-2.333-0.56-2.613-0.896-2.269-2.17l3.452-12.854l-1.184-0.252l-1.615,1.118c-0.998-0.688-1.96-1.147-3.736-1.147
			c-4.763,0-11.079,5.562-11.079,12.666c0,3.178,1.554,4.975,4.046,4.699c2.146-0.246,3.922-2.246,6.229-5.357l0.248,0.129
			l-0.375,1.305c-0.157,0.561-0.31,1.188-0.31,1.805C331.649,160.862,332.395,161.518,333.452,161.919 M294.141,161.546h16.585
			l1.959-7.279h-2.611l-1.371,3.454l-2.238,1.245h-4.171l4.171-15.508l1.059-1.336l2.363-0.312l0.592-2.178H299.68l-0.558,2.178
			l1.867,0.312l0.339,1.336l-3.795,14.263l-1.089,1.335l-1.742,0.312L294.141,161.546z"/>
	</g>
	<g display="inline">
		<defs>
			<rect id="SVGID_15_" x="294.141" y="-0.073" width="119.613" height="162.083"/>
		</defs>
		<clipPath id="SVGID_16_">
			<use xlink:href="#SVGID_15_"  overflow="visible"/>
		</clipPath>
		<path clip-path="url(#SVGID_16_)" fill="#EC1B2E" d="M356.5,2.986v14.438h-4.984L356.5,2.986z M349.934,16.599
			c-0.171,0.482-0.273,0.757-0.273,1.306v0.209c0,0.716,0.412,1.13,1.134,1.13h5.706v3.987c0,0.582,0.31,0.891,0.89,0.891h0.068
			c0.583,0,0.894-0.31,0.894-0.891v-3.987h1.308c0.55,0,0.857-0.31,0.857-0.896v-0.067c0-0.548-0.308-0.857-0.857-0.857h-1.308
			V1.061c0-0.719-0.412-1.133-1.13-1.133h-0.651c-0.518,0-0.895,0.243-1.066,0.757L349.934,16.599z"/>
	</g>
</g>
<line display="none" fill="none" stroke="#231F20" stroke-width="0.5" x1="337.695" y1="84.208" x2="372.068" y2="84.208"/>
<g display="none">
	<g display="inline">
		<defs>
			<rect id="SVGID_17_" x="252.28" width="203.217" height="161.955"/>
		</defs>
		<clipPath id="SVGID_18_">
			<use xlink:href="#SVGID_17_"  overflow="visible"/>
		</clipPath>
		<path clip-path="url(#SVGID_18_)" fill="#231F20" d="M448.191,161.828l4.695-0.647l0.373-1.364
			c-2.109-0.408-2.52-0.753-2.953-1.968l-2.176-6.121l4.815-4.392l2.058-0.59l0.492-1.772h-5.159l-1.461,3.421l-3.608,3.676
			l-1.37,1.461l-0.219-0.154l1-2.58l2.706-11.051v-1.615h-6.971l-0.462,1.804l1.863,0.342l0.647,1.306l-4.941,19.883h4.479
			l1.305-5.321l1.491-1.365l1.498,4.759C446.671,160.778,447.229,161.396,448.191,161.828 M414.999,161.462h4.481l1.744-6.537
			c0.708-2.67,2.169-4.758,3.98-6.219l1.431,1.401c1.827-0.099,3.514-1.401,3.514-3.267c0-1.245-0.844-2.243-2.147-2.243
			c-1.491,0-2.676,1.215-5.569,5.472l-0.186-0.09l0.842-3.332v-1.677h-6.599l-0.492,1.804l1.864,0.344l0.626,1.305L414.999,161.462z
			 M394.622,158.1c-0.84,0-1.307-0.499-1.307-1.804c0-4.295,2.862-9.119,5.883-9.119c0.683,0,1.305,0.345,1.65,0.812l-0.999,4.229
			c-0.31,1.305-1.118,2.803-2.334,3.98C396.208,157.474,395.34,158.1,394.622,158.1 M400.16,161.828l4.417-0.647l0.373-1.364
			c-2.334-0.566-2.613-0.908-2.271-2.184l3.455-12.848l-1.185-0.246l-1.618,1.119c-0.995-0.686-1.961-1.146-3.729-1.146
			c-4.767,0-11.074,5.561-11.074,12.658c0,3.168,1.553,4.973,4.039,4.695c2.148-0.253,3.924-2.242,6.224-5.353l0.249,0.127
			l-0.369,1.305c-0.156,0.56-0.312,1.179-0.312,1.806C398.359,160.778,399.105,161.425,400.16,161.828 M369.802,150.265l2.177-8.127
			h0.9c2.336,0,3.643,1.119,3.643,3.146c0,3.176-2.396,4.979-5.975,4.979L369.802,150.265L369.802,150.265z M359.347,161.462h10.765
			l0.592-2.176l-2.521-0.313l-0.343-1.335l1.274-4.831h0.839c8.216,0,11.976-3.601,11.976-7.709c0-3.824-3.233-5.539-8.333-5.539
			h-8.71l-0.561,2.177l1.866,0.312l0.343,1.334l-3.797,14.256l-1.088,1.335l-1.742,0.313L359.347,161.462z M333.257,161.828
			l4.943-0.647l0.375-1.364c-2.334-0.566-2.611-0.872-2.272-2.184l2.21-8.27c0.748-2.773-0.279-4.824-2.924-4.824
			c-2.364,0-3.698,1.709-6.218,5.168l-0.187-0.097l0.715-2.961v-1.677h-6.593l-0.501,1.804l1.867,0.343l0.623,1.305l-3.485,13.039
			h4.481l2.083-7.871c0.375-1.434,0.902-2.364,2.302-3.766c1.154-1.156,1.588-1.498,2.272-1.498c0.747,0,1.273,0.469,0.936,1.685
			l-2.211,8.149c-0.156,0.625-0.218,1.059-0.218,1.588C331.455,160.778,332.2,161.425,333.257,161.828 M307.312,146.589
			c1.242,0,1.744,0.902,1.744,1.894c0,3.304-3.486,4.392-6.442,4.831C303.174,150.071,304.822,146.589,307.312,146.589
			 M303.857,161.925c2.553,0,5.012-1.275,7.188-2.952l-0.997-1.589c-1.741,1.119-3.329,1.773-4.729,1.773
			c-2.428,0-2.895-1.93-2.895-3.668v-0.559c7.562-0.471,10.887-2.803,10.887-6.264c0-2.705-2.298-4.188-5.408-4.188
			c-5.635,0-10.142,5.248-10.142,11.041C297.762,158.973,299.905,161.925,303.857,161.925 M282.363,161.828l4.973-0.647l0.375-1.364
			c-2.427-0.566-2.707-0.939-2.397-2.184l4.48-17.887v-1.617h-6.965l-0.466,1.805l1.862,0.342l0.654,1.307l-3.917,15.707
			c-0.216,0.939-0.401,1.746-0.401,2.461C280.561,160.778,281.306,161.425,282.363,161.828 M260.739,161.955
			c2.175,0,4.946-0.932,7.092-2.394l1.526-5.665l0.84-1.051l1.396-0.471l0.47-1.768h-9.397l-0.526,2.014l2.052,0.379l0.341,1.275
			l-1.215,4.48c-0.773,0.439-1.334,0.625-2.271,0.625c-2.177,0-3.295-1.899-3.295-4.732c0-6.628,3.766-12.884,7.685-12.884
			c1.057,0,1.897,0.313,2.52,0.843l0.405,3.922h2.674l1.989-7.373h-1.243l-1.835,1.088c-0.994-0.617-2.237-1.146-4.291-1.146
			c-6.876,0-13.375,6.404-13.375,14.492C252.28,159.287,256.229,161.955,260.739,161.955"/>
	</g>
	<g display="inline">
		<defs>
			<rect id="SVGID_19_" x="252.28" width="203.217" height="161.955"/>
		</defs>
		<clipPath id="SVGID_20_">
			<use xlink:href="#SVGID_19_"  overflow="visible"/>
		</clipPath>
		<path clip-path="url(#SVGID_20_)" fill="#EC1B2E" d="M353.562,9.103c-1.512,0-2.443,0.619-3.337,1.368V1.916h5.878
			c0.615,0,0.925-0.343,0.925-0.925V0.92c0-0.615-0.311-0.924-0.925-0.924h-6.63c-0.757,0-1.135,0.414-1.135,1.133v10.684
			c0,0.515,0.276,0.824,0.826,0.824h0.412c0.305,0,0.579-0.071,0.819-0.31c0.894-0.858,1.688-1.342,2.719-1.342
			c1.34,0,2.026,0.791,2.026,2.304v6.841c0,1.476-0.756,2.199-2.198,2.199h-0.551c-1.479,0-2.2-0.723-2.2-2.199v-3.475
			c0-0.619-0.346-0.961-0.958-0.961h-0.069c-0.654,0-0.997,0.342-0.997,0.961v3.439c0,2.748,1.374,4.153,4.123,4.153h0.722
			c2.783,0,4.188-1.438,4.188-4.224v-7.112C357.2,10.504,355.761,9.103,353.562,9.103"/>
	</g>
</g>
<line display="none" fill="none" stroke="#231F20" stroke-width="0.5" x1="335.439" y1="84.166" x2="369.794" y2="84.166"/>
<g display="none">
	<g display="inline">
		<defs>
			<rect id="SVGID_21_" x="214.473" y="0.032" width="278.531" height="162.303"/>
		</defs>
		<clipPath id="SVGID_22_">
			<use xlink:href="#SVGID_21_"  overflow="visible"/>
		</clipPath>
		<path clip-path="url(#SVGID_22_)" fill="#231F20" d="M484.319,161.882c5.548-3.719,8.685-7.896,8.685-13.805
			c0-5.918-3.137-10.09-8.685-13.808l-0.946,1.213c3.843,3.507,5.154,7.377,5.154,12.595c0,5.215-1.312,9.086-5.154,12.584
			L484.319,161.882z M460.728,158.435h4.389l1.709-6.398c0.701-2.623,2.133-4.66,3.899-6.093l1.399,1.366
			c1.801-0.088,3.444-1.366,3.444-3.199c0-1.221-0.822-2.191-2.104-2.191c-1.461,0-2.618,1.19-5.456,5.361l-0.176-0.088l0.822-3.266
			v-1.643h-6.462l-0.489,1.76l1.83,0.344l0.609,1.277L460.728,158.435z M442.375,156.705c-1.344,0-2.013-1.19-2.013-3.508
			c0-4.265,2.078-9.182,4.7-9.182c1.433,0,2.037,1.189,2.037,3.514C447.101,151.824,445.062,156.705,442.375,156.705
			 M442.44,158.923c5.184,0,9.351-4.908,9.351-10.24c0-4.236-2.527-6.889-6.79-6.889c-5.188,0-9.357,4.9-9.357,10.242
			C435.644,156.273,438.171,158.923,442.44,158.923 M413.455,158.435h4.384l1.709-6.398c0.701-2.623,2.133-4.66,3.9-6.093
			l1.401,1.366c1.799-0.088,3.445-1.366,3.445-3.199c0-1.221-0.823-2.191-2.107-2.191c-1.462,0-2.615,1.19-5.449,5.361l-0.188-0.088
			l0.822-3.266v-1.643h-6.458l-0.489,1.76l1.826,0.344l0.614,1.277L413.455,158.435z M391.17,158.435h4.387l1.709-6.398
			c0.7-2.623,2.135-4.66,3.9-6.093l1.399,1.366c1.8-0.088,3.445-1.366,3.445-3.199c0-1.221-0.823-2.191-2.102-2.191
			c-1.463,0-2.623,1.19-5.457,5.361l-0.181-0.088l0.822-3.266v-1.643h-6.463l-0.484,1.76l1.826,0.344l0.61,1.277L391.17,158.435z
			 M377.025,143.862c1.219,0,1.711,0.892,1.711,1.863c0,3.235-3.416,4.302-6.313,4.726
			C372.973,147.281,374.587,143.862,377.025,143.862 M373.641,158.896c2.502,0,4.91-1.25,7.043-2.895l-0.973-1.556
			c-1.709,1.095-3.266,1.738-4.637,1.738c-2.38,0-2.836-1.892-2.836-3.601v-0.549c7.408-0.453,10.671-2.746,10.671-6.129
			c0-2.65-2.256-4.113-5.304-4.113c-5.521,0-9.935,5.15-9.935,10.818C367.672,156.001,369.77,158.896,373.641,158.896
			 M342.737,162.335h13.498l0.579-2.096h-13.527L342.737,162.335z M331.55,158.8l4.874-0.637l0.366-1.344
			c-2.378-0.548-2.652-0.912-2.349-2.133l4.39-17.531v-1.578h-6.824l-0.457,1.76l1.825,0.345l0.641,1.278l-3.839,15.391
			c-0.211,0.914-0.396,1.703-0.396,2.411C329.78,157.763,330.515,158.406,331.55,158.8 M307.289,158.435h4.387l1.706-6.398
			c0.703-2.623,2.135-4.66,3.901-6.093l1.401,1.366c1.8-0.088,3.444-1.366,3.444-3.199c0-1.221-0.822-2.191-2.104-2.191
			c-1.464,0-2.619,1.19-5.453,5.361l-0.184-0.088l0.822-3.266v-1.643h-6.459l-0.49,1.76l1.83,0.344l0.608,1.277L307.289,158.435z
			 M285.461,158.858c2.315,0,3.658-1.673,6.126-5.054l0.183,0.095l-0.302,1.249c-0.124,0.549-0.214,1.096-0.214,1.613
			c0,1.002,0.729,1.645,1.764,2.039l4.511-0.637l0.363-1.344c-2.285-0.548-2.559-0.854-2.227-2.133l3.326-12.402h-4.39l-2.039,7.705
			c-0.367,1.41-0.884,2.323-2.255,3.696c-1.131,1.125-1.556,1.461-2.23,1.461c-0.729,0-1.22-0.452-0.913-1.644l2.562-9.644v-1.577
			h-6.795l-0.489,1.762l1.828,0.342l0.61,1.279l-2.255,8.474C281.898,156.849,282.869,158.858,285.461,158.858 M264.547,158.858
			c2.195,0,4.208-0.905,6.22-2.308l-0.946-1.95c-1.766,0.913-2.772,1.276-3.779,1.276c-1.828,0-2.773-1.123-2.805-3.476
			c-0.089-3.995,2.013-8.168,4.907-8.168c0.491,0,0.793,0.117,1.13,0.366l-0.917,2.71c0.243,0.7,0.917,1.313,1.981,1.313
			c1.28,0,2.439-1.065,2.439-2.93c0-2.314-2.043-3.9-5.031-3.9c-4.6,0-9.414,4.728-9.414,10.791
			C258.334,156.974,261.196,158.858,264.547,158.858 M240.529,142.255c-0.031-1.805,1.525-2.93,3.63-2.93h0.095l-1.923,5.668
			C241.232,144.264,240.529,143.475,240.529,142.255 M244.13,152.802c0.029,2.316-1.862,3.324-4.086,3.324l2.042-6.012
			C243.248,150.816,244.101,151.583,244.13,152.802 M236.236,162.335h1.768l1.34-3.842c0.272,0,0.579,0.027,0.911,0.027
			c4.821,0,8.015-3.257,7.955-6.969c-0.059-3.146-2.495-4.579-4.629-5.799l2.195-6.305c0.486,0.088,0.853,0.211,1.25,0.395
			l-0.489,2.258c0.306,0.547,1.035,1.001,2.042,1.001c1.373,0,2.255-1.067,2.255-2.192c0-1.768-1.888-3.141-4.174-3.718l0.913-2.586
			h-1.764l-0.824,2.345c-0.183-0.029-0.367-0.029-0.546-0.029c-4.851,0-8.079,3.039-8.019,6.699c0.06,3.018,2.163,4.457,4.204,5.639
			c0.06,0.066,0.124,0.096,0.182,0.125l-2.284,6.648c-0.763-0.117-1.278-0.367-1.828-0.674l0.519-2.221
			c-0.366-0.555-1.065-1.008-1.981-1.008c-1.463,0-2.376,1.248-2.316,2.563c0.06,1.606,1.735,3.104,4.724,3.622L236.236,162.335z
			 M223.156,161.882l0.946-1.221c-3.841-3.498-5.154-7.369-5.154-12.584c0-5.218,1.313-9.088,5.154-12.595l-0.946-1.213
			c-5.546,3.718-8.686,7.89-8.686,13.808C214.471,153.986,217.61,158.166,223.156,161.882"/>
	</g>
	<g display="inline">
		<defs>
			<rect id="SVGID_23_" x="214.473" y="0.032" width="278.531" height="162.303"/>
		</defs>
		<clipPath id="SVGID_24_">
			<use xlink:href="#SVGID_23_"  overflow="visible"/>
		</clipPath>
		<path clip-path="url(#SVGID_24_)" fill="#EC1B2E" d="M351.246,19.96v-7.407c0.707-0.405,1.785-0.741,2.866-0.741
			c1.648,0,2.253,0.84,2.253,2.221v5.928c0,1.45-0.74,2.155-2.153,2.155H353.4C351.986,22.115,351.246,21.41,351.246,19.96
			 M358.312,13.663c0-2.155-1.239-3.733-3.799-3.733c-1.384,0.033-2.36,0.402-3.269,0.869V4.068c0-1.447,0.74-2.155,2.153-2.155
			h0.744c1.448,0,2.155,0.708,2.155,2.155V6.46c0,0.61,0.336,0.946,0.942,0.946h0.067c0.602,0,0.938-0.336,0.938-0.946V4.068
			c0-2.725-1.277-4.036-4.036-4.036h-0.812c-2.759,0-4.136,1.41-4.136,4.105v15.724c0,2.724,1.377,4.135,4.136,4.135h0.778
			c2.761,0,4.137-1.411,4.137-4.135V13.663L358.312,13.663z"/>
	</g>
</g>
<g display="none">
	<g display="inline">
		<defs>
			<rect id="SVGID_25_" x="214.77" y="-0.012" width="276.635" height="162.348"/>
		</defs>
		<clipPath id="SVGID_26_">
			<use xlink:href="#SVGID_25_"  overflow="visible"/>
		</clipPath>
		<path clip-path="url(#SVGID_26_)" fill="#231F20" d="M485.562,142.548c1.212,0,1.696,0.877,1.696,1.849
			c0,3.206-3.393,4.265-6.268,4.692C481.536,145.942,483.146,142.548,485.562,142.548 M482.203,157.47
			c2.479,0,4.876-1.24,6.988-2.879l-0.965-1.536c-1.695,1.087-3.239,1.718-4.604,1.718c-2.356,0-2.813-1.871-2.813-3.566v-0.545
			c7.356-0.455,10.591-2.726,10.591-6.082c0-2.633-2.236-4.082-5.262-4.082c-5.48,0-9.863,5.111-9.863,10.737
			C476.275,154.591,478.359,157.47,482.203,157.47 M455.039,157.223h4.05c4.633-3.806,8.409-8.315,8.409-12.826
			c0-2.537-1.115-3.843-2.838-3.843c-1.573,0-2.483,1.335-2.483,2.697c0,0.66,0.21,1.299,0.544,1.812l1.85,0.604
			c-0.243,2.602-2.334,5.604-5.09,8.17h-0.572l0.21-3.023l-0.362-9.832h-6.048l-0.485,1.748l2.154,0.609L455.039,157.223z
			 M436.852,157.376l4.69-0.64l0.362-1.334c-2.27-0.536-2.544-0.842-2.211-2.11l2.969-10.744v-1.566h-6.746l-0.481,1.748
			l1.812,0.334l0.604,1.27l-2.536,9.258c-0.152,0.516-0.243,1.152-0.243,1.668C435.071,156.259,435.829,156.985,436.852,157.376
			 M441.15,138.923c1.665,0,2.993-1.545,2.993-2.937c0-1.394-0.971-2.327-2.389-2.327c-1.663,0-2.998,1.545-2.998,2.937
			C438.758,137.98,439.729,138.923,441.15,138.923 M419.153,157.376c1.874,0,3.6-0.545,5.082-1.422l-0.334-1.783
			c-0.782,0.334-1.481,0.515-2.052,0.515c-1.065,0-1.605-0.392-1.605-1.239c0-0.428,0.091-0.878,0.242-1.457l2.299-8.564h4.328
			l0.632-2.442h-4.329l1.183-4.327h-2.689l-2.875,4.176l-2.632,0.754l-0.482,1.842h2.509l-2.421,9.115
			c-0.175,0.629-0.358,1.392-0.358,2.051C415.647,156.289,416.825,157.376,419.153,157.376 M399.975,157.376l4.686-0.64l0.364-1.334
			c-2.269-0.536-2.54-0.842-2.21-2.11l2.968-10.744v-1.566h-6.745l-0.484,1.748l1.817,0.334l0.601,1.27l-2.538,9.258
			c-0.148,0.516-0.24,1.152-0.24,1.668C398.19,156.259,398.946,156.985,399.975,157.376 M404.27,138.923
			c1.664,0,2.992-1.545,2.992-2.937c0-1.394-0.966-2.327-2.387-2.327c-1.663,0-2.992,1.545-2.992,2.937
			C401.883,137.98,402.849,138.923,404.27,138.923 M381.699,157.5c3.873,0,6.353-2.021,6.353-5.082c0-2.146-1.358-3.451-3.897-5.055
			c-2.153-1.363-2.881-2.002-2.881-2.994c0-0.885,0.758-1.906,2.516-1.906c0.484,0,1.452,0.115,2.087,0.572l-0.394,1.783
			c0.513,0.885,1.3,1.393,2.327,1.393c0.998,0,1.815-0.783,1.815-1.965c0-2.029-3.024-3.748-6.11-3.748
			c-3.871,0-6.109,2.051-6.109,4.987c0,1.907,1.15,3.3,3.868,4.96c2.123,1.305,2.911,2.096,2.911,2.973
			c0,1.24-1.151,2.117-2.639,2.117c-0.968,0-2.055-0.275-2.842-0.791l0.546-1.812c-0.517-0.972-1.328-1.485-2.238-1.485
			c-1.059,0-1.815,0.848-1.815,1.973C375.195,155.897,378.797,157.5,381.699,157.5 M357.707,155.294
			c-1.332,0-1.998-1.183-1.998-3.487c0-4.233,2.058-9.104,4.664-9.104c1.422,0,2.027,1.18,2.027,3.479
			C362.4,150.445,360.373,155.294,357.707,155.294 M357.767,157.5c5.146,0,9.288-4.873,9.288-10.166
			c0-4.203-2.509-6.836-6.744-6.836c-5.146,0-9.284,4.863-9.284,10.164C351.025,154.867,353.531,157.5,357.767,157.5
			 M332.174,146.125l2.119-7.903h0.877c2.268,0,3.542,1.095,3.542,3.06c0,3.09-2.333,4.844-5.811,4.844H332.174L332.174,146.125z
			 M322.011,157.013h10.468l0.575-2.117l-2.453-0.305l-0.332-1.299l1.24-4.689h0.817c7.983,0,11.646-3.51,11.646-7.504
			c0-3.721-3.145-5.381-8.107-5.381h-8.469l-0.546,2.109l1.816,0.305l0.33,1.299l-3.69,13.861l-1.057,1.299l-1.693,0.305
			L322.011,157.013z M286.562,162.335c2.876,0.029,6.627-2.264,10.469-6.772c3.114-3.632,5.534-8.104,5.565-11.252
			c0.029-2.241-1.059-3.72-2.78-3.757c-1.575-0.028-2.511,1.306-2.511,2.669c-0.033,0.659,0.18,1.298,0.513,1.812l1.786,0.633
			c-0.458,2.694-2.087,6.023-4.296,8.713h-0.667l0.152-3.842l-1.481-9.558h-5.87l-0.487,1.748l2.181,0.608l2.42,14.674
			c-1.028,0.908-1.998,1.423-3.297,1.873l-0.698-1.777c-2.026-0.761-3.872,0.239-3.901,1.87
			C283.66,161.373,284.716,162.306,286.562,162.335 M266.623,153.744c-0.815,0-1.272-0.479-1.272-1.754
			c0-4.177,2.788-8.859,5.721-8.859c0.669,0,1.269,0.324,1.604,0.781l-0.97,4.119c-0.301,1.27-1.087,2.719-2.268,3.871
			C268.167,153.142,267.317,153.744,266.623,153.744 M272.01,157.376l4.296-0.64l0.359-1.334c-2.268-0.536-2.54-0.868-2.208-2.11
			l3.358-12.492l-1.151-0.246l-1.57,1.089c-0.97-0.661-1.909-1.117-3.631-1.117c-4.629,0-10.769,5.408-10.769,12.312
			c0,3.09,1.51,4.845,3.932,4.568c2.086-0.24,3.812-2.177,6.054-5.199l0.241,0.115l-0.364,1.27
			c-0.152,0.545-0.301,1.152-0.301,1.755C270.257,156.346,270.982,156.985,272.01,157.376 M245.657,157.376
			c1.876,0,3.598-0.545,5.083-1.422l-0.333-1.783c-0.787,0.334-1.481,0.515-2.057,0.515c-1.057,0-1.605-0.392-1.605-1.239
			c0-0.428,0.091-0.878,0.243-1.457l2.3-8.564h4.325l0.634-2.442h-4.323l1.18-4.327h-2.695l-2.873,4.176l-2.628,0.754l-0.486,1.842
			h2.509l-2.416,9.115c-0.184,0.629-0.364,1.392-0.364,2.051C242.149,156.289,243.329,157.376,245.657,157.376 M223.539,157.347
			c4.905,0,8.167-3.292,8.108-7.076c-0.06-3.24-2.388-4.691-4.532-5.932c-1.791-1.029-3.453-1.914-3.486-3.518
			c-0.031-1.898,1.485-3.052,3.667-3.052c1.059,0,1.935,0.333,2.717,0.937l0.365,3.537h2.661l1.728-6.859h-1.211l-1.816,1.27
			c-1.361-0.761-2.813-1.27-4.899-1.27c-4.693,0-7.896,3.111-7.832,6.773c0.06,3.176,2.327,4.596,4.442,5.807
			c1.816,1.029,3.542,1.914,3.571,3.633c0.031,2.363-1.878,3.357-3.904,3.357c-1.512,0-2.628-0.449-3.627-1.088l-0.364-3.871h-2.601
			l-1.757,7.018h1.18l1.879-1.299C219.43,156.623,221.364,157.347,223.539,157.347"/>
	</g>
	<g display="inline">
		<defs>
			<rect id="SVGID_27_" x="214.77" y="-0.012" width="276.635" height="162.348"/>
		</defs>
		<clipPath id="SVGID_28_">
			<use xlink:href="#SVGID_27_"  overflow="visible"/>
		</clipPath>
		<path clip-path="url(#SVGID_28_)" fill="#EC1B2E" d="M357.125,2.29c0.102-0.467,0.201-0.87,0.201-1.269V0.924
			c0-0.602-0.301-0.936-0.936-0.936h-6.312c-0.603,0-0.868,0.301-0.868,0.903v0.065c0,0.598,0.266,0.899,0.868,0.899h5.242
			l-4.608,20.479c-0.167,0.703,0.169,1.105,0.87,1.105h0.065c0.502,0,0.769-0.235,0.869-0.703L357.125,2.29z"/>
	</g>
</g>
<line display="none" fill="none" stroke="#231F20" stroke-width="0.5" x1="336.697" y1="81.839" x2="370.107" y2="81.839"/>
<g display="none">
	<g display="inline">
		<defs>
			<rect id="SVGID_29_" x="213.068" y="-0.012" width="278.608" height="162.348"/>
		</defs>
		<clipPath id="SVGID_30_">
			<use xlink:href="#SVGID_29_"  overflow="visible"/>
		</clipPath>
		<path clip-path="url(#SVGID_30_)" fill="#231F20" d="M482.988,161.882c5.55-3.719,8.688-7.898,8.688-13.809
			c0-5.92-3.138-10.092-8.688-13.811l-0.947,1.214c3.844,3.508,5.157,7.379,5.157,12.597c0,5.217-1.313,9.088-5.157,12.588
			L482.988,161.882z M459.391,158.433h4.39l1.71-6.398c0.701-2.625,2.133-4.662,3.9-6.095l1.398,1.366
			c1.801-0.088,3.445-1.366,3.445-3.199c0-1.221-0.822-2.193-2.104-2.193c-1.462,0-2.62,1.19-5.459,5.362l-0.175-0.086l0.822-3.269
			v-1.644h-6.465l-0.487,1.763l1.831,0.344l0.607,1.277L459.391,158.433z M441.032,156.705c-1.344,0-2.015-1.193-2.015-3.51
			c0-4.268,2.08-9.186,4.703-9.186c1.433,0,2.039,1.191,2.039,3.518C445.761,151.824,443.722,156.705,441.032,156.705
			 M441.099,158.925c5.185,0,9.354-4.913,9.354-10.244c0-4.239-2.528-6.893-6.792-6.893c-5.19,0-9.36,4.902-9.36,10.244
			C434.299,156.271,436.828,158.925,441.099,158.925 M412.105,158.433h4.384l1.71-6.398c0.701-2.625,2.132-4.662,3.9-6.095
			l1.403,1.366c1.797-0.088,3.444-1.366,3.444-3.199c0-1.221-0.823-2.193-2.107-2.193c-1.462,0-2.617,1.19-5.452,5.362l-0.185-0.086
			l0.822-3.269v-1.644h-6.46l-0.49,1.763l1.828,0.344l0.611,1.277L412.105,158.433z M389.812,158.433h4.389l1.711-6.398
			c0.699-2.625,2.134-4.662,3.9-6.095l1.4,1.366c1.798-0.088,3.444-1.366,3.444-3.199c0-1.221-0.823-2.193-2.102-2.193
			c-1.465,0-2.625,1.19-5.46,5.362l-0.18-0.086l0.824-3.269v-1.644h-6.466l-0.485,1.763l1.83,0.344l0.607,1.277L389.812,158.433z
			 M375.666,143.856c1.218,0,1.711,0.894,1.711,1.866c0,3.234-3.417,4.302-6.315,4.727
			C371.61,147.276,373.226,143.856,375.666,143.856 M372.279,158.894c2.502,0,4.912-1.249,7.046-2.895l-0.976-1.556
			c-1.709,1.095-3.265,1.74-4.638,1.74c-2.38,0-2.836-1.894-2.836-3.603v-0.549c7.411-0.455,10.673-2.748,10.673-6.133
			c0-2.65-2.255-4.111-5.304-4.111c-5.522,0-9.938,5.15-9.938,10.821C366.31,156,368.407,158.894,372.279,158.894 M341.368,162.335
			h13.5l0.58-2.099h-13.531L341.368,162.335z M330.177,158.798l4.876-0.635l0.365-1.347c-2.379-0.547-2.652-0.913-2.35-2.132
			l4.392-17.536v-1.577h-6.826l-0.457,1.76l1.825,0.342l0.641,1.281l-3.839,15.396c-0.212,0.911-0.396,1.7-0.396,2.409
			C328.408,157.761,329.142,158.406,330.177,158.798 M305.91,158.433h4.387l1.706-6.398c0.704-2.625,2.135-4.662,3.902-6.095
			l1.402,1.366c1.8-0.088,3.446-1.366,3.446-3.199c0-1.221-0.823-2.193-2.106-2.193c-1.464,0-2.619,1.19-5.455,5.362l-0.184-0.086
			l0.822-3.269v-1.644h-6.461l-0.489,1.763l1.83,0.344l0.608,1.277L305.91,158.433z M284.075,158.86
			c2.316,0,3.659-1.675,6.129-5.058l0.182,0.094l-0.301,1.249c-0.125,0.55-0.213,1.099-0.213,1.614c0,1.002,0.729,1.646,1.765,2.039
			l4.512-0.635l0.364-1.347c-2.286-0.547-2.56-0.854-2.228-2.132l3.327-12.407h-4.391l-2.04,7.709
			c-0.366,1.41-0.883,2.323-2.255,3.695c-1.131,1.127-1.557,1.462-2.231,1.462c-0.729,0-1.22-0.451-0.913-1.645l2.562-9.646v-1.577
			h-6.797l-0.489,1.764l1.829,0.342l0.61,1.279l-2.255,8.477C280.511,156.847,281.483,158.86,284.075,158.86 M263.156,158.86
			c2.196,0,4.208-0.909,6.222-2.31l-0.946-1.952c-1.767,0.913-2.772,1.278-3.779,1.278c-1.829,0-2.775-1.125-2.807-3.479
			c-0.089-3.996,2.014-8.17,4.908-8.17c0.492,0,0.793,0.117,1.131,0.365l-0.917,2.712c0.244,0.702,0.917,1.315,1.983,1.315
			c1.28,0,2.44-1.066,2.44-2.932c0-2.316-2.044-3.9-5.033-3.9c-4.601,0-9.417,4.727-9.417,10.793
			C256.941,156.973,259.804,158.86,263.156,158.86 M239.131,142.25c-0.03-1.807,1.525-2.93,3.632-2.93h0.096l-1.924,5.668
			C239.835,144.259,239.131,143.468,239.131,142.25 M242.734,152.8c0.029,2.316-1.864,3.324-4.088,3.324l2.042-6.016
			C241.851,150.813,242.705,151.58,242.734,152.8 M234.836,162.335h1.768l1.341-3.844c0.272,0,0.579,0.03,0.912,0.03
			c4.823,0,8.018-3.261,7.957-6.972c-0.058-3.148-2.495-4.582-4.63-5.803l2.196-6.305c0.486,0.086,0.854,0.211,1.25,0.395
			l-0.489,2.259c0.306,0.548,1.035,0.999,2.042,0.999c1.374,0,2.257-1.067,2.257-2.191c0-1.77-1.89-3.141-4.176-3.72l0.913-2.584
			h-1.765l-0.824,2.345c-0.183-0.029-0.367-0.029-0.546-0.029c-4.852,0-8.082,3.039-8.021,6.699
			c0.061,3.018,2.163,4.459,4.206,5.641c0.06,0.065,0.124,0.095,0.183,0.125l-2.286,6.65c-0.764-0.119-1.278-0.367-1.828-0.674
			l0.518-2.223c-0.364-0.553-1.064-1.006-1.981-1.006c-1.463,0-2.376,1.25-2.317,2.563c0.061,1.604,1.735,3.104,4.727,3.623
			L234.836,162.335z M221.753,161.882l0.946-1.221c-3.841-3.5-5.154-7.371-5.154-12.588c0-5.218,1.312-9.089,5.154-12.597
			l-0.946-1.214c-5.546,3.719-8.687,7.891-8.687,13.811C213.066,153.984,216.207,158.164,221.753,161.882"/>
	</g>
	<g display="inline">
		<defs>
			<rect id="SVGID_31_" x="213.068" y="-0.012" width="278.608" height="162.348"/>
		</defs>
		<clipPath id="SVGID_32_">
			<use xlink:href="#SVGID_31_"  overflow="visible"/>
		</clipPath>
		<path clip-path="url(#SVGID_32_)" fill="#EC1B2E" d="M349.878,19.921v-7.409c0.707-0.405,1.785-0.741,2.867-0.741
			c1.647,0,2.254,0.84,2.254,2.221v5.93c0,1.451-0.74,2.156-2.154,2.156h-0.812C350.619,22.077,349.878,21.372,349.878,19.921
			 M356.948,13.623c0-2.155-1.24-3.733-3.8-3.733c-1.386,0.033-2.362,0.402-3.271,0.869V4.024c0-1.446,0.741-2.155,2.153-2.155
			h0.746c1.447,0,2.154,0.708,2.154,2.155v2.394c0,0.61,0.336,0.945,0.943,0.945h0.068c0.6,0,0.938-0.335,0.938-0.945V4.024
			c0-2.725-1.277-4.036-4.037-4.036h-0.812c-2.76,0-4.137,1.411-4.137,4.106v15.729c0,2.725,1.377,4.135,4.137,4.135h0.777
			c2.763,0,4.139-1.411,4.139-4.135L356.948,13.623L356.948,13.623z"/>
	</g>
</g>
<line display="none" fill="none" stroke="#231F20" stroke-width="0.5" x1="335.537" y1="82.675" x2="369.207" y2="82.675"/>
<g display="none">
	<g display="inline">
		<defs>
			<rect id="SVGID_33_" x="227.053" y="-0.471" width="265.168" height="162.807"/>
		</defs>
		<clipPath id="SVGID_34_">
			<use xlink:href="#SVGID_33_"  overflow="visible"/>
		</clipPath>
		<path clip-path="url(#SVGID_34_)" fill="#231F20" d="M479.663,154.062c-0.821,0-1.246-0.822-1.246-2.16
			c0-4.34,2.491-8.346,4.799-8.346c0.907,0,1.607,0.429,2.424,1.279l-1.121,4.485c-0.302,1.187-0.849,2.13-2.185,3.278
			C481.09,153.662,480.36,154.062,479.663,154.062 M485.186,157.542l4.489-0.64l0.363-1.329c-2.276-0.546-2.55-0.851-2.214-2.123
			l4.397-17.447v-1.571h-6.795l-0.455,1.753l1.82,0.334l0.637,1.279l-0.79,3.031l-0.331,2l-0.152,0.028
			c-1.029-1.149-2.032-1.991-4.216-1.991c-3.854,0-8.189,5.176-8.189,11.305c0,3.402,1.303,5.402,3.729,5.402
			c2.124,0,3.824-1.818,6.102-4.58l0.242,0.123c-0.242,0.879-0.396,1.883-0.396,2.391
			C483.428,156.511,484.153,157.152,485.186,157.542 M458.977,157.542l4.82-0.64l0.365-1.329c-2.276-0.546-2.55-0.851-2.216-2.123
			l2.155-8.07c0.726-2.696-0.275-4.703-2.853-4.703c-2.304,0-3.605,1.672-6.066,5.037l-0.18-0.094l0.695-2.879v-1.637h-6.432
			l-0.484,1.753l1.821,0.334l0.606,1.279l-3.398,12.708h4.369l2.032-7.678c0.361-1.396,0.879-2.305,2.244-3.672
			c1.122-1.119,1.545-1.453,2.216-1.453c0.727,0,1.243,0.451,0.909,1.636l-2.156,7.954c-0.148,0.604-0.212,1.031-0.212,1.541
			C457.216,156.511,457.943,157.152,458.977,157.542 M432.793,157.542l4.703-0.64l0.363-1.329c-2.275-0.546-2.55-0.851-2.216-2.123
			l2.976-10.773v-1.571h-6.764l-0.483,1.753l1.815,0.334l0.606,1.279l-2.547,9.285c-0.152,0.509-0.242,1.146-0.242,1.664
			C431.006,156.423,431.763,157.152,432.793,157.542 M437.104,139.042c1.669,0,3-1.549,3-2.944s-0.971-2.333-2.396-2.333
			c-1.663,0-2.999,1.548-2.999,2.943C434.707,138.097,435.678,139.042,437.104,139.042 M416.05,157.542l4.82-0.64l0.365-1.329
			c-2.277-0.546-2.551-0.851-2.217-2.123l2.152-8.07c0.73-2.703-0.242-4.703-2.725-4.703c-2.214,0-3.675,1.789-5.8,4.855
			l-0.183-0.095c0.854-2.942-0.241-4.763-2.636-4.763c-2.215,0-3.518,1.673-6.037,5.039l-0.179-0.094l0.695-2.881v-1.636h-6.433
			l-0.483,1.753l1.819,0.334l0.607,1.279l-3.399,12.708h4.369l2.035-7.677c0.358-1.396,0.877-2.305,2.244-3.672
			c1.147-1.148,1.637-1.453,2.214-1.453c0.818,0,1.029,0.572,0.756,1.635l-3.001,11.167h4.365l2.033-7.611
			c0.393-1.521,0.878-2.37,2.245-3.737c1.154-1.147,1.639-1.453,2.214-1.453c0.819,0,1.064,0.574,0.76,1.636l-2.154,7.954
			c-0.15,0.604-0.213,1.031-0.213,1.541C414.289,156.511,415.02,157.152,416.05,157.542 M374.185,157.18h4.368l1.701-6.368
			c0.695-2.609,2.121-4.639,3.882-6.062l1.393,1.359c1.791-0.088,3.428-1.359,3.428-3.186c0-1.215-0.818-2.182-2.092-2.182
			c-1.455,0-2.609,1.178-5.428,5.338l-0.184-0.088l0.819-3.25v-1.637h-6.433l-0.482,1.753l1.818,0.334l0.607,1.279L374.185,157.18z
			 M360.108,142.677c1.216,0,1.7,0.879,1.7,1.854c0,3.213-3.398,4.282-6.282,4.704C356.073,146.08,357.68,142.677,360.108,142.677
			 M356.738,157.638c2.489,0,4.887-1.243,7.01-2.879l-0.969-1.549c-1.701,1.092-3.25,1.724-4.614,1.724
			c-2.369,0-2.823-1.876-2.823-3.577v-0.545c7.374-0.458,10.621-2.732,10.621-6.1c0-2.641-2.246-4.094-5.279-4.094
			c-5.493,0-9.886,5.125-9.886,10.768C350.798,154.759,352.887,157.638,356.738,157.638 M335.384,157.542
			c1.879,0,3.606-0.543,5.098-1.424l-0.337-1.789c-0.788,0.336-1.484,0.518-2.062,0.518c-1.064,0-1.608-0.393-1.608-1.243
			c0-0.422,0.09-0.88,0.242-1.462l2.305-8.586h4.341l0.636-2.45h-4.341l1.184-4.34h-2.698l-2.882,4.188l-2.635,0.756l-0.487,1.847
			h2.519l-2.425,9.14c-0.183,0.631-0.363,1.395-0.363,2.062C331.867,156.455,333.05,157.542,335.384,157.542 M314.873,157.667
			c3.888,0,6.37-2.027,6.37-5.096c0-2.152-1.363-3.462-3.909-5.068c-2.155-1.366-2.885-2.006-2.885-3.002
			c0-0.881,0.76-1.912,2.519-1.912c0.489,0,1.456,0.115,2.092,0.574l-0.395,1.787c0.519,0.889,1.307,1.396,2.334,1.396
			c1.001,0,1.821-0.785,1.821-1.971c0-2.035-3.03-3.758-6.124-3.758c-3.886,0-6.126,2.057-6.126,5.002
			c0,1.912,1.149,3.307,3.878,4.979c2.125,1.3,2.916,2.093,2.916,2.974c0,1.242-1.154,2.122-2.646,2.122
			c-0.967,0-2.062-0.276-2.847-0.793l0.543-1.817c-0.515-0.974-1.332-1.481-2.241-1.481c-1.064,0-1.82,0.843-1.82,1.97
			C308.355,156.061,311.963,157.667,314.873,157.667 M289.209,153.902c-0.82,0-1.274-0.486-1.274-1.76
			c0-4.188,2.792-8.885,5.736-8.885c0.667,0,1.272,0.328,1.608,0.785l-0.972,4.131c-0.302,1.271-1.091,2.726-2.274,3.881
			C290.756,153.298,289.909,153.902,289.209,153.902 M294.609,157.542l4.308-0.64l0.363-1.329c-2.273-0.546-2.548-0.881-2.213-2.123
			l3.367-12.527l-1.154-0.246l-1.578,1.091c-0.97-0.662-1.91-1.12-3.637-1.12c-4.642,0-10.798,5.432-10.798,12.346
			c0,3.098,1.514,4.855,3.938,4.58c2.096-0.24,3.826-2.182,6.071-5.214l0.242,0.117l-0.362,1.28
			c-0.152,0.535-0.305,1.146-0.305,1.75C292.852,156.511,293.583,157.152,294.609,157.542 M256.207,157.18h3.364l9.951-17.929h0.665
			l-1.578,4.369l-2.699,10.137L265.062,155l-1.518,0.336l-0.514,1.846h9.373l0.547-2.123l-1.821-0.299l-0.334-1.307l3.701-13.902
			l1.063-1.301l1.698-0.299l0.547-2.121h-9.435l-6.187,11.281l-1.459,3.461h-0.543l0.362-3.461l-0.089-11.281h-9.522l-0.547,2.114
			l1.819,0.306l0.336,1.301l-3.7,13.902l-1.065,1.307l-1.698,0.299l-0.547,2.123h7.558l0.513-1.846L251.959,155l-0.182-1.242
			l2.702-10.135l0.786-4.369h0.669L256.207,157.18z M227.053,162.335h2.032l4.943-14.287l5.186-15.143h-2.032l-4.975,14.475
			L227.053,162.335z"/>
	</g>
	<g display="inline">
		<defs>
			<rect id="SVGID_35_" x="227.053" y="-0.471" width="265.168" height="162.807"/>
		</defs>
		<clipPath id="SVGID_36_">
			<use xlink:href="#SVGID_35_"  overflow="visible"/>
		</clipPath>
		<path clip-path="url(#SVGID_36_)" fill="#EC1B2E" d="M352.909,12.056h0.672c1.509,0,2.279,0.702,2.279,2.243v5.096
			c0,1.44-0.704,2.146-2.146,2.146h-0.94c-1.442,0-2.146-0.706-2.146-2.146v-5.096C350.629,12.757,351.4,12.056,352.909,12.056
			 M350.664,7.937V3.513c0-1.443,0.736-2.145,2.177-2.145h0.774c1.474,0,2.21,0.701,2.21,2.145v4.424
			c0,1.542-0.771,2.312-2.278,2.312h-0.606C351.435,10.249,350.664,9.479,350.664,7.937 M348.757,3.647v3.784
			c0,2.08,0.803,3.12,2.074,3.552c-1.403,0.399-2.174,1.305-2.174,3.18v5.096c0,2.716,1.369,4.119,4.117,4.119h0.94
			c2.746,0,4.117-1.403,4.117-4.119v-5.096c0-1.875-0.771-2.781-2.174-3.18c1.269-0.433,2.074-1.473,2.074-3.552V3.647
			c0-2.715-1.403-4.118-4.117-4.118h-0.742C350.128-0.471,348.757,0.932,348.757,3.647"/>
	</g>
</g>
<line display="none" fill="none" stroke="#231F20" stroke-width="0.5" x1="258.495" y1="81.804" x2="291.996" y2="81.804"/>
<g>
	<g>
		<defs>
			<rect id="SVGID_37_" x="275.695" width="164.592" height="162.324"/>
		</defs>
		<clipPath id="SVGID_38_">
			<use xlink:href="#SVGID_37_"  overflow="visible"/>
		</clipPath>
		<path clip-path="url(#SVGID_38_)" fill="#231F20" d="M434.279,146.945c1.246,0,1.746,0.901,1.746,1.902
			c0,3.298-3.489,4.387-6.449,4.82C430.138,150.427,431.788,146.945,434.279,146.945 M430.822,162.294
			c2.557,0,5.018-1.276,7.192-2.957l-0.996-1.588c-1.741,1.127-3.332,1.774-4.733,1.774c-2.43,0-2.896-1.933-2.896-3.671v-0.566
			c7.57-0.463,10.898-2.8,10.898-6.254c0-2.709-2.301-4.201-5.414-4.201c-5.641,0-10.153,5.262-10.153,11.053
			C424.72,159.337,426.867,162.294,430.822,162.294 M407.996,162.324c3.988,0,6.537-2.082,6.537-5.223
			c0-2.219-1.398-3.555-4.012-5.202c-2.214-1.403-2.962-2.062-2.962-3.09c0-0.901,0.778-1.963,2.587-1.963
			c0.5,0,1.493,0.128,2.146,0.597l-0.404,1.836c0.532,0.903,1.338,1.434,2.396,1.434c1.026,0,1.867-0.805,1.867-2.022
			c0-2.089-3.111-3.856-6.283-3.856c-3.991,0-6.291,2.113-6.291,5.135c0,1.962,1.18,3.395,3.981,5.104
			c2.183,1.344,2.99,2.157,2.99,3.053c0,1.276-1.184,2.188-2.713,2.188c-0.992,0-2.117-0.283-2.923-0.812l0.558-1.867
			c-0.524-0.998-1.367-1.527-2.301-1.527c-1.09,0-1.867,0.872-1.867,2.021C401.305,160.675,405.006,162.324,407.996,162.324
			 M386.696,162.205l4.827-0.656l0.37-1.373c-2.336-0.561-2.614-0.865-2.273-2.178l3.054-11.053v-1.613h-6.938l-0.5,1.799
			l1.868,0.344l0.621,1.307l-2.61,9.528c-0.158,0.53-0.25,1.188-0.25,1.711C384.863,161.048,385.639,161.794,386.696,162.205
			 M391.118,143.205c1.71,0,3.083-1.582,3.083-3.015s-0.996-2.403-2.459-2.403c-1.713,0-3.081,1.59-3.081,3.022
			C388.661,142.244,389.656,143.205,391.118,143.205 M363.84,150.337l2.088-7.851h1.775c2.147,0,3.145,1.12,3.145,2.927
			c0,1.561-0.748,2.808-1.555,3.561c-0.809,0.746-2.056,1.363-4.207,1.363H363.84z M353.284,161.826h9.933l0.502-1.89l-1.681-0.351
			l-0.345-1.277l1.464-5.387h0.749c1.495,0,2.177,0.312,2.552,2.277l0.842,4.387l0.967,2.238h5.728l0.559-2.113l-2.117-0.933
			l-0.684-3.081c-0.371-1.648-0.654-3.052-3.52-3.709l0.063-0.277c4.7-0.625,8.187-2.49,8.187-6.789
			c0-3.336-2.677-5.016-8.095-5.016h-9.56l-0.562,2.18l1.87,0.305l0.343,1.345l-3.799,14.263l-1.088,1.342l-1.747,0.313
			L353.284,161.826z M326.858,162.205l4.978-0.656l0.375-1.373c-2.427-0.561-2.709-0.934-2.396-2.178l4.481-17.904v-1.612h-6.972
			l-0.467,1.8l1.867,0.344l0.653,1.307l-3.92,15.725c-0.218,0.932-0.405,1.745-0.405,2.461
			C325.054,161.146,325.798,161.794,326.858,162.205 M309.48,162.205l4.981-0.656l0.375-1.373c-2.431-0.561-2.709-0.934-2.398-2.178
			l4.483-17.904v-1.612h-6.974l-0.47,1.8l1.868,0.344l0.652,1.307l-3.92,15.725c-0.217,0.932-0.404,1.745-0.404,2.461
			C307.677,161.146,308.421,161.794,309.48,162.205 M285.346,152.675l2.928-5.105l1.929-4.052h0.75l-0.248,4.052l0.151,5.105
			H285.346z M275.695,161.826h7.536l0.562-2.082l-1.216-0.561l-0.343-0.994l1.56-2.775h7.16l0.092,2.59l-0.841,1.275l-1.773,0.465
			l-0.561,2.082h9.495l0.593-2.173l-1.99-0.745l-1.06-19.375h-5.169l-11.459,19.403l-1.99,0.717L275.695,161.826z"/>
	</g>
	<g>
		<defs>
			<rect id="SVGID_39_" x="275.695" width="164.592" height="162.324"/>
		</defs>
		<clipPath id="SVGID_40_">
			<use xlink:href="#SVGID_39_"  overflow="visible"/>
		</clipPath>
		<path clip-path="url(#SVGID_40_)" fill="#EC1B2E" d="M358.159,20.254V4.191c0-2.751-1.407-4.191-4.229-4.191h-0.759
			c-2.821,0-4.227,1.44-4.227,4.191v6.675c0,2.202,1.303,3.78,3.916,3.78c1.346,0,2.379-0.377,3.271-0.892v6.605
			c0,1.478-0.756,2.201-2.202,2.201h-0.759c-1.479,0-2.202-0.724-2.202-2.201V18.09c0-0.623-0.344-0.97-0.96-0.97h-0.067
			c-0.617,0-0.964,0.347-0.964,0.97v2.269c0,2.817,1.339,4.124,4.193,4.124h0.759C356.752,24.482,358.159,23.041,358.159,20.254
			 M350.971,10.489V4.124c0-1.478,0.723-2.202,2.202-2.202h0.759c1.445,0,2.202,0.725,2.202,2.202v7.843
			c-0.723,0.415-1.788,0.757-2.892,0.757C351.59,12.724,350.971,11.862,350.971,10.489"/>
	</g>
</g>
</svg>
