<?xml version="1.0" encoding="utf-8"?>
<!-- Generator: Adobe Illustrator 16.2.1, SVG Export Plug-In . SVG Version: 6.00 Build 0)  -->
<!DOCTYPE svg PUBLIC "-//W3C//DTD SVG 1.1//EN" "http://www.w3.org/Graphics/SVG/1.1/DTD/svg11.dtd">
<svg version="1.1" id="Layer_1" xmlns="http://www.w3.org/2000/svg" xmlns:xlink="http://www.w3.org/1999/xlink" x="0px" y="0px"
	 width="928px" height="187.912px" viewBox="0 0 928 187.912" enable-background="new 0 0 928 187.912" xml:space="preserve">
<g>
	<defs>
		<rect id="SVGID_1_" y="0.786" width="593.998" height="186.34"/>
	</defs>
	<clipPath id="SVGID_2_">
		<use xlink:href="#SVGID_1_"  overflow="visible"/>
	</clipPath>
	<line clip-path="url(#SVGID_2_)" fill="none" stroke="#EC1B2E" x1="0.026" y1="1.286" x2="312.776" y2="1.286"/>
	<path clip-path="url(#SVGID_2_)" fill="#000002" d="M543.894,184.066c0,1.529,1.122,2.651,2.652,2.651s2.652-1.122,2.652-2.651
		c0-1.53-1.122-2.652-2.652-2.652S543.894,182.536,543.894,184.066 M510.948,186.31h8.432v-1.088c-1.768,0-3.536-0.884-3.536-3.06
		v-14.11h0.238l6.936,18.666h1.326l5.916-21.658v19.347c0,0.611-0.204,0.815-0.815,0.815h-2.38v1.088h11.424v-1.088h-2.38
		c-0.612,0-0.816-0.204-0.816-0.815v-20.4c0-0.612,0.204-0.815,0.816-0.815h2.38v-1.089h-8.637l-4.556,16.729l-6.222-16.729h-8.126
		v1.089h2.72c0.612,0,0.816,0.203,0.816,0.815v18.156c0,2.176-1.769,3.06-3.536,3.06V186.31z M494.255,186.31h11.424v-1.088h-2.38
		c-0.611,0-0.815-0.204-0.815-0.815v-20.4c0-0.612,0.204-0.815,0.815-0.815h2.38v-1.089h-11.424v1.089h2.38
		c0.612,0,0.816,0.203,0.816,0.815v20.4c0,0.611-0.204,0.815-0.816,0.815h-2.38V186.31z M464.029,186.31h11.424v-1.088h-2.38
		c-0.612,0-0.816-0.204-0.816-0.815v-10.2h8.024v10.2c0,0.611-0.204,0.815-0.816,0.815h-2.38v1.088h11.424v-1.088h-2.38
		c-0.612,0-0.816-0.204-0.816-0.815v-20.4c0-0.612,0.204-0.815,0.816-0.815h2.38v-1.089h-11.492v1.089h2.448
		c0.612,0,0.816,0.203,0.816,0.815v8.977h-8.024v-8.977c0-0.612,0.204-0.815,0.816-0.815h2.38v-1.089h-11.424v1.089h2.38
		c0.612,0,0.815,0.203,0.815,0.815v20.4c0,0.611-0.203,0.815-0.815,0.815h-2.38V186.31z M424.215,186.31h12.648
		c5.644,0,10.268-5.235,10.268-12.308s-4.624-11.9-10.268-11.9h-12.648v1.089h2.381c0.611,0,0.815,0.203,0.815,0.815v20.4
		c0,0.611-0.204,0.815-0.815,0.815h-2.381V186.31z M432.443,184.406v-20.4c0-0.612,0.203-0.815,0.815-0.815h3.026
		c2.72,0,5.066,1.836,5.066,5.916v10.199c0,4.08-2.347,5.916-5.066,5.916h-3.026C432.646,185.222,432.443,185.018,432.443,184.406
		 M395.555,186.31h9.928v-1.088c-2.448,0-4.284-1.428-4.284-3.536v-12.953h0.136l12.716,18.189h1.292v-20.196
		c0-2.107,1.836-3.535,4.284-3.535v-1.089h-9.928v1.089c2.448,0,4.284,1.428,4.284,3.535v10.914l-10.881-15.538h-7.547v1.089h0.611
		c1.088,0,1.496,0.237,1.938,0.884l1.36,2.04c0.306,0.441,0.374,0.544,0.374,1.054v14.518c0,2.108-1.836,3.536-4.283,3.536V186.31z
		 M367.028,163.19h2.176c0.612,0,0.816,0.203,0.816,0.815v14.246c0,4.386,2.482,8.67,8.942,8.67c5.134,0,8.126-3.434,8.126-7.684
		V166.25c0-2.176,1.768-3.06,3.536-3.06v-1.089h-8.433v1.089c1.769,0,3.537,0.884,3.537,3.06v13.328
		c0,3.264-2.414,5.983-5.814,5.983c-3.298,0-4.862-1.802-4.862-5.983v-15.572c0-0.612,0.204-0.815,0.816-0.815h2.176v-1.089h-11.016
		V163.19z M346.458,179.306v-10.199c0-4.896,1.7-6.528,4.284-6.528s4.284,1.632,4.284,6.528v10.199c0,4.896-1.7,6.528-4.284,6.528
		S346.458,184.202,346.458,179.306 M340.678,174.206c0,6.528,4.692,12.716,10.064,12.716s10.064-6.188,10.064-12.716
		s-4.692-12.716-10.064-12.716S340.678,167.678,340.678,174.206 M313.376,186.31h12.036v-1.088h-2.992
		c-0.612,0-0.816-0.204-0.816-0.815v-10.473h1.904c2.38,0,3.264,1.904,3.264,3.876v4.217c0,3.468,1.938,5.1,4.726,5.1
		c3.264,0,4.046-2.992,4.046-6.936h-1.088c0,2.413-0.408,5.031-1.7,5.031c-0.612,0-0.952-0.407-0.952-1.428v-3.774
		c0-4.25-2.312-5.712-5.508-6.29v-0.237c3.536-0.408,6.256-2.143,6.256-5.406c0-3.74-3.332-5.984-8.16-5.984h-11.016v1.089h2.38
		c0.612,0,0.816,0.203,0.816,0.815v20.4c0,0.611-0.204,0.815-0.816,0.815h-2.38V186.31z M321.604,172.846v-8.84
		c0-0.612,0.204-0.815,0.816-0.815h1.462c2.55,0,3.23,1.768,3.23,4.624c0,2.855-0.68,5.031-3.23,5.031H321.604z M284.918,186.31
		h8.67v-1.088h-1.598c-1.122,0-1.768-0.781-1.768-1.529c0-0.442,0.136-1.122,0.374-1.734l0.714-2.074h7.14l1.088,3.265
		c0.102,0.306,0.204,0.781,0.204,0.985c0,0.578-0.374,1.088-0.918,1.088h-2.448v1.088h11.934v-1.088h-1.36
		c-0.884,0-1.598-0.544-2.006-1.733l-7.276-21.998h-1.428l-7.174,20.978c-0.476,1.36-1.53,2.754-2.992,2.754h-1.156V186.31z
		 M291.752,178.626l3.196-9.35l3.094,9.35H291.752z M249.661,186.31h19.244l0.272-10.472h-1.088c0,0-0.476,2.21-0.85,3.468
		c-0.578,1.87-2.312,5.916-5.1,5.916h-3.434c-0.612,0-0.816-0.306-0.816-0.918v-20.298c0-0.612,0.204-0.815,0.816-0.815h2.38v-1.089
		h-11.424v1.089h2.38c0.612,0,0.816,0.203,0.816,0.815v20.298c0,0.612-0.204,0.918-0.816,0.918h-2.38V186.31z M224.671,186.31
		h19.244l0.272-10.472h-1.088c0,0-0.476,2.21-0.85,3.468c-0.578,1.87-2.312,5.916-5.1,5.916h-3.434
		c-0.612,0-0.816-0.306-0.816-0.918v-20.298c0-0.612,0.204-0.815,0.816-0.815h2.38v-1.089h-11.424v1.089h2.38
		c0.612,0,0.816,0.203,0.816,0.815v20.298c0,0.612-0.204,0.918-0.816,0.918h-2.38V186.31z M196.213,186.31h8.67v-1.088h-1.598
		c-1.122,0-1.768-0.781-1.768-1.529c0-0.442,0.136-1.122,0.374-1.734l0.714-2.074h7.14l1.088,3.265
		c0.102,0.306,0.204,0.781,0.204,0.985c0,0.578-0.374,1.088-0.918,1.088h-2.448v1.088h11.934v-1.088h-1.36
		c-0.884,0-1.598-0.544-2.006-1.733l-7.276-21.998h-1.428l-7.174,20.978c-0.476,1.36-1.53,2.754-2.992,2.754h-1.156V186.31z
		 M203.047,178.626l3.196-9.35l3.094,9.35H203.047z M157.011,186.31h12.648c5.644,0,10.268-5.235,10.268-12.308
		s-4.624-11.9-10.268-11.9h-12.648v1.089h2.38c0.612,0,0.816,0.203,0.816,0.815v20.4c0,0.611-0.204,0.815-0.816,0.815h-2.38V186.31z
		 M165.239,184.406v-20.4c0-0.612,0.204-0.815,0.816-0.815h3.026c2.72,0,5.066,1.836,5.066,5.916v10.199
		c0,4.08-2.346,5.916-5.066,5.916h-3.026C165.443,185.222,165.239,185.018,165.239,184.406 M131.341,186.31h19.38l0.204-9.384
		h-1.088c0,0-0.272,2.21-0.714,3.468c-0.646,1.836-2.244,4.828-5.032,4.828h-3.706c-0.612,0-0.816-0.204-0.816-0.815v-9.792h1.734
		c1.904,0,3.4,2.72,3.4,4.726h1.088v-10.642h-1.088c0,1.972-1.496,4.691-3.4,4.691h-1.734v-9.384c0-0.612,0.204-0.815,0.816-0.815
		h3.74c1.768,0,3.128,1.258,4.08,2.924c1.02,1.7,1.36,3.876,1.36,3.876h1.088l-0.204-7.889h-19.108v1.089h2.38
		c0.612,0,0.816,0.203,0.816,0.815v20.4c0,0.611-0.204,0.815-0.816,0.815h-2.38V186.31z M101.116,186.31h11.424v-1.088h-2.38
		c-0.612,0-0.816-0.204-0.816-0.815v-10.2h8.024v10.2c0,0.611-0.204,0.815-0.816,0.815h-2.38v1.088h11.424v-1.088h-2.38
		c-0.612,0-0.816-0.204-0.816-0.815v-20.4c0-0.612,0.204-0.815,0.816-0.815h2.38v-1.089h-11.492v1.089h2.448
		c0.612,0,0.816,0.203,0.816,0.815v8.977h-8.024v-8.977c0-0.612,0.204-0.815,0.816-0.815h2.38v-1.089h-11.424v1.089h2.38
		c0.612,0,0.816,0.203,0.816,0.815v20.4c0,0.611-0.204,0.815-0.816,0.815h-2.38V186.31z M78.778,175.906l0.204,10.744h1.054
		l0.17-1.089c0.102-0.747,0.408-1.155,0.884-1.155c0.442,0,0.884,0.34,1.768,1.02c0.918,0.748,2.482,1.496,4.658,1.496
		c5.202,0,7.582-3.638,7.582-7.004c0-2.278-1.19-4.624-3.06-5.848l-7.31-4.727c-1.564-1.02-3.026-2.346-3.026-3.91
		c0-1.903,1.122-2.855,3.536-2.855c3.332,0,6.358,3.672,7.616,8.364h1.088l-0.34-8.841h-1.088l-0.204,0.918
		c-0.068,0.442-0.306,0.782-0.748,0.782c-0.34,0-0.782-0.271-1.224-0.611c-0.68-0.477-2.584-1.7-4.828-1.7
		c-3.4,0-6.664,1.836-6.664,6.527c0,3.128,2.108,5.101,3.808,6.188l7.276,4.692c1.36,0.884,2.448,1.802,2.448,3.06
		c0,1.428-0.578,3.876-4.658,3.876c-3.876,0-6.902-4.93-7.854-9.928H78.778z M49.368,186.31h8.67v-1.088H56.44
		c-1.122,0-1.768-0.781-1.768-1.529c0-0.442,0.136-1.122,0.374-1.734l0.714-2.074h7.14l1.088,3.265
		c0.102,0.306,0.204,0.781,0.204,0.985c0,0.578-0.374,1.088-0.918,1.088h-2.448v1.088H72.76v-1.088H71.4
		c-0.884,0-1.598-0.544-2.006-1.733l-7.276-21.998H60.69l-7.174,20.978c-0.476,1.36-1.53,2.754-2.992,2.754h-1.156V186.31z
		 M56.202,178.626l3.196-9.35l3.094,9.35H56.202z M24.99,186.31h19.244l0.272-10.472h-1.088c0,0-0.476,2.21-0.85,3.468
		c-0.578,1.87-2.312,5.916-5.1,5.916h-3.434c-0.612,0-0.816-0.306-0.816-0.918v-20.298c0-0.612,0.204-0.815,0.816-0.815h2.38v-1.089
		H24.99v1.089h2.38c0.612,0,0.816,0.203,0.816,0.815v20.298c0,0.612-0.204,0.918-0.816,0.918h-2.38V186.31z M0,186.31h12.138v-1.088
		H9.044c-0.612,0-0.816-0.204-0.816-0.815v-9.792h1.734c1.904,0,3.4,2.72,3.4,4.726h1.088v-10.642h-1.088
		c0,1.972-1.496,4.691-3.4,4.691H8.228v-9.384c0-0.612,0.204-0.815,0.816-0.815h3.468c2.176,0,3.808,1.972,4.624,3.705
		c0.85,1.803,1.224,4.522,1.224,4.522h1.088l-0.272-9.316H0v1.089h2.38c0.612,0,0.816,0.203,0.816,0.815v20.4
		c0,0.611-0.204,0.815-0.816,0.815H0V186.31z"/>
	<path clip-path="url(#SVGID_2_)" fill="#231F20" d="M561.625,127.55c-0.399-0.28-0.6-0.56-0.6-1.14v-1.561c0-0.54,0.26-0.8,0.8-0.8
		h0.26c0.54,0,0.801,0.26,0.801,0.8v1.66c0,0.561,0.239,0.8,0.8,0.8h0.5c0.56,0,0.8-0.239,0.8-0.8v-1.74
		c0-1.72-0.86-2.579-2.58-2.579h-0.899c-1.74,0-2.601,0.859-2.601,2.6v1.92c0,1.08,0.28,1.74,1.24,2.42l2.16,1.58
		c0.399,0.3,0.6,0.56,0.6,1.14v1.92c0,0.54-0.26,0.801-0.82,0.801h-0.279c-0.561,0-0.82-0.261-0.82-0.801v-2.079
		c0-0.561-0.24-0.801-0.8-0.801h-0.48c-0.56,0-0.8,0.24-0.8,0.801v2.159c0,1.721,0.84,2.58,2.58,2.58h0.94
		c1.739,0,2.6-0.859,2.6-2.6v-2.28c0-1.14-0.3-1.74-1.24-2.42L561.625,127.55z M543.186,126.87l2.04,8.82
		c0.1,0.439,0.319,0.619,0.78,0.619h0.88c0.56,0,0.8-0.239,0.8-0.8V123.11c0-0.561-0.24-0.801-0.8-0.801h-0.32
		c-0.56,0-0.8,0.24-0.8,0.801v5.5l0.02,2.34l-1.859-8.021c-0.101-0.439-0.32-0.62-0.78-0.62h-1.061c-0.56,0-0.8,0.24-0.8,0.801
		v12.399c0,0.561,0.24,0.8,0.8,0.8h0.32c0.561,0,0.8-0.239,0.8-0.8v-6.16L543.186,126.87z M527.466,130.51h0.52v3.22
		c0,0.561-0.26,0.82-0.82,0.82h-0.479c-0.561,0-0.82-0.26-0.82-0.82v-8.84c0-0.56,0.26-0.819,0.82-0.819h0.439
		c0.54,0,0.801,0.26,0.801,0.819v1.46c0,0.46,0.26,0.7,0.699,0.7h0.7c0.46,0,0.7-0.24,0.7-0.7v-1.58c0-1.72-0.84-2.579-2.58-2.579
		h-1.12c-1.74,0-2.6,0.859-2.6,2.6v9.04c0,1.74,0.859,2.6,2.6,2.6h1.141c1.739,0,2.6-0.859,2.6-2.6v-4.38
		c0-0.521-0.26-0.78-0.8-0.78h-1.74c-0.44,0-0.68,0.22-0.68,0.66v0.58C526.846,130.33,527.045,130.51,527.466,130.51
		 M511.125,122.31c-0.56,0-0.8,0.24-0.8,0.801v12.399c0,0.561,0.24,0.8,0.8,0.8h0.54c0.561,0,0.801-0.239,0.801-0.8V123.11
		c0-0.561-0.24-0.801-0.801-0.801H511.125z M495.746,127.55c-0.399-0.28-0.6-0.56-0.6-1.14v-1.561c0-0.54,0.26-0.8,0.8-0.8h0.26
		c0.54,0,0.801,0.26,0.801,0.8v1.66c0,0.561,0.239,0.8,0.8,0.8h0.5c0.56,0,0.8-0.239,0.8-0.8v-1.74c0-1.72-0.86-2.579-2.58-2.579
		h-0.9c-1.739,0-2.6,0.859-2.6,2.6v1.92c0,1.08,0.28,1.74,1.24,2.42l2.16,1.58c0.399,0.3,0.6,0.56,0.6,1.14v1.92
		c0,0.54-0.26,0.801-0.82,0.801h-0.279c-0.561,0-0.82-0.261-0.82-0.801v-2.079c0-0.561-0.24-0.801-0.8-0.801h-0.48
		c-0.56,0-0.8,0.24-0.8,0.801v2.159c0,1.721,0.84,2.58,2.58,2.58h0.94c1.739,0,2.6-0.859,2.6-2.6v-2.28c0-1.14-0.3-1.74-1.24-2.42
		L495.746,127.55z M466.727,130.51h0.52v3.22c0,0.561-0.26,0.82-0.819,0.82h-0.48c-0.56,0-0.82-0.26-0.82-0.82v-8.84
		c0-0.56,0.261-0.819,0.82-0.819h0.44c0.54,0,0.8,0.26,0.8,0.819v1.46c0,0.46,0.26,0.7,0.7,0.7h0.699c0.461,0,0.7-0.24,0.7-0.7
		v-1.58c0-1.72-0.84-2.579-2.58-2.579h-1.12c-1.74,0-2.6,0.859-2.6,2.6v9.04c0,1.74,0.859,2.6,2.6,2.6h1.141
		c1.74,0,2.6-0.859,2.6-2.6v-4.38c0-0.521-0.26-0.78-0.8-0.78h-1.74c-0.439,0-0.68,0.22-0.68,0.66v0.58
		C466.106,130.33,466.307,130.51,466.727,130.51 M447.246,126.87l2.04,8.82c0.101,0.439,0.32,0.619,0.78,0.619h0.88
		c0.56,0,0.8-0.239,0.8-0.8V123.11c0-0.561-0.24-0.801-0.8-0.801h-0.319c-0.561,0-0.801,0.24-0.801,0.801v5.5l0.02,2.34
		l-1.859-8.021c-0.1-0.439-0.32-0.62-0.779-0.62h-1.061c-0.561,0-0.801,0.24-0.801,0.801v12.399c0,0.561,0.24,0.8,0.801,0.8h0.32
		c0.56,0,0.8-0.239,0.8-0.8v-6.16L447.246,126.87z M432.707,122.31c-0.561,0-0.801,0.24-0.801,0.801v12.399
		c0,0.561,0.24,0.8,0.801,0.8h0.539c0.561,0,0.801-0.239,0.801-0.8V123.11c0-0.561-0.24-0.801-0.801-0.801H432.707z M416.107,126.87
		l2.039,8.82c0.1,0.439,0.32,0.619,0.779,0.619h0.881c0.56,0,0.801-0.239,0.801-0.8V123.11c0-0.561-0.241-0.801-0.801-0.801h-0.32
		c-0.561,0-0.8,0.24-0.8,0.801v5.5l0.021,2.34l-1.861-8.021c-0.1-0.439-0.319-0.62-0.779-0.62h-1.059
		c-0.561,0-0.801,0.24-0.801,0.801v12.399c0,0.561,0.24,0.8,0.801,0.8h0.319c0.56,0,0.8-0.239,0.8-0.8v-6.16L416.107,126.87z
		 M402.947,127.55v-2.64c0-1.74-0.859-2.601-2.6-2.601h-2.721c-0.56,0-0.8,0.24-0.8,0.801v12.399c0,0.561,0.24,0.8,0.8,0.8h0.541
		c0.56,0,0.799-0.239,0.799-0.8v-4.819h0.961c0.619,0,0.899,0.279,0.899,0.899v3.92c0,0.561,0.24,0.8,0.8,0.8h0.541
		c0.56,0,0.799-0.239,0.799-0.8v-3.96c0-1.06-0.359-1.6-1.239-1.84C402.508,129.39,402.947,128.79,402.947,127.55 M400.808,127.97
		c0,0.58-0.28,0.86-0.88,0.86h-0.961v-4.62h1.041c0.539,0,0.8,0.26,0.8,0.8V127.97z M385.047,136.31c0.621,0,0.881-0.3,0.78-0.92
		l-1.78-12.399c-0.08-0.48-0.299-0.681-0.799-0.681h-1.44c-0.5,0-0.72,0.2-0.8,0.681l-1.76,12.399c-0.1,0.62,0.16,0.92,0.78,0.92
		h0.36c0.5,0,0.72-0.199,0.78-0.699l0.2-1.5h2.221l0.18,1.5c0.06,0.5,0.279,0.699,0.8,0.699H385.047z M381.587,132.21l0.879-7.08
		l0.881,7.08H381.587z M362.268,136.31c0.52,0,0.74-0.199,0.8-0.72l0.84-7.66l0.88,7.681c0.06,0.5,0.3,0.699,0.8,0.699h1.1
		c0.5,0,0.72-0.199,0.78-0.699l1.52-12.4c0.06-0.62-0.18-0.9-0.8-0.9h-0.34c-0.5,0-0.74,0.2-0.78,0.721l-0.94,9.22l-1-9.22
		c-0.06-0.521-0.28-0.721-0.8-0.721h-0.62c-0.5,0-0.74,0.2-0.8,0.721l-1,9.26l-0.92-9.26c-0.06-0.521-0.28-0.721-0.8-0.721h-0.54
		c-0.62,0-0.86,0.28-0.78,0.9l1.5,12.4c0.06,0.5,0.28,0.699,0.8,0.699H362.268z"/>
	<path clip-path="url(#SVGID_2_)" fill="#000002" d="M325.868,129.906l0.204,10.744h1.054l0.17-1.089
		c0.102-0.747,0.408-1.155,0.884-1.155c0.442,0,0.884,0.34,1.768,1.02c0.918,0.748,2.482,1.496,4.658,1.496
		c5.202,0,7.582-3.638,7.582-7.004c0-2.278-1.19-4.624-3.06-5.848l-7.31-4.727c-1.564-1.02-3.026-2.346-3.026-3.91
		c0-1.903,1.122-2.855,3.536-2.855c3.332,0,6.358,3.672,7.616,8.364h1.088l-0.34-8.841h-1.088l-0.204,0.918
		c-0.068,0.442-0.306,0.782-0.748,0.782c-0.34,0-0.782-0.271-1.224-0.611c-0.68-0.477-2.584-1.7-4.828-1.7
		c-3.4,0-6.664,1.836-6.664,6.527c0,3.128,2.108,5.101,3.808,6.188l7.276,4.692c1.36,0.884,2.448,1.802,2.448,3.06
		c0,1.428-0.578,3.876-4.658,3.876c-3.876,0-6.902-4.93-7.854-9.928H325.868z M295.947,140.31h8.67v-1.088h-1.598
		c-1.122,0-1.768-0.781-1.768-1.529c0-0.442,0.136-1.122,0.374-1.734l0.714-2.074h7.14l1.088,3.265
		c0.102,0.306,0.204,0.781,0.204,0.985c0,0.578-0.374,1.088-0.918,1.088h-2.448v1.088h11.934v-1.088h-1.36
		c-0.884,0-1.598-0.544-2.006-1.733l-7.276-21.998h-1.428l-7.174,20.978c-0.476,1.36-1.53,2.754-2.992,2.754h-1.156V140.31z
		 M302.781,132.626l3.196-9.35l3.094,9.35H302.781z M254.297,140.31h9.928v-1.088c-2.448,0-4.284-1.428-4.284-3.536v-12.953h0.136
		l12.716,18.189h1.292v-20.196c0-2.107,1.836-3.535,4.284-3.535v-1.089h-9.928v1.089c2.448,0,4.284,1.428,4.284,3.535v10.914
		l-10.88-15.538h-7.548v1.089h0.612c1.088,0,1.496,0.237,1.938,0.884l1.36,2.04c0.306,0.441,0.374,0.544,0.374,1.054v14.518
		c0,2.108-1.836,3.536-4.284,3.536V140.31z M228.595,140.31h19.38l0.204-9.384h-1.088c0,0-0.272,2.21-0.714,3.468
		c-0.646,1.836-2.244,4.828-5.032,4.828h-3.706c-0.612,0-0.816-0.204-0.816-0.815v-9.792h1.734c1.904,0,3.4,2.72,3.4,4.726h1.088
		v-10.642h-1.088c0,1.972-1.496,4.691-3.4,4.691h-1.734v-9.384c0-0.612,0.204-0.815,0.816-0.815h3.74
		c1.768,0,3.128,1.258,4.08,2.924c1.02,1.7,1.36,3.876,1.36,3.876h1.088l-0.204-7.889h-19.108v1.089h2.38
		c0.612,0,0.816,0.203,0.816,0.815v20.4c0,0.611-0.204,0.815-0.816,0.815h-2.38V140.31z M199.083,117.19h1.122
		c1.496,0,2.176,0.476,2.686,1.972l7.684,21.76h1.428l6.698-20.638c0.544-1.7,1.53-3.094,3.264-3.094h1.054v-1.089h-9.18v1.089h1.7
		c1.394,0,1.904,1.224,1.904,2.039c0,0.545-0.238,1.429-0.34,1.734l-3.91,12.138l-5.032-14.313
		c-0.102-0.272-0.136-0.544-0.136-0.748c0-0.476,0.51-0.85,1.156-0.85h1.7v-1.089h-11.798V117.19z M173.447,140.31h19.38
		l0.204-9.384h-1.088c0,0-0.272,2.21-0.714,3.468c-0.646,1.836-2.244,4.828-5.032,4.828h-3.706c-0.612,0-0.816-0.204-0.816-0.815
		v-9.792h1.734c1.904,0,3.4,2.72,3.4,4.726h1.088v-10.642h-1.088c0,1.972-1.496,4.691-3.4,4.691h-1.734v-9.384
		c0-0.612,0.204-0.815,0.816-0.815h3.74c1.768,0,3.128,1.258,4.08,2.924c1.02,1.7,1.36,3.876,1.36,3.876h1.088l-0.204-7.889h-19.108
		v1.089h2.38c0.612,0,0.816,0.203,0.816,0.815v20.4c0,0.611-0.204,0.815-0.816,0.815h-2.38V140.31z M147.573,138.168
		c0,1.666,1.292,2.448,2.414,2.448c0.442,0,0.748-0.103,1.156-0.307c0.272-0.136,0.578-0.271,0.816-0.271
		c0.408,0,0.578,0.34,0.578,0.612c0,2.176-1.938,4.317-4.76,5.372l0.476,0.951c3.264-1.189,5.848-3.842,5.848-7.752
		c0-2.244-1.36-3.943-3.604-3.943C149.104,135.278,147.573,136.229,147.573,138.168 M118.945,140.31h9.928v-1.088
		c-2.448,0-4.284-1.428-4.284-3.536v-12.953h0.136l12.716,18.189h1.292v-20.196c0-2.107,1.836-3.535,4.284-3.535v-1.089h-9.928
		v1.089c2.448,0,4.284,1.428,4.284,3.535v10.914l-10.88-15.538h-7.548v1.089h0.612c1.088,0,1.496,0.237,1.938,0.884l1.36,2.04
		c0.306,0.441,0.374,0.544,0.374,1.054v14.518c0,2.108-1.836,3.536-4.284,3.536V140.31z M79.506,117.19h0.646
		c1.972,0,2.754,0.781,3.23,2.21l7.072,21.521h1.428l5.032-17.204l5.576,17.204h1.428l5.746-20.638
		c0.544-1.7,1.53-3.094,3.264-3.094h1.054v-1.089h-9.18v1.089h1.7c1.394,0,1.802,1.155,1.802,1.972c0,0.544-0.136,1.53-0.238,1.836
		l-3.094,11.186l-4.318-13.26c-0.068-0.271-0.102-0.544-0.102-0.748c0-0.476,0.442-0.985,1.088-0.985h1.666v-1.089H92.154v1.089
		h0.578c1.496,0,2.176,0.476,2.686,1.972l0.748,2.278l-3.196,10.88l-4.284-13.091c-0.102-0.271-0.17-0.646-0.17-0.85
		c0-0.646,0.408-1.189,1.054-1.189h0.986v-1.089h-11.05V117.19z M61.961,133.306v-10.199c0-4.896,1.7-6.528,4.284-6.528
		s4.284,1.632,4.284,6.528v10.199c0,4.896-1.7,6.528-4.284,6.528S61.961,138.202,61.961,133.306 M56.182,128.206
		c0,6.528,4.692,12.716,10.064,12.716s10.064-6.188,10.064-12.716s-4.692-12.716-10.064-12.716S56.182,121.678,56.182,128.206
		 M28.371,140.31h12.036v-1.088h-2.992c-0.612,0-0.816-0.204-0.816-0.815v-10.473h1.904c2.38,0,3.264,1.904,3.264,3.876v4.217
		c0,3.468,1.938,5.1,4.726,5.1c3.264,0,4.046-2.992,4.046-6.936h-1.088c0,2.413-0.408,5.031-1.7,5.031
		c-0.612,0-0.952-0.407-0.952-1.428v-3.774c0-4.25-2.312-5.712-5.508-6.29v-0.237c3.536-0.408,6.256-2.143,6.256-5.406
		c0-3.74-3.332-5.984-8.16-5.984H28.371v1.089h2.38c0.612,0,0.816,0.203,0.816,0.815v20.4c0,0.611-0.204,0.815-0.816,0.815h-2.38
		V140.31z M36.599,126.846v-8.84c0-0.612,0.204-0.815,0.816-0.815h1.462c2.55,0,3.23,1.768,3.23,4.624
		c0,2.855-0.68,5.031-3.23,5.031H36.599z M1.442,128.206c0,6.766,3.536,12.716,9.52,12.716c2.584,0,4.454-2.142,5.27-3.399
		c0.272-0.442,0.578-0.715,1.054-0.715c0.442,0,0.714,0.442,0.816,0.851l0.816,3.094h1.088v-10.574c0-0.611,0.204-0.815,0.816-0.815
		h1.632v-1.088H11.167v1.088h2.992c0.612,0,0.816,0.204,0.816,0.815v4.658c0,2.584-1.564,4.998-4.012,4.998
		c-2.176,0-3.74-1.632-3.74-6.528v-10.199c0-4.896,1.768-6.528,4.352-6.528c3.4,0,5.848,3.332,7.378,8.976h1.054v-9.792h-1.122
		l-0.578,1.258c-0.17,0.374-0.374,0.646-0.748,0.646c-0.306,0-0.68-0.204-1.156-0.51c-1.36-0.918-2.686-1.666-4.828-1.666
		C5.59,115.49,1.442,121.406,1.442,128.206"/>
	<path clip-path="url(#SVGID_2_)" fill="#000002" d="M429.416,71.19h1.189c0.918,0,1.463,0.306,2.006,1.495l5.781,12.479v7.242
		c0,0.611-0.205,0.815-0.816,0.815H435.4v1.088h11.016v-1.088h-2.176c-0.612,0-0.816-0.204-0.816-0.815v-7.548l4.59-11.187
		c0.442-1.156,1.428-2.481,3.094-2.481h1.021v-1.089h-8.433v1.089h0.953c1.359,0,1.836,1.121,1.836,2.073
		c0,0.578-0.238,1.395-0.477,1.938l-3.128,7.786l-4.487-9.759c-0.137-0.271-0.205-0.68-0.205-0.951c0-0.477,0.272-1.088,0.953-1.088
		h0.951v-1.089h-10.676V71.19z M406.534,94.31h19.243l0.272-10.472h-1.088c0,0-0.476,2.21-0.851,3.468
		c-0.577,1.87-2.312,5.916-5.1,5.916h-3.434c-0.612,0-0.816-0.306-0.816-0.918V72.006c0-0.612,0.204-0.815,0.816-0.815h2.38v-1.089
		h-11.424v1.089h2.38c0.611,0,0.816,0.203,0.816,0.815v20.298c0,0.612-0.205,0.918-0.816,0.918h-2.38V94.31z M377.532,94.31h9.928
		v-1.088c-2.448,0-4.284-1.428-4.284-3.536V76.732h0.137l12.715,18.189h1.293V74.726c0-2.107,1.836-3.535,4.283-3.535v-1.089h-9.928
		v1.089c2.448,0,4.284,1.428,4.284,3.535V85.64l-10.88-15.538h-7.548v1.089h0.612c1.088,0,1.496,0.237,1.938,0.884l1.36,2.04
		c0.306,0.441,0.374,0.544,0.374,1.054v14.518c0,2.108-1.836,3.536-4.284,3.536V94.31z M357.303,87.306V77.106
		c0-4.896,1.7-6.528,4.284-6.528s4.284,1.632,4.284,6.528v10.199c0,4.896-1.7,6.528-4.284,6.528S357.303,92.202,357.303,87.306
		 M351.523,82.206c0,6.528,4.692,12.716,10.064,12.716s10.064-6.188,10.064-12.716s-4.692-12.716-10.064-12.716
		S351.523,75.678,351.523,82.206 M309.907,94.31h12.648c5.644,0,10.268-5.235,10.268-12.308s-4.624-11.9-10.268-11.9h-12.648v1.089
		h2.38c0.612,0,0.816,0.203,0.816,0.815v20.4c0,0.611-0.204,0.815-0.816,0.815h-2.38V94.31z M318.135,92.406v-20.4
		c0-0.612,0.204-0.815,0.816-0.815h3.026c2.72,0,5.066,1.836,5.066,5.916v10.199c0,4.08-2.346,5.916-5.066,5.916h-3.026
		C318.339,93.222,318.135,93.018,318.135,92.406 M281.109,94.31h8.67v-1.088h-1.598c-1.122,0-1.768-0.781-1.768-1.529
		c0-0.442,0.136-1.122,0.374-1.734l0.714-2.074h7.14l1.088,3.265c0.102,0.306,0.204,0.781,0.204,0.985
		c0,0.578-0.374,1.088-0.918,1.088h-2.448v1.088h11.934v-1.088h-1.36c-0.884,0-1.598-0.544-2.006-1.733l-7.276-21.998h-1.428
		l-7.174,20.978c-0.476,1.36-1.53,2.754-2.992,2.754h-1.156V94.31z M287.943,86.626l3.196-9.35l3.094,9.35H287.943z M251.155,94.31
		h11.424v-1.088h-2.38c-0.612,0-0.816-0.204-0.816-0.815v-10.2h8.024v10.2c0,0.611-0.204,0.815-0.816,0.815h-2.38v1.088h11.424
		v-1.088h-2.38c-0.612,0-0.816-0.204-0.816-0.815v-20.4c0-0.612,0.204-0.815,0.816-0.815h2.38v-1.089h-11.492v1.089h2.448
		c0.612,0,0.816,0.203,0.816,0.815v8.977h-8.024v-8.977c0-0.612,0.204-0.815,0.816-0.815h2.38v-1.089h-11.424v1.089h2.38
		c0.612,0,0.816,0.203,0.816,0.815v20.4c0,0.611-0.204,0.815-0.816,0.815h-2.38V94.31z M216.407,83.906l0.204,10.744h1.054
		l0.17-1.089c0.102-0.747,0.408-1.155,0.884-1.155c0.442,0,0.884,0.34,1.768,1.02c0.918,0.748,2.482,1.496,4.658,1.496
		c5.202,0,7.582-3.638,7.582-7.004c0-2.278-1.19-4.624-3.06-5.848l-7.31-4.727c-1.564-1.02-3.026-2.346-3.026-3.91
		c0-1.903,1.122-2.855,3.536-2.855c3.332,0,6.358,3.672,7.616,8.364h1.088l-0.34-8.841h-1.088l-0.204,0.918
		c-0.068,0.442-0.306,0.782-0.748,0.782c-0.34,0-0.782-0.271-1.224-0.611c-0.68-0.477-2.584-1.7-4.828-1.7
		c-3.4,0-6.664,1.836-6.664,6.527c0,3.128,2.108,5.101,3.808,6.188l7.276,4.692c1.36,0.884,2.448,1.802,2.448,3.06
		c0,1.428-0.578,3.876-4.658,3.876c-3.876,0-6.902-4.93-7.854-9.928H216.407z M197.946,94.31h11.424v-1.088h-2.38
		c-0.612,0-0.816-0.204-0.816-0.815v-20.4c0-0.612,0.204-0.815,0.816-0.815h2.38v-1.089h-11.424v1.089h2.38
		c0.612,0,0.816,0.203,0.816,0.815v20.4c0,0.611-0.204,0.815-0.816,0.815h-2.38V94.31z M170.576,94.31h12.036v-1.088h-2.992
		c-0.612,0-0.816-0.204-0.816-0.815V81.934h1.904c2.38,0,3.264,1.904,3.264,3.876v4.217c0,3.468,1.938,5.1,4.726,5.1
		c3.264,0,4.046-2.992,4.046-6.936h-1.088c0,2.413-0.408,5.031-1.7,5.031c-0.612,0-0.952-0.407-0.952-1.428V88.02
		c0-4.25-2.312-5.712-5.508-6.29v-0.237c3.536-0.408,6.256-2.143,6.256-5.406c0-3.74-3.332-5.984-8.16-5.984h-11.016v1.089h2.38
		c0.612,0,0.816,0.203,0.816,0.815v20.4c0,0.611-0.204,0.815-0.816,0.815h-2.38V94.31z M178.804,80.846v-8.84
		c0-0.612,0.204-0.815,0.816-0.815h1.462c2.55,0,3.23,1.768,3.23,4.624c0,2.855-0.68,5.031-3.23,5.031H178.804z M152.114,81.118
		v-9.112c0-0.612,0.204-0.815,0.816-0.815h2.516c1.802,0,2.924,1.699,2.924,4.691c0,3.128-0.51,5.236-3.128,5.236H152.114z
		 M143.886,94.31h12.41c4.284,0,7.99-2.312,7.99-6.596c0-3.536-3.672-5.508-6.562-5.95V81.56c2.72-0.714,5.746-2.38,5.746-5.678
		c0-3.399-3.57-5.78-7.616-5.78h-11.968v1.089h2.38c0.612,0,0.816,0.203,0.816,0.815v20.4c0,0.611-0.204,0.815-0.816,0.815h-2.38
		V94.31z M152.114,92.406v-10.2h3.128c2.244,0,3.604,1.156,3.604,5.508c0,4.353-1.36,5.508-3.604,5.508h-2.312
		C152.318,93.222,152.114,93.018,152.114,92.406 M114.545,71.19h2.176c0.612,0,0.816,0.203,0.816,0.815v14.246
		c0,4.386,2.482,8.67,8.942,8.67c5.134,0,8.126-3.434,8.126-7.684V74.25c0-2.176,1.768-3.06,3.536-3.06v-1.089h-8.432v1.089
		c1.768,0,3.536,0.884,3.536,3.06v13.328c0,3.264-2.414,5.983-5.814,5.983c-3.298,0-4.862-1.802-4.862-5.983V72.006
		c0-0.612,0.204-0.815,0.816-0.815h2.176v-1.089h-11.016V71.19z M83.775,94.31h11.424v-1.088h-2.38
		c-0.612,0-0.816-0.204-0.816-0.815v-10.2h8.024v10.2c0,0.611-0.204,0.815-0.816,0.815h-2.38v1.088h11.424v-1.088h-2.38
		c-0.612,0-0.816-0.204-0.816-0.815v-20.4c0-0.612,0.204-0.815,0.816-0.815h2.38v-1.089H96.763v1.089h2.448
		c0.612,0,0.816,0.203,0.816,0.815v8.977h-8.024v-8.977c0-0.612,0.204-0.815,0.816-0.815h2.38v-1.089H83.775v1.089h2.38
		c0.612,0,0.816,0.203,0.816,0.815v20.4c0,0.611-0.204,0.815-0.816,0.815h-2.38V94.31z M49.027,83.906l0.204,10.744h1.054
		l0.17-1.089c0.102-0.747,0.408-1.155,0.884-1.155c0.442,0,0.884,0.34,1.768,1.02c0.918,0.748,2.482,1.496,4.658,1.496
		c5.202,0,7.582-3.638,7.582-7.004c0-2.278-1.19-4.624-3.06-5.848l-7.31-4.727c-1.564-1.02-3.026-2.346-3.026-3.91
		c0-1.903,1.122-2.855,3.536-2.855c3.332,0,6.358,3.672,7.616,8.364h1.088l-0.34-8.841h-1.088l-0.204,0.918
		c-0.068,0.442-0.306,0.782-0.748,0.782c-0.34,0-0.782-0.271-1.224-0.611c-0.68-0.477-2.584-1.7-4.828-1.7
		c-3.4,0-6.664,1.836-6.664,6.527c0,3.128,2.108,5.101,3.808,6.188l7.276,4.692c1.36,0.884,2.448,1.802,2.448,3.06
		c0,1.428-0.578,3.876-4.658,3.876c-3.876,0-6.902-4.93-7.854-9.928H49.027z M30.566,94.31H41.99v-1.088h-2.38
		c-0.612,0-0.816-0.204-0.816-0.815v-20.4c0-0.612,0.204-0.815,0.816-0.815h2.38v-1.089H30.566v1.089h2.38
		c0.612,0,0.816,0.203,0.816,0.815v20.4c0,0.611-0.204,0.815-0.816,0.815h-2.38V94.31z M0,94.31h11.424v-1.088h-2.38
		c-0.612,0-0.816-0.204-0.816-0.815v-10.2h8.024v10.2c0,0.611-0.204,0.815-0.816,0.815h-2.38v1.088H24.48v-1.088H22.1
		c-0.612,0-0.816-0.204-0.816-0.815v-20.4c0-0.612,0.204-0.815,0.816-0.815h2.38v-1.089H12.988v1.089h2.448
		c0.612,0,0.816,0.203,0.816,0.815v8.977H8.228v-8.977c0-0.612,0.204-0.815,0.816-0.815h2.38v-1.089H0v1.089h2.38
		c0.612,0,0.816,0.203,0.816,0.815v20.4c0,0.611-0.204,0.815-0.816,0.815H0V94.31z"/>
	<path clip-path="url(#SVGID_2_)" fill="#231F20" d="M592.778,41.65c-0.56,0-0.8,0.239-0.8,0.8v1.06c0,0.561,0.24,0.8,0.8,0.8h0.42
		c0.561,0,0.8-0.239,0.8-0.8v-1.06c0-0.561-0.239-0.8-0.8-0.8H592.778z M578.379,43.51c0,0.561,0.239,0.8,0.8,0.8h3.2
		c0.56,0,0.8-0.239,0.8-0.8v-0.34c0-0.56-0.24-0.8-0.8-0.8h-1.86v-4.22h1.72c0.561,0,0.8-0.24,0.8-0.801v-0.34
		c0-0.56-0.239-0.8-0.8-0.8h-1.72v-3.96h1.82c0.56,0,0.8-0.24,0.8-0.8v-0.34c0-0.561-0.24-0.801-0.8-0.801h-3.16
		c-0.561,0-0.8,0.24-0.8,0.801V43.51z M563.059,43.51c0,0.561,0.24,0.8,0.8,0.8h2.9c0.56,0,0.8-0.239,0.8-0.8v-0.34
		c0-0.56-0.24-0.8-0.8-0.8h-1.561V31.11c0-0.561-0.24-0.801-0.8-0.801h-0.54c-0.56,0-0.8,0.24-0.8,0.801V43.51z M548.858,38.09
		c0.6,0,0.88,0.28,0.88,0.88v2.66c0,0.54-0.26,0.8-0.8,0.8h-1.06v-4.34H548.858z M549.698,35.39c0,0.58-0.28,0.88-0.88,0.88h-0.939
		V32.19h1.02c0.54,0,0.8,0.26,0.8,0.8V35.39z M551.818,34.97v-2.06c0-1.74-0.86-2.601-2.6-2.601h-2.66c-0.561,0-0.8,0.24-0.8,0.801
		V43.51c0,0.561,0.239,0.8,0.8,0.8h2.7c1.739,0,2.6-0.859,2.6-2.6v-2.58c0-1.14-0.4-1.74-1.22-2.02
		C551.398,36.83,551.818,36.21,551.818,34.97 M533.118,30.31c-0.56,0-0.8,0.24-0.8,0.801V43.51c0,0.561,0.24,0.8,0.8,0.8h0.54
		c0.561,0,0.8-0.239,0.8-0.8V31.11c0-0.561-0.239-0.801-0.8-0.801H533.118z M518.999,41.729c0,0.561-0.26,0.82-0.8,0.82H517.8
		c-0.561,0-0.82-0.26-0.82-0.82v-8.84c0-0.56,0.26-0.819,0.82-0.819h0.359c0.54,0,0.8,0.26,0.8,0.819v1.94
		c0,0.56,0.24,0.8,0.801,0.8h0.5c0.56,0,0.8-0.24,0.8-0.8V32.77c0-1.739-0.84-2.579-2.58-2.579h-1.04c-1.74,0-2.6,0.859-2.6,2.6
		v9.04c0,1.74,0.859,2.6,2.6,2.6h1.06c1.74,0,2.601-0.859,2.601-2.6v-2.46c0-0.561-0.24-0.8-0.8-0.8h-0.5
		c-0.561,0-0.801,0.239-0.801,0.8V41.729z M499.1,34.87l2.04,8.82c0.1,0.439,0.319,0.619,0.78,0.619h0.88c0.56,0,0.8-0.239,0.8-0.8
		V31.11c0-0.561-0.24-0.801-0.8-0.801h-0.32c-0.56,0-0.8,0.24-0.8,0.801v5.5l0.02,2.34l-1.859-8.021
		c-0.101-0.439-0.32-0.62-0.78-0.62h-1.061c-0.56,0-0.8,0.24-0.8,0.801V43.51c0,0.561,0.24,0.8,0.8,0.8h0.32
		c0.561,0,0.8-0.239,0.8-0.8v-6.16L499.1,34.87z M484.56,30.31c-0.561,0-0.8,0.24-0.8,0.801V43.51c0,0.561,0.239,0.8,0.8,0.8h0.54
		c0.56,0,0.8-0.239,0.8-0.8V31.11c0-0.561-0.24-0.801-0.8-0.801H484.56z M470.22,44.33c0.479,0,0.72-0.2,0.779-0.68l1.841-12.421
		c0.1-0.619-0.16-0.92-0.78-0.92h-0.42c-0.5,0-0.72,0.2-0.78,0.7l-1.22,9.7l-1.181-9.7c-0.06-0.5-0.279-0.7-0.779-0.7h-0.54
		c-0.62,0-0.88,0.301-0.78,0.92l1.82,12.421c0.08,0.479,0.3,0.68,0.8,0.68H470.22z M450.939,34.87l2.04,8.82
		c0.101,0.439,0.319,0.619,0.78,0.619h0.88c0.56,0,0.8-0.239,0.8-0.8V31.11c0-0.561-0.24-0.801-0.8-0.801h-0.32
		c-0.56,0-0.8,0.24-0.8,0.801v5.5l0.02,2.34l-1.859-8.021c-0.1-0.439-0.32-0.62-0.78-0.62h-1.06c-0.561,0-0.801,0.24-0.801,0.801
		V43.51c0,0.561,0.24,0.8,0.801,0.8h0.32c0.56,0,0.799-0.239,0.799-0.8v-6.16L450.939,34.87z M436.4,30.31
		c-0.561,0-0.8,0.24-0.8,0.801V43.51c0,0.561,0.239,0.8,0.8,0.8h0.54c0.56,0,0.8-0.239,0.8-0.8V31.11c0-0.561-0.24-0.801-0.8-0.801
		H436.4z M408.48,35.55c-0.4-0.28-0.6-0.56-0.6-1.14V32.85c0-0.54,0.26-0.8,0.8-0.8h0.26c0.54,0,0.8,0.26,0.8,0.8v1.66
		c0,0.561,0.24,0.8,0.801,0.8h0.5c0.56,0,0.799-0.239,0.799-0.8v-1.74c0-1.72-0.859-2.579-2.58-2.579h-0.899
		c-1.739,0-2.601,0.859-2.601,2.6v1.92c0,1.08,0.281,1.74,1.24,2.42l2.16,1.58c0.4,0.3,0.6,0.56,0.6,1.14v1.92
		c0,0.54-0.26,0.801-0.819,0.801h-0.28c-0.56,0-0.82-0.261-0.82-0.801V39.69c0-0.561-0.239-0.801-0.799-0.801h-0.48
		c-0.561,0-0.801,0.24-0.801,0.801v2.159c0,1.721,0.841,2.58,2.58,2.58h0.94c1.74,0,2.601-0.859,2.601-2.6v-2.28
		c0-1.14-0.301-1.74-1.24-2.42L408.48,35.55z M394.141,44.31c0.619,0,0.88-0.3,0.779-0.92l-1.779-12.399
		c-0.08-0.48-0.301-0.681-0.801-0.681H390.9c-0.5,0-0.72,0.2-0.8,0.681L388.34,43.39c-0.1,0.62,0.16,0.92,0.781,0.92h0.359
		c0.5,0,0.721-0.199,0.779-0.699l0.201-1.5h2.22l0.18,1.5c0.06,0.5,0.28,0.699,0.8,0.699H394.141z M390.681,40.21l0.88-7.08
		l0.88,7.08H390.681z M371.36,44.31c0.52,0,0.74-0.199,0.8-0.72l0.84-7.66l0.88,7.681c0.06,0.5,0.3,0.699,0.8,0.699h1.1
		c0.5,0,0.72-0.199,0.78-0.699l1.52-12.4c0.06-0.62-0.18-0.9-0.8-0.9h-0.34c-0.5,0-0.74,0.2-0.78,0.721l-0.94,9.22l-1-9.22
		c-0.06-0.521-0.28-0.721-0.8-0.721h-0.62c-0.5,0-0.74,0.2-0.8,0.721l-1,9.26l-0.92-9.26c-0.06-0.521-0.28-0.721-0.8-0.721h-0.54
		c-0.62,0-0.86,0.28-0.78,0.9l1.5,12.4c0.06,0.5,0.28,0.699,0.8,0.699H371.36z M339.76,43.51c0,0.561,0.24,0.8,0.8,0.8h3.2
		c0.56,0,0.8-0.239,0.8-0.8v-0.34c0-0.56-0.24-0.8-0.8-0.8h-1.86v-4.22h1.72c0.56,0,0.8-0.24,0.8-0.801v-0.34
		c0-0.56-0.24-0.8-0.8-0.8h-1.72v-3.96h1.82c0.56,0,0.8-0.24,0.8-0.8v-0.34c0-0.561-0.24-0.801-0.8-0.801h-3.16
		c-0.56,0-0.8,0.24-0.8,0.801V43.51z M324.28,31.11c0-0.561-0.24-0.801-0.8-0.801h-0.54c-0.56,0-0.8,0.24-0.8,0.801V43.51
		c0,0.561,0.24,0.8,0.8,0.8h0.54c0.56,0,0.8-0.239,0.8-0.8V38.15h2.06v5.359c0,0.561,0.24,0.8,0.8,0.8h0.54
		c0.56,0,0.8-0.239,0.8-0.8V31.11c0-0.561-0.24-0.801-0.8-0.801h-0.54c-0.56,0-0.8,0.24-0.8,0.801v5.1h-2.06V31.11z"/>
	<path clip-path="url(#SVGID_2_)" fill="#000002" d="M284.747,34.234h1.088c0,0,0.136-1.156,0.714-3.196
		c0.782-2.788,2.584-5.848,4.896-5.848c0.748,0,1.258,0.407,1.258,1.155v20.061c0,0.611-0.204,0.815-0.816,0.815h-2.72v1.088h12.104
		v-1.088h-2.72c-0.612,0-0.816-0.204-0.816-0.815V26.346c0-0.748,0.51-1.155,1.258-1.155c2.312,0,4.114,3.06,4.896,5.848
		c0.578,2.04,0.714,3.196,0.714,3.196h1.088l-0.272-10.133h-20.4L284.747,34.234z M254.249,48.31h11.424v-1.088h-2.38
		c-0.612,0-0.816-0.204-0.816-0.815v-10.2h8.024v10.2c0,0.611-0.204,0.815-0.816,0.815h-2.38v1.088h11.424v-1.088h-2.38
		c-0.612,0-0.816-0.204-0.816-0.815v-20.4c0-0.612,0.204-0.815,0.816-0.815h2.38v-1.089h-11.492v1.089h2.448
		c0.612,0,0.816,0.203,0.816,0.815v8.977h-8.024v-8.977c0-0.612,0.204-0.815,0.816-0.815h2.38v-1.089h-11.424v1.089h2.38
		c0.612,0,0.816,0.203,0.816,0.815v20.4c0,0.611-0.204,0.815-0.816,0.815h-2.38V48.31z M227.492,36.206
		c0,6.766,3.536,12.716,9.52,12.716c2.584,0,4.454-2.142,5.27-3.399c0.272-0.442,0.578-0.715,1.054-0.715
		c0.442,0,0.714,0.442,0.816,0.851l0.816,3.094h1.088V38.178c0-0.611,0.204-0.815,0.816-0.815h1.632v-1.088h-11.288v1.088h2.992
		c0.612,0,0.816,0.204,0.816,0.815v4.658c0,2.584-1.564,4.998-4.012,4.998c-2.176,0-3.74-1.632-3.74-6.528V31.106
		c0-4.896,1.768-6.528,4.352-6.528c3.4,0,5.848,3.332,7.378,8.976h1.054v-9.792h-1.122l-0.578,1.258
		c-0.17,0.374-0.374,0.646-0.748,0.646c-0.306,0-0.68-0.204-1.156-0.51c-1.36-0.918-2.686-1.666-4.828-1.666
		C231.64,23.49,227.492,29.406,227.492,36.206 M197.878,25.19h2.176c0.612,0,0.816,0.203,0.816,0.815v14.246
		c0,4.386,2.482,8.67,8.942,8.67c5.134,0,8.126-3.434,8.126-7.684V28.25c0-2.176,1.768-3.06,3.536-3.06v-1.089h-8.432v1.089
		c1.768,0,3.536,0.884,3.536,3.06v13.328c0,3.264-2.414,5.983-5.814,5.983c-3.298,0-4.862-1.802-4.862-5.983V26.006
		c0-0.612,0.204-0.815,0.816-0.815h2.176v-1.089h-11.016V25.19z M176.968,41.306V31.106c0-4.896,1.7-6.528,4.284-6.528
		s4.284,1.632,4.284,6.528v10.199c0,4.896-1.7,6.528-4.284,6.528S176.968,46.202,176.968,41.306 M171.188,36.206
		c0,6.528,4.692,12.716,10.064,12.716s10.064-6.188,10.064-12.716s-4.692-12.716-10.064-12.716S171.188,29.678,171.188,36.206
		 M140.351,48.31h11.424v-1.088h-2.38c-0.612,0-0.816-0.204-0.816-0.815v-10.2h8.024v10.2c0,0.611-0.204,0.815-0.816,0.815h-2.38
		v1.088h11.424v-1.088h-2.38c-0.612,0-0.816-0.204-0.816-0.815v-20.4c0-0.612,0.204-0.815,0.816-0.815h2.38v-1.089h-11.492v1.089
		h2.448c0.612,0,0.816,0.203,0.816,0.815v8.977h-8.024v-8.977c0-0.612,0.204-0.815,0.816-0.815h2.38v-1.089h-11.424v1.089h2.38
		c0.612,0,0.816,0.203,0.816,0.815v20.4c0,0.611-0.204,0.815-0.816,0.815h-2.38V48.31z M113.389,34.234h1.088
		c0,0,0.136-1.156,0.714-3.196c0.782-2.788,2.584-5.848,4.896-5.848c0.748,0,1.258,0.407,1.258,1.155v20.061
		c0,0.611-0.204,0.815-0.816,0.815h-2.72v1.088h12.104v-1.088h-2.72c-0.612,0-0.816-0.204-0.816-0.815V26.346
		c0-0.748,0.51-1.155,1.258-1.155c2.312,0,4.114,3.06,4.896,5.848c0.578,2.04,0.714,3.196,0.714,3.196h1.088l-0.272-10.133h-20.4
		L113.389,34.234z M78.709,37.906l0.204,10.744h1.054l0.17-1.089c0.102-0.747,0.408-1.155,0.884-1.155
		c0.442,0,0.884,0.34,1.768,1.02c0.918,0.748,2.482,1.496,4.658,1.496c5.202,0,7.582-3.638,7.582-7.004
		c0-2.278-1.19-4.624-3.06-5.848l-7.31-4.727c-1.564-1.02-3.026-2.346-3.026-3.91c0-1.903,1.122-2.855,3.536-2.855
		c3.332,0,6.358,3.672,7.616,8.364h1.088l-0.34-8.841h-1.088l-0.204,0.918c-0.068,0.442-0.306,0.782-0.748,0.782
		c-0.34,0-0.782-0.271-1.224-0.611c-0.68-0.477-2.584-1.7-4.828-1.7c-3.4,0-6.664,1.836-6.664,6.527
		c0,3.128,2.108,5.101,3.808,6.188l7.276,4.692c1.36,0.884,2.448,1.802,2.448,3.06c0,1.428-0.578,3.876-4.658,3.876
		c-3.876,0-6.902-4.93-7.854-9.928H78.709z M55.08,37.906l0.204,10.744h1.054l0.17-1.089c0.102-0.747,0.408-1.155,0.884-1.155
		c0.442,0,0.884,0.34,1.768,1.02c0.918,0.748,2.482,1.496,4.658,1.496c5.202,0,7.582-3.638,7.582-7.004
		c0-2.278-1.19-4.624-3.06-5.848l-7.31-4.727c-1.564-1.02-3.026-2.346-3.026-3.91c0-1.903,1.122-2.855,3.536-2.855
		c3.332,0,6.358,3.672,7.616,8.364h1.088l-0.34-8.841h-1.088l-0.204,0.918c-0.068,0.442-0.306,0.782-0.748,0.782
		c-0.34,0-0.782-0.271-1.224-0.611c-0.68-0.477-2.584-1.7-4.828-1.7c-3.4,0-6.664,1.836-6.664,6.527
		c0,3.128,2.108,5.101,3.808,6.188l7.276,4.692c1.36,0.884,2.448,1.802,2.448,3.06c0,1.428-0.578,3.876-4.658,3.876
		c-3.876,0-6.902-4.93-7.854-9.928H55.08z M33.422,41.306V31.106c0-4.896,1.7-6.528,4.284-6.528s4.284,1.632,4.284,6.528v10.199
		c0,4.896-1.7,6.528-4.284,6.528S33.422,46.202,33.422,41.306 M27.642,36.206c0,6.528,4.692,12.716,10.064,12.716
		S47.77,42.734,47.77,36.206S43.078,23.49,37.706,23.49S27.642,29.678,27.642,36.206 M0,48.31h12.036v-1.088H9.044
		c-0.612,0-0.816-0.204-0.816-0.815V35.934h1.904c2.38,0,3.264,1.904,3.264,3.876v4.217c0,3.468,1.938,5.1,4.726,5.1
		c3.264,0,4.046-2.992,4.046-6.936H21.08c0,2.413-0.408,5.031-1.7,5.031c-0.612,0-0.952-0.407-0.952-1.428V42.02
		c0-4.25-2.312-5.712-5.508-6.29v-0.237c3.536-0.408,6.256-2.143,6.256-5.406c0-3.74-3.332-5.984-8.16-5.984H0v1.089h2.38
		c0.612,0,0.816,0.203,0.816,0.815v20.4c0,0.611-0.204,0.815-0.816,0.815H0V48.31z M8.228,34.846v-8.84
		c0-0.612,0.204-0.815,0.816-0.815h1.462c2.55,0,3.23,1.768,3.23,4.624c0,2.855-0.68,5.031-3.23,5.031H8.228z"/>
</g>
<g>
</g>
<g>
</g>
<g>
</g>
<g>
</g>
<g>
</g>
<g>
</g>
<g>
</g>
<g>
</g>
<g>
</g>
<g>
</g>
<g>
</g>
<g>
</g>
<g>
</g>
<g>
</g>
<g>
</g>
</svg>
