<?xml version="1.0" encoding="utf-8"?>
<!-- Generator: Adobe Illustrator 16.2.1, SVG Export Plug-In . SVG Version: 6.00 Build 0)  -->
<!DOCTYPE svg PUBLIC "-//W3C//DTD SVG 1.1//EN" "http://www.w3.org/Graphics/SVG/1.1/DTD/svg11.dtd">
<svg version="1.1" id="Layer_1" xmlns="http://www.w3.org/2000/svg" xmlns:xlink="http://www.w3.org/1999/xlink" x="0px" y="0px"
	 width="928px" height="228.82px" viewBox="0 0 928 228.82" enable-background="new 0 0 928 228.82" xml:space="preserve">
<g>
	<defs>
		<rect id="SVGID_1_" width="745.341" height="228.82"/>
	</defs>
	<clipPath id="SVGID_2_">
		<use xlink:href="#SVGID_1_"  overflow="visible"/>
	</clipPath>
	<line clip-path="url(#SVGID_2_)" fill="none" stroke="#EC1B2E" x1="0" y1="228.32" x2="312.75" y2="228.32"/>
	<path clip-path="url(#SVGID_2_)" fill="#231F20" d="M704.525,202.16c-0.56,0-0.8,0.24-0.8,0.8v1.061c0,0.56,0.24,0.8,0.8,0.8h0.42
		c0.561,0,0.801-0.24,0.801-0.8v-1.061c0-0.56-0.24-0.8-0.801-0.8H704.525z M689.266,192.7c0.84,0,1.22,0.4,1.22,1.24v7.76
		c0,0.84-0.38,1.24-1.22,1.24h-0.78V192.7H689.266z M689.565,204.82c2.08,0,3.061-1,3.061-3.06v-7.881c0-2.06-0.98-3.06-3.061-3.06
		h-2.42c-0.56,0-0.8,0.24-0.8,0.8v12.4c0,0.56,0.24,0.8,0.8,0.8H689.565z M674.565,204.82c0.62,0,0.88-0.3,0.78-0.92l-1.78-12.4
		c-0.08-0.479-0.3-0.68-0.8-0.68h-1.439c-0.5,0-0.721,0.2-0.801,0.68l-1.76,12.4c-0.1,0.62,0.16,0.92,0.78,0.92h0.359
		c0.5,0,0.721-0.2,0.78-0.7l0.2-1.5h2.22l0.181,1.5c0.06,0.5,0.279,0.7,0.8,0.7H674.565z M671.105,200.721l0.88-7.08l0.88,7.08
		H671.105z M655.726,202.24c0,0.561-0.26,0.82-0.8,0.82h-0.44c-0.56,0-0.819-0.26-0.819-0.82v-8.84c0-0.561,0.26-0.82,0.819-0.82
		h0.44c0.54,0,0.8,0.26,0.8,0.82V202.24z M657.865,193.301c0-1.74-0.859-2.601-2.6-2.601h-1.14c-1.74,0-2.601,0.86-2.601,2.601
		v9.039c0,1.74,0.86,2.601,2.601,2.601h1.14c1.74,0,2.6-0.86,2.6-2.601V193.301z M640.306,196.061v-2.641c0-1.739-0.86-2.6-2.6-2.6
		h-2.721c-0.56,0-0.8,0.24-0.8,0.8v12.4c0,0.56,0.24,0.8,0.8,0.8h0.54c0.561,0,0.801-0.24,0.801-0.8v-4.82h0.96
		c0.619,0,0.899,0.28,0.899,0.9v3.92c0,0.56,0.24,0.8,0.8,0.8h0.54c0.561,0,0.801-0.24,0.801-0.8v-3.96
		c0-1.061-0.36-1.601-1.24-1.84C639.865,197.9,640.306,197.301,640.306,196.061 M638.166,196.48c0,0.58-0.28,0.859-0.88,0.859h-0.96
		v-4.619h1.039c0.54,0,0.801,0.26,0.801,0.8V196.48z M610.026,204.82c0.721,0,0.98-0.36,0.761-1.04l-1.98-6.1l2.02-5.801
		c0.261-0.699-0.02-1.06-0.739-1.06h-0.54c-0.42,0-0.641,0.16-0.76,0.54l-2.04,6.2v-5.94c0-0.56-0.24-0.8-0.801-0.8h-0.54
		c-0.56,0-0.8,0.24-0.8,0.8v12.4c0,0.56,0.24,0.8,0.8,0.8h0.54c0.561,0,0.801-0.24,0.801-0.8V198l1.899,6.261
		c0.141,0.399,0.34,0.56,0.78,0.56H610.026z M589.287,204.021c0,0.56,0.239,0.8,0.8,0.8h2.899c0.561,0,0.801-0.24,0.801-0.8v-0.34
		c0-0.561-0.24-0.801-0.801-0.801h-1.56v-11.26c0-0.56-0.24-0.8-0.8-0.8h-0.54c-0.561,0-0.8,0.24-0.8,0.8V204.021z M576.646,190.82
		c-0.56,0-0.8,0.24-0.8,0.8v12.4c0,0.56,0.24,0.8,0.8,0.8h0.54c0.561,0,0.8-0.24,0.8-0.8v-12.4c0-0.56-0.239-0.8-0.8-0.8H576.646z
		 M561.267,196.061c-0.399-0.28-0.6-0.561-0.6-1.141v-1.56c0-0.54,0.26-0.8,0.8-0.8h0.26c0.54,0,0.8,0.26,0.8,0.8v1.66
		c0,0.56,0.24,0.8,0.8,0.8h0.5c0.561,0,0.801-0.24,0.801-0.8v-1.74c0-1.72-0.86-2.58-2.58-2.58h-0.9c-1.74,0-2.6,0.86-2.6,2.601
		v1.92c0,1.08,0.279,1.739,1.24,2.42l2.159,1.58c0.4,0.3,0.601,0.56,0.601,1.14v1.92c0,0.54-0.26,0.8-0.82,0.8h-0.28
		c-0.56,0-0.819-0.26-0.819-0.8v-2.08c0-0.56-0.24-0.8-0.801-0.8h-0.479c-0.56,0-0.8,0.24-0.8,0.8v2.16c0,1.72,0.84,2.58,2.58,2.58
		h0.939c1.74,0,2.601-0.86,2.601-2.601v-2.279c0-1.141-0.3-1.74-1.24-2.42L561.267,196.061z M530.287,195.38l2.039,8.82
		c0.101,0.44,0.32,0.62,0.78,0.62h0.88c0.561,0,0.801-0.24,0.801-0.8v-12.4c0-0.56-0.24-0.8-0.801-0.8h-0.319
		c-0.561,0-0.8,0.24-0.8,0.8v5.5l0.02,2.34l-1.86-8.02c-0.1-0.44-0.319-0.62-0.779-0.62h-1.061c-0.56,0-0.8,0.24-0.8,0.8v12.4
		c0,0.56,0.24,0.8,0.8,0.8h0.32c0.56,0,0.8-0.24,0.8-0.8v-6.16L530.287,195.38z M515.007,202.24c0,0.561-0.26,0.82-0.8,0.82h-0.44
		c-0.56,0-0.82-0.26-0.82-0.82v-8.84c0-0.561,0.261-0.82,0.82-0.82h0.44c0.54,0,0.8,0.26,0.8,0.82V202.24z M517.146,193.301
		c0-1.74-0.859-2.601-2.6-2.601h-1.141c-1.739,0-2.6,0.86-2.6,2.601v9.039c0,1.74,0.86,2.601,2.6,2.601h1.141
		c1.74,0,2.6-0.86,2.6-2.601V193.301z M485.508,199.88l2.04-8.06c0.18-0.66-0.08-1-0.76-1h-0.4c-0.46,0-0.68,0.18-0.78,0.64
		l-1.12,5.301l-1.08-5.301c-0.1-0.46-0.319-0.64-0.8-0.64h-0.52c-0.681,0-0.94,0.32-0.78,1l2.061,8.22v3.98
		c0,0.56,0.239,0.8,0.8,0.8h0.54c0.56,0,0.8-0.24,0.8-0.8V199.88z M468.968,192.761h1.12c0.56,0,0.8-0.24,0.8-0.801v-0.34
		c0-0.56-0.24-0.8-0.8-0.8h-4.38c-0.561,0-0.801,0.24-0.801,0.8v0.34c0,0.561,0.24,0.801,0.801,0.801h1.12v11.26
		c0,0.56,0.239,0.8,0.8,0.8h0.54c0.56,0,0.8-0.24,0.8-0.8V192.761z M452.707,190.82c-0.56,0-0.799,0.24-0.799,0.8v12.4
		c0,0.56,0.239,0.8,0.799,0.8h0.541c0.56,0,0.8-0.24,0.8-0.8v-12.4c0-0.56-0.24-0.8-0.8-0.8H452.707z M438.367,204.84
		c0.48,0,0.721-0.199,0.78-0.68l1.841-12.42c0.1-0.62-0.16-0.92-0.781-0.92h-0.42c-0.5,0-0.719,0.2-0.779,0.7l-1.221,9.7l-1.18-9.7
		c-0.06-0.5-0.279-0.7-0.779-0.7h-0.541c-0.619,0-0.879,0.3-0.779,0.92l1.82,12.42c0.08,0.48,0.3,0.68,0.8,0.68H438.367z
		 M422.228,190.82c-0.56,0-0.8,0.24-0.8,0.8v12.4c0,0.56,0.24,0.8,0.8,0.8h0.54c0.561,0,0.801-0.24,0.801-0.8v-12.4
		c0-0.56-0.24-0.8-0.801-0.8H422.228z M408.648,192.761h1.12c0.56,0,0.8-0.24,0.8-0.801v-0.34c0-0.56-0.24-0.8-0.8-0.8h-4.38
		c-0.561,0-0.8,0.24-0.8,0.8v0.34c0,0.561,0.239,0.801,0.8,0.801h1.12v11.26c0,0.56,0.239,0.8,0.8,0.8h0.54c0.56,0,0.8-0.24,0.8-0.8
		V192.761z M391.889,202.24c0,0.561-0.26,0.82-0.8,0.82h-0.4c-0.56,0-0.819-0.26-0.819-0.82v-8.84c0-0.561,0.26-0.82,0.819-0.82
		h0.36c0.54,0,0.8,0.26,0.8,0.82v1.939c0,0.561,0.24,0.801,0.8,0.801h0.5c0.561,0,0.801-0.24,0.801-0.801v-2.06
		c0-1.74-0.84-2.58-2.58-2.58h-1.041c-1.739,0-2.6,0.86-2.6,2.601v9.039c0,1.74,0.86,2.601,2.6,2.601h1.061
		c1.74,0,2.6-0.86,2.6-2.601v-2.46c0-0.56-0.24-0.8-0.8-0.8h-0.5c-0.56,0-0.8,0.24-0.8,0.8V202.24z M376.089,204.82
		c0.62,0,0.88-0.3,0.78-0.92l-1.78-12.4c-0.08-0.479-0.3-0.68-0.8-0.68h-1.44c-0.5,0-0.72,0.2-0.8,0.68l-1.76,12.4
		c-0.1,0.62,0.16,0.92,0.78,0.92h0.36c0.5,0,0.72-0.2,0.78-0.7l0.2-1.5h2.22l0.18,1.5c0.061,0.5,0.28,0.7,0.801,0.7H376.089z
		 M372.629,200.721l0.88-7.08l0.88,7.08H372.629z M345.889,195.5l0.24-0.399c0.52-0.82,0.74-1.3,0.74-2.46v-1.021
		c0-0.56-0.28-0.8-0.84-0.8h-0.38c-0.56,0-0.8,0.24-0.8,0.8v1.28c0,0.32,0.24,0.58,0.58,0.58h0.16c-0.04,0.42-0.22,0.899-0.48,1.479
		l-0.1,0.221c-0.1,0.199-0.04,0.42,0.16,0.5l0.16,0.06C345.529,195.82,345.749,195.74,345.889,195.5"/>
	<path clip-path="url(#SVGID_2_)" fill="#000002" d="M323.949,198.416l0.204,10.744h1.054l0.17-1.088
		c0.102-0.748,0.408-1.156,0.884-1.156c0.442,0,0.884,0.34,1.768,1.021c0.918,0.748,2.482,1.496,4.658,1.496
		c5.202,0,7.582-3.639,7.582-7.004c0-2.278-1.19-4.624-3.06-5.849l-7.31-4.726c-1.564-1.021-3.026-2.346-3.026-3.91
		c0-1.904,1.122-2.856,3.536-2.856c3.332,0,6.358,3.673,7.616,8.364h1.088l-0.34-8.84h-1.088l-0.204,0.918
		c-0.068,0.442-0.306,0.782-0.748,0.782c-0.34,0-0.782-0.272-1.224-0.612c-0.68-0.476-2.584-1.7-4.828-1.7
		c-3.4,0-6.664,1.836-6.664,6.528c0,3.128,2.108,5.1,3.808,6.188l7.276,4.691c1.36,0.884,2.448,1.802,2.448,3.061
		c0,1.428-0.578,3.876-4.658,3.876c-3.876,0-6.902-4.931-7.854-9.929H323.949z M296.205,194.744h1.088c0,0,0.136-1.156,0.714-3.196
		c0.782-2.787,2.584-5.848,4.896-5.848c0.748,0,1.258,0.408,1.258,1.156v20.06c0,0.612-0.204,0.816-0.816,0.816h-2.72v1.088h12.104
		v-1.088h-2.72c-0.612,0-0.816-0.204-0.816-0.816v-20.06c0-0.748,0.51-1.156,1.258-1.156c2.312,0,4.114,3.061,4.896,5.848
		c0.578,2.04,0.714,3.196,0.714,3.196h1.088l-0.272-10.132h-20.4L296.205,194.744z M269.073,208.82h12.036v-1.088h-2.992
		c-0.612,0-0.816-0.204-0.816-0.816v-10.472h1.904c2.38,0,3.264,1.904,3.264,3.876v4.216c0,3.468,1.938,5.101,4.726,5.101
		c3.264,0,4.046-2.992,4.046-6.937h-1.088c0,2.414-0.408,5.032-1.7,5.032c-0.612,0-0.952-0.408-0.952-1.428v-3.774
		c0-4.25-2.312-5.712-5.508-6.29v-0.238c3.536-0.407,6.256-2.142,6.256-5.405c0-3.74-3.332-5.984-8.16-5.984h-11.016v1.088h2.38
		c0.612,0,0.816,0.204,0.816,0.816v20.399c0,0.612-0.204,0.816-0.816,0.816h-2.38V208.82z M277.301,195.356v-8.84
		c0-0.612,0.204-0.816,0.816-0.816h1.462c2.55,0,3.23,1.769,3.23,4.624c0,2.856-0.68,5.032-3.23,5.032H277.301z M243.234,208.82
		h19.38l0.204-9.384h-1.088c0,0-0.272,2.21-0.714,3.468c-0.646,1.836-2.244,4.828-5.032,4.828h-3.706
		c-0.612,0-0.816-0.204-0.816-0.816v-9.792h1.734c1.904,0,3.4,2.721,3.4,4.727h1.088v-10.643h-1.088c0,1.973-1.496,4.692-3.4,4.692
		h-1.734v-9.384c0-0.612,0.204-0.816,0.816-0.816h3.74c1.768,0,3.128,1.258,4.08,2.924c1.02,1.7,1.36,3.876,1.36,3.876h1.088
		l-0.204-7.888h-19.108v1.088h2.38c0.612,0,0.816,0.204,0.816,0.816v20.399c0,0.612-0.204,0.816-0.816,0.816h-2.38V208.82z
		 M224.942,195.628v-9.111c0-0.612,0.204-0.816,0.816-0.816h2.516c1.802,0,2.924,1.7,2.924,4.692c0,3.128-0.51,5.235-3.128,5.235
		H224.942z M216.714,208.82h12.41c4.284,0,7.99-2.312,7.99-6.596c0-3.536-3.672-5.508-6.562-5.95v-0.204
		c2.72-0.714,5.746-2.38,5.746-5.678c0-3.4-3.57-5.78-7.616-5.78h-11.968v1.088h2.38c0.612,0,0.816,0.204,0.816,0.816v20.399
		c0,0.612-0.204,0.816-0.816,0.816h-2.38V208.82z M224.942,206.916v-10.199h3.128c2.244,0,3.604,1.155,3.604,5.508
		c0,4.352-1.36,5.508-3.604,5.508h-2.312C225.146,207.732,224.942,207.528,224.942,206.916 M196.178,201.816v-10.2
		c0-4.896,1.7-6.528,4.284-6.528s4.284,1.633,4.284,6.528v10.2c0,4.896-1.7,6.528-4.284,6.528S196.178,206.712,196.178,201.816
		 M190.398,196.717c0,6.527,4.692,12.716,10.064,12.716s10.064-6.188,10.064-12.716c0-6.528-4.692-12.717-10.064-12.717
		S190.398,190.188,190.398,196.717 M162.927,208.82h12.036v-1.088h-2.992c-0.612,0-0.816-0.204-0.816-0.816v-10.472h1.904
		c2.38,0,3.264,1.904,3.264,3.876v4.216c0,3.468,1.938,5.101,4.726,5.101c3.264,0,4.046-2.992,4.046-6.937h-1.088
		c0,2.414-0.408,5.032-1.7,5.032c-0.612,0-0.952-0.408-0.952-1.428v-3.774c0-4.25-2.312-5.712-5.508-6.29v-0.238
		c3.536-0.407,6.256-2.142,6.256-5.405c0-3.74-3.332-5.984-8.16-5.984h-11.016v1.088h2.38c0.612,0,0.816,0.204,0.816,0.816v20.399
		c0,0.612-0.204,0.816-0.816,0.816h-2.38V208.82z M171.155,195.356v-8.84c0-0.612,0.204-0.816,0.816-0.816h1.462
		c2.55,0,3.23,1.769,3.23,4.624c0,2.856-0.68,5.032-3.23,5.032H171.155z M125.187,208.82h19.38l0.204-9.384h-1.088
		c0,0-0.272,2.21-0.714,3.468c-0.646,1.836-2.244,4.828-5.032,4.828h-3.706c-0.612,0-0.816-0.204-0.816-0.816v-9.792h1.734
		c1.904,0,3.4,2.721,3.4,4.727h1.088v-10.643h-1.088c0,1.973-1.496,4.692-3.4,4.692h-1.734v-9.384c0-0.612,0.204-0.816,0.816-0.816
		h3.74c1.768,0,3.128,1.258,4.08,2.924c1.02,1.7,1.36,3.876,1.36,3.876h1.088l-0.204-7.888h-19.108v1.088h2.38
		c0.612,0,0.816,0.204,0.816,0.816v20.399c0,0.612-0.204,0.816-0.816,0.816h-2.38V208.82z M98.396,194.744h1.088
		c0,0,0.136-1.156,0.714-3.196c0.782-2.787,2.584-5.848,4.896-5.848c0.748,0,1.258,0.408,1.258,1.156v20.06
		c0,0.612-0.204,0.816-0.816,0.816h-2.72v1.088h12.104v-1.088h-2.72c-0.612,0-0.816-0.204-0.816-0.816v-20.06
		c0-0.748,0.51-1.156,1.258-1.156c2.312,0,4.114,3.061,4.896,5.848c0.578,2.04,0.714,3.196,0.714,3.196h1.088l-0.272-10.132h-20.4
		L98.396,194.744z M72.283,208.82h8.67v-1.088h-1.598c-1.122,0-1.768-0.782-1.768-1.53c0-0.441,0.136-1.122,0.374-1.733l0.714-2.074
		h7.14l1.088,3.264c0.102,0.306,0.204,0.782,0.204,0.986c0,0.578-0.374,1.088-0.918,1.088h-2.448v1.088h11.934v-1.088h-1.36
		c-0.884,0-1.598-0.544-2.006-1.734L85.033,184h-1.428l-7.174,20.979c-0.476,1.359-1.53,2.754-2.992,2.754h-1.156V208.82z
		 M79.117,201.137l3.196-9.351l3.094,9.351H79.117z M45.695,208.82h12.036v-1.088h-2.992c-0.612,0-0.816-0.204-0.816-0.816v-10.472
		h1.904c2.38,0,3.264,1.904,3.264,3.876v4.216c0,3.468,1.938,5.101,4.726,5.101c3.264,0,4.046-2.992,4.046-6.937h-1.088
		c0,2.414-0.408,5.032-1.7,5.032c-0.612,0-0.952-0.408-0.952-1.428v-3.774c0-4.25-2.312-5.712-5.508-6.29v-0.238
		c3.536-0.407,6.256-2.142,6.256-5.405c0-3.74-3.332-5.984-8.16-5.984H45.695v1.088h2.38c0.612,0,0.816,0.204,0.816,0.816v20.399
		c0,0.612-0.204,0.816-0.816,0.816h-2.38V208.82z M53.923,195.356v-8.84c0-0.612,0.204-0.816,0.816-0.816h1.462
		c2.55,0,3.23,1.769,3.23,4.624c0,2.856-0.68,5.032-3.23,5.032H53.923z M28.356,208.82H39.78v-1.088H37.4
		c-0.612,0-0.816-0.204-0.816-0.816v-20.399c0-0.612,0.204-0.816,0.816-0.816h2.38v-1.088H28.356v1.088h2.38
		c0.612,0,0.816,0.204,0.816,0.816v20.399c0,0.612-0.204,0.816-0.816,0.816h-2.38V208.82z M10.336,196.309v-9.792
		c0-0.612,0.204-0.816,0.816-0.816h2.55c2.55,0,3.23,2.244,3.23,5.236s-0.68,5.372-3.23,5.372H10.336z M2.108,208.82h12.036v-1.088
		h-2.992c-0.612,0-0.816-0.204-0.816-0.816v-9.52h3.876c4.828,0,8.16-2.72,8.16-6.46s-3.332-6.324-8.16-6.324H2.108v1.088h2.38
		c0.612,0,0.816,0.204,0.816,0.816v20.399c0,0.612-0.204,0.816-0.816,0.816h-2.38V208.82z"/>
	<path clip-path="url(#SVGID_2_)" fill="#000002" d="M722.425,162.82h12.648c5.644,0,10.268-5.236,10.268-12.308
		c0-7.072-4.624-11.9-10.268-11.9h-12.648v1.088h2.38c0.612,0,0.816,0.204,0.816,0.816v20.399c0,0.612-0.204,0.816-0.816,0.816
		h-2.38V162.82z M730.653,160.916v-20.399c0-0.612,0.204-0.816,0.815-0.816h3.026c2.72,0,5.065,1.836,5.065,5.916v10.2
		c0,4.08-2.346,5.916-5.065,5.916h-3.026C730.857,161.732,730.653,161.528,730.653,160.916 M693.797,162.82h8.67v-1.088h-1.598
		c-1.122,0-1.769-0.782-1.769-1.53c0-0.441,0.137-1.122,0.374-1.733l0.715-2.074h7.14l1.088,3.264
		c0.102,0.306,0.204,0.782,0.204,0.986c0,0.578-0.374,1.088-0.918,1.088h-2.448v1.088h11.935v-1.088h-1.36
		c-0.884,0-1.598-0.544-2.006-1.734L706.547,138h-1.428l-7.174,20.979c-0.477,1.359-1.53,2.754-2.992,2.754h-1.156V162.82z
		 M700.631,155.137l3.196-9.351l3.094,9.351H700.631z M668.57,162.82h19.38l0.204-9.384h-1.088c0,0-0.272,2.21-0.715,3.468
		c-0.646,1.836-2.243,4.828-5.031,4.828h-3.706c-0.612,0-0.816-0.204-0.816-0.816v-9.792h1.734c1.903,0,3.399,2.721,3.399,4.727
		h1.088v-10.643h-1.088c0,1.973-1.496,4.692-3.399,4.692h-1.734v-9.384c0-0.612,0.204-0.816,0.816-0.816h3.739
		c1.769,0,3.129,1.258,4.08,2.924c1.021,1.7,1.36,3.876,1.36,3.876h1.088l-0.204-7.888H668.57v1.088h2.38
		c0.612,0,0.815,0.204,0.815,0.816v20.399c0,0.612-0.203,0.816-0.815,0.816h-2.38V162.82z M641.37,162.82h12.036v-1.088h-2.992
		c-0.612,0-0.816-0.204-0.816-0.816v-10.472h1.904c2.38,0,3.264,1.904,3.264,3.876v4.216c0,3.468,1.938,5.101,4.727,5.101
		c3.264,0,4.046-2.992,4.046-6.937h-1.088c0,2.414-0.408,5.032-1.7,5.032c-0.612,0-0.952-0.408-0.952-1.428v-3.774
		c0-4.25-2.312-5.712-5.508-6.29v-0.238c3.536-0.407,6.256-2.142,6.256-5.405c0-3.74-3.332-5.984-8.16-5.984H641.37v1.088h2.38
		c0.612,0,0.816,0.204,0.816,0.816v20.399c0,0.612-0.204,0.816-0.816,0.816h-2.38V162.82z M649.598,149.356v-8.84
		c0-0.612,0.204-0.816,0.816-0.816h1.462c2.55,0,3.23,1.769,3.23,4.624c0,2.856-0.681,5.032-3.23,5.032H649.598z M612.266,162.82
		h12.648c5.644,0,10.268-5.236,10.268-12.308c0-7.072-4.624-11.9-10.268-11.9h-12.648v1.088h2.381c0.611,0,0.815,0.204,0.815,0.816
		v20.399c0,0.612-0.204,0.816-0.815,0.816h-2.381V162.82z M620.494,160.916v-20.399c0-0.612,0.204-0.816,0.815-0.816h3.026
		c2.72,0,5.066,1.836,5.066,5.916v10.2c0,4.08-2.347,5.916-5.066,5.916h-3.026C620.698,161.732,620.494,161.528,620.494,160.916
		 M569.97,162.82h11.424v-1.088h-2.38c-0.611,0-0.815-0.204-0.815-0.816v-10.199h8.023v10.199c0,0.612-0.204,0.816-0.815,0.816
		h-2.38v1.088h11.424v-1.088h-2.38c-0.612,0-0.816-0.204-0.816-0.816v-20.399c0-0.612,0.204-0.816,0.816-0.816h2.38v-1.088h-11.492
		v1.088h2.448c0.611,0,0.815,0.204,0.815,0.816v8.976h-8.023v-8.976c0-0.612,0.204-0.816,0.815-0.816h2.38v-1.088H569.97v1.088h2.38
		c0.612,0,0.816,0.204,0.816,0.816v20.399c0,0.612-0.204,0.816-0.816,0.816h-2.38V162.82z M543.179,148.744h1.088
		c0,0,0.137-1.156,0.715-3.196c0.781-2.787,2.584-5.848,4.896-5.848c0.748,0,1.258,0.408,1.258,1.156v20.06
		c0,0.612-0.204,0.816-0.815,0.816h-2.721v1.088h12.104v-1.088h-2.72c-0.612,0-0.816-0.204-0.816-0.816v-20.06
		c0-0.748,0.51-1.156,1.258-1.156c2.312,0,4.114,3.061,4.896,5.848c0.578,2.04,0.714,3.196,0.714,3.196h1.088l-0.272-10.132h-20.399
		L543.179,148.744z M525.907,162.82h11.424v-1.088h-2.38c-0.612,0-0.816-0.204-0.816-0.816v-20.399c0-0.612,0.204-0.816,0.816-0.816
		h2.38v-1.088h-11.424v1.088h2.38c0.612,0,0.816,0.204,0.816,0.816v20.399c0,0.612-0.204,0.816-0.816,0.816h-2.38V162.82z
		 M486.332,139.7h0.646c1.973,0,2.755,0.782,3.23,2.21l7.072,21.522h1.428l5.032-17.204l5.576,17.204h1.428l5.746-20.639
		c0.544-1.699,1.529-3.094,3.264-3.094h1.054v-1.088h-9.18v1.088h1.7c1.394,0,1.802,1.156,1.802,1.972
		c0,0.545-0.136,1.53-0.238,1.837l-3.094,11.186l-4.317-13.26c-0.068-0.272-0.103-0.544-0.103-0.748
		c0-0.477,0.442-0.986,1.088-0.986h1.666v-1.088H498.98v1.088h0.577c1.496,0,2.177,0.477,2.687,1.972l0.748,2.278l-3.196,10.88
		l-4.284-13.09c-0.102-0.271-0.17-0.646-0.17-0.85c0-0.646,0.408-1.19,1.055-1.19h0.985v-1.088h-11.05V139.7z M449.204,162.82h19.38
		l0.204-9.384H467.7c0,0-0.272,2.21-0.714,3.468c-0.646,1.836-2.244,4.828-5.032,4.828h-3.706c-0.612,0-0.816-0.204-0.816-0.816
		v-9.792h1.734c1.904,0,3.4,2.721,3.4,4.727h1.088v-10.643h-1.088c0,1.973-1.496,4.692-3.4,4.692h-1.734v-9.384
		c0-0.612,0.204-0.816,0.816-0.816h3.74c1.768,0,3.128,1.258,4.08,2.924c1.02,1.7,1.359,3.876,1.359,3.876h1.088l-0.203-7.888
		h-19.108v1.088h2.38c0.611,0,0.816,0.204,0.816,0.816v20.399c0,0.612-0.205,0.816-0.816,0.816h-2.38V162.82z M422.617,150.717
		c0,6.766,3.535,12.716,9.52,12.716c2.584,0,4.454-2.143,5.271-3.4c0.272-0.442,0.577-0.714,1.054-0.714
		c0.441,0,0.714,0.442,0.816,0.85l0.815,3.095h1.089v-10.574c0-0.612,0.203-0.816,0.815-0.816h1.632v-1.088h-11.288v1.088h2.992
		c0.612,0,0.815,0.204,0.815,0.816v4.658c0,2.584-1.563,4.998-4.012,4.998c-2.176,0-3.74-1.633-3.74-6.528v-10.2
		c0-4.896,1.769-6.528,4.353-6.528c3.399,0,5.849,3.332,7.378,8.977h1.055v-9.792h-1.123l-0.578,1.258
		c-0.17,0.374-0.373,0.646-0.748,0.646c-0.306,0-0.68-0.204-1.155-0.511c-1.36-0.918-2.687-1.666-4.828-1.666
		C426.766,138,422.617,143.916,422.617,150.717 M395.348,162.82h8.67v-1.088h-1.598c-1.122,0-1.768-0.782-1.768-1.53
		c0-0.441,0.136-1.122,0.373-1.733l0.715-2.074h7.14l1.088,3.264c0.103,0.306,0.204,0.782,0.204,0.986
		c0,0.578-0.374,1.088-0.918,1.088h-2.447v1.088h11.934v-1.088h-1.36c-0.884,0-1.598-0.544-2.006-1.734L408.098,138h-1.428
		l-7.174,20.979c-0.477,1.359-1.53,2.754-2.992,2.754h-1.156V162.82z M402.182,155.137l3.196-9.351l3.095,9.351H402.182z
		 M375.221,152.416l0.203,10.744h1.055l0.17-1.088c0.102-0.748,0.408-1.156,0.884-1.156c0.442,0,0.884,0.34,1.768,1.021
		c0.918,0.748,2.482,1.496,4.658,1.496c5.202,0,7.582-3.639,7.582-7.004c0-2.278-1.19-4.624-3.06-5.849l-7.311-4.726
		c-1.564-1.021-3.025-2.346-3.025-3.91c0-1.904,1.121-2.856,3.535-2.856c3.332,0,6.358,3.673,7.616,8.364h1.088l-0.34-8.84h-1.088
		l-0.204,0.918c-0.068,0.442-0.307,0.782-0.748,0.782c-0.34,0-0.781-0.272-1.225-0.612c-0.68-0.476-2.584-1.7-4.827-1.7
		c-3.4,0-6.664,1.836-6.664,6.528c0,3.128,2.108,5.1,3.808,6.188l7.276,4.691c1.36,0.884,2.448,1.802,2.448,3.061
		c0,1.428-0.578,3.876-4.658,3.876c-3.876,0-6.902-4.931-7.854-9.929H375.221z M345.096,139.7h2.176
		c0.612,0,0.816,0.204,0.816,0.816v14.246c0,4.386,2.482,8.67,8.942,8.67c5.134,0,8.126-3.435,8.126-7.685v-12.987
		c0-2.177,1.768-3.061,3.536-3.061v-1.088h-8.432v1.088c1.768,0,3.536,0.884,3.536,3.061v13.327c0,3.265-2.414,5.984-5.814,5.984
		c-3.298,0-4.862-1.802-4.862-5.984v-15.571c0-0.612,0.204-0.816,0.816-0.816h2.176v-1.088h-11.016V139.7z M306.201,148.744h1.088
		c0,0,0.136-1.156,0.714-3.196c0.782-2.787,2.584-5.848,4.896-5.848c0.748,0,1.258,0.408,1.258,1.156v20.06
		c0,0.612-0.204,0.816-0.816,0.816h-2.72v1.088h12.104v-1.088h-2.72c-0.612,0-0.816-0.204-0.816-0.816v-20.06
		c0-0.748,0.51-1.156,1.258-1.156c2.312,0,4.114,3.061,4.896,5.848c0.578,2.04,0.714,3.196,0.714,3.196h1.088l-0.272-10.132h-20.4
		L306.201,148.744z M280.429,162.82h19.38l0.204-9.384h-1.088c0,0-0.272,2.21-0.714,3.468c-0.646,1.836-2.244,4.828-5.032,4.828
		h-3.706c-0.612,0-0.816-0.204-0.816-0.816v-9.792h1.734c1.904,0,3.4,2.721,3.4,4.727h1.088v-10.643h-1.088
		c0,1.973-1.496,4.692-3.4,4.692h-1.734v-9.384c0-0.612,0.204-0.816,0.816-0.816h3.74c1.768,0,3.128,1.258,4.08,2.924
		c1.02,1.7,1.36,3.876,1.36,3.876h1.088l-0.204-7.888h-19.108v1.088h2.38c0.612,0,0.816,0.204,0.816,0.816v20.399
		c0,0.612-0.204,0.816-0.816,0.816h-2.38V162.82z M251.597,162.82h9.928v-1.088c-2.448,0-4.284-1.428-4.284-3.536v-12.954h0.136
		l12.716,18.19h1.292v-20.196c0-2.108,1.836-3.536,4.284-3.536v-1.088h-9.928v1.088c2.448,0,4.284,1.428,4.284,3.536v10.914
		l-10.88-15.538h-7.548v1.088h0.612c1.088,0,1.496,0.238,1.938,0.884l1.36,2.04c0.306,0.442,0.374,0.544,0.374,1.055v14.518
		c0,2.108-1.836,3.536-4.284,3.536V162.82z M224.874,162.82h12.036v-1.088h-2.992c-0.612,0-0.816-0.204-0.816-0.816v-10.472h1.904
		c2.38,0,3.264,1.904,3.264,3.876v4.216c0,3.468,1.938,5.101,4.726,5.101c3.264,0,4.046-2.992,4.046-6.937h-1.088
		c0,2.414-0.408,5.032-1.7,5.032c-0.612,0-0.952-0.408-0.952-1.428v-3.774c0-4.25-2.312-5.712-5.508-6.29v-0.238
		c3.536-0.407,6.256-2.142,6.256-5.405c0-3.74-3.332-5.984-8.16-5.984h-11.016v1.088h2.38c0.612,0,0.816,0.204,0.816,0.816v20.399
		c0,0.612-0.204,0.816-0.816,0.816h-2.38V162.82z M233.102,149.356v-8.84c0-0.612,0.204-0.816,0.816-0.816h1.462
		c2.55,0,3.23,1.769,3.23,4.624c0,2.856-0.68,5.032-3.23,5.032H233.102z M199.034,162.82h19.38l0.204-9.384h-1.088
		c0,0-0.272,2.21-0.714,3.468c-0.646,1.836-2.244,4.828-5.032,4.828h-3.706c-0.612,0-0.816-0.204-0.816-0.816v-9.792h1.734
		c1.904,0,3.4,2.721,3.4,4.727h1.088v-10.643h-1.088c0,1.973-1.496,4.692-3.4,4.692h-1.734v-9.384c0-0.612,0.204-0.816,0.816-0.816
		h3.74c1.768,0,3.128,1.258,4.08,2.924c1.02,1.7,1.36,3.876,1.36,3.876h1.088l-0.204-7.888h-19.108v1.088h2.38
		c0.612,0,0.816,0.204,0.816,0.816v20.399c0,0.612-0.204,0.816-0.816,0.816h-2.38V162.82z M172.242,148.744h1.088
		c0,0,0.136-1.156,0.714-3.196c0.782-2.787,2.584-5.848,4.896-5.848c0.748,0,1.258,0.408,1.258,1.156v20.06
		c0,0.612-0.204,0.816-0.816,0.816h-2.72v1.088h12.104v-1.088h-2.72c-0.612,0-0.816-0.204-0.816-0.816v-20.06
		c0-0.748,0.51-1.156,1.258-1.156c2.312,0,4.114,3.061,4.896,5.848c0.578,2.04,0.714,3.196,0.714,3.196h1.088l-0.272-10.132h-20.4
		L172.242,148.744z M143.479,162.82h9.928v-1.088c-2.448,0-4.284-1.428-4.284-3.536v-12.954h0.136l12.716,18.19h1.292v-20.196
		c0-2.108,1.836-3.536,4.284-3.536v-1.088h-9.928v1.088c2.448,0,4.284,1.428,4.284,3.536v10.914l-10.88-15.538h-7.548v1.088h0.612
		c1.088,0,1.496,0.238,1.938,0.884l1.36,2.04c0.306,0.442,0.374,0.544,0.374,1.055v14.518c0,2.108-1.836,3.536-4.284,3.536V162.82z
		 M126.615,162.82h11.424v-1.088h-2.38c-0.612,0-0.816-0.204-0.816-0.816v-20.399c0-0.612,0.204-0.816,0.816-0.816h2.38v-1.088
		h-11.424v1.088h2.38c0.612,0,0.816,0.204,0.816,0.816v20.399c0,0.612-0.204,0.816-0.816,0.816h-2.38V162.82z M102.271,140.891
		c0,1.666,1.292,2.447,2.414,2.447c0.442,0,0.748-0.102,1.156-0.306c0.272-0.136,0.578-0.271,0.816-0.271
		c0.408,0,0.578,0.34,0.578,0.611c0,2.176-1.938,4.318-4.76,5.372l0.476,0.952c3.264-1.19,5.848-3.842,5.848-7.752
		c0-2.244-1.36-3.944-3.604-3.944C103.801,138,102.271,138.952,102.271,140.891 M80.307,152.416l0.204,10.744h1.054l0.17-1.088
		c0.102-0.748,0.408-1.156,0.884-1.156c0.442,0,0.884,0.34,1.768,1.021c0.918,0.748,2.482,1.496,4.658,1.496
		c5.202,0,7.582-3.639,7.582-7.004c0-2.278-1.19-4.624-3.06-5.849l-7.31-4.726c-1.564-1.021-3.026-2.346-3.026-3.91
		c0-1.904,1.122-2.856,3.536-2.856c3.332,0,6.358,3.673,7.616,8.364h1.088l-0.34-8.84h-1.088l-0.204,0.918
		c-0.068,0.442-0.306,0.782-0.748,0.782c-0.34,0-0.782-0.272-1.224-0.612c-0.68-0.476-2.584-1.7-4.828-1.7
		c-3.4,0-6.664,1.836-6.664,6.528c0,3.128,2.108,5.1,3.808,6.188l7.276,4.691c1.36,0.884,2.448,1.802,2.448,3.061
		c0,1.428-0.578,3.876-4.658,3.876c-3.876,0-6.902-4.931-7.854-9.929H80.307z M56.848,152.416l0.204,10.744h1.054l0.17-1.088
		c0.102-0.748,0.408-1.156,0.884-1.156c0.442,0,0.884,0.34,1.768,1.021c0.918,0.748,2.482,1.496,4.658,1.496
		c5.202,0,7.582-3.639,7.582-7.004c0-2.278-1.19-4.624-3.06-5.849l-7.31-4.726c-1.564-1.021-3.026-2.346-3.026-3.91
		c0-1.904,1.122-2.856,3.536-2.856c3.332,0,6.358,3.673,7.616,8.364h1.088l-0.34-8.84h-1.088l-0.204,0.918
		c-0.068,0.442-0.306,0.782-0.748,0.782c-0.34,0-0.782-0.272-1.224-0.612c-0.68-0.476-2.584-1.7-4.828-1.7
		c-3.4,0-6.664,1.836-6.664,6.528c0,3.128,2.108,5.1,3.808,6.188L68,155.408c1.36,0.884,2.448,1.802,2.448,3.061
		c0,1.428-0.578,3.876-4.658,3.876c-3.876,0-6.902-4.931-7.854-9.929H56.848z M35.36,155.816v-10.2c0-4.896,1.7-6.528,4.284-6.528
		s4.284,1.633,4.284,6.528v10.2c0,4.896-1.7,6.528-4.284,6.528S35.36,160.712,35.36,155.816 M29.58,150.717
		c0,6.527,4.692,12.716,10.064,12.716s10.064-6.188,10.064-12.716c0-6.528-4.692-12.717-10.064-12.717S29.58,144.188,29.58,150.717
		 M2.108,162.82h12.036v-1.088h-2.992c-0.612,0-0.816-0.204-0.816-0.816v-10.472h1.904c2.38,0,3.264,1.904,3.264,3.876v4.216
		c0,3.468,1.938,5.101,4.726,5.101c3.264,0,4.046-2.992,4.046-6.937h-1.088c0,2.414-0.408,5.032-1.7,5.032
		c-0.612,0-0.952-0.408-0.952-1.428v-3.774c0-4.25-2.312-5.712-5.508-6.29v-0.238c3.536-0.407,6.256-2.142,6.256-5.405
		c0-3.74-3.332-5.984-8.16-5.984H2.108v1.088h2.38c0.612,0,0.816,0.204,0.816,0.816v20.399c0,0.612-0.204,0.816-0.816,0.816h-2.38
		V162.82z M10.336,149.356v-8.84c0-0.612,0.204-0.816,0.816-0.816h1.462c2.55,0,3.23,1.769,3.23,4.624
		c0,2.856-0.68,5.032-3.23,5.032H10.336z"/>
	<path clip-path="url(#SVGID_2_)" fill="#000002" d="M471.915,104.309v-9.792c0-0.612,0.204-0.816,0.815-0.816h2.551
		c2.55,0,3.229,2.244,3.229,5.236s-0.68,5.372-3.229,5.372H471.915z M463.688,116.82h12.035v-1.088h-2.992
		c-0.611,0-0.815-0.204-0.815-0.816v-9.52h3.876c4.828,0,8.16-2.72,8.16-6.46s-3.332-6.324-8.16-6.324h-12.104V93.7h2.38
		c0.611,0,0.815,0.204,0.815,0.816v20.399c0,0.612-0.204,0.816-0.815,0.816h-2.38V116.82z M434.516,93.7h2.176
		c0.611,0,0.815,0.204,0.815,0.816v14.246c0,4.386,2.481,8.67,8.942,8.67c5.134,0,8.126-3.435,8.126-7.685V96.761
		c0-2.177,1.768-3.061,3.536-3.061v-1.088h-8.432V93.7c1.768,0,3.535,0.884,3.535,3.061v13.327c0,3.265-2.414,5.984-5.814,5.984
		c-3.297,0-4.861-1.802-4.861-5.984V94.517c0-0.612,0.204-0.816,0.816-0.816h2.176v-1.088h-11.016V93.7z M396.572,116.82h19.38
		l0.204-9.384h-1.088c0,0-0.272,2.21-0.715,3.468c-0.646,1.836-2.244,4.828-5.031,4.828h-3.706c-0.612,0-0.816-0.204-0.816-0.816
		v-9.792h1.734c1.903,0,3.399,2.721,3.399,4.727h1.088V99.208h-1.088c0,1.973-1.496,4.692-3.399,4.692H404.8v-9.384
		c0-0.612,0.204-0.816,0.816-0.816h3.739c1.769,0,3.129,1.258,4.08,2.924c1.021,1.7,1.36,3.876,1.36,3.876h1.088l-0.204-7.888
		h-19.107V93.7h2.38c0.612,0,0.815,0.204,0.815,0.816v20.399c0,0.612-0.203,0.816-0.815,0.816h-2.38V116.82z M367.74,116.82h9.928
		v-1.088c-2.448,0-4.284-1.428-4.284-3.536V99.242h0.136l12.716,18.19h1.291V97.236c0-2.108,1.836-3.536,4.285-3.536v-1.088h-9.929
		V93.7c2.448,0,4.284,1.428,4.284,3.536v10.914l-10.88-15.538h-7.548V93.7h0.612c1.088,0,1.496,0.238,1.938,0.884l1.36,2.04
		c0.306,0.442,0.374,0.544,0.374,1.055v14.518c0,2.108-1.836,3.536-4.284,3.536V116.82z M350.877,116.82h11.424v-1.088h-2.38
		c-0.612,0-0.816-0.204-0.816-0.816V94.517c0-0.612,0.204-0.816,0.816-0.816h2.38v-1.088h-11.424V93.7h2.38
		c0.612,0,0.816,0.204,0.816,0.816v20.399c0,0.612-0.204,0.816-0.816,0.816h-2.38V116.82z M325.717,116.82h19.244l0.272-10.472
		h-1.088c0,0-0.476,2.21-0.85,3.468c-0.578,1.87-2.312,5.916-5.1,5.916h-3.434c-0.612,0-0.816-0.306-0.816-0.918V94.517
		c0-0.612,0.204-0.816,0.816-0.816h2.38v-1.088h-11.424V93.7h2.38c0.612,0,0.816,0.204,0.816,0.816v20.298
		c0,0.612-0.204,0.918-0.816,0.918h-2.38V116.82z M284.713,116.82h12.648c5.644,0,10.268-5.236,10.268-12.308
		c0-7.072-4.624-11.9-10.268-11.9h-12.648V93.7h2.38c0.612,0,0.816,0.204,0.816,0.816v20.399c0,0.612-0.204,0.816-0.816,0.816h-2.38
		V116.82z M292.941,114.916V94.517c0-0.612,0.204-0.816,0.816-0.816h3.026c2.72,0,5.066,1.836,5.066,5.916v10.2
		c0,4.08-2.346,5.916-5.066,5.916h-3.026C293.145,115.732,292.941,115.528,292.941,114.916 M259.553,116.82h19.244l0.272-10.472
		h-1.088c0,0-0.476,2.21-0.85,3.468c-0.578,1.87-2.312,5.916-5.1,5.916h-3.434c-0.612,0-0.816-0.306-0.816-0.918V94.517
		c0-0.612,0.204-0.816,0.816-0.816h2.38v-1.088h-11.424V93.7h2.38c0.612,0,0.816,0.204,0.816,0.816v20.298
		c0,0.612-0.204,0.918-0.816,0.918h-2.38V116.82z M230.381,93.7h2.176c0.612,0,0.816,0.204,0.816,0.816v14.246
		c0,4.386,2.482,8.67,8.942,8.67c5.134,0,8.126-3.435,8.126-7.685V96.761c0-2.177,1.768-3.061,3.536-3.061v-1.088h-8.432V93.7
		c1.768,0,3.536,0.884,3.536,3.061v13.327c0,3.265-2.414,5.984-5.814,5.984c-3.298,0-4.862-1.802-4.862-5.984V94.517
		c0-0.612,0.204-0.816,0.816-0.816h2.176v-1.088h-11.016V93.7z M209.642,109.816v-10.2c0-4.896,1.7-6.528,4.284-6.528
		s4.284,1.633,4.284,6.528v10.2c0,4.896-1.7,6.528-4.284,6.528S209.642,114.712,209.642,109.816 M203.862,104.717
		c0,6.527,4.692,12.716,10.064,12.716c5.372,0,10.064-6.188,10.064-12.716c0-6.528-4.692-12.717-10.064-12.717
		C208.554,92,203.862,98.188,203.862,104.717 M179.042,104.717c0,6.392,3.264,12.716,9.86,12.716c3.4,0,5.814-1.666,7.174-4.318
		c0.816-1.598,1.258-3.774,1.394-5.644h-1.224c-0.17,1.598-0.51,3.638-1.326,5.168c-1.02,1.903-2.822,3.706-6.018,3.706
		c-1.904,0-4.08-1.633-4.08-6.528v-10.2c0-4.896,1.836-6.528,3.74-6.528c3.4,0,6.12,3.809,7.14,9.622h1.088V92.272h-1.122
		l-0.612,1.258c-0.17,0.374-0.34,0.646-0.748,0.646c-0.272,0-0.68-0.204-1.156-0.511c-1.36-0.918-2.754-1.666-4.59-1.666
		C182.578,92,179.042,97.916,179.042,104.717 M138.922,93.7h1.19c0.918,0,1.462,0.306,2.006,1.496l5.78,12.478v7.242
		c0,0.612-0.204,0.816-0.816,0.816h-2.176v1.088h11.016v-1.088h-2.176c-0.612,0-0.816-0.204-0.816-0.816v-7.548l4.59-11.186
		c0.442-1.156,1.428-2.482,3.094-2.482h1.02v-1.088h-8.432V93.7h0.952c1.36,0,1.836,1.122,1.836,2.074
		c0,0.578-0.238,1.394-0.476,1.938l-3.128,7.786l-4.488-9.758c-0.136-0.271-0.204-0.68-0.204-0.952c0-0.476,0.272-1.088,0.952-1.088
		h0.952v-1.088h-10.676V93.7z M113.627,116.82h19.38l0.204-9.384h-1.088c0,0-0.272,2.21-0.714,3.468
		c-0.646,1.836-2.244,4.828-5.032,4.828h-3.706c-0.612,0-0.816-0.204-0.816-0.816v-9.792h1.734c1.904,0,3.4,2.721,3.4,4.727h1.088
		V99.208h-1.088c0,1.973-1.496,4.692-3.4,4.692h-1.734v-9.384c0-0.612,0.204-0.816,0.816-0.816h3.74c1.768,0,3.128,1.258,4.08,2.924
		c1.02,1.7,1.36,3.876,1.36,3.876h1.088l-0.204-7.888h-19.108V93.7h2.38c0.612,0,0.816,0.204,0.816,0.816v20.399
		c0,0.612-0.204,0.816-0.816,0.816h-2.38V116.82z M83.231,116.82h11.424v-1.088h-2.38c-0.612,0-0.816-0.204-0.816-0.816v-10.199
		h8.024v10.199c0,0.612-0.204,0.816-0.816,0.816h-2.38v1.088h11.424v-1.088h-2.38c-0.612,0-0.816-0.204-0.816-0.816V94.517
		c0-0.612,0.204-0.816,0.816-0.816h2.38v-1.088H96.219V93.7h2.448c0.612,0,0.816,0.204,0.816,0.816v8.976h-8.024v-8.976
		c0-0.612,0.204-0.816,0.816-0.816h2.38v-1.088H83.231V93.7h2.38c0.612,0,0.816,0.204,0.816,0.816v20.399
		c0,0.612-0.204,0.816-0.816,0.816h-2.38V116.82z M56.439,102.744h1.088c0,0,0.136-1.156,0.714-3.196
		c0.782-2.787,2.584-5.848,4.896-5.848c0.748,0,1.258,0.408,1.258,1.156v20.06c0,0.612-0.204,0.816-0.816,0.816h-2.72v1.088h12.104
		v-1.088h-2.72c-0.612,0-0.816-0.204-0.816-0.816v-20.06c0-0.748,0.51-1.156,1.258-1.156c2.312,0,4.114,3.061,4.896,5.848
		c0.578,2.04,0.714,3.196,0.714,3.196h1.088l-0.272-10.132h-20.4L56.439,102.744z M19.448,116.82h12.138v-1.088h-3.094
		c-0.612,0-0.816-0.204-0.816-0.816v-9.792h1.734c1.904,0,3.4,2.721,3.4,4.727h1.088V99.208H32.81c0,1.973-1.496,4.692-3.4,4.692
		h-1.734v-9.384c0-0.612,0.204-0.816,0.816-0.816h3.468c2.176,0,3.808,1.972,4.624,3.706c0.85,1.802,1.224,4.522,1.224,4.522h1.088
		l-0.272-9.316H19.448V93.7h2.38c0.612,0,0.816,0.204,0.816,0.816v20.399c0,0.612-0.204,0.816-0.816,0.816h-2.38V116.82z
		 M2.108,116.82h11.424v-1.088h-2.38c-0.612,0-0.816-0.204-0.816-0.816V94.517c0-0.612,0.204-0.816,0.816-0.816h2.38v-1.088H2.108
		V93.7h2.38c0.612,0,0.816,0.204,0.816,0.816v20.399c0,0.612-0.204,0.816-0.816,0.816h-2.38V116.82z"/>
	<path clip-path="url(#SVGID_2_)" fill="#000002" d="M565.115,70.82h19.38l0.204-9.384h-1.089c0,0-0.271,2.21-0.714,3.468
		c-0.646,1.836-2.244,4.828-5.031,4.828h-3.706c-0.612,0-0.816-0.204-0.816-0.816v-9.792h1.734c1.903,0,3.399,2.721,3.399,4.727
		h1.088V53.208h-1.088c0,1.973-1.496,4.692-3.399,4.692h-1.734v-9.384c0-0.612,0.204-0.816,0.816-0.816h3.739
		c1.769,0,3.128,1.258,4.08,2.924c1.021,1.7,1.36,3.876,1.36,3.876h1.088l-0.204-7.888h-19.107V47.7h2.38
		c0.611,0,0.815,0.204,0.815,0.816v20.399c0,0.612-0.204,0.816-0.815,0.816h-2.38V70.82z M539.274,70.82h19.38l0.204-9.384h-1.088
		c0,0-0.271,2.21-0.714,3.468c-0.646,1.836-2.244,4.828-5.032,4.828h-3.706c-0.611,0-0.815-0.204-0.815-0.816v-9.792h1.733
		c1.904,0,3.4,2.721,3.4,4.727h1.088V53.208h-1.088c0,1.973-1.496,4.692-3.4,4.692h-1.733v-9.384c0-0.612,0.204-0.816,0.815-0.816
		h3.74c1.769,0,3.128,1.258,4.08,2.924c1.021,1.7,1.36,3.876,1.36,3.876h1.088l-0.204-7.888h-19.108V47.7h2.38
		c0.612,0,0.816,0.204,0.816,0.816v20.399c0,0.612-0.204,0.816-0.816,0.816h-2.38V70.82z M516.767,60.416l0.204,10.744h1.054
		l0.17-1.088c0.103-0.748,0.408-1.156,0.885-1.156c0.441,0,0.884,0.34,1.768,1.021c0.918,0.748,2.482,1.496,4.658,1.496
		c5.202,0,7.582-3.639,7.582-7.004c0-2.278-1.19-4.624-3.061-5.849l-7.31-4.726c-1.564-1.021-3.026-2.346-3.026-3.91
		c0-1.904,1.122-2.856,3.536-2.856c3.332,0,6.358,3.673,7.616,8.364h1.088l-0.34-8.84h-1.088l-0.204,0.918
		c-0.068,0.442-0.306,0.782-0.748,0.782c-0.34,0-0.782-0.272-1.224-0.612c-0.681-0.476-2.584-1.7-4.828-1.7
		c-3.4,0-6.664,1.836-6.664,6.528c0,3.128,2.107,5.1,3.808,6.188l7.276,4.691c1.359,0.884,2.448,1.802,2.448,3.061
		c0,1.428-0.578,3.876-4.658,3.876c-3.876,0-6.902-4.931-7.854-9.929H516.767z M483.38,63.816v-10.2c0-4.896,1.7-6.528,4.284-6.528
		s4.284,1.633,4.284,6.528v10.2c0,4.896-1.7,6.528-4.284,6.528S483.38,68.712,483.38,63.816 M477.6,58.717
		c0,6.527,4.692,12.716,10.064,12.716s10.063-6.188,10.063-12.716c0-6.528-4.691-12.717-10.063-12.717S477.6,52.188,477.6,58.717
		 M450.535,56.744h1.089c0,0,0.136-1.156,0.714-3.196c0.781-2.787,2.584-5.848,4.896-5.848c0.748,0,1.258,0.408,1.258,1.156v20.06
		c0,0.612-0.205,0.816-0.816,0.816h-2.721v1.088h12.104v-1.088h-2.72c-0.612,0-0.816-0.204-0.816-0.816v-20.06
		c0-0.748,0.511-1.156,1.259-1.156c2.312,0,4.113,3.061,4.896,5.848c0.578,2.04,0.714,3.196,0.714,3.196h1.088l-0.271-10.132h-20.4
		L450.535,56.744z"/>
	<path clip-path="url(#SVGID_2_)" fill="#231F20" d="M421.296,66.021c0,0.56,0.239,0.8,0.8,0.8h3.2c0.56,0,0.8-0.24,0.8-0.8v-0.34
		c0-0.561-0.24-0.801-0.8-0.801h-1.86v-4.22h1.721c0.56,0,0.799-0.24,0.799-0.8v-0.34c0-0.561-0.239-0.8-0.799-0.8h-1.721v-3.96
		h1.82c0.561,0,0.8-0.24,0.8-0.801v-0.34c0-0.56-0.239-0.8-0.8-0.8h-3.16c-0.561,0-0.8,0.24-0.8,0.8V66.021z M407.996,64.24
		c0,0.561-0.26,0.82-0.801,0.82h-0.399c-0.56,0-0.82-0.26-0.82-0.82V55.4c0-0.561,0.261-0.82,0.82-0.82h0.36
		c0.539,0,0.799,0.26,0.799,0.82v1.939c0,0.561,0.24,0.801,0.801,0.801h0.5c0.561,0,0.8-0.24,0.8-0.801v-2.06
		c0-1.74-0.84-2.58-2.58-2.58h-1.04c-1.74,0-2.6,0.86-2.6,2.601v9.039c0,1.74,0.859,2.601,2.6,2.601h1.061
		c1.74,0,2.6-0.86,2.6-2.601v-2.46c0-0.56-0.24-0.8-0.8-0.8h-0.5c-0.56,0-0.8,0.24-0.8,0.8V64.24z M388.097,57.38l2.04,8.82
		c0.1,0.44,0.32,0.62,0.78,0.62h0.88c0.561,0,0.8-0.24,0.8-0.8v-12.4c0-0.56-0.239-0.8-0.8-0.8h-0.32c-0.56,0-0.8,0.24-0.8,0.8v5.5
		l0.021,2.34l-1.86-8.02c-0.101-0.44-0.32-0.62-0.78-0.62h-1.061c-0.559,0-0.799,0.24-0.799,0.8v12.4c0,0.56,0.24,0.8,0.799,0.8
		h0.32c0.561,0,0.801-0.24,0.801-0.8v-6.16L388.097,57.38z M374.417,66.82c0.62,0,0.88-0.3,0.78-0.92l-1.78-12.4
		c-0.08-0.479-0.3-0.68-0.8-0.68h-1.44c-0.5,0-0.72,0.2-0.8,0.68l-1.76,12.4c-0.1,0.62,0.16,0.92,0.78,0.92h0.36
		c0.5,0,0.72-0.2,0.78-0.7l0.2-1.5h2.22l0.18,1.5c0.06,0.5,0.28,0.7,0.8,0.7H374.417z M370.957,62.721l0.88-7.08l0.88,7.08H370.957z
		 M353.657,66.021c0,0.56,0.24,0.8,0.8,0.8h2.9c0.56,0,0.8-0.24,0.8-0.8v-0.34c0-0.561-0.24-0.801-0.8-0.801h-1.56V53.62
		c0-0.56-0.24-0.8-0.8-0.8h-0.54c-0.56,0-0.8,0.24-0.8,0.8V66.021z M338.337,66.021c0,0.56,0.24,0.8,0.8,0.8h2.9
		c0.56,0,0.8-0.24,0.8-0.8v-0.34c0-0.561-0.24-0.801-0.8-0.801h-1.56V53.62c0-0.56-0.24-0.8-0.8-0.8h-0.54c-0.56,0-0.8,0.24-0.8,0.8
		V66.021z M325.697,52.82c-0.56,0-0.8,0.24-0.8,0.8v12.4c0,0.56,0.24,0.8,0.8,0.8h0.54c0.56,0,0.8-0.24,0.8-0.8v-12.4
		c0-0.56-0.24-0.8-0.8-0.8H325.697z M308.937,66.021c0,0.56,0.24,0.8,0.8,0.8h3.2c0.56,0,0.8-0.24,0.8-0.8v-0.34
		c0-0.561-0.24-0.801-0.8-0.801h-1.86v-4.22h1.72c0.56,0,0.8-0.24,0.8-0.8v-0.34c0-0.561-0.24-0.8-0.8-0.8h-1.72v-3.96h1.82
		c0.56,0,0.8-0.24,0.8-0.801v-0.34c0-0.56-0.24-0.8-0.8-0.8h-3.16c-0.56,0-0.8,0.24-0.8,0.8V66.021z M295.417,66.84
		c0.48,0,0.72-0.199,0.78-0.68l1.84-12.42c0.1-0.62-0.16-0.92-0.78-0.92h-0.42c-0.5,0-0.72,0.2-0.78,0.7l-1.22,9.7l-1.18-9.7
		c-0.06-0.5-0.28-0.7-0.78-0.7h-0.54c-0.62,0-0.88,0.3-0.78,0.92l1.82,12.42c0.08,0.48,0.3,0.68,0.8,0.68H295.417z M280.718,58.061
		V55.42c0-1.739-0.861-2.6-2.601-2.6h-2.72c-0.559,0-0.799,0.24-0.799,0.8v12.4c0,0.56,0.24,0.8,0.799,0.8h0.541
		c0.56,0,0.799-0.24,0.799-0.8V61.2h0.96c0.62,0,0.901,0.28,0.901,0.9v3.92c0,0.56,0.24,0.8,0.799,0.8h0.541
		c0.56,0,0.799-0.24,0.799-0.8v-3.96c0-1.061-0.359-1.601-1.239-1.84C280.278,59.9,280.718,59.301,280.718,58.061 M278.577,58.48
		c0,0.58-0.28,0.859-0.88,0.859h-0.96v-4.619h1.041c0.539,0,0.799,0.26,0.799,0.8V58.48z M261.998,52.82c-0.56,0-0.8,0.24-0.8,0.8
		v10.62c0,0.561-0.26,0.82-0.8,0.82h-0.34c-0.56,0-0.82-0.26-0.82-0.82V53.62c0-0.56-0.24-0.8-0.8-0.8h-0.54
		c-0.56,0-0.8,0.24-0.8,0.8v10.72c0,1.74,0.86,2.601,2.6,2.601h1.04c1.74,0,2.6-0.86,2.6-2.601V53.62c0-0.56-0.24-0.8-0.8-0.8
		H261.998z M242.558,58.061c-0.4-0.28-0.6-0.561-0.6-1.141v-1.56c0-0.54,0.26-0.8,0.8-0.8h0.26c0.54,0,0.8,0.26,0.8,0.8v1.66
		c0,0.56,0.24,0.8,0.8,0.8h0.5c0.56,0,0.8-0.24,0.8-0.8v-1.74c0-1.72-0.86-2.58-2.58-2.58h-0.9c-1.74,0-2.6,0.86-2.6,2.601v1.92
		c0,1.08,0.28,1.739,1.24,2.42l2.16,1.58c0.4,0.3,0.6,0.56,0.6,1.14v1.92c0,0.54-0.26,0.8-0.82,0.8h-0.28
		c-0.56,0-0.82-0.26-0.82-0.8V62.2c0-0.56-0.24-0.8-0.8-0.8h-0.48c-0.56,0-0.8,0.24-0.8,0.8v2.16c0,1.72,0.84,2.58,2.58,2.58h0.94
		c1.74,0,2.6-0.86,2.6-2.601v-2.279c0-1.141-0.3-1.74-1.24-2.42L242.558,58.061z M212.038,66.021c0,0.56,0.24,0.8,0.8,0.8h2.9
		c0.56,0,0.8-0.24,0.8-0.8v-0.34c0-0.561-0.24-0.801-0.8-0.801h-1.56V53.62c0-0.56-0.24-0.8-0.8-0.8h-0.54c-0.56,0-0.8,0.24-0.8,0.8
		V66.021z M200.258,66.82c0.62,0,0.88-0.3,0.78-0.92l-1.78-12.4c-0.08-0.479-0.3-0.68-0.8-0.68h-1.44c-0.5,0-0.72,0.2-0.8,0.68
		l-1.76,12.4c-0.1,0.62,0.16,0.92,0.78,0.92h0.36c0.5,0,0.72-0.2,0.78-0.7l0.2-1.5h2.22l0.18,1.5c0.06,0.5,0.28,0.7,0.8,0.7H200.258
		z M196.798,62.721l0.88-7.08l0.88,7.08H196.798z M181.498,64.24c0,0.561-0.26,0.82-0.8,0.82h-0.4c-0.56,0-0.82-0.26-0.82-0.82V55.4
		c0-0.561,0.26-0.82,0.82-0.82h0.36c0.54,0,0.8,0.26,0.8,0.82v1.939c0,0.561,0.24,0.801,0.8,0.801h0.5c0.56,0,0.8-0.24,0.8-0.801
		v-2.06c0-1.74-0.84-2.58-2.58-2.58h-1.04c-1.74,0-2.6,0.86-2.6,2.601v9.039c0,1.74,0.86,2.601,2.6,2.601h1.06
		c1.74,0,2.6-0.86,2.6-2.601v-2.46c0-0.56-0.24-0.8-0.8-0.8h-0.5c-0.56,0-0.8,0.24-0.8,0.8V64.24z M164.738,52.82
		c-0.56,0-0.8,0.24-0.8,0.8v12.4c0,0.56,0.24,0.8,0.8,0.8h0.54c0.56,0,0.8-0.24,0.8-0.8v-12.4c0-0.56-0.24-0.8-0.8-0.8H164.738z
		 M149.359,58.061c-0.4-0.28-0.6-0.561-0.6-1.141v-1.56c0-0.54,0.26-0.8,0.8-0.8h0.26c0.54,0,0.8,0.26,0.8,0.8v1.66
		c0,0.56,0.24,0.8,0.8,0.8h0.5c0.56,0,0.8-0.24,0.8-0.8v-1.74c0-1.72-0.86-2.58-2.58-2.58h-0.9c-1.74,0-2.6,0.86-2.6,2.601v1.92
		c0,1.08,0.28,1.739,1.24,2.42l2.16,1.58c0.4,0.3,0.6,0.56,0.6,1.14v1.92c0,0.54-0.26,0.8-0.82,0.8h-0.28
		c-0.56,0-0.82-0.26-0.82-0.8V62.2c0-0.56-0.24-0.8-0.8-0.8h-0.48c-0.56,0-0.8,0.24-0.8,0.8v2.16c0,1.72,0.84,2.58,2.58,2.58h0.94
		c1.74,0,2.6-0.86,2.6-2.601v-2.279c0-1.141-0.3-1.74-1.24-2.42L149.359,58.061z M133.839,61.88l2.04-8.06c0.18-0.66-0.08-1-0.76-1
		h-0.4c-0.46,0-0.68,0.18-0.78,0.64l-1.12,5.301l-1.08-5.301c-0.1-0.46-0.32-0.64-0.8-0.64h-0.52c-0.68,0-0.94,0.32-0.78,1
		l2.06,8.22v3.98c0,0.56,0.24,0.8,0.8,0.8h0.54c0.56,0,0.8-0.24,0.8-0.8V61.88z M114.659,53.62c0-0.56-0.24-0.8-0.8-0.8h-0.54
		c-0.56,0-0.8,0.24-0.8,0.8v12.4c0,0.56,0.24,0.8,0.8,0.8h0.54c0.56,0,0.8-0.24,0.8-0.8v-5.36h2.06v5.36c0,0.56,0.24,0.8,0.8,0.8
		h0.54c0.56,0,0.8-0.24,0.8-0.8v-12.4c0-0.56-0.24-0.8-0.8-0.8h-0.54c-0.56,0-0.8,0.24-0.8,0.8v5.101h-2.06V53.62z M99.319,59.04
		c0,0.561-0.26,0.82-0.8,0.82h-0.88V54.7h0.88c0.54,0,0.8,0.26,0.8,0.82V59.04z M98.859,61.74c1.74,0,2.6-0.86,2.6-2.6V55.42
		c0-1.739-0.86-2.6-2.6-2.6h-2.56c-0.56,0-0.8,0.24-0.8,0.8v12.4c0,0.56,0.24,0.8,0.8,0.8h0.54c0.56,0,0.8-0.24,0.8-0.8v-4.28
		H98.859z"/>
	<path clip-path="url(#SVGID_2_)" fill="#000002" d="M59.227,70.82h19.38l0.204-9.384h-1.088c0,0-0.272,2.21-0.714,3.468
		c-0.646,1.836-2.244,4.828-5.032,4.828h-3.706c-0.612,0-0.816-0.204-0.816-0.816v-9.792h1.734c1.904,0,3.4,2.721,3.4,4.727h1.088
		V53.208h-1.088c0,1.973-1.496,4.692-3.4,4.692h-1.734v-9.384c0-0.612,0.204-0.816,0.816-0.816h3.74c1.768,0,3.128,1.258,4.08,2.924
		c1.02,1.7,1.36,3.876,1.36,3.876h1.088l-0.204-7.888H59.227V47.7h2.38c0.612,0,0.816,0.204,0.816,0.816v20.399
		c0,0.612-0.204,0.816-0.816,0.816h-2.38V70.82z M28.832,70.82h11.424v-1.088h-2.38c-0.612,0-0.816-0.204-0.816-0.816V58.717h8.024
		v10.199c0,0.612-0.204,0.816-0.816,0.816h-2.38v1.088h11.424v-1.088h-2.38c-0.612,0-0.816-0.204-0.816-0.816V48.517
		c0-0.612,0.204-0.816,0.816-0.816h2.38v-1.088H41.82V47.7h2.448c0.612,0,0.816,0.204,0.816,0.816v8.976H37.06v-8.976
		c0-0.612,0.204-0.816,0.816-0.816h2.38v-1.088H28.832V47.7h2.38c0.612,0,0.816,0.204,0.816,0.816v20.399
		c0,0.612-0.204,0.816-0.816,0.816h-2.38V70.82z M2.04,56.744h1.088c0,0,0.136-1.156,0.714-3.196
		C4.624,50.761,6.426,47.7,8.738,47.7c0.748,0,1.258,0.408,1.258,1.156v20.06c0,0.612-0.204,0.816-0.816,0.816H6.46v1.088h12.104
		v-1.088h-2.72c-0.612,0-0.816-0.204-0.816-0.816v-20.06c0-0.748,0.51-1.156,1.258-1.156c2.312,0,4.114,3.061,4.896,5.848
		c0.578,2.04,0.714,3.196,0.714,3.196h1.088l-0.272-10.132h-20.4L2.04,56.744z"/>
	<path clip-path="url(#SVGID_2_)" fill="#000002" d="M435.467,24.82h19.381l0.203-9.384h-1.088c0,0-0.271,2.21-0.714,3.468
		c-0.646,1.836-2.244,4.828-5.032,4.828h-3.706c-0.612,0-0.815-0.204-0.815-0.816v-9.792h1.734c1.903,0,3.399,2.721,3.399,4.727
		h1.088V7.208h-1.088c0,1.973-1.496,4.692-3.399,4.692h-1.734V2.517c0-0.612,0.203-0.816,0.815-0.816h3.74
		c1.769,0,3.128,1.258,4.08,2.924c1.021,1.7,1.36,3.876,1.36,3.876h1.088l-0.204-7.888h-19.108V1.7h2.381
		c0.611,0,0.815,0.204,0.815,0.816v20.399c0,0.612-0.204,0.816-0.815,0.816h-2.381V24.82z M412.959,14.416l0.204,10.744h1.054
		l0.17-1.088c0.102-0.748,0.408-1.156,0.885-1.156c0.441,0,0.883,0.34,1.768,1.021c0.918,0.748,2.482,1.496,4.658,1.496
		c5.201,0,7.582-3.639,7.582-7.004c0-2.278-1.19-4.624-3.061-5.849l-7.31-4.726c-1.564-1.021-3.026-2.346-3.026-3.91
		c0-1.904,1.122-2.856,3.536-2.856c3.332,0,6.358,3.673,7.616,8.364h1.088l-0.34-8.84h-1.088l-0.204,0.918
		c-0.068,0.442-0.306,0.782-0.748,0.782c-0.341,0-0.782-0.272-1.224-0.612c-0.681-0.476-2.584-1.7-4.828-1.7
		c-3.4,0-6.664,1.836-6.664,6.528c0,3.128,2.107,5.1,3.808,6.188l7.276,4.691c1.359,0.884,2.447,1.802,2.447,3.061
		c0,1.428-0.578,3.876-4.658,3.876c-3.875,0-6.901-4.931-7.854-9.929H412.959z M382.836,1.7h2.176c0.612,0,0.816,0.204,0.816,0.816
		v14.246c0,4.386,2.482,8.67,8.941,8.67c5.135,0,8.127-3.435,8.127-7.685V4.761c0-2.177,1.768-3.061,3.535-3.061V0.612H398V1.7
		c1.768,0,3.536,0.884,3.536,3.061v13.327c0,3.265-2.414,5.984-5.813,5.984c-3.299,0-4.863-1.802-4.863-5.984V2.517
		c0-0.612,0.205-0.816,0.816-0.816h2.176V0.612h-11.016V1.7z M350.196,17.816v-10.2c0-4.896,1.7-6.528,4.284-6.528
		s4.284,1.633,4.284,6.528v10.2c0,4.896-1.7,6.528-4.284,6.528S350.196,22.712,350.196,17.816 M344.416,12.717
		c0,6.527,4.692,12.716,10.064,12.716s10.064-6.188,10.064-12.716C364.544,6.188,359.852,0,354.48,0S344.416,6.188,344.416,12.717
		 M317.352,10.744h1.088c0,0,0.136-1.156,0.714-3.196c0.782-2.787,2.584-5.848,4.896-5.848c0.748,0,1.258,0.408,1.258,1.156v20.06
		c0,0.612-0.204,0.816-0.816,0.816h-2.72v1.088h12.104v-1.088h-2.72c-0.612,0-0.816-0.204-0.816-0.816V2.856
		c0-0.748,0.51-1.156,1.258-1.156c2.312,0,4.114,3.061,4.896,5.848c0.578,2.04,0.714,3.196,0.714,3.196h1.088l-0.272-10.132h-20.4
		L317.352,10.744z M276.417,24.82h12.648c5.644,0,10.268-5.236,10.268-12.308c0-7.072-4.624-11.9-10.268-11.9h-12.648V1.7h2.38
		c0.612,0,0.816,0.204,0.816,0.816v20.399c0,0.612-0.204,0.816-0.816,0.816h-2.38V24.82z M284.644,22.916V2.517
		c0-0.612,0.205-0.816,0.817-0.816h3.026c2.72,0,5.066,1.836,5.066,5.916v10.2c0,4.08-2.346,5.916-5.066,5.916h-3.026
		C284.849,23.732,284.644,23.528,284.644,22.916 M250.577,24.82h19.38l0.204-9.384h-1.088c0,0-0.272,2.21-0.714,3.468
		c-0.646,1.836-2.244,4.828-5.032,4.828h-3.706c-0.612,0-0.816-0.204-0.816-0.816v-9.792h1.734c1.904,0,3.4,2.721,3.4,4.727h1.088
		V7.208h-1.088c0,1.973-1.496,4.692-3.4,4.692h-1.734V2.517c0-0.612,0.204-0.816,0.816-0.816h3.74c1.768,0,3.128,1.258,4.08,2.924
		c1.02,1.7,1.36,3.876,1.36,3.876h1.088l-0.204-7.888h-19.108V1.7h2.38c0.612,0,0.816,0.204,0.816,0.816v20.399
		c0,0.612-0.204,0.816-0.816,0.816h-2.38V24.82z M221.473,24.82h12.648c5.644,0,10.268-5.236,10.268-12.308
		c0-7.072-4.624-11.9-10.268-11.9h-12.648V1.7h2.38c0.612,0,0.816,0.204,0.816,0.816v20.399c0,0.612-0.204,0.816-0.816,0.816h-2.38
		V24.82z M229.701,22.916V2.517c0-0.612,0.204-0.816,0.816-0.816h3.026c2.72,0,5.066,1.836,5.066,5.916v10.2
		c0,4.08-2.346,5.916-5.066,5.916h-3.026C229.905,23.732,229.701,23.528,229.701,22.916 M204.134,24.82h11.424v-1.088h-2.38
		c-0.612,0-0.816-0.204-0.816-0.816V2.517c0-0.612,0.204-0.816,0.816-0.816h2.38V0.612h-11.424V1.7h2.38
		c0.612,0,0.816,0.204,0.816,0.816v20.399c0,0.612-0.204,0.816-0.816,0.816h-2.38V24.82z M179.586,12.717
		c0,6.392,3.264,12.716,9.86,12.716c3.4,0,5.814-1.666,7.174-4.318c0.816-1.598,1.258-3.774,1.394-5.644h-1.224
		c-0.17,1.598-0.51,3.638-1.326,5.168c-1.02,1.903-2.822,3.706-6.018,3.706c-1.904,0-4.08-1.633-4.08-6.528v-10.2
		c0-4.896,1.836-6.528,3.74-6.528c3.4,0,6.12,3.809,7.14,9.622h1.088V0.272h-1.122L195.6,1.53c-0.17,0.374-0.34,0.646-0.748,0.646
		c-0.272,0-0.68-0.204-1.156-0.511C192.336,0.748,190.942,0,189.106,0C183.122,0,179.586,5.916,179.586,12.717 M153.474,24.82h19.38
		l0.204-9.384h-1.088c0,0-0.272,2.21-0.714,3.468c-0.646,1.836-2.244,4.828-5.032,4.828h-3.706c-0.612,0-0.816-0.204-0.816-0.816
		v-9.792h1.734c1.904,0,3.4,2.721,3.4,4.727h1.088V7.208h-1.088c0,1.973-1.496,4.692-3.4,4.692h-1.734V2.517
		c0-0.612,0.204-0.816,0.816-0.816h3.74c1.768,0,3.128,1.258,4.08,2.924c1.02,1.7,1.36,3.876,1.36,3.876h1.088l-0.204-7.888h-19.108
		V1.7h2.38c0.612,0,0.816,0.204,0.816,0.816v20.399c0,0.612-0.204,0.816-0.816,0.816h-2.38V24.82z M124.371,24.82h12.648
		c5.644,0,10.268-5.236,10.268-12.308c0-7.072-4.624-11.9-10.268-11.9h-12.648V1.7h2.38c0.612,0,0.816,0.204,0.816,0.816v20.399
		c0,0.612-0.204,0.816-0.816,0.816h-2.38V24.82z M132.599,22.916V2.517c0-0.612,0.204-0.816,0.816-0.816h3.026
		c2.72,0,5.066,1.836,5.066,5.916v10.2c0,4.08-2.346,5.916-5.066,5.916h-3.026C132.803,23.732,132.599,23.528,132.599,22.916
		 M84.523,1.7h1.19c0.918,0,1.462,0.306,2.006,1.496l5.78,12.478v7.242c0,0.612-0.204,0.816-0.816,0.816h-2.176v1.088h11.016v-1.088
		h-2.176c-0.612,0-0.816-0.204-0.816-0.816v-7.548l4.59-11.186c0.442-1.156,1.428-2.482,3.094-2.482h1.02V0.612h-8.432V1.7h0.952
		c1.36,0,1.836,1.122,1.836,2.074c0,0.578-0.238,1.394-0.476,1.938l-3.128,7.786L93.499,3.74c-0.136-0.271-0.204-0.68-0.204-0.952
		c0-0.476,0.272-1.088,0.952-1.088h0.952V0.612H84.523V1.7z M59.227,24.82h19.38l0.204-9.384h-1.088c0,0-0.272,2.21-0.714,3.468
		c-0.646,1.836-2.244,4.828-5.032,4.828h-3.706c-0.612,0-0.816-0.204-0.816-0.816v-9.792h1.734c1.904,0,3.4,2.721,3.4,4.727h1.088
		V7.208h-1.088c0,1.973-1.496,4.692-3.4,4.692h-1.734V2.517c0-0.612,0.204-0.816,0.816-0.816h3.74c1.768,0,3.128,1.258,4.08,2.924
		c1.02,1.7,1.36,3.876,1.36,3.876h1.088l-0.204-7.888H59.227V1.7h2.38c0.612,0,0.816,0.204,0.816,0.816v20.399
		c0,0.612-0.204,0.816-0.816,0.816h-2.38V24.82z M28.832,24.82h11.424v-1.088h-2.38c-0.612,0-0.816-0.204-0.816-0.816V12.717h8.024
		v10.199c0,0.612-0.204,0.816-0.816,0.816h-2.38v1.088h11.424v-1.088h-2.38c-0.612,0-0.816-0.204-0.816-0.816V2.517
		c0-0.612,0.204-0.816,0.816-0.816h2.38V0.612H41.82V1.7h2.448c0.612,0,0.816,0.204,0.816,0.816v8.976H37.06V2.517
		c0-0.612,0.204-0.816,0.816-0.816h2.38V0.612H28.832V1.7h2.38c0.612,0,0.816,0.204,0.816,0.816v20.399
		c0,0.612-0.204,0.816-0.816,0.816h-2.38V24.82z M2.04,10.744h1.088c0,0,0.136-1.156,0.714-3.196C4.624,4.761,6.426,1.7,8.738,1.7
		c0.748,0,1.258,0.408,1.258,1.156v20.06c0,0.612-0.204,0.816-0.816,0.816H6.46v1.088h12.104v-1.088h-2.72
		c-0.612,0-0.816-0.204-0.816-0.816V2.856c0-0.748,0.51-1.156,1.258-1.156c2.312,0,4.114,3.061,4.896,5.848
		c0.578,2.04,0.714,3.196,0.714,3.196h1.088L22.712,0.612h-20.4L2.04,10.744z"/>
</g>
<g>
</g>
<g>
</g>
<g>
</g>
<g>
</g>
<g>
</g>
<g>
</g>
<g>
</g>
<g>
</g>
<g>
</g>
<g>
</g>
<g>
</g>
<g>
</g>
<g>
</g>
<g>
</g>
<g>
</g>
</svg>
