<?xml version="1.0" encoding="utf-8"?>
<!-- Generator: Adobe Illustrator 16.2.1, SVG Export Plug-In . SVG Version: 6.00 Build 0)  -->
<!DOCTYPE svg PUBLIC "-//W3C//DTD SVG 1.1//EN" "http://www.w3.org/Graphics/SVG/1.1/DTD/svg11.dtd">
<svg version="1.1" id="Layer_1" xmlns="http://www.w3.org/2000/svg" xmlns:xlink="http://www.w3.org/1999/xlink" x="0px" y="0px"
	 width="928px" height="232px" viewBox="0 0 928 232" enable-background="new 0 0 928 232" xml:space="preserve">
<g>
	<defs>
		<rect id="SVGID_1_" width="891.648" height="232.612"/>
	</defs>
	<clipPath id="SVGID_2_">
		<use xlink:href="#SVGID_1_"  overflow="visible"/>
	</clipPath>
	<line clip-path="url(#SVGID_2_)" fill="none" stroke="#EC1B2E" x1="0" y1="0.5" x2="312.75" y2="0.5"/>
	<path clip-path="url(#SVGID_2_)" fill="#231F20" d="M695.566,225.34c-0.561,0-0.801,0.24-0.801,0.801v1.06
		c0,0.561,0.24,0.8,0.801,0.8h0.42c0.559,0,0.799-0.239,0.799-0.8v-1.06c0-0.561-0.24-0.801-0.799-0.801H695.566z M680.346,219.24
		c-0.4-0.28-0.6-0.56-0.6-1.14v-1.561c0-0.54,0.26-0.8,0.799-0.8h0.26c0.541,0,0.801,0.26,0.801,0.8v1.66
		c0,0.561,0.24,0.8,0.801,0.8h0.5c0.559,0,0.799-0.239,0.799-0.8v-1.74c0-1.72-0.859-2.58-2.58-2.58h-0.9
		c-1.738,0-2.6,0.86-2.6,2.601v1.92c0,1.08,0.281,1.74,1.24,2.42l2.16,1.58c0.4,0.3,0.6,0.56,0.6,1.14v1.92
		c0,0.54-0.26,0.801-0.82,0.801h-0.279c-0.561,0-0.82-0.261-0.82-0.801v-2.08c0-0.56-0.24-0.8-0.799-0.8h-0.48
		c-0.561,0-0.801,0.24-0.801,0.8v2.16c0,1.721,0.84,2.58,2.58,2.58h0.939c1.74,0,2.602-0.859,2.602-2.6v-2.28
		c0-1.14-0.301-1.74-1.24-2.42L680.346,219.24z M661.766,227.2c0,0.561,0.24,0.8,0.801,0.8h3.199c0.561,0,0.801-0.239,0.801-0.8
		v-0.34c0-0.56-0.24-0.8-0.801-0.8h-1.859v-4.221h1.719c0.561,0,0.801-0.239,0.801-0.8v-0.34c0-0.56-0.24-0.8-0.801-0.8h-1.719
		v-3.96h1.818c0.561,0,0.801-0.24,0.801-0.8v-0.34c0-0.561-0.24-0.801-0.801-0.801h-3.158c-0.561,0-0.801,0.24-0.801,0.801V227.2z
		 M646.445,227.2c0,0.561,0.24,0.8,0.801,0.8h2.898c0.561,0,0.801-0.239,0.801-0.8v-0.34c0-0.56-0.24-0.8-0.801-0.8h-1.559v-11.26
		c0-0.561-0.24-0.801-0.801-0.801h-0.539c-0.561,0-0.801,0.24-0.801,0.801V227.2z M632.246,221.78c0.6,0,0.879,0.28,0.879,0.88v2.66
		c0,0.54-0.26,0.8-0.799,0.8h-1.061v-4.34H632.246z M633.086,219.08c0,0.58-0.281,0.88-0.881,0.88h-0.939v-4.08h1.02
		c0.541,0,0.801,0.261,0.801,0.801V219.08z M635.205,218.66v-2.06c0-1.74-0.859-2.601-2.6-2.601h-2.66
		c-0.561,0-0.801,0.24-0.801,0.801V227.2c0,0.561,0.24,0.8,0.801,0.8h2.699c1.74,0,2.602-0.859,2.602-2.6v-2.58
		c0-1.14-0.4-1.74-1.221-2.02C634.785,220.521,635.205,219.9,635.205,218.66 M616.506,214c-0.559,0-0.799,0.24-0.799,0.801V227.2
		c0,0.561,0.24,0.8,0.799,0.8h0.539c0.561,0,0.801-0.239,0.801-0.8v-12.399c0-0.561-0.24-0.801-0.801-0.801H616.506z
		 M602.305,225.42c0,0.561-0.26,0.82-0.799,0.82h-0.439c-0.561,0-0.82-0.26-0.82-0.82v-8.84c0-0.56,0.26-0.819,0.82-0.819h0.439
		c0.539,0,0.799,0.26,0.799,0.819V225.42z M604.447,216.48c0-1.74-0.861-2.601-2.602-2.601h-1.139c-1.74,0-2.602,0.86-2.602,2.601
		v9.04c0,1.74,0.861,2.6,2.602,2.6h1.139c1.74,0,2.602-0.859,2.602-2.6V216.48z M582.627,227.2c0,0.561,0.24,0.8,0.799,0.8h0.541
		c0.561,0,0.799-0.239,0.799-0.8v-5.28h1.621c0.561,0,0.799-0.239,0.799-0.8v-0.34c0-0.56-0.238-0.8-0.799-0.8h-1.621v-4.04h1.721
		c0.561,0,0.801-0.24,0.801-0.8v-0.34c0-0.561-0.24-0.801-0.801-0.801h-3.061c-0.559,0-0.799,0.24-0.799,0.801V227.2z
		 M555.486,215.88c0.84,0,1.221,0.4,1.221,1.24v7.76c0,0.841-0.381,1.24-1.221,1.24h-0.779v-10.24H555.486z M555.787,228
		c2.08,0,3.059-1,3.059-3.06v-7.88c0-2.061-0.979-3.061-3.059-3.061h-2.42c-0.561,0-0.801,0.24-0.801,0.801V227.2
		c0,0.561,0.24,0.8,0.801,0.8H555.787z M536.787,218.561l2.039,8.819c0.1,0.44,0.32,0.62,0.779,0.62h0.881
		c0.561,0,0.801-0.239,0.801-0.8v-12.399c0-0.561-0.24-0.801-0.801-0.801h-0.32c-0.561,0-0.799,0.24-0.799,0.801v5.5l0.02,2.34
		l-1.859-8.021c-0.102-0.439-0.32-0.62-0.781-0.62h-1.061c-0.559,0-0.799,0.24-0.799,0.801V227.2c0,0.561,0.24,0.8,0.799,0.8h0.32
		c0.561,0,0.801-0.239,0.801-0.8v-6.16L536.787,218.561z M523.105,228c0.621,0,0.881-0.3,0.781-0.92l-1.781-12.399
		c-0.078-0.48-0.299-0.681-0.799-0.681h-1.439c-0.5,0-0.721,0.2-0.801,0.681l-1.76,12.399c-0.1,0.62,0.16,0.92,0.779,0.92h0.361
		c0.5,0,0.719-0.199,0.779-0.699l0.199-1.5h2.221l0.18,1.5c0.061,0.5,0.279,0.699,0.801,0.699H523.105z M519.646,223.9l0.881-7.08
		l0.879,7.08H519.646z M492.887,229.681l0.221-0.341c0.68-1,0.76-1.359,0.76-2.359v-0.84c0-0.54-0.199-0.801-0.799-0.801h-0.422
		c-0.559,0-0.799,0.24-0.799,0.801v1.239c0,0.4,0.26,0.62,0.641,0.62h0.059c-0.039,0.301-0.219,0.7-0.4,1.101l-0.119,0.26
		c-0.119,0.24-0.039,0.46,0.16,0.52l0.119,0.041C492.547,230,492.727,229.92,492.887,229.681 M477.428,219.24
		c-0.4-0.28-0.6-0.56-0.6-1.14v-1.561c0-0.54,0.26-0.8,0.799-0.8h0.26c0.541,0,0.801,0.26,0.801,0.8v1.66
		c0,0.561,0.24,0.8,0.801,0.8h0.5c0.559,0,0.799-0.239,0.799-0.8v-1.74c0-1.72-0.859-2.58-2.58-2.58h-0.9
		c-1.738,0-2.6,0.86-2.6,2.601v1.92c0,1.08,0.281,1.74,1.24,2.42l2.16,1.58c0.4,0.3,0.6,0.56,0.6,1.14v1.92
		c0,0.54-0.26,0.801-0.82,0.801h-0.279c-0.561,0-0.82-0.261-0.82-0.801v-2.08c0-0.56-0.24-0.8-0.799-0.8h-0.48
		c-0.561,0-0.801,0.24-0.801,0.8v2.16c0,1.721,0.84,2.58,2.58,2.58h0.939c1.74,0,2.602-0.859,2.602-2.6v-2.28
		c0-1.14-0.301-1.74-1.24-2.42L477.428,219.24z M463.508,219.24v-2.64c0-1.74-0.86-2.601-2.6-2.601h-2.72
		c-0.56,0-0.8,0.24-0.8,0.801V227.2c0,0.561,0.24,0.8,0.8,0.8h0.54c0.56,0,0.8-0.239,0.8-0.8v-4.82h0.96c0.62,0,0.9,0.28,0.9,0.9
		v3.92c0,0.561,0.24,0.8,0.8,0.8h0.54c0.56,0,0.8-0.239,0.8-0.8v-3.96c0-1.06-0.36-1.6-1.24-1.84
		C463.068,221.08,463.508,220.48,463.508,219.24 M461.368,219.66c0,0.58-0.28,0.86-0.88,0.86h-0.96v-4.62h1.04
		c0.54,0,0.8,0.26,0.8,0.8V219.66z M445.608,228c0.62,0,0.88-0.3,0.78-0.92l-1.78-12.399c-0.08-0.48-0.3-0.681-0.8-0.681h-1.44
		c-0.5,0-0.72,0.2-0.8,0.681l-1.76,12.399c-0.1,0.62,0.16,0.92,0.78,0.92h0.36c0.5,0,0.72-0.199,0.78-0.699l0.2-1.5h2.22l0.18,1.5
		c0.06,0.5,0.28,0.699,0.8,0.699H445.608z M442.148,223.9l0.88-7.08l0.88,7.08H442.148z M424.168,227.2c0,0.561,0.24,0.8,0.8,0.8
		h3.2c0.56,0,0.8-0.239,0.8-0.8v-0.34c0-0.56-0.24-0.8-0.8-0.8h-1.86v-4.221h1.72c0.56,0,0.8-0.239,0.8-0.8v-0.34
		c0-0.56-0.24-0.8-0.8-0.8h-1.72v-3.96h1.82c0.56,0,0.8-0.24,0.8-0.8v-0.34c0-0.561-0.24-0.801-0.8-0.801h-3.16
		c-0.56,0-0.8,0.24-0.8,0.801V227.2z M408.649,227.2c0,0.561,0.24,0.8,0.8,0.8h0.54c0.56,0,0.8-0.239,0.8-0.8v-5.28h1.62
		c0.56,0,0.8-0.239,0.8-0.8v-0.34c0-0.56-0.24-0.8-0.8-0.8h-1.62v-4.04h1.72c0.56,0,0.8-0.24,0.8-0.8v-0.34
		c0-0.561-0.24-0.801-0.8-0.801h-3.06c-0.56,0-0.8,0.24-0.8,0.801V227.2z M383.989,229.681l0.22-0.341c0.68-1,0.76-1.359,0.76-2.359
		v-0.84c0-0.54-0.2-0.801-0.8-0.801h-0.42c-0.56,0-0.8,0.24-0.8,0.801v1.239c0,0.4,0.26,0.62,0.64,0.62h0.06
		c-0.04,0.301-0.22,0.7-0.4,1.101l-0.12,0.26c-0.12,0.24-0.04,0.46,0.16,0.52l0.12,0.041
		C383.649,230,383.829,229.92,383.989,229.681 M368.529,219.24c-0.4-0.28-0.6-0.56-0.6-1.14v-1.561c0-0.54,0.26-0.8,0.8-0.8h0.26
		c0.54,0,0.8,0.26,0.8,0.8v1.66c0,0.561,0.24,0.8,0.8,0.8h0.5c0.56,0,0.8-0.239,0.8-0.8v-1.74c0-1.72-0.86-2.58-2.58-2.58h-0.9
		c-1.74,0-2.6,0.86-2.6,2.601v1.92c0,1.08,0.28,1.74,1.24,2.42l2.16,1.58c0.4,0.3,0.6,0.56,0.6,1.14v1.92
		c0,0.54-0.26,0.801-0.82,0.801h-0.28c-0.56,0-0.82-0.261-0.82-0.801v-2.08c0-0.56-0.24-0.8-0.8-0.8h-0.48c-0.56,0-0.8,0.24-0.8,0.8
		v2.16c0,1.721,0.84,2.58,2.58,2.58h0.94c1.74,0,2.6-0.859,2.6-2.6v-2.28c0-1.14-0.3-1.74-1.24-2.42L368.529,219.24z M349.949,227.2
		c0,0.561,0.24,0.8,0.8,0.8h3.2c0.56,0,0.8-0.239,0.8-0.8v-0.34c0-0.56-0.24-0.8-0.8-0.8h-1.86v-4.221h1.72
		c0.56,0,0.8-0.239,0.8-0.8v-0.34c0-0.56-0.24-0.8-0.8-0.8h-1.72v-3.96h1.82c0.56,0,0.8-0.24,0.8-0.8v-0.34
		c0-0.561-0.24-0.801-0.8-0.801h-3.16c-0.56,0-0.8,0.24-0.8,0.801V227.2z M336.749,220.221c0,0.56-0.26,0.819-0.8,0.819h-0.88v-5.16
		h0.88c0.54,0,0.8,0.261,0.8,0.82V220.221z M336.289,222.92c1.74,0,2.6-0.859,2.6-2.6v-3.72c0-1.74-0.86-2.601-2.6-2.601h-2.56
		c-0.56,0-0.8,0.24-0.8,0.801V227.2c0,0.561,0.24,0.8,0.8,0.8h0.54c0.56,0,0.8-0.239,0.8-0.8v-4.28H336.289z M319.549,225.42
		c0,0.561-0.26,0.82-0.8,0.82h-0.44c-0.56,0-0.82-0.26-0.82-0.82v-8.84c0-0.56,0.26-0.819,0.82-0.819h0.44
		c0.54,0,0.8,0.26,0.8,0.819V225.42z M321.689,216.48c0-1.74-0.86-2.601-2.6-2.601h-1.14c-1.74,0-2.6,0.86-2.6,2.601v9.04
		c0,1.74,0.86,2.6,2.6,2.6h1.14c1.74,0,2.6-0.859,2.6-2.6V216.48z M299.909,214.801c0-0.561-0.24-0.801-0.8-0.801h-0.54
		c-0.56,0-0.8,0.24-0.8,0.801V227.2c0,0.561,0.24,0.8,0.8,0.8h0.54c0.56,0,0.8-0.239,0.8-0.8v-5.36h2.06v5.36
		c0,0.561,0.24,0.8,0.8,0.8h0.54c0.56,0,0.8-0.239,0.8-0.8v-12.399c0-0.561-0.24-0.801-0.8-0.801h-0.54c-0.56,0-0.8,0.24-0.8,0.801
		v5.1h-2.06V214.801z"/>
	<path clip-path="url(#SVGID_2_)" fill="#000002" d="M264.829,221.597l0.204,10.744h1.054l0.17-1.088
		c0.102-0.748,0.408-1.156,0.884-1.156c0.442,0,0.884,0.34,1.768,1.02c0.918,0.748,2.482,1.496,4.658,1.496
		c5.202,0,7.582-3.637,7.582-7.003c0-2.278-1.19-4.624-3.06-5.848l-7.31-4.727c-1.564-1.02-3.026-2.346-3.026-3.91
		c0-1.903,1.122-2.855,3.536-2.855c3.332,0,6.358,3.672,7.616,8.363h1.088l-0.34-8.84h-1.088l-0.204,0.918
		c-0.068,0.442-0.306,0.782-0.748,0.782c-0.34,0-0.782-0.271-1.224-0.612c-0.68-0.476-2.584-1.699-4.828-1.699
		c-3.4,0-6.664,1.836-6.664,6.527c0,3.128,2.108,5.101,3.808,6.188l7.276,4.691c1.36,0.885,2.448,1.803,2.448,3.061
		c0,1.428-0.578,3.875-4.658,3.875c-3.876,0-6.902-4.929-7.854-9.927H264.829z M246.538,232h11.424v-1.088h-2.38
		c-0.612,0-0.816-0.205-0.816-0.816v-20.4c0-0.612,0.204-0.816,0.816-0.816h2.38v-1.088h-11.424v1.088h2.38
		c0.612,0,0.816,0.204,0.816,0.816v20.4c0,0.611-0.204,0.816-0.816,0.816h-2.38V232z M216.142,232h11.424v-1.088h-2.38
		c-0.612,0-0.816-0.205-0.816-0.816v-10.2h8.024v10.2c0,0.611-0.204,0.816-0.816,0.816h-2.38V232h11.424v-1.088h-2.38
		c-0.612,0-0.816-0.205-0.816-0.816v-20.4c0-0.612,0.204-0.816,0.816-0.816h2.38v-1.088H229.13v1.088h2.448
		c0.612,0,0.816,0.204,0.816,0.816v8.976h-8.024v-8.976c0-0.612,0.204-0.816,0.816-0.816h2.38v-1.088h-11.424v1.088h2.38
		c0.612,0,0.816,0.204,0.816,0.816v20.4c0,0.611-0.204,0.816-0.816,0.816h-2.38V232z M175.138,232h12.648
		c5.644,0,10.268-5.236,10.268-12.308s-4.624-11.9-10.268-11.9h-12.648v1.088h2.38c0.612,0,0.816,0.204,0.816,0.816v20.4
		c0,0.611-0.204,0.816-0.816,0.816h-2.38V232z M183.366,230.096v-20.4c0-0.612,0.204-0.816,0.816-0.816h3.026
		c2.72,0,5.066,1.836,5.066,5.916v10.2c0,4.08-2.346,5.917-5.066,5.917h-3.026C183.57,230.913,183.366,230.708,183.366,230.096
		 M149.299,232h19.38l0.204-9.384h-1.088c0,0-0.272,2.21-0.714,3.468c-0.646,1.836-2.244,4.829-5.032,4.829h-3.706
		c-0.612,0-0.816-0.205-0.816-0.816v-9.792h1.734c1.904,0,3.4,2.72,3.4,4.726h1.088v-10.642h-1.088c0,1.972-1.496,4.691-3.4,4.691
		h-1.734v-9.384c0-0.612,0.204-0.816,0.816-0.816h3.74c1.768,0,3.128,1.259,4.08,2.925c1.02,1.699,1.36,3.876,1.36,3.876h1.088
		l-0.204-7.889h-19.108v1.088h2.38c0.612,0,0.816,0.204,0.816,0.816v20.4c0,0.611-0.204,0.816-0.816,0.816h-2.38V232z M124.139,232
		h19.244l0.272-10.472h-1.088c0,0-0.476,2.21-0.85,3.468c-0.578,1.87-2.312,5.917-5.1,5.917h-3.434
		c-0.612,0-0.816-0.307-0.816-0.918v-20.298c0-0.612,0.204-0.816,0.816-0.816h2.38v-1.088h-11.424v1.088h2.38
		c0.612,0,0.816,0.204,0.816,0.816v20.298c0,0.611-0.204,0.918-0.816,0.918h-2.38V232z M106.799,232h11.424v-1.088h-2.38
		c-0.612,0-0.816-0.205-0.816-0.816v-20.4c0-0.612,0.204-0.816,0.816-0.816h2.38v-1.088h-11.424v1.088h2.38
		c0.612,0,0.816,0.204,0.816,0.816v20.4c0,0.611-0.204,0.816-0.816,0.816h-2.38V232z M78.171,232h8.67v-1.088h-1.598
		c-1.122,0-1.768-0.783-1.768-1.531c0-0.441,0.136-1.121,0.374-1.733l0.714-2.074h7.14l1.088,3.264
		c0.102,0.307,0.204,0.782,0.204,0.986c0,0.579-0.374,1.088-0.918,1.088h-2.448V232h11.934v-1.088h-1.36
		c-0.884,0-1.598-0.545-2.006-1.734l-7.276-21.998h-1.428l-7.174,20.978c-0.476,1.36-1.53,2.754-2.992,2.754h-1.156V232z
		 M85.005,224.316l3.196-9.351l3.094,9.351H85.005z M54.983,217.924h1.088c0,0,0.136-1.155,0.714-3.195
		c0.782-2.788,2.584-5.849,4.896-5.849c0.748,0,1.258,0.408,1.258,1.156v20.06c0,0.611-0.204,0.816-0.816,0.816h-2.72V232h12.104
		v-1.088h-2.72c-0.612,0-0.816-0.205-0.816-0.816v-20.06c0-0.748,0.51-1.156,1.258-1.156c2.312,0,4.114,3.061,4.896,5.849
		c0.578,2.04,0.714,3.195,0.714,3.195h1.088l-0.272-10.132h-20.4L54.983,217.924z M29.212,232h19.38l0.204-9.384h-1.088
		c0,0-0.272,2.21-0.714,3.468c-0.646,1.836-2.244,4.829-5.032,4.829h-3.706c-0.612,0-0.816-0.205-0.816-0.816v-9.792h1.734
		c1.904,0,3.4,2.72,3.4,4.726h1.088v-10.642h-1.088c0,1.972-1.496,4.691-3.4,4.691H37.44v-9.384c0-0.612,0.204-0.816,0.816-0.816
		h3.74c1.768,0,3.128,1.259,4.08,2.925c1.02,1.699,1.36,3.876,1.36,3.876h1.088l-0.204-7.889H29.212v1.088h2.38
		c0.612,0,0.816,0.204,0.816,0.816v20.4c0,0.611-0.204,0.816-0.816,0.816h-2.38V232z M0.108,232h12.648
		c5.644,0,10.268-5.236,10.268-12.308s-4.624-11.9-10.268-11.9H0.108v1.088h2.38c0.612,0,0.816,0.204,0.816,0.816v20.4
		c0,0.611-0.204,0.816-0.816,0.816h-2.38V232z M8.336,230.096v-20.4c0-0.612,0.204-0.816,0.816-0.816h3.026
		c2.72,0,5.066,1.836,5.066,5.916v10.2c0,4.08-2.346,5.917-5.066,5.917H9.152C8.54,230.913,8.336,230.708,8.336,230.096"/>
	<path clip-path="url(#SVGID_2_)" fill="#000002" d="M870.703,171.924h1.088c0,0,0.137-1.155,0.715-3.195
		c0.781-2.788,2.584-5.849,4.896-5.849c0.748,0,1.258,0.408,1.258,1.156v20.061c0,0.611-0.205,0.815-0.816,0.815h-2.721V186h12.105
		v-1.088h-2.721c-0.611,0-0.816-0.204-0.816-0.815v-20.061c0-0.748,0.51-1.156,1.258-1.156c2.312,0,4.115,3.061,4.896,5.849
		c0.578,2.04,0.713,3.195,0.713,3.195h1.09l-0.273-10.132h-20.4L870.703,171.924z M844.592,186h8.67v-1.088h-1.598
		c-1.123,0-1.768-0.782-1.768-1.53c0-0.441,0.135-1.121,0.373-1.733l0.715-2.074h7.139l1.088,3.264
		c0.104,0.307,0.205,0.782,0.205,0.986c0,0.578-0.375,1.088-0.918,1.088h-2.449V186h11.936v-1.088h-1.361
		c-0.883,0-1.598-0.544-2.006-1.733l-7.275-21.998h-1.428l-7.174,20.978c-0.477,1.36-1.531,2.754-2.992,2.754h-1.156V186z
		 M851.426,178.316l3.195-9.351l3.094,9.351H851.426z M814.807,186h11.426v-1.088h-2.381c-0.611,0-0.814-0.204-0.814-0.815v-10.2
		h8.021v10.2c0,0.611-0.201,0.815-0.814,0.815h-2.379V186h11.424v-1.088h-2.381c-0.611,0-0.816-0.204-0.816-0.815v-20.4
		c0-0.612,0.205-0.816,0.816-0.816h2.381v-1.088h-11.492v1.088h2.447c0.613,0,0.814,0.204,0.814,0.816v8.976h-8.021v-8.976
		c0-0.612,0.203-0.816,0.814-0.816h2.381v-1.088h-11.426v1.088h2.381c0.611,0,0.816,0.204,0.816,0.816v20.4
		c0,0.611-0.205,0.815-0.816,0.815h-2.381V186z M788.016,171.924h1.09c0,0,0.135-1.155,0.713-3.195
		c0.781-2.788,2.584-5.849,4.896-5.849c0.748,0,1.258,0.408,1.258,1.156v20.061c0,0.611-0.205,0.815-0.816,0.815h-2.719V186h12.104
		v-1.088h-2.721c-0.611,0-0.816-0.204-0.816-0.815v-20.061c0-0.748,0.51-1.156,1.258-1.156c2.312,0,4.115,3.061,4.896,5.849
		c0.578,2.04,0.715,3.195,0.715,3.195h1.088l-0.271-10.132h-20.4L788.016,171.924z M753.676,175.597l0.205,10.743h1.053l0.172-1.088
		c0.102-0.748,0.406-1.155,0.883-1.155c0.441,0,0.885,0.34,1.768,1.02c0.918,0.748,2.482,1.496,4.658,1.496
		c5.203,0,7.582-3.638,7.582-7.004c0-2.278-1.189-4.624-3.059-5.848l-7.311-4.727c-1.564-1.02-3.027-2.346-3.027-3.91
		c0-1.903,1.123-2.855,3.537-2.855c3.332,0,6.357,3.672,7.615,8.363h1.088l-0.34-8.84h-1.088l-0.203,0.918
		c-0.068,0.442-0.307,0.782-0.748,0.782c-0.34,0-0.783-0.271-1.225-0.612c-0.68-0.476-2.584-1.699-4.828-1.699
		c-3.4,0-6.664,1.836-6.664,6.527c0,3.128,2.109,5.101,3.809,6.188l7.275,4.691c1.361,0.885,2.449,1.803,2.449,3.061
		c0,1.428-0.578,3.876-4.658,3.876c-3.877,0-6.902-4.93-7.855-9.928H753.676z M726.885,186h19.381l0.203-9.384h-1.088
		c0,0-0.271,2.21-0.713,3.468c-0.646,1.836-2.244,4.828-5.033,4.828h-3.705c-0.611,0-0.816-0.204-0.816-0.815v-9.792h1.734
		c1.904,0,3.4,2.72,3.4,4.726h1.088v-10.642h-1.088c0,1.972-1.496,4.691-3.4,4.691h-1.734v-9.384c0-0.612,0.205-0.816,0.816-0.816
		h3.74c1.768,0,3.127,1.259,4.08,2.925c1.02,1.699,1.359,3.876,1.359,3.876h1.088l-0.203-7.889h-19.109v1.088h2.381
		c0.611,0,0.816,0.204,0.816,0.816v20.4c0,0.611-0.205,0.815-0.816,0.815h-2.381V186z M709.545,186h11.424v-1.088h-2.379
		c-0.611,0-0.816-0.204-0.816-0.815v-20.4c0-0.612,0.205-0.816,0.816-0.816h2.379v-1.088h-11.424v1.088h2.381
		c0.611,0,0.816,0.204,0.816,0.816v20.4c0,0.611-0.205,0.815-0.816,0.815h-2.381V186z M682.346,186h12.035v-1.088h-2.992
		c-0.611,0-0.814-0.204-0.814-0.815v-10.473h1.904c2.379,0,3.264,1.904,3.264,3.876v4.216c0,3.469,1.938,5.101,4.725,5.101
		c3.266,0,4.047-2.992,4.047-6.937h-1.088c0,2.414-0.408,5.032-1.701,5.032c-0.611,0-0.951-0.408-0.951-1.428v-3.774
		c0-4.25-2.312-5.712-5.508-6.29v-0.237c3.535-0.408,6.256-2.143,6.256-5.406c0-3.74-3.332-5.984-8.16-5.984h-11.016v1.088h2.379
		c0.613,0,0.816,0.204,0.816,0.816v20.4c0,0.611-0.203,0.815-0.816,0.815h-2.379V186z M690.574,172.536v-8.84
		c0-0.612,0.203-0.816,0.814-0.816h1.463c2.551,0,3.23,1.769,3.23,4.624c0,2.856-0.68,5.032-3.23,5.032H690.574z M653.717,186h8.67
		v-1.088h-1.598c-1.121,0-1.768-0.782-1.768-1.53c0-0.441,0.137-1.121,0.375-1.733l0.713-2.074h7.141l1.088,3.264
		c0.102,0.307,0.203,0.782,0.203,0.986c0,0.578-0.373,1.088-0.918,1.088h-2.447V186h11.934v-1.088h-1.359
		c-0.885,0-1.598-0.544-2.006-1.733l-7.277-21.998h-1.428l-7.174,20.978c-0.477,1.36-1.529,2.754-2.992,2.754h-1.156V186z
		 M660.551,178.316l3.197-9.351l3.094,9.351H660.551z M636.99,186h11.424v-1.088h-2.379c-0.613,0-0.816-0.204-0.816-0.815v-20.4
		c0-0.612,0.203-0.816,0.816-0.816h2.379v-1.088H636.99v1.088h2.381c0.611,0,0.816,0.204,0.816,0.816v20.4
		c0,0.611-0.205,0.815-0.816,0.815h-2.381V186z M607.887,186h12.648c5.643,0,10.268-5.235,10.268-12.308s-4.625-11.9-10.268-11.9
		h-12.648v1.088h2.379c0.613,0,0.816,0.204,0.816,0.816v20.4c0,0.611-0.203,0.815-0.816,0.815h-2.379V186z M616.115,184.097v-20.4
		c0-0.612,0.203-0.816,0.814-0.816h3.027c2.719,0,5.066,1.836,5.066,5.916v10.2c0,4.08-2.348,5.916-5.066,5.916h-3.027
		C616.318,184.912,616.115,184.708,616.115,184.097 M566.883,186h12.648c5.643,0,10.268-5.235,10.268-12.308
		s-4.625-11.9-10.268-11.9h-12.648v1.088h2.379c0.613,0,0.816,0.204,0.816,0.816v20.4c0,0.611-0.203,0.815-0.816,0.815h-2.379V186z
		 M575.111,184.097v-20.4c0-0.612,0.203-0.816,0.814-0.816h3.027c2.719,0,5.064,1.836,5.064,5.916v10.2
		c0,4.08-2.346,5.916-5.064,5.916h-3.027C575.314,184.912,575.111,184.708,575.111,184.097 M538.051,186h9.928v-1.088
		c-2.447,0-4.283-1.428-4.283-3.536v-12.954h0.135l12.717,18.19h1.291v-20.196c0-2.107,1.836-3.536,4.285-3.536v-1.088h-9.928v1.088
		c2.447,0,4.283,1.429,4.283,3.536v10.914l-10.881-15.538h-7.547v1.088h0.611c1.088,0,1.496,0.238,1.938,0.885l1.361,2.04
		c0.305,0.441,0.373,0.544,0.373,1.054v14.518c0,2.108-1.836,3.536-4.283,3.536V186z M509.898,186h8.67v-1.088h-1.598
		c-1.123,0-1.768-0.782-1.768-1.53c0-0.441,0.135-1.121,0.373-1.733l0.715-2.074h7.139l1.088,3.264
		c0.104,0.307,0.205,0.782,0.205,0.986c0,0.578-0.375,1.088-0.918,1.088h-2.447V186h11.934v-1.088h-1.361
		c-0.883,0-1.598-0.544-2.006-1.733l-7.275-21.998h-1.428l-7.174,20.978c-0.477,1.36-1.531,2.754-2.992,2.754h-1.156V186z
		 M516.732,178.316l3.195-9.351l3.096,9.351H516.732z M486.166,183.858c0,1.666,1.293,2.448,2.414,2.448
		c0.443,0,0.748-0.103,1.156-0.307c0.271-0.136,0.578-0.271,0.816-0.271c0.408,0,0.578,0.34,0.578,0.611
		c0,2.177-1.938,4.318-4.76,5.372l0.475,0.952c3.266-1.189,5.85-3.842,5.85-7.752c0-2.244-1.361-3.943-3.605-3.943
		C487.697,180.969,486.166,181.92,486.166,183.858 M460.124,173.896c0,6.766,3.537,12.716,9.519,12.716
		c2.584,0,4.455-2.142,5.271-3.4c0.271-0.441,0.578-0.714,1.053-0.714c0.443,0,0.715,0.442,0.816,0.851l0.816,3.094h1.088v-10.574
		c0-0.612,0.203-0.815,0.816-0.815h1.631v-1.089h-11.287v1.089h2.992c0.611,0,0.816,0.203,0.816,0.815v4.658
		c0,2.584-1.564,4.998-4.014,4.998c-2.176,0-3.738-1.632-3.738-6.528v-10.2c0-4.896,1.768-6.527,4.352-6.527
		c3.4,0,5.848,3.332,7.377,8.976h1.055v-9.792h-1.121l-0.578,1.258c-0.17,0.374-0.375,0.646-0.748,0.646
		c-0.307,0-0.682-0.204-1.156-0.51c-1.361-0.918-2.686-1.666-4.828-1.666C464.272,161.181,460.124,167.097,460.124,173.896
		 M431.02,186h9.928v-1.088c-2.448,0-4.284-1.428-4.284-3.536v-12.954h0.136l12.716,18.19h1.292v-20.196
		c0-2.107,1.836-3.536,4.284-3.536v-1.088h-9.928v1.088c2.448,0,4.284,1.429,4.284,3.536v10.914l-10.88-15.538h-7.548v1.088h0.612
		c1.088,0,1.496,0.238,1.938,0.885l1.36,2.04c0.306,0.441,0.374,0.544,0.374,1.054v14.518c0,2.108-1.836,3.536-4.284,3.536V186z
		 M414.157,186h11.424v-1.088h-2.38c-0.612,0-0.816-0.204-0.816-0.815v-20.4c0-0.612,0.204-0.816,0.816-0.816h2.38v-1.088h-11.424
		v1.088h2.38c0.612,0,0.816,0.204,0.816,0.816v20.4c0,0.611-0.204,0.815-0.816,0.815h-2.38V186z M387.365,171.924h1.088
		c0,0,0.136-1.155,0.714-3.195c0.782-2.788,2.584-5.849,4.896-5.849c0.748,0,1.258,0.408,1.258,1.156v20.061
		c0,0.611-0.204,0.815-0.816,0.815h-2.72V186h12.104v-1.088h-2.72c-0.612,0-0.816-0.204-0.816-0.815v-20.061
		c0-0.748,0.51-1.156,1.258-1.156c2.312,0,4.114,3.061,4.896,5.849c0.578,2.04,0.714,3.195,0.714,3.195h1.088l-0.272-10.132h-20.4
		L387.365,171.924z M358.601,186h9.928v-1.088c-2.448,0-4.284-1.428-4.284-3.536v-12.954h0.136l12.716,18.19h1.292v-20.196
		c0-2.107,1.836-3.536,4.284-3.536v-1.088h-9.928v1.088c2.448,0,4.284,1.429,4.284,3.536v10.914l-10.88-15.538h-7.548v1.088h0.612
		c1.088,0,1.496,0.238,1.938,0.885l1.36,2.04c0.306,0.441,0.374,0.544,0.374,1.054v14.518c0,2.108-1.836,3.536-4.284,3.536V186z
		 M329.906,162.88h2.176c0.612,0,0.816,0.204,0.816,0.816v14.246c0,4.386,2.482,8.67,8.942,8.67c5.134,0,8.126-3.434,8.126-7.684
		V165.94c0-2.176,1.768-3.061,3.536-3.061v-1.088h-8.432v1.088c1.768,0,3.536,0.885,3.536,3.061v13.328
		c0,3.264-2.414,5.983-5.814,5.983c-3.298,0-4.862-1.802-4.862-5.983v-15.572c0-0.612,0.204-0.816,0.816-0.816h2.176v-1.088h-11.016
		V162.88z M309.166,178.996v-10.2c0-4.896,1.7-6.527,4.284-6.527s4.284,1.632,4.284,6.527v10.2c0,4.896-1.7,6.528-4.284,6.528
		S309.166,183.893,309.166,178.996 M303.386,173.896c0,6.527,4.692,12.716,10.064,12.716c5.372,0,10.064-6.188,10.064-12.716
		c0-6.528-4.692-12.716-10.064-12.716C308.078,161.181,303.386,167.368,303.386,173.896 M278.566,173.896
		c0,6.392,3.264,12.716,9.86,12.716c3.4,0,5.814-1.666,7.174-4.318c0.816-1.598,1.258-3.773,1.394-5.644h-1.224
		c-0.17,1.598-0.51,3.638-1.326,5.168c-1.02,1.904-2.822,3.706-6.018,3.706c-1.904,0-4.08-1.632-4.08-6.528v-10.2
		c0-4.896,1.836-6.527,3.74-6.527c3.4,0,6.12,3.808,7.14,9.622h1.088v-10.438h-1.122l-0.612,1.258
		c-0.17,0.374-0.34,0.646-0.748,0.646c-0.272,0-0.68-0.204-1.156-0.51c-1.36-0.918-2.754-1.666-4.59-1.666
		C282.102,161.181,278.566,167.097,278.566,173.896 M253.747,173.896c0,6.392,3.264,12.716,9.86,12.716
		c3.4,0,5.814-1.666,7.174-4.318c0.816-1.598,1.258-3.773,1.394-5.644h-1.224c-0.17,1.598-0.51,3.638-1.326,5.168
		c-1.02,1.904-2.822,3.706-6.018,3.706c-1.904,0-4.08-1.632-4.08-6.528v-10.2c0-4.896,1.836-6.527,3.74-6.527
		c3.4,0,6.12,3.808,7.14,9.622h1.088v-10.438h-1.122l-0.612,1.258c-0.17,0.374-0.34,0.646-0.748,0.646
		c-0.272,0-0.68-0.204-1.156-0.51c-1.36-0.918-2.754-1.666-4.59-1.666C257.283,161.181,253.747,167.097,253.747,173.896
		 M226.478,186h8.67v-1.088h-1.598c-1.122,0-1.768-0.782-1.768-1.53c0-0.441,0.136-1.121,0.374-1.733l0.714-2.074h7.14l1.088,3.264
		c0.102,0.307,0.204,0.782,0.204,0.986c0,0.578-0.374,1.088-0.918,1.088h-2.448V186h11.934v-1.088h-1.36
		c-0.884,0-1.598-0.544-2.006-1.733l-7.276-21.998H237.8l-7.174,20.978c-0.476,1.36-1.53,2.754-2.992,2.754h-1.156V186z
		 M233.312,178.316l3.196-9.351l3.094,9.351H233.312z M186.087,186h12.648c5.644,0,10.268-5.235,10.268-12.308
		s-4.624-11.9-10.268-11.9h-12.648v1.088h2.38c0.612,0,0.816,0.204,0.816,0.816v20.4c0,0.611-0.204,0.815-0.816,0.815h-2.38V186z
		 M194.315,184.097v-20.4c0-0.612,0.204-0.816,0.816-0.816h3.026c2.72,0,5.066,1.836,5.066,5.916v10.2
		c0,4.08-2.346,5.916-5.066,5.916h-3.026C194.519,184.912,194.315,184.708,194.315,184.097 M157.459,186h8.67v-1.088h-1.598
		c-1.122,0-1.768-0.782-1.768-1.53c0-0.441,0.136-1.121,0.374-1.733l0.714-2.074h7.14l1.088,3.264
		c0.102,0.307,0.204,0.782,0.204,0.986c0,0.578-0.374,1.088-0.918,1.088h-2.448V186h11.934v-1.088h-1.36
		c-0.884,0-1.598-0.544-2.006-1.733l-7.276-21.998h-1.428l-7.174,20.978c-0.476,1.36-1.53,2.754-2.992,2.754h-1.156V186z
		 M164.293,178.316l3.196-9.351l3.094,9.351H164.293z M139.779,178.996v-10.2c0-4.896,1.7-6.527,4.284-6.527
		s4.284,1.632,4.284,6.527v10.2c0,4.896-1.7,6.528-4.284,6.528S139.779,183.893,139.779,178.996 M133.999,173.896
		c0,6.527,4.692,12.716,10.064,12.716s10.064-6.188,10.064-12.716c0-6.528-4.692-12.716-10.064-12.716
		S133.999,167.368,133.999,173.896 M106.527,186h12.036v-1.088h-2.992c-0.612,0-0.816-0.204-0.816-0.815v-10.473h1.904
		c2.38,0,3.264,1.904,3.264,3.876v4.216c0,3.469,1.938,5.101,4.726,5.101c3.264,0,4.046-2.992,4.046-6.937h-1.088
		c0,2.414-0.408,5.032-1.7,5.032c-0.612,0-0.952-0.408-0.952-1.428v-3.774c0-4.25-2.312-5.712-5.508-6.29v-0.237
		c3.536-0.408,6.256-2.143,6.256-5.406c0-3.74-3.332-5.984-8.16-5.984h-11.016v1.088h2.38c0.612,0,0.816,0.204,0.816,0.816v20.4
		c0,0.611-0.204,0.815-0.816,0.815h-2.38V186z M114.755,172.536v-8.84c0-0.612,0.204-0.816,0.816-0.816h1.462
		c2.55,0,3.23,1.769,3.23,4.624c0,2.856-0.68,5.032-3.23,5.032H114.755z M66.067,186h11.152v-1.088h-2.108
		c-0.612,0-0.816-0.204-0.816-0.815v-8.467l1.462-1.666l4.93,9.385c0.102,0.204,0.17,0.646,0.17,0.85
		c0,0.374-0.306,0.714-0.714,0.714h-1.36V186h10.676v-1.088h-0.918c-1.122,0-1.496-0.441-2.04-1.496l-7.174-13.565l4.556-5.271
		c0.68-0.815,1.768-1.7,2.822-1.7h1.19v-1.088h-8.398v1.088h0.986c0.748,0,1.224,0.612,1.224,1.429c0,0.748-0.272,1.155-0.85,1.836
		l-6.562,7.616v-10.064c0-0.612,0.204-0.816,0.816-0.816h2.108v-1.088H66.067v1.088h2.38c0.612,0,0.816,0.204,0.816,0.816v20.4
		c0,0.611-0.204,0.815-0.816,0.815h-2.38V186z M40.907,186h19.244l0.272-10.472h-1.088c0,0-0.476,2.21-0.85,3.468
		c-0.578,1.87-2.312,5.916-5.1,5.916h-3.434c-0.612,0-0.816-0.306-0.816-0.918v-20.298c0-0.612,0.204-0.816,0.816-0.816h2.38v-1.088
		H40.907v1.088h2.38c0.612,0,0.816,0.204,0.816,0.816v20.298c0,0.612-0.204,0.918-0.816,0.918h-2.38V186z M23.568,186h11.424v-1.088
		h-2.38c-0.612,0-0.816-0.204-0.816-0.815v-20.4c0-0.612,0.204-0.816,0.816-0.816h2.38v-1.088H23.568v1.088h2.38
		c0.612,0,0.816,0.204,0.816,0.816v20.4c0,0.611-0.204,0.815-0.816,0.815h-2.38V186z M1.06,175.597l0.204,10.743h1.054l0.17-1.088
		c0.102-0.748,0.408-1.155,0.884-1.155c0.442,0,0.884,0.34,1.768,1.02c0.918,0.748,2.482,1.496,4.658,1.496
		c5.202,0,7.582-3.638,7.582-7.004c0-2.278-1.19-4.624-3.06-5.848l-7.31-4.727c-1.564-1.02-3.026-2.346-3.026-3.91
		c0-1.903,1.122-2.855,3.536-2.855c3.332,0,6.358,3.672,7.616,8.363h1.088l-0.34-8.84h-1.088l-0.204,0.918
		c-0.068,0.442-0.306,0.782-0.748,0.782c-0.34,0-0.782-0.271-1.224-0.612c-0.68-0.476-2.584-1.699-4.828-1.699
		c-3.4,0-6.664,1.836-6.664,6.527c0,3.128,2.108,5.101,3.808,6.188l7.276,4.691c1.36,0.885,2.448,1.803,2.448,3.061
		c0,1.428-0.578,3.876-4.658,3.876c-3.876,0-6.902-4.93-7.854-9.928H1.06z"/>
	<path clip-path="url(#SVGID_2_)" fill="#000002" d="M721.648,127.896c0,6.766,3.535,12.716,9.52,12.716
		c2.584,0,4.455-2.142,5.271-3.4c0.271-0.441,0.576-0.714,1.053-0.714c0.441,0,0.715,0.442,0.816,0.851l0.816,3.094h1.088v-10.574
		c0-0.612,0.203-0.815,0.816-0.815h1.631v-1.089h-11.287v1.089h2.992c0.611,0,0.814,0.203,0.814,0.815v4.658
		c0,2.584-1.562,4.998-4.012,4.998c-2.176,0-3.74-1.632-3.74-6.528v-10.2c0-4.896,1.77-6.527,4.354-6.527
		c3.398,0,5.848,3.332,7.377,8.976h1.055v-9.792h-1.123l-0.578,1.258c-0.17,0.374-0.373,0.646-0.748,0.646
		c-0.305,0-0.68-0.204-1.154-0.51c-1.361-0.918-2.688-1.666-4.828-1.666C725.797,115.181,721.648,121.097,721.648,127.896
		 M692.545,140h9.928v-1.088c-2.447,0-4.283-1.428-4.283-3.536v-12.954h0.135l12.717,18.19h1.291v-20.196
		c0-2.107,1.836-3.536,4.285-3.536v-1.088h-9.928v1.088c2.447,0,4.283,1.429,4.283,3.536v10.914l-10.881-15.538h-7.547v1.088h0.611
		c1.088,0,1.496,0.238,1.938,0.885l1.361,2.04c0.305,0.441,0.373,0.544,0.373,1.054v14.518c0,2.108-1.836,3.536-4.283,3.536V140z
		 M675.68,140h11.426v-1.088h-2.381c-0.611,0-0.816-0.204-0.816-0.815v-20.4c0-0.612,0.205-0.816,0.816-0.816h2.381v-1.088H675.68
		v1.088h2.381c0.611,0,0.816,0.204,0.816,0.816v20.4c0,0.611-0.205,0.815-0.816,0.815h-2.381V140z M636.105,116.88h0.646
		c1.971,0,2.754,0.782,3.23,2.21l7.07,21.522h1.43l5.031-17.204l5.576,17.204h1.428l5.746-20.638c0.543-1.7,1.529-3.095,3.264-3.095
		h1.055v-1.088h-9.18v1.088h1.699c1.395,0,1.803,1.156,1.803,1.973c0,0.544-0.137,1.529-0.238,1.836l-3.094,11.186l-4.318-13.26
		c-0.068-0.271-0.102-0.544-0.102-0.748c0-0.476,0.441-0.986,1.088-0.986h1.666v-1.088h-11.152v1.088h0.578
		c1.496,0,2.176,0.477,2.686,1.973l0.748,2.277l-3.195,10.881l-4.285-13.091c-0.102-0.271-0.17-0.646-0.17-0.85
		c0-0.646,0.408-1.19,1.055-1.19h0.986v-1.088h-11.051V116.88z M618.902,132.996v-10.2c0-4.896,1.699-6.527,4.283-6.527
		s4.283,1.632,4.283,6.527v10.2c0,4.896-1.699,6.528-4.283,6.528S618.902,137.893,618.902,132.996 M613.121,127.896
		c0,6.527,4.693,12.716,10.064,12.716s10.064-6.188,10.064-12.716c0-6.528-4.693-12.716-10.064-12.716
		S613.121,121.368,613.121,127.896 M582.453,140h11.424v-1.088h-2.379c-0.613,0-0.816-0.204-0.816-0.815v-10.2h8.023v10.2
		c0,0.611-0.203,0.815-0.816,0.815h-2.379V140h11.424v-1.088h-2.381c-0.611,0-0.814-0.204-0.814-0.815v-20.4
		c0-0.612,0.203-0.816,0.814-0.816h2.381v-1.088h-11.492v1.088h2.447c0.613,0,0.816,0.204,0.816,0.816v8.976h-8.023v-8.976
		c0-0.612,0.203-0.816,0.816-0.816h2.379v-1.088h-11.424v1.088h2.381c0.611,0,0.816,0.204,0.816,0.816v20.4
		c0,0.611-0.205,0.815-0.816,0.815h-2.381V140z M559.945,129.597l0.205,10.743h1.053l0.17-1.088
		c0.102-0.748,0.408-1.155,0.885-1.155c0.441,0,0.883,0.34,1.768,1.02c0.918,0.748,2.482,1.496,4.658,1.496
		c5.201,0,7.582-3.638,7.582-7.004c0-2.278-1.189-4.624-3.061-5.848l-7.309-4.727c-1.564-1.02-3.027-2.346-3.027-3.91
		c0-1.903,1.123-2.855,3.537-2.855c3.332,0,6.357,3.672,7.615,8.363h1.088l-0.34-8.84h-1.088l-0.203,0.918
		c-0.068,0.442-0.307,0.782-0.748,0.782c-0.342,0-0.783-0.271-1.225-0.612c-0.68-0.476-2.584-1.699-4.828-1.699
		c-3.4,0-6.664,1.836-6.664,6.527c0,3.128,2.107,5.101,3.809,6.188l7.275,4.691c1.359,0.885,2.447,1.803,2.447,3.061
		c0,1.428-0.578,3.876-4.658,3.876c-3.875,0-6.9-4.93-7.854-9.928H559.945z M520.303,125.924h1.088c0,0,0.137-1.155,0.715-3.195
		c0.781-2.788,2.584-5.849,4.895-5.849c0.748,0,1.258,0.408,1.258,1.156v20.061c0,0.611-0.203,0.815-0.814,0.815h-2.721V140h12.104
		v-1.088h-2.719c-0.613,0-0.816-0.204-0.816-0.815v-20.061c0-0.748,0.51-1.156,1.258-1.156c2.312,0,4.113,3.061,4.896,5.849
		c0.578,2.04,0.713,3.195,0.713,3.195h1.088l-0.271-10.132h-20.4L520.303,125.924z M494.531,140h19.379l0.205-9.384h-1.088
		c0,0-0.273,2.21-0.715,3.468c-0.646,1.836-2.244,4.828-5.031,4.828h-3.707c-0.611,0-0.816-0.204-0.816-0.815v-9.792h1.734
		c1.904,0,3.4,2.72,3.4,4.726h1.088v-10.642h-1.088c0,1.972-1.496,4.691-3.4,4.691h-1.734v-9.384c0-0.612,0.205-0.816,0.816-0.816
		h3.74c1.768,0,3.129,1.259,4.08,2.925c1.02,1.699,1.359,3.876,1.359,3.876h1.088l-0.203-7.889h-19.107v1.088h2.379
		c0.613,0,0.816,0.204,0.816,0.816v20.4c0,0.611-0.203,0.815-0.816,0.815h-2.379V140z M468.691,140h19.379l0.205-9.384h-1.088
		c0,0-0.273,2.21-0.715,3.468c-0.646,1.836-2.244,4.828-5.031,4.828h-3.707c-0.611,0-0.816-0.204-0.816-0.815v-9.792h1.734
		c1.904,0,3.4,2.72,3.4,4.726h1.088v-10.642h-1.088c0,1.972-1.496,4.691-3.4,4.691h-1.734v-9.384c0-0.612,0.205-0.816,0.816-0.816
		h3.74c1.768,0,3.127,1.259,4.08,2.925c1.02,1.699,1.359,3.876,1.359,3.876h1.088l-0.203-7.889h-19.107v1.088h2.379
		c0.611,0,0.816,0.204,0.816,0.816v20.4c0,0.611-0.205,0.815-0.816,0.815h-2.379V140z M438.296,140h11.424v-1.088h-2.38
		c-0.612,0-0.816-0.204-0.816-0.815v-10.2h8.024v10.2c0,0.611-0.204,0.815-0.816,0.815h-2.38V140h11.424v-1.088h-2.38
		c-0.612,0-0.816-0.204-0.816-0.815v-20.4c0-0.612,0.204-0.816,0.816-0.816h2.38v-1.088h-11.492v1.088h2.448
		c0.612,0,0.816,0.204,0.816,0.816v8.976h-8.024v-8.976c0-0.612,0.204-0.816,0.816-0.816h2.38v-1.088h-11.424v1.088h2.38
		c0.612,0,0.816,0.204,0.816,0.816v20.4c0,0.611-0.204,0.815-0.816,0.815h-2.38V140z M415.788,129.597l0.204,10.743h1.054
		l0.17-1.088c0.102-0.748,0.408-1.155,0.884-1.155c0.442,0,0.884,0.34,1.768,1.02c0.918,0.748,2.482,1.496,4.658,1.496
		c5.202,0,7.582-3.638,7.582-7.004c0-2.278-1.19-4.624-3.06-5.848l-7.31-4.727c-1.564-1.02-3.026-2.346-3.026-3.91
		c0-1.903,1.122-2.855,3.536-2.855c3.332,0,6.358,3.672,7.616,8.363h1.088l-0.34-8.84h-1.088l-0.204,0.918
		c-0.068,0.442-0.306,0.782-0.748,0.782c-0.34,0-0.782-0.271-1.224-0.612c-0.68-0.476-2.584-1.699-4.828-1.699
		c-3.4,0-6.664,1.836-6.664,6.527c0,3.128,2.108,5.101,3.808,6.188l7.276,4.691c1.36,0.885,2.448,1.803,2.448,3.061
		c0,1.428-0.578,3.876-4.658,3.876c-3.876,0-6.902-4.93-7.854-9.928H415.788z M385.732,140h12.648
		c5.644,0,10.268-5.235,10.268-12.308s-4.624-11.9-10.268-11.9h-12.648v1.088h2.38c0.612,0,0.816,0.204,0.816,0.816v20.4
		c0,0.611-0.204,0.815-0.816,0.815h-2.38V140z M393.96,138.097v-20.4c0-0.612,0.204-0.816,0.816-0.816h3.026
		c2.72,0,5.066,1.836,5.066,5.916v10.2c0,4.08-2.346,5.916-5.066,5.916h-3.026C394.164,138.912,393.96,138.708,393.96,138.097
		 M357.104,140h8.67v-1.088h-1.598c-1.122,0-1.768-0.782-1.768-1.53c0-0.441,0.136-1.121,0.374-1.733l0.714-2.074h7.14l1.088,3.264
		c0.102,0.307,0.204,0.782,0.204,0.986c0,0.578-0.374,1.088-0.918,1.088h-2.448V140h11.934v-1.088h-1.36
		c-0.884,0-1.598-0.544-2.006-1.733l-7.276-21.998h-1.428l-7.174,20.978c-0.476,1.36-1.53,2.754-2.992,2.754h-1.156V140z
		 M363.938,132.316l3.196-9.351l3.094,9.351H363.938z M331.877,140h19.38l0.204-9.384h-1.088c0,0-0.272,2.21-0.714,3.468
		c-0.646,1.836-2.244,4.828-5.032,4.828h-3.706c-0.612,0-0.816-0.204-0.816-0.815v-9.792h1.734c1.904,0,3.4,2.72,3.4,4.726h1.088
		v-10.642h-1.088c0,1.972-1.496,4.691-3.4,4.691h-1.734v-9.384c0-0.612,0.204-0.816,0.816-0.816h3.74
		c1.768,0,3.128,1.259,4.08,2.925c1.02,1.699,1.36,3.876,1.36,3.876h1.088l-0.204-7.889h-19.108v1.088h2.38
		c0.612,0,0.816,0.204,0.816,0.816v20.4c0,0.611-0.204,0.815-0.816,0.815h-2.38V140z M304.677,140h12.036v-1.088h-2.992
		c-0.612,0-0.816-0.204-0.816-0.815v-10.473h1.904c2.38,0,3.264,1.904,3.264,3.876v4.216c0,3.469,1.938,5.101,4.726,5.101
		c3.264,0,4.046-2.992,4.046-6.937h-1.088c0,2.414-0.408,5.032-1.7,5.032c-0.612,0-0.952-0.408-0.952-1.428v-3.774
		c0-4.25-2.312-5.712-5.508-6.29v-0.237c3.536-0.408,6.256-2.143,6.256-5.406c0-3.74-3.332-5.984-8.16-5.984h-11.016v1.088h2.38
		c0.612,0,0.816,0.204,0.816,0.816v20.4c0,0.611-0.204,0.815-0.816,0.815h-2.38V140z M312.905,126.536v-8.84
		c0-0.612,0.204-0.816,0.816-0.816h1.462c2.55,0,3.23,1.769,3.23,4.624c0,2.856-0.68,5.032-3.23,5.032H312.905z M286.657,127.488
		v-9.792c0-0.612,0.204-0.816,0.816-0.816h2.55c2.55,0,3.23,2.244,3.23,5.236s-0.68,5.372-3.23,5.372H286.657z M278.429,140h12.036
		v-1.088h-2.992c-0.612,0-0.816-0.204-0.816-0.815v-9.521h3.876c4.828,0,8.16-2.72,8.16-6.46s-3.332-6.324-8.16-6.324h-12.104v1.088
		h2.38c0.612,0,0.816,0.204,0.816,0.816v20.4c0,0.611-0.204,0.815-0.816,0.815h-2.38V140z M255.921,129.597l0.204,10.743h1.054
		l0.17-1.088c0.102-0.748,0.408-1.155,0.884-1.155c0.442,0,0.884,0.34,1.768,1.02c0.918,0.748,2.482,1.496,4.658,1.496
		c5.202,0,7.582-3.638,7.582-7.004c0-2.278-1.19-4.624-3.06-5.848l-7.31-4.727c-1.564-1.02-3.026-2.346-3.026-3.91
		c0-1.903,1.122-2.855,3.536-2.855c3.332,0,6.358,3.672,7.616,8.363h1.088l-0.34-8.84h-1.088l-0.204,0.918
		c-0.068,0.442-0.306,0.782-0.748,0.782c-0.34,0-0.782-0.271-1.224-0.612c-0.68-0.476-2.584-1.699-4.828-1.699
		c-3.4,0-6.664,1.836-6.664,6.527c0,3.128,2.108,5.101,3.808,6.188l7.276,4.691c1.36,0.885,2.448,1.803,2.448,3.061
		c0,1.428-0.578,3.876-4.658,3.876c-3.876,0-6.902-4.93-7.854-9.928H255.921z M214.441,140h8.67v-1.088h-1.598
		c-1.122,0-1.768-0.782-1.768-1.53c0-0.441,0.136-1.121,0.374-1.733l0.714-2.074h7.14l1.088,3.264
		c0.102,0.307,0.204,0.782,0.204,0.986c0,0.578-0.374,1.088-0.918,1.088h-2.448V140h11.934v-1.088h-1.36
		c-0.884,0-1.598-0.544-2.006-1.733l-7.276-21.998h-1.428l-7.174,20.978c-0.476,1.36-1.53,2.754-2.992,2.754h-1.156V140z
		 M221.275,132.316l3.196-9.351l3.094,9.351H221.275z M190.709,137.858c0,1.666,1.292,2.448,2.414,2.448
		c0.442,0,0.748-0.103,1.156-0.307c0.272-0.136,0.578-0.271,0.816-0.271c0.408,0,0.578,0.34,0.578,0.611
		c0,2.177-1.938,4.318-4.76,5.372l0.476,0.952c3.264-1.189,5.848-3.842,5.848-7.752c0-2.244-1.36-3.943-3.604-3.943
		C192.239,134.969,190.709,135.92,190.709,137.858 M168.745,129.597l0.204,10.743h1.054l0.17-1.088
		c0.102-0.748,0.408-1.155,0.884-1.155c0.442,0,0.884,0.34,1.768,1.02c0.918,0.748,2.482,1.496,4.658,1.496
		c5.202,0,7.582-3.638,7.582-7.004c0-2.278-1.19-4.624-3.06-5.848l-7.31-4.727c-1.564-1.02-3.026-2.346-3.026-3.91
		c0-1.903,1.122-2.855,3.536-2.855c3.332,0,6.358,3.672,7.616,8.363h1.088l-0.34-8.84h-1.088l-0.204,0.918
		c-0.068,0.442-0.306,0.782-0.748,0.782c-0.34,0-0.782-0.271-1.224-0.612c-0.68-0.476-2.584-1.699-4.828-1.699
		c-3.4,0-6.664,1.836-6.664,6.527c0,3.128,2.108,5.101,3.808,6.188l7.276,4.691c1.36,0.885,2.448,1.803,2.448,3.061
		c0,1.428-0.578,3.876-4.658,3.876c-3.876,0-6.902-4.93-7.854-9.928H168.745z M138.962,140h9.928v-1.088
		c-2.448,0-4.284-1.428-4.284-3.536v-12.954h0.136l12.716,18.19h1.292v-20.196c0-2.107,1.836-3.536,4.284-3.536v-1.088h-9.928v1.088
		c2.448,0,4.284,1.429,4.284,3.536v10.914l-10.88-15.538h-7.548v1.088h0.612c1.088,0,1.496,0.238,1.938,0.885l1.36,2.04
		c0.306,0.441,0.374,0.544,0.374,1.054v14.518c0,2.108-1.836,3.536-4.284,3.536V140z M122.098,140h11.424v-1.088h-2.38
		c-0.612,0-0.816-0.204-0.816-0.815v-20.4c0-0.612,0.204-0.816,0.816-0.816h2.38v-1.088h-11.424v1.088h2.38
		c0.612,0,0.816,0.204,0.816,0.816v20.4c0,0.611-0.204,0.815-0.816,0.815h-2.38V140z M101.562,132.996v-10.2
		c0-4.896,1.7-6.527,4.284-6.527s4.284,1.632,4.284,6.527v10.2c0,4.896-1.7,6.528-4.284,6.528S101.562,137.893,101.562,132.996
		 M95.782,127.896c0,6.527,4.692,12.716,10.064,12.716c5.372,0,10.064-6.188,10.064-12.716c0-6.528-4.692-12.716-10.064-12.716
		C100.474,115.181,95.782,121.368,95.782,127.896 M70.963,127.896c0,6.392,3.264,12.716,9.86,12.716c3.4,0,5.814-1.666,7.174-4.318
		c0.816-1.598,1.258-3.773,1.394-5.644h-1.224c-0.17,1.598-0.51,3.638-1.326,5.168c-1.02,1.904-2.822,3.706-6.018,3.706
		c-1.904,0-4.08-1.632-4.08-6.528v-10.2c0-4.896,1.836-6.527,3.74-6.527c3.4,0,6.12,3.808,7.14,9.622h1.088v-10.438h-1.122
		l-0.612,1.258c-0.17,0.374-0.34,0.646-0.748,0.646c-0.272,0-0.68-0.204-1.156-0.51c-1.36-0.918-2.754-1.666-4.59-1.666
		C74.499,115.181,70.963,121.097,70.963,127.896 M43.899,125.924h1.088c0,0,0.136-1.155,0.714-3.195
		c0.782-2.788,2.584-5.849,4.896-5.849c0.748,0,1.258,0.408,1.258,1.156v20.061c0,0.611-0.204,0.815-0.816,0.815h-2.72V140h12.104
		v-1.088h-2.72c-0.612,0-0.816-0.204-0.816-0.815v-20.061c0-0.748,0.51-1.156,1.258-1.156c2.312,0,4.114,3.061,4.896,5.849
		c0.578,2.04,0.714,3.195,0.714,3.195h1.088l-0.272-10.132h-20.4L43.899,125.924z M26.628,140h11.424v-1.088h-2.38
		c-0.612,0-0.816-0.204-0.816-0.815v-20.4c0-0.612,0.204-0.816,0.816-0.816h2.38v-1.088H26.628v1.088h2.38
		c0.612,0,0.816,0.204,0.816,0.816v20.4c0,0.611-0.204,0.815-0.816,0.815h-2.38V140z M8.336,126.809v-9.112
		c0-0.612,0.204-0.816,0.816-0.816h2.516c1.802,0,2.924,1.7,2.924,4.692c0,3.128-0.51,5.236-3.128,5.236H8.336z M0.108,140h12.41
		c4.284,0,7.99-2.312,7.99-6.596c0-3.536-3.672-5.508-6.562-5.95v-0.204c2.72-0.714,5.746-2.38,5.746-5.678
		c0-3.4-3.57-5.78-7.616-5.78H0.108v1.088h2.38c0.612,0,0.816,0.204,0.816,0.816v20.4c0,0.611-0.204,0.815-0.816,0.815h-2.38V140z
		 M8.336,138.097v-10.2h3.128c2.244,0,3.604,1.156,3.604,5.508s-1.36,5.508-3.604,5.508H9.152
		C8.54,138.912,8.336,138.708,8.336,138.097"/>
	<path clip-path="url(#SVGID_2_)" fill="#000002" d="M801.344,81.896c0,5.712,2.992,12.647,8.16,12.647s8.16-6.936,8.16-12.647
		s-2.992-12.648-8.16-12.648S801.344,76.185,801.344,81.896 M807.123,89.104V74.688c0-1.632,0.477-4.353,2.381-4.353
		s2.379,2.721,2.379,4.353v14.416c0,1.632-0.475,4.352-2.379,4.352S807.123,90.736,807.123,89.104 M779.244,81.896
		c0,5.712,2.992,12.647,8.16,12.647s8.16-6.936,8.16-12.647s-2.992-12.648-8.16-12.648S779.244,76.185,779.244,81.896
		 M785.025,89.104V74.688c0-1.632,0.475-4.353,2.379-4.353s2.381,2.721,2.381,4.353v14.416c0,1.632-0.477,4.352-2.381,4.352
		S785.025,90.736,785.025,89.104 M757.145,81.896c0,5.712,2.992,12.647,8.16,12.647s8.16-6.936,8.16-12.647
		s-2.992-12.648-8.16-12.648S757.145,76.185,757.145,81.896 M762.924,89.104V74.688c0-1.632,0.477-4.353,2.381-4.353
		s2.379,2.721,2.379,4.353v14.416c0,1.632-0.475,4.352-2.379,4.352S762.924,90.736,762.924,89.104 M745.109,91.858
		c0,1.666,1.291,2.448,2.414,2.448c0.441,0,0.746-0.103,1.154-0.307c0.273-0.136,0.578-0.271,0.816-0.271
		c0.408,0,0.578,0.34,0.578,0.611c0,2.177-1.938,4.318-4.76,5.372l0.477,0.952c3.264-1.189,5.848-3.842,5.848-7.752
		c0-2.244-1.359-3.943-3.604-3.943C746.639,88.969,745.109,89.92,745.109,91.858 M723.145,87.064h7.48v5.032
		c0,0.611-0.203,0.815-0.816,0.815h-3.264V94h12.377v-1.088h-2.449c-0.611,0-0.814-0.204-0.814-0.815v-5.032h3.672V85.84h-3.672
		V69.759h-3.57l-8.943,16.048V87.064z M724.846,85.84l5.779-10.336V85.84H724.846z M701.045,87.064h7.48v5.032
		c0,0.611-0.203,0.815-0.816,0.815h-3.264V94h12.377v-1.088h-2.449c-0.611,0-0.816-0.204-0.816-0.815v-5.032h3.672V85.84h-3.672
		V69.759h-3.568l-8.943,16.048V87.064z M702.746,85.84l5.779-10.336V85.84H702.746z M681.326,94h11.559v-1.088h-2.447
		c-0.611,0-0.816-0.204-0.816-0.815V69.792h-2.549c-0.613,1.666-2.652,2.482-4.488,2.482h-1.258v1.224h3.264v18.599
		c0,0.611-0.205,0.815-0.816,0.815h-2.447V94z M655.01,91.858c0,1.666,1.293,2.448,2.414,2.448c0.443,0,0.748-0.103,1.156-0.307
		c0.271-0.136,0.578-0.271,0.816-0.271c0.406,0,0.578,0.34,0.578,0.611c0,2.177-1.938,4.318-4.76,5.372l0.477,0.952
		c3.264-1.189,5.848-3.842,5.848-7.752c0-2.244-1.361-3.943-3.605-3.943C656.541,88.969,655.01,89.92,655.01,91.858 M633.047,83.597
		l0.203,10.743h1.055l0.17-1.088c0.102-0.748,0.408-1.155,0.885-1.155c0.441,0,0.883,0.34,1.768,1.02
		c0.918,0.748,2.482,1.496,4.658,1.496c5.201,0,7.582-3.638,7.582-7.004c0-2.278-1.191-4.624-3.061-5.848l-7.311-4.727
		c-1.564-1.02-3.025-2.346-3.025-3.91c0-1.903,1.121-2.855,3.535-2.855c3.332,0,6.359,3.672,7.617,8.363h1.088l-0.34-8.84h-1.088
		l-0.205,0.918c-0.068,0.442-0.305,0.782-0.748,0.782c-0.34,0-0.781-0.271-1.223-0.612c-0.682-0.476-2.584-1.699-4.828-1.699
		c-3.4,0-6.664,1.836-6.664,6.527c0,3.128,2.107,5.101,3.807,6.188l7.277,4.691c1.359,0.885,2.447,1.803,2.447,3.061
		c0,1.428-0.578,3.876-4.658,3.876c-3.875,0-6.902-4.93-7.854-9.928H633.047z M604.895,94h12.035v-1.088h-2.99
		c-0.613,0-0.816-0.204-0.816-0.815V81.624h1.904c2.379,0,3.264,1.904,3.264,3.876v4.216c0,3.469,1.938,5.101,4.725,5.101
		c3.266,0,4.047-2.992,4.047-6.937h-1.088c0,2.414-0.408,5.032-1.699,5.032c-0.613,0-0.953-0.408-0.953-1.428V87.71
		c0-4.25-2.312-5.712-5.508-6.29v-0.237c3.535-0.408,6.256-2.143,6.256-5.406c0-3.74-3.332-5.984-8.16-5.984h-11.016v1.088h2.381
		c0.611,0,0.814,0.204,0.814,0.816v20.4c0,0.611-0.203,0.815-0.814,0.815h-2.381V94z M613.123,80.536v-8.84
		c0-0.612,0.203-0.816,0.816-0.816h1.461c2.551,0,3.23,1.769,3.23,4.624c0,2.856-0.68,5.032-3.23,5.032H613.123z M579.055,94h19.379
		l0.205-9.384h-1.088c0,0-0.271,2.21-0.715,3.468c-0.645,1.836-2.244,4.828-5.031,4.828h-3.707c-0.611,0-0.814-0.204-0.814-0.815
		v-9.792h1.732c1.904,0,3.4,2.72,3.4,4.726h1.088V76.389h-1.088c0,1.972-1.496,4.691-3.4,4.691h-1.732v-9.384
		c0-0.612,0.203-0.816,0.814-0.816h3.74c1.77,0,3.129,1.259,4.08,2.925c1.021,1.699,1.361,3.876,1.361,3.876h1.088l-0.205-7.889
		h-19.107v1.088h2.379c0.613,0,0.816,0.204,0.816,0.816v20.4c0,0.611-0.203,0.815-0.816,0.815h-2.379V94z M549.883,70.88h1.123
		c1.496,0,2.176,0.477,2.686,1.973l7.684,21.76h1.428l6.699-20.638c0.543-1.7,1.529-3.095,3.264-3.095h1.055v-1.088h-9.182v1.088
		h1.701c1.395,0,1.904,1.225,1.904,2.04c0,0.544-0.238,1.429-0.34,1.734l-3.91,12.138l-5.033-14.313
		c-0.102-0.272-0.135-0.544-0.135-0.748c0-0.477,0.51-0.851,1.156-0.851h1.699v-1.088h-11.799V70.88z M525.131,94h12.037v-1.088
		h-2.992c-0.611,0-0.816-0.204-0.816-0.815V81.624h1.904c2.379,0,3.264,1.904,3.264,3.876v4.216c0,3.469,1.938,5.101,4.727,5.101
		c3.264,0,4.045-2.992,4.045-6.937h-1.088c0,2.414-0.408,5.032-1.699,5.032c-0.611,0-0.953-0.408-0.953-1.428V87.71
		c0-4.25-2.311-5.712-5.508-6.29v-0.237c3.537-0.408,6.256-2.143,6.256-5.406c0-3.74-3.332-5.984-8.158-5.984h-11.018v1.088h2.381
		c0.611,0,0.816,0.204,0.816,0.816v20.4c0,0.611-0.205,0.815-0.816,0.815h-2.381V94z M533.359,80.536v-8.84
		c0-0.612,0.205-0.816,0.816-0.816h1.461c2.551,0,3.23,1.769,3.23,4.624c0,2.856-0.68,5.032-3.23,5.032H533.359z M499.291,94h19.381
		l0.203-9.384h-1.088c0,0-0.271,2.21-0.713,3.468c-0.646,1.836-2.244,4.828-5.033,4.828h-3.705c-0.613,0-0.816-0.204-0.816-0.815
		v-9.792h1.734c1.904,0,3.4,2.72,3.4,4.726h1.088V76.389h-1.088c0,1.972-1.496,4.691-3.4,4.691h-1.734v-9.384
		c0-0.612,0.203-0.816,0.816-0.816h3.74c1.768,0,3.127,1.259,4.08,2.925c1.02,1.699,1.359,3.876,1.359,3.876h1.088l-0.203-7.889
		h-19.109v1.088h2.381c0.611,0,0.816,0.204,0.816,0.816v20.4c0,0.611-0.205,0.815-0.816,0.815h-2.381V94z M476.783,83.597
		l0.205,10.743h1.053l0.17-1.088c0.104-0.748,0.408-1.155,0.885-1.155c0.441,0,0.885,0.34,1.768,1.02
		c0.918,0.748,2.482,1.496,4.658,1.496c5.201,0,7.582-3.638,7.582-7.004c0-2.278-1.189-4.624-3.061-5.848l-7.309-4.727
		c-1.564-1.02-3.027-2.346-3.027-3.91c0-1.903,1.123-2.855,3.537-2.855c3.332,0,6.357,3.672,7.615,8.363h1.088l-0.34-8.84h-1.088
		l-0.203,0.918c-0.068,0.442-0.307,0.782-0.748,0.782c-0.342,0-0.783-0.271-1.225-0.612c-0.68-0.476-2.584-1.699-4.828-1.699
		c-3.4,0-6.664,1.836-6.664,6.527c0,3.128,2.107,5.101,3.809,6.188l7.275,4.691c1.359,0.885,2.447,1.803,2.447,3.061
		c0,1.428-0.578,3.876-4.658,3.876c-3.875,0-6.9-4.93-7.854-9.928H476.783z M434.829,94h12.648c5.644,0,10.268-5.235,10.268-12.308
		s-4.624-11.9-10.268-11.9h-12.648v1.088h2.38c0.612,0,0.816,0.204,0.816,0.816v20.4c0,0.611-0.204,0.815-0.816,0.815h-2.38V94z
		 M443.057,92.097v-20.4c0-0.612,0.204-0.816,0.816-0.816h3.026c2.72,0,5.066,1.836,5.066,5.916v10.2
		c0,4.08-2.346,5.916-5.066,5.916h-3.026C443.261,92.912,443.057,92.708,443.057,92.097 M406.201,94h8.67v-1.088h-1.598
		c-1.122,0-1.768-0.782-1.768-1.53c0-0.441,0.136-1.121,0.374-1.733l0.714-2.074h7.14l1.088,3.264
		c0.102,0.307,0.204,0.782,0.204,0.986c0,0.578-0.374,1.088-0.918,1.088h-2.448V94h11.934v-1.088h-1.36
		c-0.884,0-1.598-0.544-2.006-1.733l-7.276-21.998h-1.428l-7.174,20.978c-0.476,1.36-1.53,2.754-2.992,2.754h-1.156V94z
		 M413.035,86.316l3.196-9.351l3.094,9.351H413.035z M388.521,86.996v-10.2c0-4.896,1.7-6.527,4.284-6.527s4.284,1.632,4.284,6.527
		v10.2c0,4.896-1.7,6.528-4.284,6.528S388.521,91.893,388.521,86.996 M382.741,81.896c0,6.527,4.692,12.716,10.064,12.716
		c5.372,0,10.064-6.188,10.064-12.716c0-6.528-4.692-12.716-10.064-12.716C387.433,69.181,382.741,75.368,382.741,81.896
		 M355.269,94h12.036v-1.088h-2.992c-0.612,0-0.816-0.204-0.816-0.815V81.624h1.904c2.38,0,3.264,1.904,3.264,3.876v4.216
		c0,3.469,1.938,5.101,4.726,5.101c3.264,0,4.046-2.992,4.046-6.937h-1.088c0,2.414-0.408,5.032-1.7,5.032
		c-0.612,0-0.952-0.408-0.952-1.428V87.71c0-4.25-2.312-5.712-5.508-6.29v-0.237c3.536-0.408,6.256-2.143,6.256-5.406
		c0-3.74-3.332-5.984-8.16-5.984h-11.016v1.088h2.38c0.612,0,0.816,0.204,0.816,0.816v20.4c0,0.611-0.204,0.815-0.816,0.815h-2.38
		V94z M363.497,80.536v-8.84c0-0.612,0.204-0.816,0.816-0.816h1.462c2.55,0,3.23,1.769,3.23,4.624c0,2.856-0.68,5.032-3.23,5.032
		H363.497z M314.809,94h11.152v-1.088h-2.108c-0.612,0-0.816-0.204-0.816-0.815V83.63l1.462-1.666l4.93,9.385
		c0.102,0.204,0.17,0.646,0.17,0.85c0,0.374-0.306,0.714-0.714,0.714h-1.36V94h10.676v-1.088h-0.918
		c-1.122,0-1.496-0.441-2.04-1.496l-7.174-13.565l4.556-5.271c0.68-0.815,1.768-1.7,2.822-1.7h1.19v-1.088h-8.398v1.088h0.986
		c0.748,0,1.224,0.612,1.224,1.429c0,0.748-0.272,1.155-0.85,1.836l-6.562,7.616V71.696c0-0.612,0.204-0.816,0.816-0.816h2.108
		v-1.088h-11.152v1.088h2.38c0.612,0,0.816,0.204,0.816,0.816v20.4c0,0.611-0.204,0.815-0.816,0.815h-2.38V94z M289.65,94h19.243
		l0.272-10.472h-1.087c0,0-0.477,2.21-0.85,3.468c-0.578,1.87-2.313,5.916-5.101,5.916h-3.433c-0.612,0-0.817-0.306-0.817-0.918
		V71.696c0-0.612,0.205-0.816,0.817-0.816h2.38v-1.088H289.65v1.088h2.38c0.612,0,0.815,0.204,0.815,0.816v20.298
		c0,0.612-0.203,0.918-0.815,0.918h-2.38V94z M272.31,94h11.424v-1.088h-2.38c-0.612,0-0.816-0.204-0.816-0.815v-20.4
		c0-0.612,0.204-0.816,0.816-0.816h2.38v-1.088H272.31v1.088h2.38c0.612,0,0.816,0.204,0.816,0.816v20.4
		c0,0.611-0.204,0.815-0.816,0.815h-2.38V94z M249.802,83.597l0.204,10.743h1.054l0.17-1.088c0.102-0.748,0.408-1.155,0.884-1.155
		c0.442,0,0.884,0.34,1.768,1.02c0.918,0.748,2.482,1.496,4.658,1.496c5.202,0,7.582-3.638,7.582-7.004
		c0-2.278-1.19-4.624-3.06-5.848l-7.31-4.727c-1.564-1.02-3.026-2.346-3.026-3.91c0-1.903,1.122-2.855,3.536-2.855
		c3.332,0,6.358,3.672,7.616,8.363h1.088l-0.34-8.84h-1.088l-0.204,0.918c-0.068,0.442-0.306,0.782-0.748,0.782
		c-0.34,0-0.782-0.271-1.224-0.612c-0.68-0.476-2.584-1.699-4.828-1.699c-3.4,0-6.664,1.836-6.664,6.527
		c0,3.128,2.108,5.101,3.808,6.188l7.276,4.691c1.36,0.885,2.448,1.803,2.448,3.061c0,1.428-0.578,3.876-4.658,3.876
		c-3.876,0-6.902-4.93-7.854-9.928H249.802z M211.111,94h19.38l0.204-9.384h-1.088c0,0-0.272,2.21-0.714,3.468
		c-0.646,1.836-2.244,4.828-5.032,4.828h-3.706c-0.612,0-0.816-0.204-0.816-0.815v-9.792h1.734c1.904,0,3.4,2.72,3.4,4.726h1.088
		V76.389h-1.088c0,1.972-1.496,4.691-3.4,4.691h-1.734v-9.384c0-0.612,0.204-0.816,0.816-0.816h3.74c1.768,0,3.128,1.259,4.08,2.925
		c1.02,1.699,1.36,3.876,1.36,3.876h1.088l-0.204-7.889h-19.108v1.088h2.38c0.612,0,0.816,0.204,0.816,0.816v20.4
		c0,0.611-0.204,0.815-0.816,0.815h-2.38V94z M180.715,94h11.424v-1.088h-2.38c-0.612,0-0.816-0.204-0.816-0.815v-10.2h8.024v10.2
		c0,0.611-0.204,0.815-0.816,0.815h-2.38V94h11.424v-1.088h-2.38c-0.612,0-0.816-0.204-0.816-0.815v-20.4
		c0-0.612,0.204-0.816,0.816-0.816h2.38v-1.088h-11.492v1.088h2.448c0.612,0,0.816,0.204,0.816,0.816v8.976h-8.024v-8.976
		c0-0.612,0.204-0.816,0.816-0.816h2.38v-1.088h-11.424v1.088h2.38c0.612,0,0.816,0.204,0.816,0.816v20.4
		c0,0.611-0.204,0.815-0.816,0.815h-2.38V94z M153.923,79.925h1.088c0,0,0.136-1.156,0.714-3.196
		c0.782-2.788,2.584-5.849,4.896-5.849c0.748,0,1.258,0.408,1.258,1.156v20.061c0,0.611-0.204,0.815-0.816,0.815h-2.72V94h12.104
		v-1.088h-2.72c-0.612,0-0.816-0.204-0.816-0.815V72.036c0-0.748,0.51-1.156,1.258-1.156c2.312,0,4.114,3.061,4.896,5.849
		c0.578,2.04,0.714,3.196,0.714,3.196h1.088l-0.272-10.133h-20.4L153.923,79.925z M116.931,94h19.244l0.272-10.472h-1.088
		c0,0-0.476,2.21-0.85,3.468c-0.578,1.87-2.312,5.916-5.1,5.916h-3.434c-0.612,0-0.816-0.306-0.816-0.918V71.696
		c0-0.612,0.204-0.816,0.816-0.816h2.38v-1.088h-11.424v1.088h2.38c0.612,0,0.816,0.204,0.816,0.816v20.298
		c0,0.612-0.204,0.918-0.816,0.918h-2.38V94z M91.771,94h19.244l0.272-10.472h-1.088c0,0-0.476,2.21-0.85,3.468
		c-0.578,1.87-2.312,5.916-5.1,5.916h-3.434c-0.612,0-0.816-0.306-0.816-0.918V71.696c0-0.612,0.204-0.816,0.816-0.816h2.38v-1.088
		H91.771v1.088h2.38c0.612,0,0.816,0.204,0.816,0.816v20.298c0,0.612-0.204,0.918-0.816,0.918h-2.38V94z M63.144,94h8.67v-1.088
		h-1.598c-1.122,0-1.768-0.782-1.768-1.53c0-0.441,0.136-1.121,0.374-1.733l0.714-2.074h7.14l1.088,3.264
		c0.102,0.307,0.204,0.782,0.204,0.986c0,0.578-0.374,1.088-0.918,1.088h-2.448V94h11.934v-1.088h-1.36
		c-0.884,0-1.598-0.544-2.006-1.733l-7.276-21.998h-1.428l-7.174,20.978c-0.476,1.36-1.53,2.754-2.992,2.754h-1.156V94z
		 M69.978,86.316l3.196-9.351l3.094,9.351H69.978z M26.696,94h12.138v-1.088H35.74c-0.612,0-0.816-0.204-0.816-0.815v-9.792h1.734
		c1.904,0,3.4,2.72,3.4,4.726h1.088V76.389h-1.088c0,1.972-1.496,4.691-3.4,4.691h-1.734v-9.384c0-0.612,0.204-0.816,0.816-0.816
		h3.468c2.176,0,3.808,1.973,4.624,3.706c0.85,1.803,1.224,4.522,1.224,4.522h1.088l-0.272-9.316H26.696v1.088h2.38
		c0.612,0,0.816,0.204,0.816,0.816v20.4c0,0.611-0.204,0.815-0.816,0.815h-2.38V94z M6.16,86.996v-10.2
		c0-4.896,1.7-6.527,4.284-6.527s4.284,1.632,4.284,6.527v10.2c0,4.896-1.7,6.528-4.284,6.528S6.16,91.893,6.16,86.996 M0.38,81.896
		c0,6.527,4.692,12.716,10.064,12.716s10.064-6.188,10.064-12.716c0-6.528-4.692-12.716-10.064-12.716S0.38,75.368,0.38,81.896"/>
	<path clip-path="url(#SVGID_2_)" fill="#000002" d="M715.465,33.924h1.088c0,0,0.137-1.155,0.715-3.195
		c0.781-2.788,2.584-5.849,4.896-5.849c0.748,0,1.258,0.408,1.258,1.156v20.061c0,0.611-0.205,0.815-0.816,0.815h-2.721V48h12.105
		v-1.088h-2.721c-0.611,0-0.816-0.204-0.816-0.815V26.036c0-0.748,0.51-1.156,1.258-1.156c2.312,0,4.115,3.061,4.896,5.849
		c0.578,2.04,0.715,3.195,0.715,3.195h1.088l-0.273-10.132h-20.398L715.465,33.924z M693.025,37.597l0.205,10.743h1.053l0.17-1.088
		c0.102-0.748,0.408-1.155,0.885-1.155c0.441,0,0.883,0.34,1.768,1.02c0.918,0.748,2.482,1.496,4.658,1.496
		c5.201,0,7.582-3.638,7.582-7.004c0-2.278-1.189-4.624-3.061-5.848l-7.311-4.727c-1.562-1.02-3.025-2.346-3.025-3.91
		c0-1.903,1.123-2.855,3.537-2.855c3.332,0,6.357,3.672,7.615,8.363h1.088l-0.34-8.84h-1.088l-0.205,0.918
		c-0.066,0.442-0.305,0.782-0.748,0.782c-0.34,0-0.781-0.271-1.223-0.612c-0.68-0.476-2.584-1.699-4.828-1.699
		c-3.4,0-6.664,1.836-6.664,6.527c0,3.128,2.107,5.101,3.809,6.188l7.275,4.691c1.359,0.885,2.447,1.803,2.447,3.061
		c0,1.428-0.578,3.876-4.658,3.876c-3.875,0-6.9-4.93-7.854-9.928H693.025z M674.734,48h11.424v-1.088h-2.379
		c-0.613,0-0.816-0.204-0.816-0.815v-20.4c0-0.612,0.203-0.816,0.816-0.816h2.379v-1.088h-11.424v1.088h2.381
		c0.611,0,0.814,0.204,0.814,0.816v20.4c0,0.611-0.203,0.815-0.814,0.815h-2.381V48z M649.574,48h19.244l0.271-10.472h-1.088
		c0,0-0.475,2.21-0.85,3.468c-0.578,1.87-2.312,5.916-5.1,5.916h-3.434c-0.613,0-0.816-0.306-0.816-0.918V25.696
		c0-0.612,0.203-0.816,0.816-0.816h2.379v-1.088h-11.424v1.088h2.381c0.611,0,0.814,0.204,0.814,0.816v20.298
		c0,0.612-0.203,0.918-0.814,0.918h-2.381V48z M609.047,48h8.67v-1.088h-1.598c-1.123,0-1.77-0.782-1.77-1.53
		c0-0.441,0.137-1.121,0.375-1.733l0.715-2.074h7.139l1.088,3.264c0.102,0.307,0.205,0.782,0.205,0.986
		c0,0.578-0.375,1.088-0.918,1.088h-2.449V48h11.936v-1.088h-1.361c-0.883,0-1.598-0.544-2.006-1.733l-7.275-21.998h-1.428
		l-7.174,20.978c-0.477,1.36-1.531,2.754-2.992,2.754h-1.156V48z M615.881,40.316l3.195-9.351l3.094,9.351H615.881z"/>
	<path clip-path="url(#SVGID_2_)" fill="#231F20" d="M583.93,41.34c-0.559,0-0.799,0.24-0.799,0.801v1.06
		c0,0.561,0.24,0.8,0.799,0.8h0.42c0.561,0,0.801-0.239,0.801-0.8v-1.06c0-0.561-0.24-0.801-0.801-0.801H583.93z M583.93,33.021
		c-0.559,0-0.799,0.24-0.799,0.8v1.06c0,0.561,0.24,0.801,0.799,0.801h0.42c0.561,0,0.801-0.24,0.801-0.801v-1.06
		c0-0.56-0.24-0.8-0.801-0.8H583.93z M567.332,43.2c0,0.561,0.238,0.8,0.799,0.8h3.201c0.559,0,0.799-0.239,0.799-0.8v-0.34
		c0-0.56-0.24-0.8-0.799-0.8h-1.861V37.84h1.719c0.561,0,0.801-0.239,0.801-0.8V36.7c0-0.56-0.24-0.8-0.801-0.8h-1.719v-3.96h1.82
		c0.561,0,0.801-0.24,0.801-0.8v-0.34c0-0.561-0.24-0.801-0.801-0.801h-3.16c-0.561,0-0.799,0.24-0.799,0.801V43.2z M554.031,41.42
		c0,0.561-0.26,0.82-0.801,0.82h-0.398c-0.561,0-0.82-0.26-0.82-0.82v-8.84c0-0.56,0.26-0.819,0.82-0.819h0.359
		c0.539,0,0.801,0.26,0.801,0.819v1.94c0,0.56,0.238,0.8,0.799,0.8h0.5c0.561,0,0.801-0.24,0.801-0.8V32.46
		c0-1.739-0.84-2.58-2.58-2.58h-1.041c-1.74,0-2.6,0.86-2.6,2.601v9.04c0,1.74,0.859,2.6,2.6,2.6h1.061c1.74,0,2.6-0.859,2.6-2.6
		v-2.46c0-0.561-0.24-0.8-0.799-0.8h-0.5c-0.561,0-0.801,0.239-0.801,0.8V41.42z M534.131,34.561l2.041,8.819
		c0.1,0.44,0.32,0.62,0.779,0.62h0.881c0.559,0,0.799-0.239,0.799-0.8V30.801c0-0.561-0.24-0.801-0.799-0.801h-0.32
		c-0.561,0-0.801,0.24-0.801,0.801v5.5l0.02,2.34l-1.859-8.021c-0.1-0.439-0.32-0.62-0.779-0.62h-1.061
		c-0.561,0-0.801,0.24-0.801,0.801V43.2c0,0.561,0.24,0.8,0.801,0.8h0.32c0.561,0,0.801-0.239,0.801-0.8v-6.16L534.131,34.561z
		 M516.291,43.2c0,0.561,0.24,0.8,0.801,0.8h3.199c0.561,0,0.801-0.239,0.801-0.8v-0.34c0-0.56-0.24-0.8-0.801-0.8h-1.859V37.84
		h1.721c0.559,0,0.799-0.239,0.799-0.8V36.7c0-0.56-0.24-0.8-0.799-0.8h-1.721v-3.96h1.82c0.559,0,0.799-0.24,0.799-0.8v-0.34
		c0-0.561-0.24-0.801-0.799-0.801h-3.16c-0.561,0-0.801,0.24-0.801,0.801V43.2z M501.691,31.88c0.84,0,1.221,0.4,1.221,1.24v7.76
		c0,0.841-0.381,1.24-1.221,1.24h-0.779V31.88H501.691z M501.992,44c2.08,0,3.059-1,3.059-3.06v-7.88
		c0-2.061-0.979-3.061-3.059-3.061h-2.42c-0.561,0-0.801,0.24-0.801,0.801V43.2c0,0.561,0.24,0.8,0.801,0.8H501.992z M486.131,30
		c-0.559,0-0.799,0.24-0.799,0.801V43.2c0,0.561,0.24,0.8,0.799,0.8h0.541c0.559,0,0.799-0.239,0.799-0.8V30.801
		c0-0.561-0.24-0.801-0.799-0.801H486.131z M471.791,44.021c0.48,0,0.721-0.2,0.781-0.681l1.84-12.42
		c0.1-0.619-0.16-0.92-0.781-0.92h-0.42c-0.5,0-0.719,0.2-0.779,0.7l-1.221,9.7l-1.18-9.7c-0.061-0.5-0.279-0.7-0.779-0.7h-0.541
		c-0.619,0-0.879,0.301-0.779,0.92l1.82,12.42c0.08,0.48,0.299,0.681,0.799,0.681H471.791z M452.452,43.2c0,0.561,0.24,0.8,0.8,0.8
		h3.2c0.56,0,0.8-0.239,0.8-0.8v-0.34c0-0.56-0.24-0.8-0.8-0.8h-1.86V37.84h1.72c0.56,0,0.8-0.239,0.8-0.8V36.7
		c0-0.56-0.24-0.8-0.8-0.8h-1.72v-3.96h1.82c0.56,0,0.8-0.24,0.8-0.8v-0.34c0-0.561-0.24-0.801-0.8-0.801h-3.16
		c-0.56,0-0.8,0.24-0.8,0.801V43.2z M424.393,43.2c0,0.561,0.24,0.8,0.8,0.8h0.54c0.56,0,0.8-0.239,0.8-0.8v-5.28h1.62
		c0.56,0,0.8-0.239,0.8-0.8v-0.34c0-0.56-0.24-0.8-0.8-0.8h-1.62v-4.04h1.72c0.56,0,0.8-0.24,0.8-0.8v-0.34
		c0-0.561-0.24-0.801-0.8-0.801h-3.06c-0.56,0-0.8,0.24-0.8,0.801V43.2z M411.013,41.42c0,0.561-0.26,0.82-0.8,0.82h-0.44
		c-0.56,0-0.82-0.26-0.82-0.82v-8.84c0-0.56,0.26-0.819,0.82-0.819h0.44c0.54,0,0.8,0.26,0.8,0.819V41.42z M413.153,32.48
		c0-1.74-0.86-2.601-2.6-2.601h-1.14c-1.74,0-2.6,0.86-2.6,2.601v9.04c0,1.74,0.86,2.6,2.6,2.6h1.14c1.74,0,2.6-0.859,2.6-2.6V32.48
		z M378.533,34.561l2.04,8.819c0.1,0.44,0.32,0.62,0.78,0.62h0.88c0.56,0,0.8-0.239,0.8-0.8V30.801c0-0.561-0.24-0.801-0.8-0.801
		h-0.32c-0.56,0-0.8,0.24-0.8,0.801v5.5l0.02,2.34l-1.86-8.021c-0.1-0.439-0.32-0.62-0.78-0.62h-1.06c-0.56,0-0.8,0.24-0.8,0.801
		V43.2c0,0.561,0.24,0.8,0.8,0.8h0.32c0.56,0,0.8-0.239,0.8-0.8v-6.16L378.533,34.561z M363.993,30c-0.56,0-0.8,0.24-0.8,0.801V43.2
		c0,0.561,0.24,0.8,0.8,0.8h0.54c0.56,0,0.8-0.239,0.8-0.8V30.801c0-0.561-0.24-0.801-0.8-0.801H363.993z M351.393,44
		c0.62,0,0.88-0.3,0.78-0.92l-1.78-12.399c-0.08-0.48-0.3-0.681-0.8-0.681h-1.44c-0.5,0-0.72,0.2-0.8,0.681l-1.76,12.399
		c-0.1,0.62,0.16,0.92,0.78,0.92h0.36c0.5,0,0.72-0.199,0.78-0.699l0.2-1.5h2.22l0.18,1.5c0.06,0.5,0.28,0.699,0.8,0.699H351.393z
		 M347.933,39.9l0.88-7.08l0.88,7.08H347.933z M333.874,31.94h1.12c0.56,0,0.8-0.24,0.8-0.8v-0.34c0-0.561-0.24-0.801-0.8-0.801
		h-4.38c-0.56,0-0.801,0.24-0.801,0.801v0.34c0,0.56,0.241,0.8,0.801,0.8h1.12V43.2c0,0.561,0.24,0.8,0.8,0.8h0.54
		c0.56,0,0.8-0.239,0.8-0.8V31.94z M314.474,34.561l2.04,8.819c0.1,0.44,0.32,0.62,0.78,0.62h0.88c0.56,0,0.8-0.239,0.8-0.8V30.801
		c0-0.561-0.24-0.801-0.8-0.801h-0.32c-0.56,0-0.8,0.24-0.8,0.801v5.5l0.02,2.34l-1.86-8.021c-0.1-0.439-0.32-0.62-0.78-0.62h-1.06
		c-0.56,0-0.8,0.24-0.8,0.801V43.2c0,0.561,0.24,0.8,0.8,0.8h0.32c0.56,0,0.8-0.239,0.8-0.8v-6.16L314.474,34.561z M299.974,30
		c-0.56,0-0.8,0.24-0.8,0.801V41.42c0,0.561-0.26,0.82-0.8,0.82h-0.34c-0.56,0-0.82-0.26-0.82-0.82V30.801
		c0-0.561-0.24-0.801-0.8-0.801h-0.54c-0.56,0-0.8,0.24-0.8,0.801v10.72c0,1.74,0.86,2.6,2.6,2.6h1.04c1.74,0,2.6-0.859,2.6-2.6
		v-10.72c0-0.561-0.24-0.801-0.8-0.801H299.974z M281.714,41.42c0,0.561-0.26,0.82-0.8,0.82h-0.44c-0.56,0-0.82-0.26-0.82-0.82
		v-8.84c0-0.56,0.26-0.819,0.82-0.819h0.44c0.54,0,0.8,0.26,0.8,0.819V41.42z M283.854,32.48c0-1.74-0.86-2.601-2.6-2.601h-1.14
		c-1.74,0-2.6,0.86-2.6,2.601v9.04c0,1.74,0.86,2.6,2.6,2.6h1.14c1.74,0,2.6-0.859,2.6-2.6V32.48z M261.954,44
		c0.5,0,0.72-0.199,0.8-0.68l1.42-10.02V43.2c0,0.561,0.24,0.8,0.8,0.8h0.5c0.56,0,0.8-0.239,0.8-0.8V30.801
		c0-0.561-0.24-0.801-0.8-0.801h-1.68c-0.5,0-0.72,0.2-0.8,0.7l-1.28,9.48l-1.24-9.48c-0.08-0.5-0.3-0.7-0.8-0.7h-1.7
		c-0.56,0-0.8,0.24-0.8,0.801V43.2c0,0.561,0.24,0.8,0.8,0.8h0.24c0.56,0,0.8-0.239,0.8-0.8v-9.96l1.44,10.08
		c0.08,0.48,0.3,0.68,0.8,0.68H261.954z"/>
	<path clip-path="url(#SVGID_2_)" fill="#000002" d="M218.114,48h8.67v-1.088h-1.598c-1.122,0-1.768-0.782-1.768-1.53
		c0-0.441,0.136-1.121,0.374-1.733l0.714-2.074h7.14l1.088,3.264c0.102,0.307,0.204,0.782,0.204,0.986
		c0,0.578-0.374,1.088-0.918,1.088h-2.448V48h11.934v-1.088h-1.36c-0.884,0-1.598-0.544-2.006-1.733l-7.276-21.998h-1.428
		l-7.174,20.978c-0.476,1.36-1.53,2.754-2.992,2.754h-1.156V48z M224.948,40.316l3.196-9.351l3.094,9.351H224.948z M177.722,48
		h12.648c5.644,0,10.268-5.235,10.268-12.308s-4.624-11.9-10.268-11.9h-12.648v1.088h2.38c0.612,0,0.816,0.204,0.816,0.816v20.4
		c0,0.611-0.204,0.815-0.816,0.815h-2.38V48z M185.95,46.097v-20.4c0-0.612,0.204-0.816,0.816-0.816h3.026
		c2.72,0,5.066,1.836,5.066,5.916v10.2c0,4.08-2.346,5.916-5.066,5.916h-3.026C186.154,46.912,185.95,46.708,185.95,46.097
		 M148.89,48h9.928v-1.088c-2.448,0-4.284-1.428-4.284-3.536V30.422h0.136l12.716,18.19h1.292V28.416
		c0-2.107,1.836-3.536,4.284-3.536v-1.088h-9.928v1.088c2.448,0,4.284,1.429,4.284,3.536V39.33l-10.88-15.538h-7.548v1.088h0.612
		c1.088,0,1.496,0.238,1.938,0.885l1.36,2.04c0.306,0.441,0.374,0.544,0.374,1.054v14.518c0,2.108-1.836,3.536-4.284,3.536V48z
		 M120.195,24.88h2.176c0.612,0,0.816,0.204,0.816,0.816v14.246c0,4.386,2.482,8.67,8.942,8.67c5.134,0,8.126-3.434,8.126-7.684
		V27.94c0-2.176,1.768-3.061,3.536-3.061v-1.088h-8.432v1.088c1.768,0,3.536,0.885,3.536,3.061v13.328
		c0,3.264-2.414,5.983-5.814,5.983c-3.298,0-4.862-1.802-4.862-5.983V25.696c0-0.612,0.204-0.816,0.816-0.816h2.176v-1.088h-11.016
		V24.88z M99.455,40.996v-10.2c0-4.896,1.7-6.527,4.284-6.527s4.284,1.632,4.284,6.527v10.2c0,4.896-1.7,6.528-4.284,6.528
		S99.455,45.893,99.455,40.996 M93.675,35.896c0,6.528,4.692,12.716,10.064,12.716c5.372,0,10.064-6.188,10.064-12.716
		s-4.692-12.716-10.064-12.716C98.367,23.181,93.675,29.368,93.675,35.896 M68.243,48h12.138v-1.088h-3.094
		c-0.612,0-0.816-0.204-0.816-0.815v-9.792h1.734c1.904,0,3.4,2.72,3.4,4.726h1.088V30.389h-1.088c0,1.972-1.496,4.691-3.4,4.691
		h-1.734v-9.384c0-0.612,0.204-0.816,0.816-0.816h3.468c2.176,0,3.808,1.973,4.624,3.706c0.85,1.803,1.224,4.522,1.224,4.522h1.088
		l-0.272-9.316H68.243v1.088h2.38c0.612,0,0.816,0.204,0.816,0.816v20.4c0,0.611-0.204,0.815-0.816,0.815h-2.38V48z M30.504,48
		h19.38l0.204-9.384H49c0,0-0.272,2.21-0.714,3.468c-0.646,1.836-2.244,4.828-5.032,4.828h-3.706c-0.612,0-0.816-0.204-0.816-0.815
		v-9.792h1.734c1.904,0,3.4,2.72,3.4,4.726h1.088V30.389h-1.088c0,1.972-1.496,4.691-3.4,4.691h-1.734v-9.384
		c0-0.612,0.204-0.816,0.816-0.816h3.74c1.768,0,3.128,1.259,4.08,2.925c1.02,1.699,1.36,3.876,1.36,3.876h1.088l-0.204-7.889
		H30.504v1.088h2.38c0.612,0,0.816,0.204,0.816,0.816v20.4c0,0.611-0.204,0.815-0.816,0.815h-2.38V48z M0.108,48h11.424v-1.088
		h-2.38c-0.612,0-0.816-0.204-0.816-0.815v-10.2h8.024v10.2c0,0.611-0.204,0.815-0.816,0.815h-2.38V48h11.424v-1.088h-2.38
		c-0.612,0-0.816-0.204-0.816-0.815v-20.4c0-0.612,0.204-0.816,0.816-0.816h2.38v-1.088H13.096v1.088h2.448
		c0.612,0,0.816,0.204,0.816,0.816v8.976H8.336v-8.976c0-0.612,0.204-0.816,0.816-0.816h2.38v-1.088H0.108v1.088h2.38
		c0.612,0,0.816,0.204,0.816,0.816v20.4c0,0.611-0.204,0.815-0.816,0.815h-2.38V48z"/>
</g>
<g>
</g>
<g>
</g>
<g>
</g>
<g>
</g>
<g>
</g>
<g>
</g>
<g>
</g>
<g>
</g>
<g>
</g>
<g>
</g>
<g>
</g>
<g>
</g>
<g>
</g>
<g>
</g>
<g>
</g>
</svg>
