<?xml version="1.0" encoding="utf-8"?>
<!-- Generator: Adobe Illustrator 16.2.1, SVG Export Plug-In . SVG Version: 6.00 Build 0)  -->
<!DOCTYPE svg PUBLIC "-//W3C//DTD SVG 1.1//EN" "http://www.w3.org/Graphics/SVG/1.1/DTD/svg11.dtd">
<svg version="1.1" id="Layer_1" xmlns="http://www.w3.org/2000/svg" xmlns:xlink="http://www.w3.org/1999/xlink" x="0px" y="0px"
	 width="928px" height="187.912px" viewBox="0 0 928 187.912" enable-background="new 0 0 928 187.912" xml:space="preserve">
<g>
	<defs>
		<rect id="SVGID_1_" y="-0.024" width="827.483" height="188.024"/>
	</defs>
	<clipPath id="SVGID_2_">
		<use xlink:href="#SVGID_1_"  overflow="visible"/>
	</clipPath>
	<line clip-path="url(#SVGID_2_)" fill="none" stroke="#EC1B2E" x1="2.998" y1="0.476" x2="314.998" y2="0.476"/>
	<path clip-path="url(#SVGID_2_)" fill="#231F20" d="M826.263,180.524c-0.56,0-0.8,0.239-0.8,0.8v1.06c0,0.561,0.24,0.8,0.8,0.8
		h0.42c0.561,0,0.8-0.239,0.8-0.8v-1.06c0-0.561-0.239-0.8-0.8-0.8H826.263z M809.663,182.384c0,0.561,0.239,0.8,0.8,0.8h3.2
		c0.56,0,0.8-0.239,0.8-0.8v-0.34c0-0.56-0.24-0.8-0.8-0.8h-1.86v-4.22h1.72c0.561,0,0.801-0.24,0.801-0.801v-0.34
		c0-0.56-0.24-0.8-0.801-0.8h-1.72v-3.96h1.82c0.56,0,0.8-0.24,0.8-0.8v-0.34c0-0.561-0.24-0.801-0.8-0.801h-3.16
		c-0.561,0-0.8,0.24-0.8,0.801V182.384z M793.723,182.384c0,0.561,0.24,0.8,0.8,0.8h3.2c0.561,0,0.8-0.239,0.8-0.8v-0.34
		c0-0.56-0.239-0.8-0.8-0.8h-1.859v-4.22h1.72c0.56,0,0.8-0.24,0.8-0.801v-0.34c0-0.56-0.24-0.8-0.8-0.8h-1.72v-3.96h1.819
		c0.561,0,0.8-0.24,0.8-0.8v-0.34c0-0.561-0.239-0.801-0.8-0.801h-3.16c-0.56,0-0.8,0.24-0.8,0.801V182.384z M778.203,182.384
		c0,0.561,0.24,0.8,0.8,0.8h0.54c0.56,0,0.8-0.239,0.8-0.8v-5.28h1.62c0.56,0,0.8-0.239,0.8-0.8v-0.34c0-0.56-0.24-0.8-0.8-0.8
		h-1.62v-4.04h1.72c0.561,0,0.801-0.24,0.801-0.8v-0.34c0-0.561-0.24-0.801-0.801-0.801h-3.06c-0.56,0-0.8,0.24-0.8,0.801V182.384z
		 M753.883,183.184c0.62,0,0.88-0.3,0.78-0.92l-1.78-12.399c-0.08-0.48-0.3-0.681-0.8-0.681h-1.44c-0.5,0-0.72,0.2-0.8,0.681
		l-1.76,12.399c-0.101,0.62,0.16,0.92,0.78,0.92h0.359c0.5,0,0.721-0.199,0.78-0.699l0.2-1.5h2.22l0.18,1.5
		c0.061,0.5,0.28,0.699,0.8,0.699H753.883z M750.423,179.084l0.88-7.08l0.88,7.08H750.423z M724.523,174.424v-2.64
		c0-1.74-0.859-2.601-2.6-2.601h-2.72c-0.561,0-0.8,0.24-0.8,0.801v12.399c0,0.561,0.239,0.8,0.8,0.8h0.54c0.56,0,0.8-0.239,0.8-0.8
		v-4.819h0.96c0.62,0,0.9,0.279,0.9,0.899v3.92c0,0.561,0.239,0.8,0.8,0.8h0.54c0.56,0,0.8-0.239,0.8-0.8v-3.96
		c0-1.06-0.36-1.6-1.24-1.84C724.084,176.264,724.523,175.664,724.523,174.424 M722.384,174.844c0,0.58-0.28,0.86-0.88,0.86h-0.96
		v-4.62h1.04c0.54,0,0.8,0.26,0.8,0.8V174.844z M705.023,180.604c0,0.561-0.26,0.82-0.8,0.82h-0.439c-0.561,0-0.82-0.26-0.82-0.82
		v-8.84c0-0.56,0.26-0.819,0.82-0.819h0.439c0.54,0,0.8,0.26,0.8,0.819V180.604z M707.164,171.664c0-1.74-0.86-2.6-2.601-2.6h-1.14
		c-1.74,0-2.6,0.859-2.6,2.6v9.04c0,1.74,0.859,2.6,2.6,2.6h1.14c1.74,0,2.601-0.859,2.601-2.6V171.664z M685.344,182.384
		c0,0.561,0.24,0.8,0.8,0.8h0.54c0.561,0,0.8-0.239,0.8-0.8v-5.28h1.62c0.561,0,0.801-0.239,0.801-0.8v-0.34
		c0-0.56-0.24-0.8-0.801-0.8h-1.62v-4.04h1.721c0.56,0,0.8-0.24,0.8-0.8v-0.34c0-0.561-0.24-0.801-0.8-0.801h-3.061
		c-0.56,0-0.8,0.24-0.8,0.801V182.384z"/>
	<path clip-path="url(#SVGID_2_)" fill="#000002" d="M650.364,179.024h29.92v-1.904h-29.92V179.024z M623.64,173.108h1.088
		c0,0,0.137-1.156,0.714-3.196c0.782-2.788,2.586-5.848,4.896-5.848c0.748,0,1.258,0.407,1.258,1.155v20.061
		c0,0.611-0.204,0.815-0.815,0.815h-2.721v1.088h12.105v-1.088h-2.722c-0.611,0-0.815-0.204-0.815-0.815V165.22
		c0-0.748,0.51-1.155,1.258-1.155c2.312,0,4.114,3.06,4.896,5.848c0.577,2.04,0.714,3.196,0.714,3.196h1.088l-0.272-10.133h-20.399
		L623.64,173.108z M597.528,187.184h8.67v-1.088H604.6c-1.122,0-1.768-0.781-1.768-1.529c0-0.442,0.136-1.122,0.374-1.734
		l0.714-2.074h7.14l1.088,3.265c0.103,0.306,0.204,0.781,0.204,0.985c0,0.578-0.374,1.088-0.918,1.088h-2.447v1.088h11.934v-1.088
		h-1.36c-0.884,0-1.598-0.544-2.006-1.733l-7.275-21.998h-1.429l-7.174,20.978c-0.476,1.36-1.53,2.754-2.992,2.754h-1.155V187.184z
		 M604.362,179.5l3.195-9.35l3.095,9.35H604.362z M572.301,187.184h19.38l0.204-9.384h-1.088c0,0-0.272,2.21-0.714,3.468
		c-0.646,1.836-2.244,4.828-5.032,4.828h-3.706c-0.612,0-0.815-0.204-0.815-0.815v-9.792h1.733c1.904,0,3.4,2.72,3.4,4.726h1.088
		v-10.642h-1.088c0,1.972-1.496,4.691-3.4,4.691h-1.733v-9.384c0-0.612,0.203-0.815,0.815-0.815h3.74
		c1.768,0,3.128,1.258,4.08,2.924c1.02,1.7,1.359,3.876,1.359,3.876h1.089l-0.204-7.889h-19.108v1.089h2.38
		c0.612,0,0.816,0.203,0.816,0.815v20.4c0,0.611-0.204,0.815-0.816,0.815h-2.38V187.184z M545.101,187.184h12.036v-1.088h-2.992
		c-0.611,0-0.815-0.204-0.815-0.815v-10.473h1.903c2.381,0,3.265,1.904,3.265,3.876v4.217c0,3.468,1.938,5.1,4.726,5.1
		c3.265,0,4.046-2.992,4.046-6.936h-1.088c0,2.413-0.408,5.031-1.7,5.031c-0.611,0-0.951-0.407-0.951-1.428v-3.774
		c0-4.25-2.312-5.712-5.509-6.29v-0.237c3.536-0.408,6.257-2.143,6.257-5.406c0-3.74-3.332-5.984-8.16-5.984h-11.017v1.089h2.38
		c0.612,0,0.816,0.203,0.816,0.815v20.4c0,0.611-0.204,0.815-0.816,0.815h-2.38V187.184z M553.329,173.72v-8.84
		c0-0.612,0.204-0.815,0.815-0.815h1.462c2.551,0,3.23,1.768,3.23,4.624c0,2.855-0.68,5.031-3.23,5.031H553.329z M514.705,187.184
		h11.424v-1.088h-2.38c-0.612,0-0.816-0.204-0.816-0.815v-10.2h8.024v10.2c0,0.611-0.204,0.815-0.816,0.815h-2.38v1.088h11.424
		v-1.088h-2.38c-0.611,0-0.815-0.204-0.815-0.815v-20.4c0-0.612,0.204-0.815,0.815-0.815h2.38v-1.089h-11.491v1.089h2.447
		c0.612,0,0.816,0.203,0.816,0.815v8.977h-8.024v-8.977c0-0.612,0.204-0.815,0.816-0.815h2.38v-1.089h-11.424v1.089h2.38
		c0.612,0,0.815,0.203,0.815,0.815v20.4c0,0.611-0.203,0.815-0.815,0.815h-2.38V187.184z M487.914,173.108h1.088
		c0,0,0.136-1.156,0.714-3.196c0.782-2.788,2.584-5.848,4.896-5.848c0.748,0,1.258,0.407,1.258,1.155v20.061
		c0,0.611-0.204,0.815-0.816,0.815h-2.72v1.088h12.104v-1.088h-2.72c-0.612,0-0.815-0.204-0.815-0.815V165.22
		c0-0.748,0.51-1.155,1.258-1.155c2.312,0,4.113,3.06,4.896,5.848c0.578,2.04,0.714,3.196,0.714,3.196h1.088l-0.271-10.133h-20.4
		L487.914,173.108z M449.29,173.108h1.088c0,0,0.136-1.156,0.714-3.196c0.782-2.788,2.584-5.848,4.896-5.848
		c0.748,0,1.258,0.407,1.258,1.155v20.061c0,0.611-0.204,0.815-0.816,0.815h-2.72v1.088h12.104v-1.088h-2.72
		c-0.611,0-0.816-0.204-0.816-0.815V165.22c0-0.748,0.511-1.155,1.259-1.155c2.312,0,4.114,3.06,4.896,5.848
		c0.578,2.04,0.714,3.196,0.714,3.196h1.089l-0.272-10.133h-20.399L449.29,173.108z M423.178,187.184h8.67v-1.088h-1.598
		c-1.122,0-1.768-0.781-1.768-1.529c0-0.442,0.135-1.122,0.373-1.734l0.715-2.074h7.14l1.088,3.265
		c0.103,0.306,0.204,0.781,0.204,0.985c0,0.578-0.374,1.088-0.918,1.088h-2.448v1.088h11.935v-1.088h-1.36
		c-0.884,0-1.599-0.544-2.006-1.733l-7.276-21.998H434.5l-7.174,20.978c-0.477,1.36-1.53,2.754-2.992,2.754h-1.156V187.184z
		 M430.012,179.5l3.196-9.35l3.094,9.35H430.012z M393.394,187.184h11.424v-1.088h-2.38c-0.612,0-0.816-0.204-0.816-0.815v-10.2
		h8.024v10.2c0,0.611-0.204,0.815-0.816,0.815h-2.38v1.088h11.424v-1.088h-2.38c-0.612,0-0.816-0.204-0.816-0.815v-20.4
		c0-0.612,0.204-0.815,0.816-0.815h2.38v-1.089h-11.492v1.089h2.448c0.612,0,0.816,0.203,0.816,0.815v8.977h-8.024v-8.977
		c0-0.612,0.204-0.815,0.816-0.815h2.38v-1.089h-11.424v1.089h2.38c0.612,0,0.816,0.203,0.816,0.815v20.4
		c0,0.611-0.204,0.815-0.816,0.815h-2.38V187.184z M366.602,173.108h1.088c0,0,0.136-1.156,0.714-3.196
		c0.782-2.788,2.584-5.848,4.896-5.848c0.748,0,1.258,0.407,1.258,1.155v20.061c0,0.611-0.204,0.815-0.816,0.815h-2.72v1.088h12.104
		v-1.088h-2.72c-0.612,0-0.816-0.204-0.816-0.815V165.22c0-0.748,0.51-1.155,1.258-1.155c2.312,0,4.114,3.06,4.896,5.848
		c0.578,2.04,0.714,3.196,0.714,3.196h1.088l-0.272-10.133h-20.4L366.602,173.108z M329.611,187.184h12.138v-1.088h-3.094
		c-0.612,0-0.816-0.204-0.816-0.815v-9.792h1.734c1.904,0,3.4,2.72,3.4,4.726h1.088v-10.642h-1.088c0,1.972-1.496,4.691-3.4,4.691
		h-1.734v-9.384c0-0.612,0.204-0.815,0.816-0.815h3.468c2.176,0,3.808,1.972,4.624,3.705c0.85,1.803,1.224,4.522,1.224,4.522h1.088
		l-0.272-9.316h-19.176v1.089h2.38c0.612,0,0.816,0.203,0.816,0.815v20.4c0,0.611-0.204,0.815-0.816,0.815h-2.38V187.184z
		 M309.075,180.18V169.98c0-4.896,1.7-6.528,4.284-6.528s4.284,1.632,4.284,6.528v10.199c0,4.896-1.7,6.528-4.284,6.528
		S309.075,185.076,309.075,180.18 M303.295,175.08c0,6.528,4.692,12.716,10.064,12.716s10.064-6.188,10.064-12.716
		s-4.692-12.716-10.064-12.716S303.295,168.552,303.295,175.08 M265.283,187.184h19.38l0.204-9.384h-1.088
		c0,0-0.272,2.21-0.714,3.468c-0.646,1.836-2.244,4.828-5.032,4.828h-3.706c-0.612,0-0.816-0.204-0.816-0.815v-9.792h1.734
		c1.904,0,3.4,2.72,3.4,4.726h1.088v-10.642h-1.088c0,1.972-1.496,4.691-3.4,4.691h-1.734v-9.384c0-0.612,0.204-0.815,0.816-0.815
		h3.74c1.768,0,3.128,1.258,4.08,2.924c1.02,1.7,1.36,3.876,1.36,3.876h1.088l-0.204-7.889h-19.108v1.089h2.38
		c0.612,0,0.816,0.203,0.816,0.815v20.4c0,0.611-0.204,0.815-0.816,0.815h-2.38V187.184z M238.084,187.184h12.036v-1.088h-2.992
		c-0.612,0-0.816-0.204-0.816-0.815v-10.473h1.904c2.38,0,3.264,1.904,3.264,3.876v4.217c0,3.468,1.938,5.1,4.726,5.1
		c3.264,0,4.046-2.992,4.046-6.936h-1.088c0,2.413-0.408,5.031-1.7,5.031c-0.612,0-0.952-0.407-0.952-1.428v-3.774
		c0-4.25-2.312-5.712-5.508-6.29v-0.237c3.536-0.408,6.256-2.143,6.256-5.406c0-3.74-3.332-5.984-8.16-5.984h-11.016v1.089h2.38
		c0.612,0,0.816,0.203,0.816,0.815v20.4c0,0.611-0.204,0.815-0.816,0.815h-2.38V187.184z M246.312,173.72v-8.84
		c0-0.612,0.204-0.815,0.816-0.815h1.462c2.55,0,3.23,1.768,3.23,4.624c0,2.855-0.68,5.031-3.23,5.031H246.312z M209.456,187.184
		h8.67v-1.088h-1.598c-1.122,0-1.768-0.781-1.768-1.529c0-0.442,0.136-1.122,0.374-1.734l0.714-2.074h7.14l1.088,3.265
		c0.102,0.306,0.204,0.781,0.204,0.985c0,0.578-0.374,1.088-0.918,1.088h-2.448v1.088h11.934v-1.088h-1.36
		c-0.884,0-1.598-0.544-2.006-1.733l-7.276-21.998h-1.428l-7.174,20.978c-0.476,1.36-1.53,2.754-2.992,2.754h-1.156V187.184z
		 M216.29,179.5l3.196-9.35l3.094,9.35H216.29z M187.424,175.08c0,6.392,3.264,12.716,9.86,12.716c3.4,0,5.814-1.666,7.174-4.318
		c0.816-1.598,1.258-3.773,1.394-5.644h-1.224c-0.17,1.598-0.51,3.638-1.326,5.168c-1.02,1.904-2.822,3.706-6.018,3.706
		c-1.904,0-4.08-1.632-4.08-6.528V169.98c0-4.896,1.836-6.528,3.74-6.528c3.4,0,6.12,3.808,7.14,9.622h1.088v-10.438h-1.122
		l-0.612,1.258c-0.17,0.374-0.34,0.646-0.748,0.646c-0.272,0-0.68-0.204-1.156-0.51c-1.36-0.918-2.754-1.666-4.59-1.666
		C190.96,162.364,187.424,168.28,187.424,175.08 M149.412,187.184h19.38l0.204-9.384h-1.088c0,0-0.272,2.21-0.714,3.468
		c-0.646,1.836-2.244,4.828-5.032,4.828h-3.706c-0.612,0-0.816-0.204-0.816-0.815v-9.792h1.734c1.904,0,3.4,2.72,3.4,4.726h1.088
		v-10.642h-1.088c0,1.972-1.496,4.691-3.4,4.691h-1.734v-9.384c0-0.612,0.204-0.815,0.816-0.815h3.74
		c1.768,0,3.128,1.258,4.08,2.924c1.02,1.7,1.36,3.876,1.36,3.876h1.088l-0.204-7.889h-19.108v1.089h2.38
		c0.612,0,0.816,0.203,0.816,0.815v20.4c0,0.611-0.204,0.815-0.816,0.815h-2.38V187.184z M120.853,187.184h11.152v-1.088h-2.108
		c-0.612,0-0.816-0.204-0.816-0.815v-8.466l1.462-1.666l4.93,9.384c0.102,0.204,0.17,0.646,0.17,0.85
		c0,0.374-0.306,0.714-0.714,0.714h-1.36v1.088h10.676v-1.088h-0.918c-1.122,0-1.496-0.441-2.04-1.496l-7.174-13.565l4.556-5.271
		c0.68-0.815,1.768-1.699,2.822-1.699h1.19v-1.089h-8.398v1.089h0.986c0.748,0,1.224,0.611,1.224,1.428
		c0,0.748-0.272,1.156-0.85,1.836l-6.562,7.616V164.88c0-0.612,0.204-0.815,0.816-0.815h2.108v-1.089h-11.152v1.089h2.38
		c0.612,0,0.816,0.203,0.816,0.815v20.4c0,0.611-0.204,0.815-0.816,0.815h-2.38V187.184z M92.225,187.184h8.67v-1.088h-1.598
		c-1.122,0-1.768-0.781-1.768-1.529c0-0.442,0.136-1.122,0.374-1.734l0.714-2.074h7.14l1.088,3.265
		c0.102,0.306,0.204,0.781,0.204,0.985c0,0.578-0.374,1.088-0.918,1.088h-2.448v1.088h11.934v-1.088h-1.36
		c-0.884,0-1.598-0.544-2.006-1.733l-7.276-21.998h-1.428l-7.174,20.978c-0.476,1.36-1.53,2.754-2.992,2.754h-1.156V187.184z
		 M99.059,179.5l3.196-9.35l3.094,9.35H99.059z M69.037,173.108h1.088c0,0,0.136-1.156,0.714-3.196
		c0.782-2.788,2.584-5.848,4.896-5.848c0.748,0,1.258,0.407,1.258,1.155v20.061c0,0.611-0.204,0.815-0.816,0.815h-2.72v1.088h12.104
		v-1.088h-2.72c-0.612,0-0.816-0.204-0.816-0.815V165.22c0-0.748,0.51-1.155,1.258-1.155c2.312,0,4.114,3.06,4.896,5.848
		c0.578,2.04,0.714,3.196,0.714,3.196h1.088l-0.272-10.133h-20.4L69.037,173.108z M36.67,180.18V169.98
		c0-4.896,1.7-6.528,4.284-6.528s4.284,1.632,4.284,6.528v10.199c0,4.896-1.7,6.528-4.284,6.528S36.67,185.076,36.67,180.18
		 M30.89,175.08c0,6.528,4.692,12.716,10.064,12.716c5.372,0,10.064-6.188,10.064-12.716s-4.692-12.716-10.064-12.716
		C35.582,162.364,30.89,168.552,30.89,175.08 M3.826,173.108h1.088c0,0,0.136-1.156,0.714-3.196
		c0.782-2.788,2.584-5.848,4.896-5.848c0.748,0,1.258,0.407,1.258,1.155v20.061c0,0.611-0.204,0.815-0.816,0.815h-2.72v1.088H20.35
		v-1.088h-2.72c-0.612,0-0.816-0.204-0.816-0.815V165.22c0-0.748,0.51-1.155,1.258-1.155c2.312,0,4.114,3.06,4.896,5.848
		c0.578,2.04,0.714,3.196,0.714,3.196h1.088l-0.272-10.133h-20.4L3.826,173.108z"/>
	<path clip-path="url(#SVGID_2_)" fill="#000002" d="M591.35,141.184h12.647c5.646,0,10.269-5.235,10.269-12.308
		s-4.623-11.9-10.269-11.9H591.35v1.089h2.38c0.611,0,0.815,0.203,0.815,0.815v20.4c0,0.611-0.204,0.815-0.815,0.815h-2.38V141.184z
		 M599.577,139.28v-20.4c0-0.612,0.204-0.815,0.816-0.815h3.025c2.72,0,5.067,1.836,5.067,5.916v10.199
		c0,4.08-2.348,5.916-5.067,5.916h-3.025C599.781,140.096,599.577,139.892,599.577,139.28 M565.51,141.184h19.381l0.203-9.384
		h-1.088c0,0-0.271,2.21-0.714,3.468c-0.646,1.836-2.244,4.828-5.032,4.828h-3.705c-0.612,0-0.816-0.204-0.816-0.815v-9.792h1.734
		c1.903,0,3.399,2.72,3.399,4.726h1.088v-10.642h-1.088c0,1.972-1.496,4.691-3.399,4.691h-1.734v-9.384
		c0-0.612,0.204-0.815,0.816-0.815h3.739c1.769,0,3.128,1.258,4.08,2.924c1.021,1.7,1.36,3.876,1.36,3.876h1.088l-0.204-7.889
		H565.51v1.089h2.381c0.611,0,0.815,0.203,0.815,0.815v20.4c0,0.611-0.204,0.815-0.815,0.815h-2.381V141.184z M538.311,141.184
		h12.035v-1.088h-2.991c-0.612,0-0.816-0.204-0.816-0.815v-10.473h1.904c2.38,0,3.264,1.904,3.264,3.876v4.217
		c0,3.468,1.938,5.1,4.727,5.1c3.264,0,4.046-2.992,4.046-6.936h-1.088c0,2.413-0.408,5.031-1.7,5.031
		c-0.612,0-0.952-0.407-0.952-1.428v-3.774c0-4.25-2.312-5.712-5.508-6.29v-0.237c3.536-0.408,6.256-2.143,6.256-5.406
		c0-3.74-3.332-5.984-8.16-5.984h-11.016v1.089h2.38c0.611,0,0.815,0.203,0.815,0.815v20.4c0,0.611-0.204,0.815-0.815,0.815h-2.38
		V141.184z M546.538,127.72v-8.84c0-0.612,0.204-0.815,0.816-0.815h1.462c2.55,0,3.229,1.768,3.229,4.624
		c0,2.855-0.68,5.031-3.229,5.031H546.538z M512.47,141.184h19.381l0.204-9.384h-1.089c0,0-0.271,2.21-0.714,3.468
		c-0.646,1.836-2.244,4.828-5.031,4.828h-3.707c-0.611,0-0.815-0.204-0.815-0.815v-9.792h1.734c1.903,0,3.399,2.72,3.399,4.726
		h1.088v-10.642h-1.088c0,1.972-1.496,4.691-3.399,4.691h-1.734v-9.384c0-0.612,0.204-0.815,0.815-0.815h3.74
		c1.769,0,3.128,1.258,4.08,2.924c1.021,1.7,1.36,3.876,1.36,3.876h1.088l-0.204-7.889H512.47v1.089h2.381
		c0.611,0,0.815,0.203,0.815,0.815v20.4c0,0.611-0.204,0.815-0.815,0.815h-2.381V141.184z M486.631,141.184h19.38l0.204-9.384
		h-1.088c0,0-0.271,2.21-0.714,3.468c-0.646,1.836-2.244,4.828-5.032,4.828h-3.706c-0.611,0-0.815-0.204-0.815-0.815v-9.792h1.733
		c1.904,0,3.4,2.72,3.4,4.726h1.088v-10.642h-1.088c0,1.972-1.496,4.691-3.4,4.691h-1.733v-9.384c0-0.612,0.204-0.815,0.815-0.815
		h3.74c1.769,0,3.128,1.258,4.08,2.924c1.021,1.7,1.36,3.876,1.36,3.876h1.088l-0.204-7.889h-19.108v1.089h2.38
		c0.612,0,0.816,0.203,0.816,0.815v20.4c0,0.611-0.204,0.815-0.816,0.815h-2.38V141.184z M459.84,127.108h1.088
		c0,0,0.135-1.156,0.713-3.196c0.783-2.788,2.585-5.848,4.896-5.848c0.748,0,1.258,0.407,1.258,1.155v20.061
		c0,0.611-0.204,0.815-0.815,0.815h-2.721v1.088h12.104v-1.088h-2.72c-0.612,0-0.816-0.204-0.816-0.815V119.22
		c0-0.748,0.51-1.155,1.258-1.155c2.312,0,4.114,3.06,4.896,5.848c0.578,2.04,0.714,3.196,0.714,3.196h1.088l-0.272-10.133h-20.399
		L459.84,127.108z M431.075,141.184h9.929v-1.088c-2.447,0-4.283-1.428-4.283-3.536v-12.953h0.135l12.716,18.189h1.293V121.6
		c0-2.107,1.836-3.535,4.284-3.535v-1.089h-9.928v1.089c2.447,0,4.283,1.428,4.283,3.535v10.914l-10.881-15.538h-7.548v1.089h0.612
		c1.089,0,1.496,0.237,1.938,0.884l1.359,2.04c0.306,0.441,0.374,0.544,0.374,1.054v14.518c0,2.108-1.836,3.536-4.284,3.536V141.184
		z M402.38,118.064h2.176c0.612,0,0.816,0.203,0.816,0.815v14.246c0,4.386,2.482,8.67,8.942,8.67c5.134,0,8.126-3.434,8.126-7.684
		v-12.988c0-2.176,1.768-3.06,3.536-3.06v-1.089h-8.433v1.089c1.769,0,3.536,0.884,3.536,3.06v13.328
		c0,3.264-2.414,5.983-5.814,5.983c-3.297,0-4.861-1.802-4.861-5.983V118.88c0-0.612,0.204-0.815,0.816-0.815h2.176v-1.089H402.38
		V118.064z M377.831,141.184h19.244l0.272-10.472h-1.088c0,0-0.476,2.21-0.85,3.468c-0.578,1.87-2.312,5.916-5.1,5.916h-3.434
		c-0.612,0-0.816-0.306-0.816-0.918V118.88c0-0.612,0.204-0.815,0.816-0.815h2.38v-1.089h-11.424v1.089h2.38
		c0.612,0,0.816,0.203,0.816,0.815v20.298c0,0.612-0.204,0.918-0.816,0.918h-2.38V141.184z M357.296,134.18V123.98
		c0-4.896,1.7-6.528,4.284-6.528s4.284,1.632,4.284,6.528v10.199c0,4.896-1.7,6.528-4.284,6.528S357.296,139.076,357.296,134.18
		 M351.516,129.08c0,6.528,4.692,12.716,10.064,12.716s10.064-6.188,10.064-12.716s-4.692-12.716-10.064-12.716
		S351.516,122.552,351.516,129.08 M324.248,118.064h1.122c1.496,0,2.176,0.476,2.686,1.972l7.684,21.76h1.428l6.698-20.638
		c0.544-1.7,1.53-3.094,3.264-3.094h1.054v-1.089h-9.18v1.089h1.7c1.394,0,1.904,1.224,1.904,2.039c0,0.545-0.238,1.429-0.34,1.734
		l-3.91,12.138l-5.032-14.313c-0.102-0.272-0.136-0.544-0.136-0.748c0-0.476,0.51-0.85,1.156-0.85h1.7v-1.089h-11.798V118.064z
		 M285.692,141.184h12.036v-1.088h-2.992c-0.612,0-0.816-0.204-0.816-0.815v-10.473h1.904c2.38,0,3.264,1.904,3.264,3.876v4.217
		c0,3.468,1.938,5.1,4.726,5.1c3.264,0,4.046-2.992,4.046-6.936h-1.088c0,2.413-0.408,5.031-1.7,5.031
		c-0.612,0-0.952-0.407-0.952-1.428v-3.774c0-4.25-2.312-5.712-5.508-6.29v-0.237c3.536-0.408,6.256-2.143,6.256-5.406
		c0-3.74-3.332-5.984-8.16-5.984h-11.016v1.089h2.38c0.612,0,0.816,0.203,0.816,0.815v20.4c0,0.611-0.204,0.815-0.816,0.815h-2.38
		V141.184z M293.92,127.72v-8.84c0-0.612,0.204-0.815,0.816-0.815h1.462c2.55,0,3.23,1.768,3.23,4.624
		c0,2.855-0.68,5.031-3.23,5.031H293.92z M259.853,141.184h19.38l0.204-9.384h-1.088c0,0-0.272,2.21-0.714,3.468
		c-0.646,1.836-2.244,4.828-5.032,4.828h-3.706c-0.612,0-0.816-0.204-0.816-0.815v-9.792h1.734c1.904,0,3.4,2.72,3.4,4.726h1.088
		v-10.642h-1.088c0,1.972-1.496,4.691-3.4,4.691h-1.734v-9.384c0-0.612,0.204-0.815,0.816-0.815h3.74
		c1.768,0,3.128,1.258,4.08,2.924c1.02,1.7,1.36,3.876,1.36,3.876h1.088l-0.204-7.889h-19.108v1.089h2.38
		c0.612,0,0.816,0.203,0.816,0.815v20.4c0,0.611-0.204,0.815-0.816,0.815h-2.38V141.184z M237.345,130.78l0.204,10.744h1.054
		l0.17-1.089c0.102-0.747,0.408-1.155,0.884-1.155c0.442,0,0.884,0.34,1.768,1.02c0.918,0.748,2.482,1.496,4.658,1.496
		c5.202,0,7.582-3.638,7.582-7.004c0-2.278-1.19-4.624-3.06-5.848l-7.31-4.727c-1.564-1.02-3.026-2.346-3.026-3.91
		c0-1.903,1.122-2.855,3.536-2.855c3.332,0,6.358,3.672,7.616,8.364h1.088l-0.34-8.841h-1.088l-0.204,0.918
		c-0.068,0.442-0.306,0.782-0.748,0.782c-0.34,0-0.782-0.271-1.224-0.611c-0.68-0.477-2.584-1.7-4.828-1.7
		c-3.4,0-6.664,1.836-6.664,6.527c0,3.128,2.108,5.101,3.808,6.188l7.276,4.692c1.36,0.884,2.448,1.802,2.448,3.06
		c0,1.428-0.578,3.876-4.658,3.876c-3.876,0-6.902-4.93-7.854-9.928H237.345z M207.221,118.064h2.176
		c0.612,0,0.816,0.203,0.816,0.815v14.246c0,4.386,2.482,8.67,8.942,8.67c5.134,0,8.126-3.434,8.126-7.684v-12.988
		c0-2.176,1.768-3.06,3.536-3.06v-1.089h-8.432v1.089c1.768,0,3.536,0.884,3.536,3.06v13.328c0,3.264-2.414,5.983-5.814,5.983
		c-3.298,0-4.862-1.802-4.862-5.983V118.88c0-0.612,0.204-0.815,0.816-0.815h2.176v-1.089h-11.016V118.064z M167.917,141.184h12.036
		v-1.088h-2.992c-0.612,0-0.816-0.204-0.816-0.815v-10.473h1.904c2.38,0,3.264,1.904,3.264,3.876v4.217c0,3.468,1.938,5.1,4.726,5.1
		c3.264,0,4.046-2.992,4.046-6.936h-1.088c0,2.413-0.408,5.031-1.7,5.031c-0.612,0-0.952-0.407-0.952-1.428v-3.774
		c0-4.25-2.312-5.712-5.508-6.29v-0.237c3.536-0.408,6.256-2.143,6.256-5.406c0-3.74-3.332-5.984-8.16-5.984h-11.016v1.089h2.38
		c0.612,0,0.816,0.203,0.816,0.815v20.4c0,0.611-0.204,0.815-0.816,0.815h-2.38V141.184z M176.145,127.72v-8.84
		c0-0.612,0.204-0.815,0.816-0.815h1.462c2.55,0,3.23,1.768,3.23,4.624c0,2.855-0.68,5.031-3.23,5.031H176.145z M142.078,141.184
		h19.38l0.204-9.384h-1.088c0,0-0.272,2.21-0.714,3.468c-0.646,1.836-2.244,4.828-5.032,4.828h-3.706
		c-0.612,0-0.816-0.204-0.816-0.815v-9.792h1.734c1.904,0,3.4,2.72,3.4,4.726h1.088v-10.642h-1.088c0,1.972-1.496,4.691-3.4,4.691
		h-1.734v-9.384c0-0.612,0.204-0.815,0.816-0.815h3.74c1.768,0,3.128,1.258,4.08,2.924c1.02,1.7,1.36,3.876,1.36,3.876h1.088
		l-0.204-7.889h-19.108v1.089h2.38c0.612,0,0.816,0.203,0.816,0.815v20.4c0,0.611-0.204,0.815-0.816,0.815h-2.38V141.184z
		 M111.682,141.184h11.424v-1.088h-2.38c-0.612,0-0.816-0.204-0.816-0.815v-10.2h8.024v10.2c0,0.611-0.204,0.815-0.816,0.815h-2.38
		v1.088h11.424v-1.088h-2.38c-0.612,0-0.816-0.204-0.816-0.815v-20.4c0-0.612,0.204-0.815,0.816-0.815h2.38v-1.089H124.67v1.089
		h2.448c0.612,0,0.816,0.203,0.816,0.815v8.977h-8.024v-8.977c0-0.612,0.204-0.815,0.816-0.815h2.38v-1.089h-11.424v1.089h2.38
		c0.612,0,0.816,0.203,0.816,0.815v20.4c0,0.611-0.204,0.815-0.816,0.815h-2.38V141.184z M84.89,127.108h1.088
		c0,0,0.136-1.156,0.714-3.196c0.782-2.788,2.584-5.848,4.896-5.848c0.748,0,1.258,0.407,1.258,1.155v20.061
		c0,0.611-0.204,0.815-0.816,0.815h-2.72v1.088h12.104v-1.088h-2.72c-0.612,0-0.816-0.204-0.816-0.815V119.22
		c0-0.748,0.51-1.155,1.258-1.155c2.312,0,4.114,3.06,4.896,5.848c0.578,2.04,0.714,3.196,0.714,3.196h1.088l-0.272-10.133h-20.4
		L84.89,127.108z M64.423,134.18V123.98c0-4.896,1.7-6.528,4.284-6.528s4.284,1.632,4.284,6.528v10.199
		c0,4.896-1.7,6.528-4.284,6.528S64.423,139.076,64.423,134.18 M58.643,129.08c0,6.528,4.692,12.716,10.064,12.716
		s10.064-6.188,10.064-12.716s-4.692-12.716-10.064-12.716S58.643,122.552,58.643,129.08 M30.763,141.184h9.928v-1.088
		c-2.448,0-4.284-1.428-4.284-3.536v-12.953h0.136l12.716,18.189h1.292V121.6c0-2.107,1.836-3.535,4.284-3.535v-1.089h-9.928v1.089
		c2.448,0,4.284,1.428,4.284,3.535v10.914l-10.88-15.538h-7.548v1.089h0.612c1.088,0,1.496,0.237,1.938,0.884l1.36,2.04
		c0.306,0.441,0.374,0.544,0.374,1.054v14.518c0,2.108-1.836,3.536-4.284,3.536V141.184z M2.611,141.184h8.67v-1.088H9.683
		c-1.122,0-1.768-0.781-1.768-1.529c0-0.442,0.136-1.122,0.374-1.734l0.714-2.074h7.14l1.088,3.265
		c0.102,0.306,0.204,0.781,0.204,0.985c0,0.578-0.374,1.088-0.918,1.088h-2.448v1.088h11.934v-1.088h-1.36
		c-0.884,0-1.598-0.544-2.006-1.733l-7.276-21.998h-1.428l-7.174,20.978c-0.476,1.36-1.53,2.754-2.992,2.754H2.611V141.184z
		 M9.445,133.5l3.196-9.35l3.094,9.35H9.445z"/>
	<path clip-path="url(#SVGID_2_)" fill="#000002" d="M804.281,92.94c0,1.529,1.122,2.651,2.652,2.651s2.652-1.122,2.652-2.651
		c0-1.53-1.122-2.652-2.652-2.652S804.281,91.41,804.281,92.94 M781.773,84.78l0.204,10.744h1.054l0.17-1.089
		c0.103-0.747,0.408-1.155,0.885-1.155c0.441,0,0.884,0.34,1.768,1.02c0.918,0.748,2.482,1.496,4.658,1.496
		c5.202,0,7.582-3.638,7.582-7.004c0-2.278-1.19-4.624-3.061-5.848l-7.31-4.727c-1.564-1.02-3.026-2.346-3.026-3.91
		c0-1.903,1.122-2.855,3.536-2.855c3.332,0,6.358,3.672,7.616,8.364h1.088l-0.34-8.841h-1.088l-0.204,0.918
		c-0.068,0.442-0.306,0.782-0.748,0.782c-0.34,0-0.782-0.271-1.224-0.611c-0.681-0.477-2.584-1.7-4.828-1.7
		c-3.4,0-6.664,1.836-6.664,6.527c0,3.128,2.107,5.101,3.808,6.188l7.276,4.692c1.359,0.884,2.448,1.802,2.448,3.06
		c0,1.428-0.578,3.876-4.658,3.876c-3.876,0-6.902-4.93-7.854-9.928H781.773z M754.029,81.108h1.088c0,0,0.137-1.156,0.715-3.196
		c0.781-2.788,2.584-5.848,4.896-5.848c0.748,0,1.258,0.407,1.258,1.155V93.28c0,0.611-0.204,0.815-0.815,0.815h-2.721v1.088h12.104
		v-1.088h-2.72c-0.612,0-0.816-0.204-0.816-0.815V73.22c0-0.748,0.51-1.155,1.258-1.155c2.312,0,4.114,3.06,4.896,5.848
		c0.578,2.04,0.714,3.196,0.714,3.196h1.088l-0.272-10.133h-20.399L754.029,81.108z M726.897,95.184h12.036v-1.088h-2.992
		c-0.611,0-0.815-0.204-0.815-0.815V82.808h1.903c2.38,0,3.265,1.904,3.265,3.876V90.9c0,3.468,1.938,5.1,4.726,5.1
		c3.264,0,4.046-2.992,4.046-6.936h-1.088c0,2.413-0.408,5.031-1.7,5.031c-0.611,0-0.952-0.407-0.952-1.428v-3.774
		c0-4.25-2.312-5.712-5.508-6.29v-0.237c3.536-0.408,6.256-2.143,6.256-5.406c0-3.74-3.332-5.984-8.159-5.984h-11.017v1.089h2.38
		c0.612,0,0.816,0.203,0.816,0.815v20.4c0,0.611-0.204,0.815-0.816,0.815h-2.38V95.184z M735.126,81.72v-8.84
		c0-0.612,0.204-0.815,0.815-0.815h1.462c2.55,0,3.23,1.768,3.23,4.624c0,2.855-0.681,5.031-3.23,5.031H735.126z M701.059,95.184
		h19.38l0.204-9.384h-1.088c0,0-0.272,2.21-0.714,3.468c-0.646,1.836-2.244,4.828-5.032,4.828h-3.706
		c-0.612,0-0.816-0.204-0.816-0.815v-9.792h1.734c1.904,0,3.4,2.72,3.4,4.726h1.088V77.572h-1.088c0,1.972-1.496,4.691-3.4,4.691
		h-1.734V72.88c0-0.612,0.204-0.815,0.816-0.815h3.74c1.768,0,3.128,1.258,4.08,2.924c1.02,1.7,1.359,3.876,1.359,3.876h1.088
		l-0.203-7.889h-19.108v1.089h2.38c0.612,0,0.816,0.203,0.816,0.815v20.4c0,0.611-0.204,0.815-0.816,0.815h-2.38V95.184z
		 M682.767,81.992V72.88c0-0.612,0.204-0.815,0.816-0.815h2.516c1.802,0,2.924,1.699,2.924,4.691c0,3.128-0.51,5.236-3.128,5.236
		H682.767z M674.539,95.184h12.409c4.284,0,7.99-2.312,7.99-6.596c0-3.536-3.672-5.508-6.562-5.95v-0.204
		c2.72-0.714,5.746-2.38,5.746-5.678c0-3.399-3.57-5.78-7.616-5.78h-11.968v1.089h2.38c0.611,0,0.815,0.203,0.815,0.815v20.4
		c0,0.611-0.204,0.815-0.815,0.815h-2.38V95.184z M682.767,93.28v-10.2h3.128c2.244,0,3.604,1.156,3.604,5.508
		c0,4.353-1.36,5.508-3.604,5.508h-2.312C682.971,94.096,682.767,93.892,682.767,93.28 M654.003,88.18V77.98
		c0-4.896,1.699-6.528,4.283-6.528s4.284,1.632,4.284,6.528V88.18c0,4.896-1.7,6.528-4.284,6.528S654.003,93.076,654.003,88.18
		 M648.223,83.08c0,6.528,4.691,12.716,10.063,12.716s10.064-6.188,10.064-12.716s-4.692-12.716-10.064-12.716
		S648.223,76.552,648.223,83.08 M620.752,95.184h12.035v-1.088h-2.991c-0.612,0-0.816-0.204-0.816-0.815V82.808h1.904
		c2.38,0,3.264,1.904,3.264,3.876V90.9c0,3.468,1.938,5.1,4.727,5.1c3.264,0,4.046-2.992,4.046-6.936h-1.088
		c0,2.413-0.408,5.031-1.7,5.031c-0.612,0-0.952-0.407-0.952-1.428v-3.774c0-4.25-2.312-5.712-5.508-6.29v-0.237
		c3.536-0.408,6.256-2.143,6.256-5.406c0-3.74-3.332-5.984-8.16-5.984h-11.016v1.089h2.38c0.611,0,0.815,0.203,0.815,0.815v20.4
		c0,0.611-0.204,0.815-0.815,0.815h-2.38V95.184z M628.979,81.72v-8.84c0-0.612,0.204-0.815,0.816-0.815h1.462
		c2.55,0,3.229,1.768,3.229,4.624c0,2.855-0.68,5.031-3.229,5.031H628.979z M583.012,95.184h19.38l0.204-9.384h-1.088
		c0,0-0.272,2.21-0.714,3.468c-0.646,1.836-2.244,4.828-5.032,4.828h-3.706c-0.612,0-0.816-0.204-0.816-0.815v-9.792h1.734
		c1.904,0,3.4,2.72,3.4,4.726h1.088V77.572h-1.088c0,1.972-1.496,4.691-3.4,4.691h-1.734V72.88c0-0.612,0.204-0.815,0.816-0.815
		h3.74c1.768,0,3.128,1.258,4.08,2.924c1.02,1.7,1.359,3.876,1.359,3.876h1.088l-0.204-7.889h-19.107v1.089h2.38
		c0.612,0,0.816,0.203,0.816,0.815v20.4c0,0.611-0.204,0.815-0.816,0.815h-2.38V95.184z M556.22,81.108h1.088
		c0,0,0.136-1.156,0.714-3.196c0.782-2.788,2.584-5.848,4.896-5.848c0.748,0,1.258,0.407,1.258,1.155V93.28
		c0,0.611-0.204,0.815-0.816,0.815h-2.72v1.088h12.104v-1.088h-2.72c-0.612,0-0.814-0.204-0.814-0.815V73.22
		c0-0.748,0.509-1.155,1.258-1.155c2.311,0,4.113,3.06,4.896,5.848c0.578,2.04,0.713,3.196,0.713,3.196h1.089l-0.272-10.133h-20.399
		L556.22,81.108z M530.107,95.184h8.67v-1.088h-1.598c-1.122,0-1.769-0.781-1.769-1.529c0-0.442,0.137-1.122,0.374-1.734
		l0.715-2.074h7.14l1.088,3.265c0.103,0.306,0.204,0.781,0.204,0.985c0,0.578-0.374,1.088-0.918,1.088h-2.448v1.088H553.5v-1.088
		h-1.36c-0.884,0-1.598-0.544-2.006-1.733l-7.276-21.998h-1.428l-7.174,20.978c-0.477,1.36-1.53,2.754-2.992,2.754h-1.156V95.184z
		 M536.941,87.5l3.196-9.35l3.094,9.35H536.941z M503.52,95.184h12.036v-1.088h-2.992c-0.612,0-0.815-0.204-0.815-0.815V82.808
		h1.903c2.38,0,3.265,1.904,3.265,3.876V90.9c0,3.468,1.938,5.1,4.726,5.1c3.264,0,4.046-2.992,4.046-6.936H524.6
		c0,2.413-0.408,5.031-1.7,5.031c-0.612,0-0.952-0.407-0.952-1.428v-3.774c0-4.25-2.312-5.712-5.508-6.29v-0.237
		c3.536-0.408,6.256-2.143,6.256-5.406c0-3.74-3.332-5.984-8.16-5.984H503.52v1.089h2.38c0.612,0,0.816,0.203,0.816,0.815v20.4
		c0,0.611-0.204,0.815-0.816,0.815h-2.38V95.184z M511.748,81.72v-8.84c0-0.612,0.203-0.815,0.815-0.815h1.462
		c2.55,0,3.23,1.768,3.23,4.624c0,2.855-0.681,5.031-3.23,5.031H511.748z M486.181,95.184h11.424v-1.088h-2.38
		c-0.612,0-0.816-0.204-0.816-0.815v-20.4c0-0.612,0.204-0.815,0.816-0.815h2.38v-1.089h-11.424v1.089h2.38
		c0.612,0,0.816,0.203,0.816,0.815v20.4c0,0.611-0.204,0.815-0.816,0.815h-2.38V95.184z M468.16,82.672V72.88
		c0-0.612,0.204-0.815,0.816-0.815h2.55c2.55,0,3.23,2.243,3.23,5.235s-0.681,5.372-3.23,5.372H468.16z M459.933,95.184h12.036
		v-1.088h-2.992c-0.612,0-0.816-0.204-0.816-0.815V83.76h3.876c4.828,0,8.16-2.72,8.16-6.46s-3.332-6.324-8.16-6.324h-12.104v1.089
		h2.38c0.612,0,0.816,0.203,0.816,0.815v20.4c0,0.611-0.204,0.815-0.816,0.815h-2.38V95.184z M418.929,95.184h12.647
		c5.645,0,10.269-5.235,10.269-12.308s-4.624-11.9-10.269-11.9h-12.647v1.089h2.38c0.611,0,0.816,0.203,0.816,0.815v20.4
		c0,0.611-0.205,0.815-0.816,0.815h-2.38V95.184z M427.156,93.28v-20.4c0-0.612,0.204-0.815,0.816-0.815h3.025
		c2.721,0,5.066,1.836,5.066,5.916V88.18c0,4.08-2.346,5.916-5.066,5.916h-3.025C427.36,94.096,427.156,93.892,427.156,93.28
		 M390.301,95.184h8.67v-1.088h-1.598c-1.122,0-1.768-0.781-1.768-1.529c0-0.442,0.136-1.122,0.374-1.734l0.714-2.074h7.14
		l1.088,3.265c0.102,0.306,0.204,0.781,0.204,0.985c0,0.578-0.374,1.088-0.918,1.088h-2.448v1.088h11.934v-1.088h-1.36
		c-0.884,0-1.598-0.544-2.006-1.733l-7.276-21.998h-1.428l-7.174,20.978c-0.476,1.36-1.53,2.754-2.992,2.754h-1.156V95.184z
		 M397.135,87.5l3.196-9.35l3.094,9.35H397.135z M365.074,95.184h19.38l0.204-9.384h-1.088c0,0-0.272,2.21-0.714,3.468
		c-0.646,1.836-2.244,4.828-5.032,4.828h-3.706c-0.612,0-0.816-0.204-0.816-0.815v-9.792h1.734c1.904,0,3.4,2.72,3.4,4.726h1.088
		V77.572h-1.088c0,1.972-1.496,4.691-3.4,4.691h-1.734V72.88c0-0.612,0.204-0.815,0.816-0.815h3.74c1.768,0,3.128,1.258,4.08,2.924
		c1.02,1.7,1.36,3.876,1.36,3.876h1.088l-0.204-7.889h-19.108v1.089h2.38c0.612,0,0.816,0.203,0.816,0.815v20.4
		c0,0.611-0.204,0.815-0.816,0.815h-2.38V95.184z M337.874,95.184h12.036v-1.088h-2.992c-0.612,0-0.816-0.204-0.816-0.815V82.808
		h1.904c2.38,0,3.264,1.904,3.264,3.876V90.9c0,3.468,1.938,5.1,4.726,5.1c3.264,0,4.046-2.992,4.046-6.936h-1.088
		c0,2.413-0.408,5.031-1.7,5.031c-0.612,0-0.952-0.407-0.952-1.428v-3.774c0-4.25-2.312-5.712-5.508-6.29v-0.237
		c3.536-0.408,6.256-2.143,6.256-5.406c0-3.74-3.332-5.984-8.16-5.984h-11.016v1.089h2.38c0.612,0,0.816,0.203,0.816,0.815v20.4
		c0,0.611-0.204,0.815-0.816,0.815h-2.38V95.184z M346.102,81.72v-8.84c0-0.612,0.204-0.815,0.816-0.815h1.462
		c2.55,0,3.23,1.768,3.23,4.624c0,2.855-0.68,5.031-3.23,5.031H346.102z M308.77,95.184h12.648c5.644,0,10.268-5.235,10.268-12.308
		s-4.624-11.9-10.268-11.9H308.77v1.089h2.38c0.612,0,0.816,0.203,0.816,0.815v20.4c0,0.611-0.204,0.815-0.816,0.815h-2.38V95.184z
		 M316.998,93.28v-20.4c0-0.612,0.204-0.815,0.816-0.815h3.026c2.72,0,5.066,1.836,5.066,5.916V88.18
		c0,4.08-2.346,5.916-5.066,5.916h-3.026C317.202,94.096,316.998,93.892,316.998,93.28"/>
	<path clip-path="url(#SVGID_2_)" fill="#231F20" d="M281.582,85.384h0.52v3.22c0,0.561-0.26,0.82-0.82,0.82h-0.48
		c-0.56,0-0.82-0.26-0.82-0.82v-8.84c0-0.56,0.26-0.819,0.82-0.819h0.44c0.54,0,0.8,0.26,0.8,0.819v1.46c0,0.46,0.26,0.7,0.7,0.7
		h0.7c0.46,0,0.7-0.24,0.7-0.7v-1.58c0-1.72-0.84-2.58-2.58-2.58h-1.12c-1.74,0-2.6,0.86-2.6,2.601v9.04c0,1.74,0.86,2.6,2.6,2.6
		h1.14c1.74,0,2.6-0.859,2.6-2.6v-4.38c0-0.521-0.26-0.78-0.8-0.78h-1.74c-0.44,0-0.68,0.22-0.68,0.66v0.58
		C280.962,85.204,281.162,85.384,281.582,85.384 M262.102,81.744l2.04,8.819c0.1,0.44,0.32,0.62,0.78,0.62h0.88
		c0.56,0,0.8-0.239,0.8-0.8V77.984c0-0.561-0.24-0.801-0.8-0.801h-0.32c-0.56,0-0.8,0.24-0.8,0.801v5.5l0.02,2.34l-1.86-8.021
		c-0.1-0.439-0.32-0.62-0.78-0.62h-1.06c-0.56,0-0.8,0.24-0.8,0.801v12.399c0,0.561,0.24,0.8,0.8,0.8h0.32c0.56,0,0.8-0.239,0.8-0.8
		v-6.16L262.102,81.744z M247.562,77.184c-0.56,0-0.8,0.24-0.8,0.801v12.399c0,0.561,0.24,0.8,0.8,0.8h0.54
		c0.56,0,0.8-0.239,0.8-0.8V77.984c0-0.561-0.24-0.801-0.8-0.801H247.562z M231.423,90.384c0,0.561,0.24,0.8,0.8,0.8h2.9
		c0.56,0,0.8-0.239,0.8-0.8v-0.34c0-0.56-0.24-0.8-0.8-0.8h-1.56v-11.26c0-0.561-0.24-0.801-0.8-0.801h-0.54
		c-0.56,0-0.8,0.24-0.8,0.801V90.384z M218.783,77.184c-0.56,0-0.8,0.24-0.8,0.801v12.399c0,0.561,0.24,0.8,0.8,0.8h0.54
		c0.56,0,0.8-0.239,0.8-0.8V77.984c0-0.561-0.24-0.801-0.8-0.801H218.783z M206.183,91.184c0.62,0,0.88-0.3,0.78-0.92l-1.78-12.399
		c-0.08-0.48-0.3-0.681-0.8-0.681h-1.44c-0.5,0-0.72,0.2-0.8,0.681l-1.76,12.399c-0.1,0.62,0.16,0.92,0.78,0.92h0.36
		c0.5,0,0.72-0.199,0.78-0.699l0.2-1.5h2.22l0.18,1.5c0.06,0.5,0.28,0.699,0.8,0.699H206.183z M202.723,87.084l0.88-7.08l0.88,7.08
		H202.723z M185.022,91.184c0.5,0,0.72-0.199,0.8-0.68l1.42-10.02v9.899c0,0.561,0.24,0.8,0.8,0.8h0.5c0.56,0,0.8-0.239,0.8-0.8
		V77.984c0-0.561-0.24-0.801-0.8-0.801h-1.68c-0.5,0-0.72,0.2-0.8,0.7l-1.28,9.48l-1.24-9.48c-0.08-0.5-0.3-0.7-0.8-0.7h-1.7
		c-0.56,0-0.8,0.24-0.8,0.801v12.399c0,0.561,0.24,0.8,0.8,0.8h0.24c0.56,0,0.8-0.239,0.8-0.8v-9.96l1.44,10.08
		c0.08,0.48,0.3,0.68,0.8,0.68H185.022z M168.623,91.184c0.72,0,0.98-0.359,0.76-1.04l-1.98-6.1l2.02-5.8
		c0.26-0.7-0.02-1.061-0.74-1.061h-0.54c-0.42,0-0.64,0.16-0.76,0.54l-2.04,6.2v-5.939c0-0.561-0.24-0.801-0.8-0.801h-0.54
		c-0.56,0-0.8,0.24-0.8,0.801v12.399c0,0.561,0.24,0.8,0.8,0.8h0.54c0.56,0,0.8-0.239,0.8-0.8v-6.02l1.9,6.26
		c0.14,0.399,0.34,0.56,0.78,0.56H168.623z M149.904,88.604c0,0.561-0.26,0.82-0.8,0.82h-0.4c-0.56,0-0.82-0.26-0.82-0.82v-8.84
		c0-0.56,0.26-0.819,0.82-0.819h0.36c0.54,0,0.8,0.26,0.8,0.819v1.94c0,0.56,0.24,0.8,0.8,0.8h0.5c0.56,0,0.8-0.24,0.8-0.8v-2.061
		c0-1.739-0.84-2.58-2.58-2.58h-1.04c-1.74,0-2.6,0.86-2.6,2.601v9.04c0,1.74,0.86,2.6,2.6,2.6h1.06c1.74,0,2.6-0.859,2.6-2.6v-2.46
		c0-0.561-0.24-0.8-0.8-0.8h-0.5c-0.56,0-0.8,0.239-0.8,0.8V88.604z M134.104,91.184c0.62,0,0.88-0.3,0.78-0.92l-1.78-12.399
		c-0.08-0.48-0.3-0.681-0.8-0.681h-1.44c-0.5,0-0.72,0.2-0.8,0.681l-1.76,12.399c-0.1,0.62,0.16,0.92,0.78,0.92h0.36
		c0.5,0,0.72-0.199,0.78-0.699l0.2-1.5h2.22l0.18,1.5c0.06,0.5,0.28,0.699,0.8,0.699H134.104z M130.644,87.084l0.88-7.08l0.88,7.08
		H130.644z M113.344,90.384c0,0.561,0.24,0.8,0.8,0.8h2.9c0.56,0,0.8-0.239,0.8-0.8v-0.34c0-0.56-0.24-0.8-0.8-0.8h-1.56v-11.26
		c0-0.561-0.24-0.801-0.8-0.801h-0.54c-0.56,0-0.8,0.24-0.8,0.801V90.384z M99.144,84.964c0.6,0,0.88,0.28,0.88,0.88v2.66
		c0,0.54-0.26,0.8-0.8,0.8h-1.06v-4.34H99.144z M99.984,82.264c0,0.58-0.28,0.88-0.88,0.88h-0.94v-4.08h1.02
		c0.54,0,0.8,0.261,0.8,0.801V82.264z M102.104,81.844v-2.06c0-1.74-0.86-2.601-2.6-2.601h-2.66c-0.56,0-0.8,0.24-0.8,0.801v12.399
		c0,0.561,0.24,0.8,0.8,0.8h2.7c1.74,0,2.6-0.859,2.6-2.6v-2.58c0-1.14-0.4-1.74-1.22-2.02
		C101.684,83.704,102.104,83.084,102.104,81.844"/>
	<path clip-path="url(#SVGID_2_)" fill="#000002" d="M63.104,84.78l0.204,10.743h1.054l0.17-1.088
		c0.102-0.748,0.408-1.155,0.884-1.155c0.442,0,0.884,0.34,1.768,1.02c0.918,0.748,2.482,1.496,4.658,1.496
		c5.202,0,7.582-3.638,7.582-7.004c0-2.278-1.19-4.624-3.06-5.848l-7.31-4.727c-1.564-1.02-3.026-2.346-3.026-3.91
		c0-1.903,1.122-2.855,3.536-2.855c3.332,0,6.358,3.672,7.616,8.363h1.088l-0.34-8.84H76.84l-0.204,0.918
		c-0.068,0.442-0.306,0.782-0.748,0.782c-0.34,0-0.782-0.271-1.224-0.612c-0.68-0.476-2.584-1.699-4.828-1.699
		c-3.4,0-6.664,1.836-6.664,6.527c0,3.128,2.108,5.101,3.808,6.188l7.276,4.691c1.36,0.885,2.448,1.803,2.448,3.061
		c0,1.428-0.578,3.876-4.658,3.876c-3.876,0-6.902-4.93-7.854-9.928H63.104z M33.524,95.184h8.67v-1.088h-1.598
		c-1.122,0-1.768-0.782-1.768-1.53c0-0.441,0.136-1.121,0.374-1.733l0.714-2.074h7.14l1.088,3.264
		c0.102,0.307,0.204,0.782,0.204,0.986c0,0.578-0.374,1.088-0.918,1.088h-2.448v1.088h11.934v-1.088h-1.36
		c-0.884,0-1.598-0.544-2.006-1.733l-7.276-21.998h-1.428l-7.174,20.978c-0.476,1.36-1.53,2.754-2.992,2.754h-1.156V95.184z
		 M40.358,87.5l3.196-9.35l3.094,9.35H40.358z M0,72.063h0.646c1.972,0,2.754,0.782,3.23,2.21l7.072,21.522h1.428l5.032-17.204
		l5.576,17.204h1.428l5.746-20.638c0.544-1.7,1.53-3.095,3.264-3.095h1.054v-1.088h-9.18v1.088h1.7c1.394,0,1.802,1.156,1.802,1.973
		c0,0.544-0.136,1.529-0.238,1.836l-3.094,11.186l-4.318-13.26c-0.068-0.271-0.102-0.544-0.102-0.748
		c0-0.476,0.442-0.986,1.088-0.986H23.8v-1.088H12.648v1.088h0.578c1.496,0,2.176,0.477,2.686,1.973l0.748,2.277l-3.196,10.881
		L9.18,74.104c-0.102-0.271-0.17-0.646-0.17-0.85c0-0.646,0.408-1.19,1.054-1.19h0.986v-1.088H0V72.063z"/>
	<path clip-path="url(#SVGID_2_)" fill="#000002" d="M687.093,35.108h1.089c0,0,0.136-1.156,0.714-3.196
		c0.781-2.788,2.584-5.848,4.896-5.848c0.748,0,1.258,0.407,1.258,1.155V47.28c0,0.611-0.203,0.815-0.815,0.815h-2.72v1.088h12.104
		v-1.088h-2.72c-0.612,0-0.816-0.204-0.816-0.815V27.22c0-0.748,0.51-1.155,1.258-1.155c2.312,0,4.114,3.06,4.896,5.848
		c0.578,2.04,0.714,3.196,0.714,3.196h1.088l-0.271-10.133h-20.4L687.093,35.108z M664.653,38.78l0.204,10.744h1.054l0.17-1.089
		c0.103-0.747,0.408-1.155,0.884-1.155c0.442,0,0.885,0.34,1.769,1.02c0.918,0.748,2.481,1.496,4.658,1.496
		c5.201,0,7.582-3.638,7.582-7.004c0-2.278-1.19-4.624-3.061-5.848l-7.31-4.727c-1.564-1.02-3.026-2.346-3.026-3.91
		c0-1.903,1.122-2.855,3.536-2.855c3.332,0,6.357,3.672,7.616,8.364h1.088l-0.34-8.841h-1.089l-0.203,0.918
		c-0.068,0.442-0.307,0.782-0.748,0.782c-0.34,0-0.782-0.271-1.225-0.611c-0.68-0.477-2.584-1.7-4.828-1.7
		c-3.399,0-6.664,1.836-6.664,6.527c0,3.128,2.108,5.101,3.809,6.188l7.275,4.692c1.36,0.884,2.448,1.802,2.448,3.06
		c0,1.428-0.578,3.876-4.657,3.876c-3.877,0-6.902-4.93-7.854-9.928H664.653z M646.362,49.184h11.424v-1.088h-2.38
		c-0.612,0-0.816-0.204-0.816-0.815v-20.4c0-0.612,0.204-0.815,0.816-0.815h2.38v-1.089h-11.424v1.089h2.38
		c0.612,0,0.816,0.203,0.816,0.815v20.4c0,0.611-0.204,0.815-0.816,0.815h-2.38V49.184z M613.246,49.184h8.432v-1.088
		c-1.768,0-3.535-0.884-3.535-3.06v-14.11h0.237l6.937,18.666h1.326l5.916-21.658V47.28c0,0.611-0.204,0.815-0.816,0.815h-2.38
		v1.088h11.424v-1.088h-2.38c-0.612,0-0.816-0.204-0.816-0.815v-20.4c0-0.612,0.204-0.815,0.816-0.815h2.38v-1.089h-8.636
		l-4.557,16.729l-6.222-16.729h-8.126v1.089h2.72c0.612,0,0.816,0.203,0.816,0.815v18.156c0,2.176-1.769,3.06-3.536,3.06V49.184z
		 M587.882,49.184h19.38l0.204-9.384h-1.088c0,0-0.271,2.21-0.714,3.468c-0.646,1.836-2.244,4.828-5.032,4.828h-3.706
		c-0.611,0-0.815-0.204-0.815-0.815v-9.792h1.733c1.904,0,3.4,2.72,3.4,4.726h1.088V31.572h-1.088c0,1.972-1.496,4.691-3.4,4.691
		h-1.733V26.88c0-0.612,0.204-0.815,0.815-0.815h3.74c1.769,0,3.128,1.258,4.08,2.924c1.021,1.7,1.36,3.876,1.36,3.876h1.088
		l-0.204-7.889h-19.108v1.089h2.38c0.612,0,0.816,0.203,0.816,0.815v20.4c0,0.611-0.204,0.815-0.816,0.815h-2.38V49.184z
		 M557.486,49.184h11.424v-1.088h-2.38c-0.612,0-0.816-0.204-0.816-0.815v-10.2h8.024v10.2c0,0.611-0.204,0.815-0.816,0.815h-2.38
		v1.088h11.424v-1.088h-2.38c-0.611,0-0.815-0.204-0.815-0.815v-20.4c0-0.612,0.204-0.815,0.815-0.815h2.38v-1.089h-11.491v1.089
		h2.447c0.612,0,0.816,0.203,0.816,0.815v8.977h-8.024V26.88c0-0.612,0.204-0.815,0.816-0.815h2.38v-1.089h-11.424v1.089h2.38
		c0.612,0,0.816,0.203,0.816,0.815v20.4c0,0.611-0.204,0.815-0.816,0.815h-2.38V49.184z M532.939,37.08
		c0,6.392,3.264,12.716,9.859,12.716c3.4,0,5.814-1.666,7.175-4.318c0.815-1.598,1.258-3.773,1.394-5.644h-1.224
		c-0.17,1.598-0.511,3.638-1.326,5.168c-1.021,1.904-2.822,3.706-6.019,3.706c-1.903,0-4.08-1.632-4.08-6.528V31.98
		c0-4.896,1.836-6.528,3.74-6.528c3.4,0,6.12,3.808,7.141,9.622h1.088V24.636h-1.122l-0.612,1.258
		c-0.17,0.374-0.34,0.646-0.748,0.646c-0.271,0-0.68-0.204-1.156-0.51c-1.359-0.918-2.754-1.666-4.59-1.666
		C536.476,24.364,532.939,30.28,532.939,37.08 M504.719,26.064h1.19c0.918,0,1.462,0.306,2.006,1.495l5.78,12.479v7.242
		c0,0.611-0.204,0.815-0.816,0.815h-2.176v1.088h11.016v-1.088h-2.176c-0.611,0-0.815-0.204-0.815-0.815v-7.548l4.59-11.187
		c0.441-1.156,1.428-2.481,3.094-2.481h1.021v-1.089h-8.433v1.089h0.952c1.36,0,1.836,1.121,1.836,2.073
		c0,0.578-0.238,1.395-0.476,1.938l-3.128,7.786l-4.488-9.759c-0.136-0.271-0.204-0.68-0.204-0.951c0-0.477,0.272-1.088,0.952-1.088
		h0.952v-1.089h-10.677V26.064z M482.007,49.184h19.244l0.272-10.472h-1.088c0,0-0.477,2.21-0.851,3.468
		c-0.578,1.87-2.312,5.916-5.1,5.916h-3.435c-0.611,0-0.815-0.306-0.815-0.918V26.88c0-0.612,0.204-0.815,0.815-0.815h2.381v-1.089
		h-11.425v1.089h2.38c0.612,0,0.816,0.203,0.816,0.815v20.298c0,0.612-0.204,0.918-0.816,0.918h-2.38V49.184z M452.903,49.184
		h12.647c5.645,0,10.269-5.235,10.269-12.308s-4.624-11.9-10.269-11.9h-12.647v1.089h2.38c0.611,0,0.816,0.203,0.816,0.815v20.4
		c0,0.611-0.205,0.815-0.816,0.815h-2.38V49.184z M461.131,47.28v-20.4c0-0.612,0.204-0.815,0.816-0.815h3.026
		c2.72,0,5.065,1.836,5.065,5.916V42.18c0,4.08-2.346,5.916-5.065,5.916h-3.026C461.335,48.096,461.131,47.892,461.131,47.28
		 M424.071,49.184h9.928v-1.088c-2.448,0-4.284-1.428-4.284-3.536V31.606h0.137l12.716,18.189h1.292V29.6
		c0-2.107,1.836-3.535,4.283-3.535v-1.089h-9.928v1.089c2.448,0,4.284,1.428,4.284,3.535v10.914l-10.88-15.538h-7.548v1.089h0.612
		c1.088,0,1.496,0.237,1.938,0.884l1.36,2.04c0.306,0.441,0.374,0.544,0.374,1.054V44.56c0,2.108-1.836,3.536-4.284,3.536V49.184z
		 M398.708,49.184h19.38l0.204-9.384h-1.088c0,0-0.272,2.21-0.714,3.468c-0.646,1.836-2.244,4.828-5.032,4.828h-3.706
		c-0.612,0-0.816-0.204-0.816-0.815v-9.792h1.734c1.904,0,3.4,2.72,3.4,4.726h1.088V31.572h-1.088c0,1.972-1.496,4.691-3.4,4.691
		h-1.734V26.88c0-0.612,0.204-0.815,0.816-0.815h3.74c1.768,0,3.128,1.258,4.08,2.924c1.02,1.7,1.359,3.876,1.359,3.876h1.088
		l-0.203-7.889h-19.108v1.089h2.38c0.612,0,0.816,0.203,0.816,0.815v20.4c0,0.611-0.204,0.815-0.816,0.815h-2.38V49.184z
		 M381.368,49.184h11.424v-1.088h-2.38c-0.612,0-0.816-0.204-0.816-0.815v-20.4c0-0.612,0.204-0.815,0.816-0.815h2.38v-1.089
		h-11.424v1.089h2.38c0.612,0,0.816,0.203,0.816,0.815v20.4c0,0.611-0.204,0.815-0.816,0.815h-2.38V49.184z M354.169,49.184h12.036
		v-1.088h-2.992c-0.612,0-0.816-0.204-0.816-0.815V36.808h1.903c2.381,0,3.265,1.904,3.265,3.876V44.9c0,3.468,1.937,5.1,4.726,5.1
		c3.263,0,4.046-2.992,4.046-6.936h-1.089c0,2.413-0.407,5.031-1.699,5.031c-0.612,0-0.952-0.407-0.952-1.428v-3.774
		c0-4.25-2.312-5.712-5.508-6.29v-0.237c3.536-0.408,6.256-2.143,6.256-5.406c0-3.74-3.332-5.984-8.16-5.984h-11.016v1.089h2.38
		c0.612,0,0.815,0.203,0.815,0.815v20.4c0,0.611-0.203,0.815-0.815,0.815h-2.38V49.184z M362.397,35.72v-8.84
		c0-0.612,0.204-0.815,0.816-0.815h1.462c2.55,0,3.23,1.768,3.23,4.624c0,2.855-0.68,5.031-3.23,5.031H362.397z M329.009,49.184
		h12.138v-1.088h-3.094c-0.612,0-0.816-0.204-0.816-0.815v-9.792h1.734c1.904,0,3.4,2.72,3.4,4.726h1.088V31.572h-1.088
		c0,1.972-1.496,4.691-3.4,4.691h-1.734V26.88c0-0.612,0.204-0.815,0.816-0.815h3.468c2.176,0,3.808,1.972,4.624,3.705
		c0.85,1.803,1.224,4.522,1.224,4.522h1.088l-0.272-9.316h-19.176v1.089h2.38c0.612,0,0.816,0.203,0.816,0.815v20.4
		c0,0.611-0.204,0.815-0.816,0.815h-2.38V49.184z M288.005,49.184h12.648c5.644,0,10.268-5.235,10.268-12.308
		s-4.624-11.9-10.268-11.9h-12.648v1.089h2.38c0.612,0,0.816,0.203,0.816,0.815v20.4c0,0.611-0.204,0.815-0.816,0.815h-2.38V49.184z
		 M296.233,47.28v-20.4c0-0.612,0.204-0.815,0.816-0.815h3.026c2.72,0,5.066,1.836,5.066,5.916V42.18
		c0,4.08-2.346,5.916-5.066,5.916h-3.026C296.437,48.096,296.233,47.892,296.233,47.28 M262.165,49.184h19.38l0.204-9.384h-1.088
		c0,0-0.272,2.21-0.714,3.468c-0.646,1.836-2.244,4.828-5.032,4.828h-3.706c-0.612,0-0.816-0.204-0.816-0.815v-9.792h1.734
		c1.904,0,3.4,2.72,3.4,4.726h1.088V31.572h-1.088c0,1.972-1.496,4.691-3.4,4.691h-1.734V26.88c0-0.612,0.204-0.815,0.816-0.815
		h3.74c1.768,0,3.128,1.258,4.08,2.924c1.02,1.7,1.36,3.876,1.36,3.876h1.088l-0.204-7.889h-19.108v1.089h2.38
		c0.612,0,0.816,0.203,0.816,0.815v20.4c0,0.611-0.204,0.815-0.816,0.815h-2.38V49.184z M237.005,49.184h19.244l0.272-10.472h-1.088
		c0,0-0.476,2.21-0.85,3.468c-0.578,1.87-2.312,5.916-5.1,5.916h-3.434c-0.612,0-0.816-0.306-0.816-0.918V26.88
		c0-0.612,0.204-0.815,0.816-0.815h2.38v-1.089h-11.424v1.089h2.38c0.612,0,0.816,0.203,0.816,0.815v20.298
		c0,0.612-0.204,0.918-0.816,0.918h-2.38V49.184z M211.845,49.184h19.244l0.272-10.472h-1.088c0,0-0.476,2.21-0.85,3.468
		c-0.578,1.87-2.312,5.916-5.1,5.916h-3.434c-0.612,0-0.816-0.306-0.816-0.918V26.88c0-0.612,0.204-0.815,0.816-0.815h2.38v-1.089
		h-11.424v1.089h2.38c0.612,0,0.816,0.203,0.816,0.815v20.298c0,0.612-0.204,0.918-0.816,0.918h-2.38V49.184z M183.217,49.184h8.67
		v-1.088h-1.598c-1.122,0-1.768-0.781-1.768-1.529c0-0.442,0.136-1.122,0.374-1.734l0.714-2.074h7.14l1.088,3.265
		c0.102,0.306,0.204,0.781,0.204,0.985c0,0.578-0.374,1.088-0.918,1.088h-2.448v1.088h11.934v-1.088h-1.36
		c-0.884,0-1.598-0.544-2.006-1.733l-7.276-21.998h-1.428l-7.174,20.978c-0.476,1.36-1.53,2.754-2.992,2.754h-1.156V49.184z
		 M190.051,41.5l3.196-9.35l3.094,9.35H190.051z M161.186,37.08c0,6.392,3.264,12.716,9.86,12.716c3.4,0,5.814-1.666,7.174-4.318
		c0.816-1.598,1.258-3.773,1.394-5.644h-1.224c-0.17,1.598-0.51,3.638-1.326,5.168c-1.02,1.904-2.822,3.706-6.018,3.706
		c-1.904,0-4.08-1.632-4.08-6.528V31.98c0-4.896,1.836-6.528,3.74-6.528c3.4,0,6.12,3.808,7.14,9.622h1.088V24.636h-1.122
		l-0.612,1.258c-0.17,0.374-0.34,0.646-0.748,0.646c-0.272,0-0.68-0.204-1.156-0.51c-1.36-0.918-2.754-1.666-4.59-1.666
		C164.722,24.364,161.186,30.28,161.186,37.08 M121.814,49.184h12.036v-1.088h-2.992c-0.612,0-0.816-0.204-0.816-0.815V36.808h1.904
		c2.38,0,3.264,1.904,3.264,3.876V44.9c0,3.468,1.938,5.1,4.726,5.1c3.264,0,4.046-2.992,4.046-6.936h-1.088
		c0,2.413-0.408,5.031-1.7,5.031c-0.612,0-0.952-0.407-0.952-1.428v-3.774c0-4.25-2.312-5.712-5.508-6.29v-0.237
		c3.536-0.408,6.256-2.143,6.256-5.406c0-3.74-3.332-5.984-8.16-5.984h-11.016v1.089h2.38c0.612,0,0.816,0.203,0.816,0.815v20.4
		c0,0.611-0.204,0.815-0.816,0.815h-2.38V49.184z M130.042,35.72v-8.84c0-0.612,0.204-0.815,0.816-0.815h1.462
		c2.55,0,3.23,1.768,3.23,4.624c0,2.855-0.68,5.031-3.23,5.031H130.042z M95.974,49.184h19.38l0.204-9.384h-1.088
		c0,0-0.272,2.21-0.714,3.468c-0.646,1.836-2.244,4.828-5.032,4.828h-3.706c-0.612,0-0.816-0.204-0.816-0.815v-9.792h1.734
		c1.904,0,3.4,2.72,3.4,4.726h1.088V31.572h-1.088c0,1.972-1.496,4.691-3.4,4.691h-1.734V26.88c0-0.612,0.204-0.815,0.816-0.815
		h3.74c1.768,0,3.128,1.258,4.08,2.924c1.02,1.7,1.36,3.876,1.36,3.876h1.088l-0.204-7.889H95.974v1.089h2.38
		c0.612,0,0.816,0.203,0.816,0.815v20.4c0,0.611-0.204,0.815-0.816,0.815h-2.38V49.184z M73.467,38.78l0.204,10.744h1.054
		l0.17-1.089c0.102-0.747,0.408-1.155,0.884-1.155c0.442,0,0.884,0.34,1.768,1.02c0.918,0.748,2.482,1.496,4.658,1.496
		c5.202,0,7.582-3.638,7.582-7.004c0-2.278-1.19-4.624-3.06-5.848l-7.31-4.727c-1.564-1.02-3.026-2.346-3.026-3.91
		c0-1.903,1.122-2.855,3.536-2.855c3.332,0,6.358,3.672,7.616,8.364h1.088l-0.34-8.841h-1.088l-0.204,0.918
		c-0.068,0.442-0.306,0.782-0.748,0.782c-0.34,0-0.782-0.271-1.224-0.611c-0.68-0.477-2.584-1.7-4.828-1.7
		c-3.4,0-6.664,1.836-6.664,6.527c0,3.128,2.108,5.101,3.808,6.188l7.276,4.692c1.36,0.884,2.448,1.802,2.448,3.06
		c0,1.428-0.578,3.876-4.658,3.876c-3.876,0-6.902-4.93-7.854-9.928H73.467z M43.343,26.064h2.176c0.612,0,0.816,0.203,0.816,0.815
		v14.246c0,4.386,2.482,8.67,8.942,8.67c5.134,0,8.126-3.434,8.126-7.684V29.124c0-2.176,1.768-3.06,3.536-3.06v-1.089h-8.432v1.089
		c1.768,0,3.536,0.884,3.536,3.06v13.328c0,3.264-2.414,5.983-5.814,5.983c-3.298,0-4.862-1.802-4.862-5.983V26.88
		c0-0.612,0.204-0.815,0.816-0.815h2.176v-1.089H43.343V26.064z M2.611,49.184h8.67v-1.088H9.683c-1.122,0-1.768-0.781-1.768-1.529
		c0-0.442,0.136-1.122,0.374-1.734l0.714-2.074h7.14l1.088,3.265c0.102,0.306,0.204,0.781,0.204,0.985
		c0,0.578-0.374,1.088-0.918,1.088h-2.448v1.088h11.934v-1.088h-1.36c-0.884,0-1.598-0.544-2.006-1.733l-7.276-21.998h-1.428
		L6.759,45.342c-0.476,1.36-1.53,2.754-2.992,2.754H2.611V49.184z M9.445,41.5l3.196-9.35l3.094,9.35H9.445z"/>
</g>
<g>
</g>
<g>
</g>
<g>
</g>
<g>
</g>
<g>
</g>
<g>
</g>
<g>
</g>
<g>
</g>
<g>
</g>
<g>
</g>
<g>
</g>
<g>
</g>
<g>
</g>
<g>
</g>
<g>
</g>
</svg>
