<?xml version="1.0" encoding="utf-8"?>
<!-- Generator: Adobe Illustrator 16.2.1, SVG Export Plug-In . SVG Version: 6.00 Build 0)  -->
<!DOCTYPE svg PUBLIC "-//W3C//DTD SVG 1.1//EN" "http://www.w3.org/Graphics/SVG/1.1/DTD/svg11.dtd">
<svg version="1.1" id="Layer_1" xmlns="http://www.w3.org/2000/svg" xmlns:xlink="http://www.w3.org/1999/xlink" x="0px" y="0px"
	 width="928px" height="140.912px" viewBox="0 0 928 140.912" enable-background="new 0 0 928 140.912" xml:space="preserve">
<g>
	<defs>
		<rect id="SVGID_1_" x="0.119" width="742.573" height="140.912"/>
	</defs>
	<clipPath id="SVGID_2_">
		<use xlink:href="#SVGID_1_"  overflow="visible"/>
	</clipPath>
	<path clip-path="url(#SVGID_2_)" fill="#231F20" d="M511.508,103.5l0.239-0.4c0.521-0.819,0.74-1.3,0.74-2.46v-1.02
		c0-0.561-0.24-0.8-0.8-0.8h-0.38c-0.561,0-0.8,0.239-0.8,0.8v1.28c0,0.319,0.239,0.579,0.58,0.579h0.159
		c-0.04,0.421-0.22,0.9-0.479,1.48l-0.1,0.22c-0.101,0.2-0.04,0.42,0.159,0.5l0.16,0.061
		C511.188,103.82,511.367,103.74,511.508,103.5 M508.747,103.5l0.24-0.4c0.521-0.819,0.74-1.3,0.74-2.46v-1.02
		c0-0.561-0.24-0.8-0.8-0.8h-0.38c-0.561,0-0.801,0.239-0.801,0.8v1.28c0,0.319,0.24,0.579,0.58,0.579h0.16
		c-0.04,0.421-0.22,0.9-0.479,1.48l-0.101,0.22c-0.1,0.2-0.04,0.42,0.16,0.5l0.16,0.061
		C508.428,103.82,508.607,103.74,508.747,103.5 M496.768,110.16c-0.561,0-0.8,0.24-0.8,0.8v1.06c0,0.561,0.239,0.801,0.8,0.801h0.42
		c0.56,0,0.8-0.24,0.8-0.801v-1.06c0-0.56-0.24-0.8-0.8-0.8H496.768z M480.168,112.02c0,0.561,0.239,0.801,0.8,0.801h3.2
		c0.56,0,0.8-0.24,0.8-0.801v-0.34c0-0.56-0.24-0.8-0.8-0.8h-1.86v-4.22h1.72c0.561,0,0.8-0.24,0.8-0.8v-0.341
		c0-0.56-0.239-0.8-0.8-0.8h-1.72v-3.96h1.82c0.56,0,0.8-0.24,0.8-0.8v-0.34c0-0.561-0.24-0.8-0.8-0.8h-3.16
		c-0.561,0-0.8,0.239-0.8,0.8V112.02z M466.647,112.84c0.48,0,0.72-0.2,0.78-0.68l1.84-12.42c0.1-0.62-0.16-0.92-0.78-0.92h-0.42
		c-0.5,0-0.72,0.199-0.78,0.699l-1.22,9.7l-1.18-9.7c-0.061-0.5-0.28-0.699-0.78-0.699h-0.54c-0.62,0-0.88,0.3-0.78,0.92l1.82,12.42
		c0.08,0.479,0.3,0.68,0.8,0.68H466.647z M450.509,98.82c-0.561,0-0.8,0.239-0.8,0.8v12.399c0,0.561,0.239,0.801,0.8,0.801h0.54
		c0.56,0,0.8-0.24,0.8-0.801V99.62c0-0.561-0.24-0.8-0.8-0.8H450.509z M434.368,112.02c0,0.561,0.24,0.801,0.801,0.801h2.899
		c0.561,0,0.8-0.24,0.8-0.801v-0.34c0-0.56-0.239-0.8-0.8-0.8h-1.56V99.62c0-0.561-0.24-0.8-0.8-0.8h-0.54
		c-0.561,0-0.801,0.239-0.801,0.8V112.02z M422.589,112.82c0.62,0,0.88-0.301,0.779-0.92l-1.779-12.4
		c-0.08-0.48-0.301-0.68-0.801-0.68h-1.439c-0.5,0-0.72,0.199-0.8,0.68l-1.761,12.4c-0.1,0.619,0.16,0.92,0.78,0.92h0.36
		c0.5,0,0.72-0.2,0.78-0.7l0.199-1.5h2.221l0.18,1.5c0.06,0.5,0.28,0.7,0.8,0.7H422.589z M419.129,108.72l0.88-7.08l0.88,7.08
		H419.129z M391.729,100.76h1.12c0.56,0,0.8-0.24,0.8-0.8v-0.34c0-0.561-0.24-0.8-0.8-0.8h-4.38c-0.561,0-0.8,0.239-0.8,0.8v0.34
		c0,0.56,0.239,0.8,0.8,0.8h1.12v11.26c0,0.561,0.239,0.801,0.8,0.801h0.54c0.56,0,0.8-0.24,0.8-0.801V100.76z M375.47,98.82
		c-0.561,0-0.8,0.239-0.8,0.8v12.399c0,0.561,0.239,0.801,0.8,0.801h0.54c0.56,0,0.8-0.24,0.8-0.801V99.62c0-0.561-0.24-0.8-0.8-0.8
		H375.47z M348.91,105.04c0,0.56-0.26,0.82-0.8,0.82h-0.88v-5.16h0.88c0.54,0,0.8,0.26,0.8,0.819V105.04z M348.45,107.74
		c1.74,0,2.6-0.86,2.6-2.601v-3.72c0-1.74-0.86-2.6-2.6-2.6h-2.56c-0.56,0-0.8,0.239-0.8,0.8v12.399c0,0.561,0.24,0.801,0.8,0.801
		h0.54c0.56,0,0.8-0.24,0.8-0.801v-4.279H348.45z M329.149,112.02c0,0.561,0.24,0.801,0.8,0.801h3.2c0.56,0,0.8-0.24,0.8-0.801
		v-0.34c0-0.56-0.24-0.8-0.8-0.8h-1.86v-4.22h1.72c0.56,0,0.8-0.24,0.8-0.8v-0.341c0-0.56-0.24-0.8-0.8-0.8h-1.72v-3.96h1.82
		c0.56,0,0.8-0.24,0.8-0.8v-0.34c0-0.561-0.24-0.8-0.8-0.8h-3.16c-0.56,0-0.8,0.239-0.8,0.8V112.02z M313.209,112.02
		c0,0.561,0.24,0.801,0.8,0.801h3.2c0.56,0,0.8-0.24,0.8-0.801v-0.34c0-0.56-0.24-0.8-0.8-0.8h-1.86v-4.22h1.72
		c0.56,0,0.8-0.24,0.8-0.8v-0.341c0-0.56-0.24-0.8-0.8-0.8h-1.72v-3.96h1.82c0.56,0,0.8-0.24,0.8-0.8v-0.34
		c0-0.561-0.24-0.8-0.8-0.8h-3.16c-0.56,0-0.8,0.239-0.8,0.8V112.02z M301.589,112.82c0.72,0,0.98-0.36,0.76-1.04l-1.98-6.101
		l2.02-5.8c0.26-0.7-0.02-1.06-0.74-1.06h-0.54c-0.42,0-0.64,0.159-0.76,0.54l-2.04,6.199V99.62c0-0.561-0.24-0.8-0.8-0.8h-0.54
		c-0.56,0-0.8,0.239-0.8,0.8v12.399c0,0.561,0.24,0.801,0.8,0.801h0.54c0.56,0,0.8-0.24,0.8-0.801V106l1.9,6.26
		c0.14,0.4,0.34,0.561,0.78,0.561H301.589z"/>
	<path clip-path="url(#SVGID_2_)" fill="#000002" d="M256.633,116.82h12.648c5.644,0,10.268-5.236,10.268-12.309
		s-4.624-11.899-10.268-11.899h-12.648V93.7h2.381c0.612,0,0.815,0.204,0.815,0.815v20.4c0,0.612-0.203,0.815-0.815,0.815h-2.381
		V116.82z M264.861,114.916v-20.4c0-0.611,0.204-0.815,0.816-0.815h3.026c2.72,0,5.066,1.836,5.066,5.916v10.199
		c0,4.08-2.346,5.916-5.066,5.916h-3.026C265.065,115.731,264.861,115.528,264.861,114.916 M227.802,116.82h9.928v-1.089
		c-2.448,0-4.284-1.428-4.284-3.535V99.242h0.136l12.716,18.189h1.292V97.236c0-2.108,1.836-3.536,4.284-3.536v-1.088h-9.928V93.7
		c2.448,0,4.284,1.428,4.284,3.536v10.914l-10.88-15.538h-7.548V93.7h0.612c1.088,0,1.496,0.237,1.938,0.884l1.36,2.04
		c0.306,0.441,0.374,0.544,0.374,1.054v14.519c0,2.107-1.836,3.535-4.284,3.535V116.82z M199.65,116.82h8.67v-1.089h-1.598
		c-1.122,0-1.768-0.781-1.768-1.529c0-0.442,0.136-1.122,0.374-1.734l0.714-2.074h7.14l1.088,3.265
		c0.102,0.306,0.204,0.781,0.204,0.985c0,0.578-0.374,1.088-0.918,1.088h-2.448v1.089h11.934v-1.089h-1.36
		c-0.884,0-1.598-0.544-2.006-1.733L212.4,92h-1.428l-7.174,20.978c-0.476,1.36-1.53,2.754-2.992,2.754h-1.156V116.82z
		 M206.484,109.136l3.196-9.35l3.094,9.35H206.484z M176.462,114.576c0,1.529,1.122,2.651,2.652,2.651
		c1.53,0,2.652-1.122,2.652-2.651c0-1.53-1.122-2.652-2.652-2.652C177.584,111.924,176.462,113.046,176.462,114.576
		 M161.366,104.308v-9.792c0-0.611,0.204-0.815,0.816-0.815h2.55c2.55,0,3.23,2.244,3.23,5.235c0,2.992-0.68,5.372-3.23,5.372
		H161.366z M153.138,116.82h12.036v-1.089h-2.992c-0.612,0-0.816-0.203-0.816-0.815v-9.521h3.876c4.828,0,8.16-2.72,8.16-6.46
		c0-3.739-3.332-6.323-8.16-6.323h-12.104V93.7h2.38c0.612,0,0.816,0.204,0.816,0.815v20.4c0,0.612-0.204,0.815-0.816,0.815h-2.38
		V116.82z M132.602,109.815V99.616c0-4.896,1.7-6.528,4.284-6.528s4.284,1.632,4.284,6.528v10.199c0,4.896-1.7,6.528-4.284,6.528
		S132.602,114.712,132.602,109.815 M126.822,104.716c0,6.528,4.692,12.716,10.064,12.716s10.064-6.188,10.064-12.716
		S142.258,92,136.886,92S126.822,98.188,126.822,104.716 M99.759,102.744h1.088c0,0,0.136-1.156,0.714-3.196
		c0.782-2.788,2.584-5.848,4.896-5.848c0.748,0,1.258,0.407,1.258,1.155v20.061c0,0.612-0.204,0.815-0.816,0.815h-2.72v1.089h12.104
		v-1.089h-2.72c-0.612,0-0.816-0.203-0.816-0.815V94.855c0-0.748,0.51-1.155,1.258-1.155c2.312,0,4.114,3.06,4.896,5.848
		c0.578,2.04,0.714,3.196,0.714,3.196h1.088l-0.272-10.132h-20.4L99.759,102.744z M81.807,104.308v-9.792
		c0-0.611,0.204-0.815,0.816-0.815h2.55c2.55,0,3.23,2.244,3.23,5.235c0,2.992-0.68,5.372-3.23,5.372H81.807z M73.579,116.82h12.036
		v-1.089h-2.992c-0.612,0-0.816-0.203-0.816-0.815v-9.521h3.876c4.828,0,8.16-2.72,8.16-6.46c0-3.739-3.332-6.323-8.16-6.323H73.579
		V93.7h2.38c0.612,0,0.816,0.204,0.816,0.815v20.4c0,0.612-0.204,0.815-0.816,0.815h-2.38V116.82z M44.951,116.82h8.67v-1.089
		h-1.598c-1.122,0-1.768-0.781-1.768-1.529c0-0.442,0.136-1.122,0.374-1.734l0.714-2.074h7.14l1.088,3.265
		c0.102,0.306,0.204,0.781,0.204,0.985c0,0.578-0.374,1.088-0.918,1.088h-2.448v1.089h11.934v-1.089h-1.36
		c-0.884,0-1.598-0.544-2.006-1.733L57.701,92h-1.428l-7.174,20.978c-0.476,1.36-1.53,2.754-2.992,2.754h-1.156V116.82z
		 M51.785,109.136l3.196-9.35l3.094,9.35H51.785z M20.403,116.82h19.244l0.272-10.473h-1.088c0,0-0.476,2.21-0.85,3.468
		c-0.578,1.87-2.312,5.916-5.1,5.916h-3.434c-0.612,0-0.816-0.306-0.816-0.918V94.516c0-0.611,0.204-0.815,0.816-0.815h2.38v-1.088
		H20.403V93.7h2.38c0.612,0,0.816,0.204,0.816,0.815v20.298c0,0.612-0.204,0.918-0.816,0.918h-2.38V116.82z"/>
	<path clip-path="url(#SVGID_2_)" fill="#000002" d="M723.107,70.82h19.38l0.204-9.385h-1.088c0,0-0.272,2.21-0.714,3.469
		c-0.646,1.836-2.244,4.827-5.032,4.827h-3.706c-0.612,0-0.816-0.203-0.816-0.815v-9.792h1.734c1.904,0,3.4,2.72,3.4,4.726h1.088
		V53.208h-1.088c0,1.972-1.496,4.692-3.4,4.692h-1.734v-9.385c0-0.611,0.204-0.815,0.816-0.815h3.741
		c1.767,0,3.127,1.258,4.079,2.924c1.02,1.7,1.359,3.876,1.359,3.876h1.088l-0.204-7.888h-19.107V47.7h2.38
		c0.612,0,0.817,0.204,0.817,0.815v20.4c0,0.612-0.205,0.815-0.817,0.815h-2.38V70.82z M692.712,70.82h11.425v-1.089h-2.381
		c-0.611,0-0.815-0.203-0.815-0.815v-10.2h8.024v10.2c0,0.612-0.204,0.815-0.816,0.815h-2.38v1.089h11.424v-1.089h-2.38
		c-0.612,0-0.816-0.203-0.816-0.815v-20.4c0-0.611,0.204-0.815,0.816-0.815h2.38v-1.088H705.7V47.7h2.448
		c0.612,0,0.816,0.204,0.816,0.815v8.977h-8.024v-8.977c0-0.611,0.204-0.815,0.815-0.815h2.381v-1.088h-11.425V47.7h2.381
		c0.611,0,0.815,0.204,0.815,0.815v20.4c0,0.612-0.204,0.815-0.815,0.815h-2.381V70.82z M665.92,56.744h1.088
		c0,0,0.137-1.156,0.715-3.196c0.781-2.788,2.584-5.848,4.896-5.848c0.748,0,1.258,0.408,1.258,1.155v20.061
		c0,0.612-0.204,0.815-0.815,0.815h-2.721v1.089h12.104v-1.089h-2.72c-0.612,0-0.816-0.203-0.816-0.815V48.855
		c0-0.747,0.51-1.155,1.258-1.155c2.312,0,4.114,3.06,4.896,5.848c0.578,2.04,0.714,3.196,0.714,3.196h1.088l-0.271-10.132h-20.4
		L665.92,56.744z M627.297,56.744h1.089c0,0,0.136-1.156,0.714-3.196c0.781-2.788,2.584-5.848,4.896-5.848
		c0.748,0,1.258,0.408,1.258,1.155v20.061c0,0.612-0.204,0.815-0.815,0.815h-2.72v1.089h12.104v-1.089h-2.72
		c-0.612,0-0.816-0.203-0.816-0.815V48.855c0-0.747,0.51-1.155,1.258-1.155c2.312,0,4.114,3.06,4.896,5.848
		c0.578,2.04,0.714,3.196,0.714,3.196h1.088l-0.271-10.132h-20.4L627.297,56.744z M601.525,70.82h19.38l0.204-9.385h-1.088
		c0,0-0.272,2.21-0.714,3.469c-0.646,1.836-2.244,4.827-5.032,4.827h-3.706c-0.612,0-0.816-0.203-0.816-0.815v-9.792h1.734
		c1.904,0,3.4,2.72,3.4,4.726h1.088V53.208h-1.088c0,1.972-1.496,4.692-3.4,4.692h-1.734v-9.385c0-0.611,0.204-0.815,0.816-0.815
		h3.74c1.768,0,3.128,1.258,4.08,2.924c1.02,1.7,1.359,3.876,1.359,3.876h1.088l-0.204-7.888h-19.107V47.7h2.38
		c0.612,0,0.816,0.204,0.816,0.815v20.4c0,0.612-0.204,0.815-0.816,0.815h-2.38V70.82z M574.938,58.716
		c0,6.766,3.536,12.716,9.52,12.716c2.584,0,4.454-2.142,5.271-3.399c0.271-0.442,0.578-0.714,1.054-0.714
		c0.442,0,0.714,0.441,0.816,0.85l0.815,3.094h1.088V60.688c0-0.611,0.204-0.815,0.816-0.815h1.632v-1.088h-11.288v1.088h2.992
		c0.612,0,0.816,0.204,0.816,0.815v4.658c0,2.584-1.564,4.998-4.013,4.998c-2.176,0-3.739-1.632-3.739-6.527v-10.2
		c0-4.896,1.768-6.528,4.352-6.528c3.4,0,5.848,3.332,7.378,8.976h1.054v-9.792h-1.122l-0.577,1.259
		c-0.17,0.374-0.374,0.646-0.748,0.646c-0.307,0-0.681-0.204-1.156-0.51c-1.36-0.918-2.687-1.666-4.828-1.666
		C579.086,46,574.938,51.916,574.938,58.716 M550.866,68.576c0,1.529,1.122,2.651,2.652,2.651s2.651-1.122,2.651-2.651
		c0-1.53-1.121-2.652-2.651-2.652S550.866,67.046,550.866,68.576 M525.026,70.82h19.38l0.204-9.385h-1.088
		c0,0-0.272,2.21-0.714,3.469c-0.646,1.836-2.244,4.827-5.032,4.827h-3.706c-0.612,0-0.816-0.203-0.816-0.815v-9.792h1.734
		c1.904,0,3.4,2.72,3.4,4.726h1.088V53.208h-1.088c0,1.972-1.496,4.692-3.4,4.692h-1.734v-9.385c0-0.611,0.204-0.815,0.816-0.815
		h3.74c1.768,0,3.128,1.258,4.08,2.924c1.02,1.7,1.359,3.876,1.359,3.876h1.088l-0.203-7.888h-19.108V47.7h2.38
		c0.612,0,0.816,0.204,0.816,0.815v20.4c0,0.612-0.204,0.815-0.816,0.815h-2.38V70.82z M497.826,70.82h12.036v-1.089h-2.992
		c-0.611,0-0.815-0.203-0.815-0.815V58.444h1.903c2.38,0,3.265,1.903,3.265,3.876v4.216c0,3.468,1.938,5.1,4.726,5.1
		c3.264,0,4.046-2.992,4.046-6.936h-1.088c0,2.414-0.408,5.031-1.7,5.031c-0.611,0-0.952-0.407-0.952-1.428V64.53
		c0-4.25-2.312-5.712-5.508-6.29v-0.238c3.536-0.408,6.256-2.142,6.256-5.406c0-3.74-3.332-5.983-8.159-5.983h-11.017V47.7h2.38
		c0.612,0,0.816,0.204,0.816,0.815v20.4c0,0.612-0.204,0.815-0.816,0.815h-2.38V70.82z M506.055,57.355v-8.84
		c0-0.611,0.204-0.815,0.815-0.815h1.462c2.551,0,3.23,1.768,3.23,4.624c0,2.855-0.68,5.031-3.23,5.031H506.055z M471.987,70.82
		h19.38l0.204-9.385h-1.088c0,0-0.272,2.21-0.714,3.469c-0.646,1.836-2.244,4.827-5.032,4.827h-3.706
		c-0.612,0-0.816-0.203-0.816-0.815v-9.792h1.734c1.904,0,3.4,2.72,3.4,4.726h1.088V53.208h-1.088c0,1.972-1.496,4.692-3.4,4.692
		h-1.734v-9.385c0-0.611,0.204-0.815,0.816-0.815h3.74c1.768,0,3.128,1.258,4.08,2.924c1.02,1.7,1.359,3.876,1.359,3.876h1.088
		l-0.203-7.888h-19.108V47.7h2.38c0.612,0,0.816,0.204,0.816,0.815v20.4c0,0.612-0.204,0.815-0.816,0.815h-2.38V70.82z
		 M441.592,70.82h11.424v-1.089h-2.38c-0.612,0-0.816-0.203-0.816-0.815v-10.2h8.024v10.2c0,0.612-0.204,0.815-0.816,0.815h-2.38
		v1.089h11.424v-1.089h-2.38c-0.612,0-0.816-0.203-0.816-0.815v-20.4c0-0.611,0.204-0.815,0.816-0.815h2.38v-1.088h-11.492V47.7
		h2.448c0.612,0,0.816,0.204,0.816,0.815v8.977h-8.024v-8.977c0-0.611,0.204-0.815,0.816-0.815h2.38v-1.088h-11.424V47.7h2.38
		c0.611,0,0.815,0.204,0.815,0.815v20.4c0,0.612-0.204,0.815-0.815,0.815h-2.38V70.82z M403.853,70.82h19.38l0.203-9.385h-1.087
		c0,0-0.272,2.21-0.714,3.469c-0.647,1.836-2.244,4.827-5.032,4.827h-3.706c-0.612,0-0.816-0.203-0.816-0.815v-9.792h1.734
		c1.904,0,3.399,2.72,3.399,4.726h1.089V53.208h-1.089c0,1.972-1.495,4.692-3.399,4.692h-1.734v-9.385
		c0-0.611,0.204-0.815,0.816-0.815h3.74c1.768,0,3.127,1.258,4.08,2.924c1.02,1.7,1.359,3.876,1.359,3.876h1.088l-0.204-7.888
		h-19.107V47.7h2.38c0.612,0,0.814,0.204,0.814,0.815v20.4c0,0.612-0.202,0.815-0.814,0.815h-2.38V70.82z M376.652,70.82h12.036
		v-1.089h-2.992c-0.612,0-0.816-0.203-0.816-0.815V58.444h1.904c2.38,0,3.265,1.903,3.265,3.876v4.216c0,3.468,1.938,5.1,4.726,5.1
		c3.264,0,4.046-2.992,4.046-6.936h-1.088c0,2.414-0.408,5.031-1.7,5.031c-0.612,0-0.952-0.407-0.952-1.428V64.53
		c0-4.25-2.312-5.712-5.508-6.29v-0.238c3.536-0.408,6.256-2.142,6.256-5.406c0-3.74-3.332-5.983-8.16-5.983h-11.016V47.7h2.38
		c0.612,0,0.816,0.204,0.816,0.815v20.4c0,0.612-0.204,0.815-0.816,0.815h-2.38V70.82z M384.88,57.355v-8.84
		c0-0.611,0.204-0.815,0.816-0.815h1.462c2.55,0,3.23,1.768,3.23,4.624c0,2.855-0.681,5.031-3.23,5.031H384.88z M366.452,47.972
		c0,0.34,0.136,1.496,0.17,1.734l0.714,4.726h1.496l0.714-4.726c0.034-0.238,0.171-1.395,0.171-1.734
		c0-1.224-0.612-1.972-1.633-1.972C367.064,46,366.452,46.748,366.452,47.972 M336.94,47.7h2.176c0.612,0,0.816,0.204,0.816,0.815
		v14.246c0,4.386,2.482,8.67,8.942,8.67c5.134,0,8.126-3.434,8.126-7.684V50.76c0-2.176,1.768-3.06,3.536-3.06v-1.088h-8.432V47.7
		c1.768,0,3.536,0.884,3.536,3.06v13.328c0,3.264-2.414,5.984-5.814,5.984c-3.298,0-4.862-1.803-4.862-5.984V48.516
		c0-0.611,0.204-0.815,0.816-0.815h2.176v-1.088H336.94V47.7z M316.201,63.816v-10.2c0-4.896,1.7-6.528,4.284-6.528
		s4.284,1.632,4.284,6.528v10.2c0,4.896-1.7,6.527-4.284,6.527S316.201,68.712,316.201,63.816 M310.421,58.716
		c0,6.528,4.692,12.716,10.064,12.716s10.064-6.188,10.064-12.716S325.857,46,320.485,46S310.421,52.188,310.421,58.716
		 M283.833,47.7h1.19c0.918,0,1.463,0.306,2.007,1.496l5.78,12.478v7.242c0,0.612-0.204,0.815-0.816,0.815h-2.176v1.089h11.015
		v-1.089h-2.175c-0.612,0-0.817-0.203-0.817-0.815v-7.548l4.59-11.187c0.443-1.155,1.428-2.481,3.095-2.481h1.02v-1.088h-8.433V47.7
		h0.952c1.361,0,1.836,1.122,1.836,2.073c0,0.578-0.237,1.395-0.475,1.938l-3.128,7.786l-4.488-9.758
		c-0.137-0.272-0.204-0.681-0.204-0.952c0-0.477,0.272-1.088,0.951-1.088h0.952v-1.088h-10.676V47.7z M244.529,47.7h1.19
		c0.918,0,1.462,0.306,2.006,1.496l5.78,12.478v7.242c0,0.612-0.204,0.815-0.816,0.815h-2.176v1.089h11.016v-1.089h-2.176
		c-0.612,0-0.816-0.203-0.816-0.815v-7.548l4.59-11.187c0.442-1.155,1.428-2.481,3.094-2.481h1.02v-1.088h-8.432V47.7h0.952
		c1.36,0,1.836,1.122,1.836,2.073c0,0.578-0.238,1.395-0.476,1.938l-3.128,7.786l-4.488-9.758c-0.136-0.272-0.204-0.681-0.204-0.952
		c0-0.477,0.272-1.088,0.952-1.088h0.952v-1.088h-10.676V47.7z M214.677,70.82h11.424v-1.089h-2.38
		c-0.612,0-0.816-0.203-0.816-0.815v-10.2h8.024v10.2c0,0.612-0.204,0.815-0.816,0.815h-2.38v1.089h11.424v-1.089h-2.38
		c-0.612,0-0.816-0.203-0.816-0.815v-20.4c0-0.611,0.204-0.815,0.816-0.815h2.38v-1.088h-11.492V47.7h2.448
		c0.612,0,0.816,0.204,0.816,0.815v8.977h-8.024v-8.977c0-0.611,0.204-0.815,0.816-0.815h2.38v-1.088h-11.424V47.7h2.38
		c0.612,0,0.816,0.204,0.816,0.815v20.4c0,0.612-0.204,0.815-0.816,0.815h-2.38V70.82z M175.103,47.7h0.646
		c1.972,0,2.754,0.781,3.23,2.21l7.072,21.521h1.428l5.032-17.204l5.576,17.204h1.428l5.746-20.638
		c0.544-1.7,1.53-3.094,3.264-3.094h1.054v-1.088h-9.18V47.7h1.7c1.394,0,1.802,1.155,1.802,1.972c0,0.544-0.136,1.53-0.238,1.836
		l-3.094,11.187l-4.318-13.261c-0.068-0.271-0.102-0.544-0.102-0.748c0-0.476,0.442-0.985,1.088-0.985h1.666v-1.088H187.75V47.7
		h0.578c1.496,0,2.176,0.476,2.686,1.972l0.748,2.278l-3.196,10.88l-4.284-13.09c-0.102-0.272-0.17-0.646-0.17-0.851
		c0-0.646,0.408-1.189,1.054-1.189h0.986v-1.088h-11.05V47.7z M141.306,60.416l0.204,10.744h1.054l0.17-1.088
		c0.102-0.748,0.408-1.156,0.884-1.156c0.442,0,0.884,0.34,1.768,1.02c0.918,0.748,2.482,1.496,4.658,1.496
		c5.202,0,7.582-3.638,7.582-7.004c0-2.277-1.19-4.624-3.06-5.848l-7.31-4.727c-1.564-1.02-3.026-2.346-3.026-3.909
		c0-1.904,1.122-2.856,3.536-2.856c3.332,0,6.358,3.672,7.616,8.364h1.088l-0.34-8.84h-1.088l-0.204,0.918
		c-0.068,0.441-0.306,0.781-0.748,0.781c-0.34,0-0.782-0.271-1.224-0.611c-0.68-0.477-2.584-1.7-4.828-1.7
		c-3.4,0-6.664,1.836-6.664,6.528c0,3.128,2.108,5.1,3.808,6.188l7.276,4.692c1.36,0.884,2.448,1.802,2.448,3.06
		c0,1.428-0.578,3.876-4.658,3.876c-3.876,0-6.902-4.93-7.854-9.928H141.306z M130.154,47.972c0,0.34,0.136,1.496,0.17,1.734
		l0.714,4.726h1.496l0.714-4.726c0.034-0.238,0.17-1.395,0.17-1.734c0-1.224-0.612-1.972-1.632-1.972S130.154,46.748,130.154,47.972
		 M103.022,56.744h1.088c0,0,0.136-1.156,0.714-3.196c0.782-2.788,2.584-5.848,4.896-5.848c0.748,0,1.258,0.408,1.258,1.155v20.061
		c0,0.612-0.204,0.815-0.816,0.815h-2.72v1.089h12.104v-1.089h-2.72c-0.612,0-0.816-0.203-0.816-0.815V48.855
		c0-0.747,0.51-1.155,1.258-1.155c2.312,0,4.114,3.06,4.896,5.848c0.578,2.04,0.714,3.196,0.714,3.196h1.088l-0.272-10.132h-20.4
		L103.022,56.744z M76.91,70.82h8.67v-1.089h-1.598c-1.122,0-1.768-0.781-1.768-1.529c0-0.442,0.136-1.122,0.374-1.734l0.714-2.074
		h7.14l1.088,3.265c0.102,0.306,0.204,0.781,0.204,0.985c0,0.578-0.374,1.088-0.918,1.088h-2.448v1.089h11.934v-1.089h-1.36
		c-0.884,0-1.598-0.544-2.006-1.733L89.66,46h-1.428l-7.174,20.978c-0.476,1.36-1.53,2.754-2.992,2.754H76.91V70.82z M83.744,63.136
		l3.196-9.35l3.094,9.35H83.744z M47.127,70.82h11.424v-1.089h-2.38c-0.612,0-0.816-0.203-0.816-0.815v-10.2h8.024v10.2
		c0,0.612-0.204,0.815-0.816,0.815h-2.38v1.089h11.424v-1.089h-2.38c-0.612,0-0.816-0.203-0.816-0.815v-20.4
		c0-0.611,0.204-0.815,0.816-0.815h2.38v-1.088H60.115V47.7h2.448c0.612,0,0.816,0.204,0.816,0.815v8.977h-8.024v-8.977
		c0-0.611,0.204-0.815,0.816-0.815h2.38v-1.088H47.127V47.7h2.38c0.612,0,0.816,0.204,0.816,0.815v20.4
		c0,0.612-0.204,0.815-0.816,0.815h-2.38V70.82z M20.335,56.744h1.088c0,0,0.136-1.156,0.714-3.196
		c0.782-2.788,2.584-5.848,4.896-5.848c0.748,0,1.258,0.408,1.258,1.155v20.061c0,0.612-0.204,0.815-0.816,0.815h-2.72v1.089h12.104
		v-1.089h-2.72c-0.612,0-0.816-0.203-0.816-0.815V48.855c0-0.747,0.51-1.155,1.258-1.155c2.312,0,4.114,3.06,4.896,5.848
		c0.578,2.04,0.714,3.196,0.714,3.196h1.088l-0.272-10.132h-20.4L20.335,56.744z"/>
	<path clip-path="url(#SVGID_2_)" fill="#231F20" d="M680.254,18.16c-0.56,0-0.8,0.24-0.8,0.8v1.06c0,0.561,0.24,0.801,0.8,0.801
		h0.42c0.561,0,0.801-0.24,0.801-0.801v-1.06c0-0.56-0.24-0.8-0.801-0.8H680.254z M668.194,13.04c0,0.56-0.26,0.82-0.8,0.82h-0.88
		V8.7h0.88c0.54,0,0.8,0.26,0.8,0.819V13.04z M667.734,15.74c1.74,0,2.6-0.86,2.6-2.601V9.42c0-1.74-0.859-2.6-2.6-2.6h-2.561
		c-0.56,0-0.8,0.239-0.8,0.8V20.02c0,0.561,0.24,0.801,0.8,0.801h0.54c0.561,0,0.801-0.24,0.801-0.801V15.74H667.734z
		 M650.994,18.24c0,0.56-0.26,0.819-0.8,0.819h-0.44c-0.56,0-0.819-0.26-0.819-0.819V9.4c0-0.561,0.26-0.82,0.819-0.82h0.44
		c0.54,0,0.8,0.26,0.8,0.82V18.24z M653.134,9.3c0-1.74-0.859-2.6-2.6-2.6h-1.14c-1.74,0-2.601,0.859-2.601,2.6v9.04
		c0,1.74,0.86,2.6,2.601,2.6h1.14c1.74,0,2.6-0.859,2.6-2.6V9.3z M634.234,8.76h1.12c0.56,0,0.8-0.24,0.8-0.8V7.62
		c0-0.561-0.24-0.8-0.8-0.8h-4.38c-0.561,0-0.801,0.239-0.801,0.8v0.34c0,0.56,0.24,0.8,0.801,0.8h1.119v11.26
		c0,0.561,0.24,0.801,0.801,0.801h0.54c0.56,0,0.8-0.24,0.8-0.801V8.76z M617.534,13.04c0,0.56-0.26,0.82-0.8,0.82h-0.88V8.7h0.88
		c0.54,0,0.8,0.26,0.8,0.819V13.04z M617.074,15.74c1.74,0,2.6-0.86,2.6-2.601V9.42c0-1.74-0.859-2.6-2.6-2.6h-2.56
		c-0.561,0-0.801,0.239-0.801,0.8V20.02c0,0.561,0.24,0.801,0.801,0.801h0.54c0.56,0,0.8-0.24,0.8-0.801V15.74H617.074z
		 M601.935,20.82c0.62,0,0.88-0.301,0.779-0.92l-1.779-12.4c-0.08-0.48-0.301-0.68-0.801-0.68h-1.439c-0.5,0-0.72,0.199-0.8,0.68
		l-1.761,12.4c-0.1,0.619,0.16,0.92,0.78,0.92h0.36c0.5,0,0.72-0.2,0.78-0.7l0.199-1.5h2.221l0.18,1.5c0.06,0.5,0.28,0.7,0.8,0.7
		H601.935z M598.475,16.72l0.88-7.08l0.88,7.08H598.475z M581.174,20.02c0,0.561,0.24,0.801,0.801,0.801h2.899
		c0.561,0,0.8-0.24,0.8-0.801v-0.34c0-0.56-0.239-0.8-0.8-0.8h-1.56V7.62c0-0.561-0.24-0.8-0.8-0.8h-0.54
		c-0.561,0-0.801,0.239-0.801,0.8V20.02z M552.694,20.02c0,0.561,0.24,0.801,0.8,0.801h3.2c0.56,0,0.8-0.24,0.8-0.801v-0.34
		c0-0.56-0.24-0.8-0.8-0.8h-1.86v-4.22h1.721c0.56,0,0.8-0.24,0.8-0.8V13.52c0-0.56-0.24-0.8-0.8-0.8h-1.721V8.76h1.82
		c0.56,0,0.8-0.24,0.8-0.8V7.62c0-0.561-0.24-0.8-0.8-0.8h-3.16c-0.56,0-0.8,0.239-0.8,0.8V20.02z M537.214,7.62
		c0-0.561-0.239-0.8-0.8-0.8h-0.54c-0.56,0-0.8,0.239-0.8,0.8V20.02c0,0.561,0.24,0.801,0.8,0.801h0.54c0.561,0,0.8-0.24,0.8-0.801
		V14.66h2.061v5.359c0,0.561,0.24,0.801,0.8,0.801h0.54c0.56,0,0.8-0.24,0.8-0.801V7.62c0-0.561-0.24-0.8-0.8-0.8h-0.54
		c-0.56,0-0.8,0.239-0.8,0.8v5.1h-2.061V7.62z M522.315,8.76h1.12c0.56,0,0.8-0.24,0.8-0.8V7.62c0-0.561-0.24-0.8-0.8-0.8h-4.381
		c-0.56,0-0.8,0.239-0.8,0.8v0.34c0,0.56,0.24,0.8,0.8,0.8h1.12v11.26c0,0.561,0.24,0.801,0.801,0.801h0.54
		c0.56,0,0.8-0.24,0.8-0.801V8.76z M493.396,8.76h1.12c0.56,0,0.8-0.24,0.8-0.8V7.62c0-0.561-0.24-0.8-0.8-0.8h-4.381
		c-0.56,0-0.8,0.239-0.8,0.8v0.34c0,0.56,0.24,0.8,0.8,0.8h1.12v11.26c0,0.561,0.24,0.801,0.801,0.801h0.54
		c0.56,0,0.8-0.24,0.8-0.801V8.76z M473.896,20.02c0,0.561,0.239,0.801,0.8,0.801h3.2c0.56,0,0.8-0.24,0.8-0.801v-0.34
		c0-0.56-0.24-0.8-0.8-0.8h-1.86v-4.22h1.72c0.561,0,0.801-0.24,0.801-0.8V13.52c0-0.56-0.24-0.8-0.801-0.8h-1.72V8.76h1.82
		c0.56,0,0.8-0.24,0.8-0.8V7.62c0-0.561-0.24-0.8-0.8-0.8h-3.16c-0.561,0-0.8,0.239-0.8,0.8V20.02z M460.075,15.02h0.521v3.221
		c0,0.56-0.261,0.819-0.82,0.819h-0.48c-0.56,0-0.819-0.26-0.819-0.819V9.4c0-0.561,0.26-0.82,0.819-0.82h0.44
		c0.54,0,0.8,0.26,0.8,0.82v1.46c0,0.46,0.26,0.699,0.7,0.699h0.7c0.46,0,0.699-0.239,0.699-0.699V9.28
		c0-1.721-0.84-2.58-2.579-2.58h-1.12c-1.74,0-2.601,0.859-2.601,2.6v9.04c0,1.74,0.86,2.6,2.601,2.6h1.14c1.74,0,2.6-0.859,2.6-2.6
		v-4.38c0-0.521-0.26-0.78-0.8-0.78h-1.74c-0.439,0-0.68,0.221-0.68,0.66v0.58C459.455,14.84,459.655,15.02,460.075,15.02"/>
	<path clip-path="url(#SVGID_2_)" fill="#000002" d="M425.407,17.815V7.616c0-4.896,1.7-6.528,4.284-6.528s4.284,1.632,4.284,6.528
		v10.199c0,4.896-1.7,6.528-4.284,6.528S425.407,22.712,425.407,17.815 M419.627,12.716c0,6.528,4.692,12.716,10.064,12.716
		s10.063-6.188,10.063-12.716S435.063,0,429.691,0S419.627,6.188,419.627,12.716 M392.564,10.744h1.088c0,0,0.136-1.156,0.714-3.196
		c0.782-2.788,2.584-5.848,4.896-5.848c0.747,0,1.258,0.407,1.258,1.155v20.061c0,0.612-0.204,0.815-0.816,0.815h-2.72v1.089h12.104
		v-1.089h-2.72c-0.612,0-0.816-0.203-0.816-0.815V2.855c0-0.748,0.511-1.155,1.259-1.155c2.312,0,4.113,3.06,4.896,5.848
		c0.578,2.04,0.714,3.196,0.714,3.196h1.088l-0.271-10.132h-20.4L392.564,10.744z M358.224,14.416l0.204,10.744h1.054l0.17-1.088
		c0.102-0.748,0.408-1.156,0.884-1.156c0.442,0,0.884,0.34,1.768,1.02c0.918,0.748,2.482,1.496,4.658,1.496
		c5.202,0,7.582-3.638,7.582-7.004c0-2.277-1.189-4.624-3.06-5.848l-7.311-4.727c-1.563-1.02-3.025-2.346-3.025-3.909
		c0-1.904,1.122-2.856,3.536-2.856c3.332,0,6.357,3.672,7.615,8.364h1.089l-0.341-8.84h-1.088l-0.204,0.918
		c-0.067,0.441-0.306,0.781-0.748,0.781c-0.34,0-0.781-0.271-1.224-0.611c-0.68-0.477-2.584-1.7-4.828-1.7
		c-3.4,0-6.664,1.836-6.664,6.528c0,3.128,2.108,5.1,3.808,6.188l7.276,4.692c1.36,0.884,2.448,1.802,2.448,3.06
		c0,1.428-0.578,3.876-4.658,3.876c-3.876,0-6.902-4.93-7.854-9.928H358.224z M339.932,24.82h11.424v-1.089h-2.38
		c-0.612,0-0.816-0.203-0.816-0.815v-20.4c0-0.611,0.204-0.815,0.816-0.815h2.38V0.612h-11.424V1.7h2.38
		c0.612,0,0.816,0.204,0.816,0.815v20.4c0,0.612-0.204,0.815-0.816,0.815h-2.38V24.82z M309.741,11.628V2.516
		c0-0.611,0.204-0.815,0.816-0.815h2.516c1.802,0,2.924,1.7,2.924,4.691c0,3.128-0.51,5.236-3.128,5.236H309.741z M301.513,24.82
		h12.41c4.284,0,7.99-2.312,7.99-6.597c0-3.536-3.672-5.508-6.562-5.95V12.07c2.72-0.715,5.746-2.381,5.746-5.679
		c0-3.399-3.57-5.779-7.616-5.779h-11.968V1.7h2.38c0.612,0,0.816,0.204,0.816,0.815v20.4c0,0.612-0.204,0.815-0.816,0.815h-2.38
		V24.82z M309.741,22.916v-10.2h3.128c2.244,0,3.604,1.156,3.604,5.508c0,4.353-1.36,5.508-3.604,5.508h-2.312
		C309.945,23.731,309.741,23.528,309.741,22.916 M280.977,17.815V7.616c0-4.896,1.7-6.528,4.284-6.528s4.284,1.632,4.284,6.528
		v10.199c0,4.896-1.7,6.528-4.284,6.528S280.977,22.712,280.977,17.815 M275.197,12.716c0,6.528,4.692,12.716,10.064,12.716
		s10.064-6.188,10.064-12.716S290.633,0,285.261,0S275.197,6.188,275.197,12.716 M253.301,19.584c0,3.842,2.788,5.848,6.052,5.848
		c3.468,0,7.208-2.584,7.208-7.208V2.516c0-0.611,0.204-0.815,0.816-0.815h2.108V0.612h-11.492V1.7h2.72
		c0.612,0,0.816,0.204,0.816,0.815V20.4c0,2.516-0.782,3.943-2.584,3.943c-2.006,0-3.332-1.224-3.332-2.107
		c0-0.748,0.306-1.156,1.088-1.429c0.952-0.34,2.074-1.155,2.074-2.855c0-1.225-0.918-2.347-2.414-2.347
		S253.301,17.136,253.301,19.584 M216.446,24.82h19.38l0.204-9.385h-1.088c0,0-0.272,2.21-0.714,3.469
		c-0.646,1.836-2.244,4.827-5.032,4.827h-3.706c-0.612,0-0.816-0.203-0.816-0.815v-9.792h1.734c1.904,0,3.4,2.72,3.4,4.726h1.088
		V7.208h-1.088c0,1.972-1.496,4.692-3.4,4.692h-1.734V2.516c0-0.611,0.204-0.815,0.816-0.815h3.74c1.768,0,3.128,1.258,4.08,2.924
		c1.02,1.7,1.36,3.876,1.36,3.876h1.088l-0.204-7.888h-19.108V1.7h2.38c0.612,0,0.816,0.204,0.816,0.815v20.4
		c0,0.612-0.204,0.815-0.816,0.815h-2.38V24.82z M191.286,24.82h19.244l0.272-10.473h-1.088c0,0-0.476,2.21-0.85,3.468
		c-0.578,1.87-2.312,5.916-5.1,5.916h-3.434c-0.612,0-0.816-0.306-0.816-0.918V2.516c0-0.611,0.204-0.815,0.816-0.815h2.38V0.612
		h-11.424V1.7h2.38c0.612,0,0.816,0.204,0.816,0.815v20.298c0,0.612-0.204,0.918-0.816,0.918h-2.38V24.82z M170.75,17.815V7.616
		c0-4.896,1.7-6.528,4.284-6.528s4.284,1.632,4.284,6.528v10.199c0,4.896-1.7,6.528-4.284,6.528S170.75,22.712,170.75,17.815
		 M164.97,12.716c0,6.528,4.692,12.716,10.064,12.716s10.064-6.188,10.064-12.716S180.406,0,175.034,0S164.97,6.188,164.97,12.716
		 M142.19,14.416l0.204,10.744h1.054l0.17-1.088c0.102-0.748,0.408-1.156,0.884-1.156c0.442,0,0.884,0.34,1.768,1.02
		c0.918,0.748,2.482,1.496,4.658,1.496c5.202,0,7.582-3.638,7.582-7.004c0-2.277-1.19-4.624-3.06-5.848l-7.31-4.727
		c-1.564-1.02-3.026-2.346-3.026-3.909c0-1.904,1.122-2.856,3.536-2.856c3.332,0,6.358,3.672,7.616,8.364h1.088l-0.34-8.84h-1.088
		l-0.204,0.918c-0.068,0.441-0.306,0.781-0.748,0.781c-0.34,0-0.782-0.271-1.224-0.611c-0.68-0.477-2.584-1.7-4.828-1.7
		c-3.4,0-6.664,1.836-6.664,6.528c0,3.128,2.108,5.1,3.808,6.188l7.276,4.692c1.36,0.884,2.448,1.802,2.448,3.06
		c0,1.428-0.578,3.876-4.658,3.876c-3.876,0-6.902-4.93-7.854-9.928H142.19z M102.138,24.82h12.036v-1.089h-2.991
		c-0.612,0-0.817-0.203-0.817-0.815V12.444h1.904c2.381,0,3.264,1.903,3.264,3.876v4.216c0,3.468,1.938,5.1,4.727,5.1
		c3.263,0,4.045-2.992,4.045-6.936h-1.088c0,2.414-0.408,5.031-1.699,5.031c-0.612,0-0.952-0.407-0.952-1.428V18.53
		c0-4.25-2.313-5.712-5.509-6.29v-0.238c3.537-0.408,6.256-2.142,6.256-5.406c0-3.74-3.331-5.983-8.159-5.983h-11.017V1.7h2.381
		c0.611,0,0.815,0.204,0.815,0.815v20.4c0,0.612-0.204,0.815-0.815,0.815h-2.381V24.82z M110.366,11.355v-8.84
		c0-0.611,0.205-0.815,0.817-0.815h1.461c2.55,0,3.231,1.768,3.231,4.624c0,2.855-0.681,5.031-3.231,5.031H110.366z M72.967,1.7
		h2.176c0.612,0,0.816,0.204,0.816,0.815v14.246c0,4.386,2.482,8.67,8.942,8.67c5.134,0,8.126-3.434,8.126-7.684V4.76
		c0-2.176,1.768-3.06,3.536-3.06V0.612h-8.432V1.7c1.768,0,3.536,0.884,3.536,3.06v13.328c0,3.264-2.414,5.984-5.814,5.984
		c-3.298,0-4.862-1.803-4.862-5.984V2.516c0-0.611,0.204-0.815,0.816-0.815h2.176V0.612H72.967V1.7z M52.227,17.815V7.616
		c0-4.896,1.7-6.528,4.284-6.528s4.284,1.632,4.284,6.528v10.199c0,4.896-1.7,6.528-4.284,6.528S52.227,22.712,52.227,17.815
		 M46.447,12.716c0,6.528,4.692,12.716,10.064,12.716s10.064-6.188,10.064-12.716S61.883,0,56.511,0S46.447,6.188,46.447,12.716
		 M19.859,1.7h1.19c0.918,0,1.462,0.306,2.006,1.496l5.78,12.478v7.242c0,0.612-0.204,0.815-0.816,0.815h-2.176v1.089h11.016v-1.089
		h-2.176c-0.612,0-0.816-0.203-0.816-0.815v-7.548l4.59-11.187C38.899,3.026,39.885,1.7,41.551,1.7h1.02V0.612h-8.432V1.7h0.952
		c1.36,0,1.836,1.122,1.836,2.073c0,0.578-0.238,1.395-0.476,1.938l-3.128,7.786L28.835,3.74c-0.136-0.272-0.204-0.681-0.204-0.952
		c0-0.477,0.272-1.088,0.952-1.088h0.952V0.612H19.859V1.7z"/>
	<path clip-path="url(#SVGID_2_)" fill="#000002" d="M0.119,7.752c0,2.244,1.36,3.944,3.604,3.944c1.394,0,2.924-0.952,2.924-2.891
		c0-1.666-1.292-2.448-2.414-2.448c-0.442,0-0.748,0.103-1.156,0.307C2.805,6.8,2.499,6.936,2.261,6.936
		c-0.408,0-0.578-0.34-0.578-0.611c0-2.177,1.938-4.318,4.76-5.372L5.967,0C2.703,1.189,0.119,3.842,0.119,7.752 M7.599,7.752
		c0,2.244,1.36,3.944,3.604,3.944c1.394,0,2.924-0.952,2.924-2.891c0-1.666-1.292-2.448-2.414-2.448
		c-0.442,0-0.748,0.103-1.156,0.307C10.285,6.8,9.979,6.936,9.741,6.936c-0.408,0-0.578-0.34-0.578-0.611
		c0-2.177,1.938-4.318,4.76-5.372L13.447,0C10.183,1.189,7.599,3.842,7.599,7.752"/>
	<line clip-path="url(#SVGID_2_)" fill="none" stroke="#EC1B2E" x1="18.295" y1="140.412" x2="331.045" y2="140.412"/>
</g>
<g>
</g>
<g>
</g>
<g>
</g>
<g>
</g>
<g>
</g>
<g>
</g>
<g>
</g>
<g>
</g>
<g>
</g>
<g>
</g>
<g>
</g>
<g>
</g>
<g>
</g>
<g>
</g>
<g>
</g>
</svg>
