<?xml version="1.0" encoding="utf-8"?>
<!-- Generator: Adobe Illustrator 16.2.1, SVG Export Plug-In . SVG Version: 6.00 Build 0)  -->
<!DOCTYPE svg PUBLIC "-//W3C//DTD SVG 1.1//EN" "http://www.w3.org/Graphics/SVG/1.1/DTD/svg11.dtd">
<svg version="1.1" id="Layer_1" xmlns="http://www.w3.org/2000/svg" xmlns:xlink="http://www.w3.org/1999/xlink" x="0px" y="0px"
	 width="440px" height="163px" viewBox="133.939 -0.333 440 163" enable-background="new 133.939 -0.333 440 163"
	 xml:space="preserve">
<g display="none">
	<g display="inline">
		<g>
			<defs>
				<rect id="SVGID_1_" x="307.222" width="93.556" height="162.335"/>
			</defs>
			<clipPath id="SVGID_2_">
				<use xlink:href="#SVGID_1_"  overflow="visible"/>
			</clipPath>
			<path clip-path="url(#SVGID_2_)" fill="#231F20" d="M385.609,161.835h4.482l1.746-6.541c0.717-2.674,2.184-4.765,3.988-6.229
				l1.43,1.402c1.84-0.098,3.521-1.402,3.521-3.27c0-1.246-0.84-2.246-2.146-2.246c-1.496,0-2.68,1.217-5.572,5.487l-0.188-0.101
				l0.84-3.336v-1.674h-6.604l-0.5,1.799l1.867,0.347l0.625,1.308L385.609,161.835z M366.852,160.067
				c-1.375,0-2.055-1.21-2.055-3.585c0-4.359,2.119-9.378,4.801-9.378c1.465,0,2.082,1.218,2.082,3.585
				C371.68,155.08,369.598,160.067,366.852,160.067 M366.916,162.335c5.299,0,9.559-5.01,9.559-10.469
				c0-4.33-2.584-7.033-6.938-7.033c-5.302,0-9.566,5.01-9.566,10.461C359.969,159.632,362.556,162.335,366.916,162.335
				 M344.762,162.216l4.951-0.656l0.374-1.375c-2.336-0.553-2.613-0.866-2.277-2.18l2.219-8.289c0.746-2.771-0.28-4.822-2.926-4.822
				c-2.366,0-3.709,1.718-6.232,5.175l-0.216-0.098l1.026-2.964l1.713-6.914v-1.613h-6.978l-0.471,1.801l1.87,0.342l0.653,1.314
				l-4.95,19.898h4.483l1.932-7.879c0.345-1.434,0.845-2.365,2.244-3.771c1.153-1.157,1.59-1.494,2.273-1.494
				c0.75,0,1.275,0.463,0.938,1.683l-2.215,8.16c-0.157,0.629-0.219,1.061-0.219,1.59
				C342.957,161.158,343.704,161.806,344.762,162.216 M307.627,161.835h10.777l0.593-2.172l-2.18-0.314l-0.373-1.344l4.174-15.516
				h1.991l1.561,1.244l-0.562,3.771h2.616l2.024-7.601h-19.001l-2.025,7.601h2.619l1.431-3.771l2.242-1.244h1.996l-4.175,15.516
				l-1.059,1.344l-2.058,0.314L307.627,161.835z"/>
		</g>
	</g>
	<g display="inline">
		<g>
			<defs>
				<rect id="SVGID_3_" x="307.222" width="93.556" height="162.335"/>
			</defs>
			<clipPath id="SVGID_4_">
				<use xlink:href="#SVGID_3_"  overflow="visible"/>
			</clipPath>
			<path clip-path="url(#SVGID_4_)" fill="#EC1B2E" d="M351.895,23.322c0,0.652,0.344,0.962,0.964,0.962h0.065
				c0.62,0,0.964-0.31,0.964-0.962V0.583c0-0.377-0.238-0.586-0.553-0.586h-0.101c-0.414,0-0.55,0.175-0.754,0.482
				c-0.243,0.414-0.378,0.552-0.481,0.657c-0.377,0.41-0.896,0.616-1.718,0.787c-0.448,0.135-0.691,0.344-0.691,0.788v0.138
				c0,0.415,0.243,0.725,0.825,0.725h1.479L351.895,23.322L351.895,23.322z"/>
		</g>
	</g>
</g>
<g>
	<line fill="none" stroke="#231F20" stroke-width="0.5" x1="335.226" y1="84.429" x2="369.633" y2="84.429"/>
</g>
<g display="none">
	<g display="inline">
		<defs>
			<rect id="SVGID_5_" x="203.625" y="0.054" width="295.875" height="162.281"/>
		</defs>
		<clipPath id="SVGID_6_">
			<use xlink:href="#SVGID_5_"  overflow="visible"/>
		</clipPath>
		<path clip-path="url(#SVGID_6_)" fill="#231F20" d="M483.496,162.335c2.869,0.027,6.616-2.262,10.452-6.758
			c3.107-3.623,5.522-8.098,5.552-11.236c0.032-2.234-1.057-3.719-2.776-3.748c-1.566-0.028-2.508,1.301-2.508,2.658
			c-0.028,0.67,0.187,1.304,0.519,1.812l1.775,0.637c-0.449,2.686-2.08,6.008-4.284,8.697h-0.665l0.15-3.833l-1.479-9.548h-5.859
			l-0.481,1.748l2.175,0.604l2.418,14.653c-1.027,0.906-1.998,1.416-3.296,1.872l-0.693-1.784c-2.026-0.754-3.865,0.241-3.9,1.875
			C480.593,161.373,481.656,162.307,483.496,162.335 M469.358,142.583c1.208,0,1.692,0.877,1.692,1.844
			c0,3.205-3.388,4.26-6.258,4.683C465.34,145.968,466.94,142.583,469.358,142.583 M466.002,157.474c2.48,0,4.868-1.236,6.979-2.861
			l-0.964-1.542c-1.692,1.087-3.23,1.724-4.593,1.724c-2.358,0-2.812-1.875-2.812-3.565v-0.547
			c7.344-0.452,10.571-2.72,10.571-6.073c0-2.627-2.232-4.07-5.255-4.07c-5.47,0-9.846,5.1-9.846,10.721
			C460.085,154.613,462.17,157.474,466.002,157.474 M438.246,157.023h4.351l1.693-6.342c0.691-2.6,2.11-4.621,3.866-6.04l1.39,1.36
			c1.776-0.094,3.409-1.36,3.409-3.174c0-1.207-0.818-2.177-2.085-2.177c-1.447,0-2.599,1.181-5.403,5.319l-0.182-0.092l0.813-3.237
			v-1.624h-6.404l-0.479,1.748l1.811,0.333l0.604,1.267L438.246,157.023z M416.168,157.023h4.352l1.687-6.342
			c0.698-2.6,2.116-4.621,3.865-6.04l1.39,1.36c1.784-0.094,3.417-1.36,3.417-3.174c0-1.207-0.817-2.177-2.084-2.177
			c-1.456,0-2.599,1.181-5.408,5.319l-0.181-0.092l0.814-3.237v-1.624h-6.403l-0.485,1.748l1.813,0.333l0.604,1.267L416.168,157.023
			z M402.153,142.583c1.209,0,1.693,0.877,1.693,1.844c0,3.205-3.388,4.26-6.257,4.683
			C398.129,145.968,399.736,142.583,402.153,142.583 M398.798,157.474c2.478,0,4.869-1.236,6.979-2.861l-0.968-1.542
			c-1.693,1.087-3.23,1.724-4.593,1.724c-2.355,0-2.809-1.875-2.809-3.565v-0.547c7.344-0.452,10.567-2.72,10.567-6.073
			c0-2.627-2.229-4.07-5.253-4.07c-5.468,0-9.844,5.1-9.844,10.721C392.881,154.613,394.962,157.474,398.798,157.474
			 M367.505,157.023h10.453l0.567-2.109l-2.108-0.301l-0.366-1.304l4.047-15.043h1.937l1.51,1.21l-0.544,3.65h2.537l1.966-7.365
			h-18.422l-1.97,7.365h2.541l1.389-3.65l2.172-1.21h1.934l-4.045,15.043l-1.024,1.304l-1.995,0.301L367.505,157.023z
			 M332.96,153.762c-0.815,0-1.268-0.485-1.268-1.753c0-4.17,2.78-8.85,5.711-8.85c0.665,0,1.27,0.334,1.599,0.785l-0.963,4.104
			c-0.304,1.268-1.086,2.724-2.266,3.867C334.503,153.158,333.658,153.762,332.96,153.762 M338.337,157.388l4.289-0.637l0.363-1.328
			c-2.265-0.547-2.539-0.879-2.206-2.118l3.355-12.468l-1.149-0.244l-1.572,1.087c-0.966-0.662-1.9-1.115-3.622-1.115
			c-4.624,0-10.751,5.403-10.751,12.288c0,3.081,1.509,4.834,3.922,4.562c2.086-0.242,3.809-2.174,6.044-5.195l0.241,0.121
			l-0.362,1.269c-0.148,0.548-0.3,1.147-0.3,1.752C336.589,156.357,337.311,156.994,338.337,157.388 M305.383,157.445
			c2.297,0,3.628-1.658,6.073-5.012l0.183,0.086l-0.3,1.243c-0.123,0.542-0.211,1.085-0.211,1.6c0,0.995,0.722,1.632,1.75,2.026
			l4.47-0.637l0.358-1.328c-2.264-0.547-2.535-0.844-2.204-2.118l3.293-12.287h-4.351l-2.02,7.636
			c-0.364,1.395-0.874,2.299-2.234,3.66c-1.121,1.119-1.542,1.452-2.21,1.452c-0.725,0-1.207-0.457-0.902-1.634l2.537-9.549v-1.565
			h-6.733l-0.485,1.748l1.812,0.333l0.604,1.268l-2.235,8.403C301.854,155.453,302.817,157.445,305.383,157.445 M286.718,157.388
			l4.799-0.637l0.363-1.328c-2.266-0.547-2.535-0.844-2.206-2.114l2.146-8.034c0.722-2.688-0.27-4.682-2.839-4.682
			c-2.293,0-3.591,1.662-6.038,5.015l-0.211-0.09l0.997-2.871l1.661-6.706v-1.566h-6.769l-0.452,1.748l1.813,0.33l0.634,1.268
			l-4.803,19.304h4.35l1.872-7.642c0.335-1.391,0.816-2.297,2.177-3.654c1.118-1.119,1.54-1.452,2.204-1.452
			c0.726,0,1.238,0.457,0.909,1.634l-2.147,7.914c-0.151,0.605-0.211,1.024-0.211,1.543
			C284.968,156.361,285.691,156.994,286.718,157.388 M259.862,157.503c3.869,0,6.345-2.02,6.345-5.066
			c0-2.146-1.359-3.45-3.894-5.05c-2.147-1.359-2.872-1.993-2.872-2.988c0-0.876,0.754-1.903,2.508-1.903
			c0.485,0,1.449,0.118,2.083,0.57l-0.389,1.785c0.512,0.876,1.298,1.391,2.324,1.391c0.994,0,1.81-0.785,1.81-1.963
			c0-2.023-3.018-3.742-6.097-3.742c-3.869,0-6.101,2.049-6.101,4.981c0,1.897,1.144,3.287,3.862,4.953
			c2.115,1.296,2.901,2.081,2.901,2.962c0,1.236-1.149,2.113-2.628,2.113c-0.966,0-2.052-0.271-2.839-0.785l0.546-1.812
			c-0.515-0.968-1.332-1.482-2.235-1.482c-1.057,0-1.813,0.849-1.813,1.968C253.373,155.91,256.965,157.503,259.862,157.503
			 M235.913,155.304c-1.331,0-1.998-1.178-1.998-3.473c0-4.234,2.058-9.096,4.655-9.096c1.424,0,2.029,1.178,2.029,3.473
			C240.599,150.471,238.57,155.304,235.913,155.304 M235.973,157.503c5.136,0,9.272-4.856,9.272-10.146
			c0-4.196-2.506-6.821-6.734-6.821c-5.137,0-9.272,4.857-9.272,10.146C229.239,154.884,231.744,157.503,235.973,157.503
			 M209.45,157.474c4.534,0,7.069-2.833,8.124-6.73l2.991-11.268l1.057-1.305l1.663-0.301l0.575-2.109h-10.152l-0.574,2.109
			l2.146,0.301l0.333,1.305l-3.144,11.752c-0.603,2.205-1.69,3.471-3.414,3.471c-1.115,0-1.9-0.48-2.294-1.176l1.994-1.721
			c0.572-1.331-0.244-2.692-1.842-2.692c-1.871,0-3.29,1.938-3.29,3.961C203.625,155.968,206.464,157.474,209.45,157.474"/>
	</g>
	<g display="inline">
		<defs>
			<rect id="SVGID_7_" x="203.625" y="0.054" width="295.875" height="162.281"/>
		</defs>
		<clipPath id="SVGID_8_">
			<use xlink:href="#SVGID_7_"  overflow="visible"/>
		</clipPath>
		<path clip-path="url(#SVGID_8_)" fill="#EC1B2E" d="M347.786,20.001v2.501c0,0.695,0.368,1.097,1.096,1.097h6.938
			c0.601,0,0.901-0.3,0.901-0.897v-0.065c0-0.569-0.3-0.901-0.901-0.901h-6.07v-1.6c0-1.636,0.266-2.371,1.235-3.604l3.972-5.002
			c1.263-1.538,1.63-2.804,1.63-4.34V4.05c0-2.635-1.33-3.996-3.999-3.996h-0.737c-2.669,0-4,1.361-4,3.996v3.503
			c0,0.633,0.333,0.966,0.93,0.966h0.067c0.601,0,0.934-0.333,0.934-0.966v-3.6c0-1.368,0.701-2.034,2.101-2.034h0.605
			c1.4,0,2.101,0.666,2.101,2.034V7.49c0,1.031-0.301,1.835-1.101,2.833l-3.972,4.973C348.153,16.997,347.786,18.166,347.786,20.001
			"/>
	</g>
</g>
<line display="none" fill="none" stroke="#231F20" stroke-width="0.5" x1="335.458" y1="81.97" x2="368.812" y2="81.97"/>
<g>
	<g>
		<defs>
			<rect id="SVGID_9_" x="134.378" y="-0.073" width="439.122" height="162.084"/>
		</defs>
		<clipPath id="SVGID_10_">
			<use xlink:href="#SVGID_9_"  overflow="visible"/>
		</clipPath>
		<path clip-path="url(#SVGID_10_)" fill="#231F20" d="M561.011,153.595c-0.812,0-1.235-0.809-1.235-2.139
			c0-4.317,2.472-8.302,4.768-8.302c0.908,0,1.604,0.427,2.411,1.272l-1.113,4.46c-0.303,1.18-0.842,2.11-2.169,3.261
			C562.427,153.207,561.704,153.595,561.011,153.595 M566.506,157.067l4.461-0.638l0.361-1.322c-2.264-0.55-2.531-0.848-2.205-2.119
			l4.377-17.344v-1.562h-6.756l-0.449,1.744l1.804,0.332l0.634,1.266l-0.78,3.021l-0.332,1.988l-0.152,0.027
			c-1.025-1.142-2.017-1.987-4.189-1.987c-3.835,0-8.145,5.161-8.145,11.25c0,3.384,1.294,5.372,3.705,5.372
			c2.114,0,3.8-1.809,6.069-4.555l0.238,0.121c-0.238,0.875-0.391,1.866-0.391,2.381
			C564.756,156.041,565.479,156.675,566.506,157.067 M535.247,153.444c-0.813,0-1.269-0.483-1.269-1.75
			c0-4.164,2.778-8.834,5.706-8.834c0.661,0,1.267,0.332,1.596,0.78l-0.962,4.1c-0.304,1.266-1.088,2.719-2.264,3.86
			C536.786,152.843,535.944,153.444,535.247,153.444 M540.619,157.067l4.284-0.638l0.36-1.322c-2.264-0.55-2.538-0.883-2.206-2.119
			l3.349-12.449l-1.143-0.246l-1.568,1.086c-0.969-0.658-1.901-1.113-3.623-1.113c-4.611,0-10.735,5.398-10.735,12.275
			c0,3.072,1.511,4.83,3.919,4.556c2.081-0.239,3.803-2.169,6.037-5.191l0.241,0.123l-0.365,1.267
			c-0.151,0.549-0.296,1.148-0.296,1.75C538.873,156.041,539.592,156.675,540.619,157.067 M515.307,142.281
			c1.212,0,1.688,0.875,1.688,1.844c0,3.203-3.376,4.252-6.247,4.678C511.291,145.664,512.893,142.281,515.307,142.281
			 M511.956,157.153c2.477,0,4.858-1.235,6.969-2.854l-0.961-1.541c-1.69,1.086-3.231,1.722-4.591,1.722
			c-2.354,0-2.806-1.872-2.806-3.563v-0.543c7.332-0.455,10.562-2.719,10.562-6.065c0-2.624-2.232-4.069-5.249-4.069
			c-5.465,0-9.832,5.098-9.832,10.707C506.049,154.296,508.124,157.153,511.956,157.153 M474.039,156.705h9.743l0.482-1.836
			l-1.753-0.334l-0.329-1.236l1.628-6.094h6.395l-1.631,6.094l-0.994,1.236l-1.629,0.334l-0.479,1.836h9.738l0.546-2.111
			l-1.811-0.295l-0.333-1.303l3.68-13.815l1.059-1.302l1.688-0.305l0.542-2.104h-9.741l-0.485,1.836l1.755,0.333l0.324,1.235
			l-1.504,5.676h-6.397l1.511-5.676l0.998-1.235l1.626-0.333l0.48-1.836h-9.741l-0.542,2.104l1.807,0.305l0.333,1.302l-3.68,13.815
			l-1.057,1.303l-1.69,0.295L474.039,156.705z M449.312,142.281c1.203,0,1.688,0.875,1.688,1.844c0,3.203-3.381,4.252-6.248,4.678
			C445.297,145.664,446.895,142.281,449.312,142.281 M445.959,157.153c2.477,0,4.861-1.235,6.973-2.854l-0.965-1.541
			c-1.688,1.086-3.229,1.722-4.588,1.722c-2.353,0-2.809-1.872-2.809-3.563v-0.543c7.335-0.455,10.56-2.719,10.56-6.065
			c0-2.624-2.229-4.069-5.241-4.069c-5.466,0-9.837,5.098-9.837,10.707C440.052,154.296,442.13,157.153,445.959,157.153
			 M425.479,157.067l4.795-0.638l0.36-1.322c-2.263-0.55-2.53-0.848-2.205-2.111l2.147-8.023c0.72-2.684-0.274-4.68-2.838-4.68
			c-2.291,0-3.586,1.664-6.029,5.01l-0.214-0.094l0.998-2.861l1.659-6.702v-1.562h-6.761l-0.451,1.744l1.808,0.33l0.636,1.268
			l-4.801,19.281h4.349l1.869-7.636c0.333-1.388,0.817-2.292,2.174-3.649c1.116-1.114,1.539-1.447,2.2-1.447
			c0.729,0,1.236,0.456,0.911,1.627l-2.146,7.91c-0.152,0.6-0.212,1.02-0.212,1.539
			C423.729,156.041,424.453,156.675,425.479,157.067 M399.229,157.067c1.871,0,3.593-0.544,5.068-1.418l-0.329-1.778
			c-0.785,0.334-1.479,0.514-2.055,0.514c-1.056,0-1.601-0.391-1.601-1.235c0-0.42,0.095-0.875,0.246-1.446l2.289-8.545h4.313
			l0.636-2.438h-4.316l1.18-4.316h-2.685l-2.864,4.164l-2.625,0.754l-0.48,1.836h2.502l-2.413,9.079
			c-0.184,0.646-0.358,1.39-0.358,2.062C395.734,155.982,396.908,157.067,399.229,157.067 M366.27,157.182
			c3.86,0,6.334-2.019,6.334-5.062c0-2.141-1.358-3.441-3.887-5.039c-2.146-1.359-2.874-1.996-2.874-2.985
			c0-0.875,0.757-1.902,2.511-1.902c0.48,0,1.447,0.115,2.08,0.571l-0.392,1.779c0.509,0.875,1.296,1.388,2.321,1.388
			c0.994,0,1.809-0.78,1.809-1.96c0-2.018-3.017-3.736-6.094-3.736c-3.86,0-6.093,2.045-6.093,4.973
			c0,1.902,1.145,3.291,3.857,4.953c2.114,1.295,2.903,2.074,2.903,2.957c0,1.236-1.147,2.111-2.629,2.111
			c-0.968,0-2.051-0.273-2.836-0.788l0.545-1.808c-0.514-0.969-1.329-1.482-2.232-1.482c-1.054,0-1.81,0.848-1.81,1.967
			C359.784,155.591,363.374,157.182,366.27,157.182 M346.51,142.281c1.206,0,1.692,0.875,1.692,1.844
			c0,3.203-3.383,4.252-6.248,4.678C342.494,145.664,344.096,142.281,346.51,142.281 M343.159,157.153
			c2.473,0,4.86-1.235,6.972-2.854l-0.967-1.541c-1.688,1.086-3.229,1.722-4.586,1.722c-2.355,0-2.807-1.872-2.807-3.563v-0.543
			c7.333-0.455,10.557-2.719,10.557-6.065c0-2.624-2.228-4.069-5.245-4.069c-5.464,0-9.834,5.098-9.834,10.707
			C337.249,154.296,339.329,157.153,343.159,157.153 M322.315,157.067l4.673-0.638l0.361-1.322c-2.261-0.55-2.536-0.848-2.202-2.119
			l2.957-10.707v-1.562h-6.726l-0.481,1.742l1.806,0.334l0.604,1.265l-2.532,9.233c-0.152,0.513-0.241,1.148-0.241,1.662
			C320.535,155.946,321.291,156.675,322.315,157.067 M326.599,138.66c1.657,0,2.982-1.533,2.982-2.922c0-1.388-0.965-2.32-2.38-2.32
			c-1.657,0-2.986,1.533-2.986,2.92C324.215,137.726,325.181,138.66,326.599,138.66 M293.443,156.705h16.076l1.903-7.057h-2.536
			l-1.325,3.348l-2.173,1.209h-4.043l4.043-15.024l1.025-1.302l2.292-0.305l0.572-2.104h-10.465l-0.544,2.104l1.811,0.305
			l0.333,1.302l-3.68,13.815l-1.057,1.303l-1.688,0.295L293.443,156.705z M258.099,162.011c2.865,0.027,6.607-2.264,10.44-6.754
			c3.105-3.613,5.514-8.082,5.545-11.221c0.032-2.233-1.056-3.716-2.773-3.744c-1.567-0.028-2.503,1.301-2.503,2.653
			c-0.029,0.673,0.183,1.302,0.515,1.813l1.777,0.637c-0.452,2.684-2.081,6.001-4.284,8.684h-0.661l0.151-3.824l-1.48-9.537h-5.853
			l-0.483,1.742l2.175,0.607l2.413,14.635c-1.025,0.902-1.992,1.416-3.291,1.871l-0.693-1.785c-2.021-0.752-3.861,0.246-3.89,1.873
			C255.205,161.048,256.258,161.983,258.099,162.011 M241.985,157.182c3.864,0,6.333-2.019,6.333-5.062
			c0-2.141-1.354-3.441-3.886-5.039c-2.144-1.359-2.869-1.996-2.869-2.985c0-0.875,0.755-1.902,2.505-1.902
			c0.487,0,1.448,0.115,2.081,0.571l-0.392,1.779c0.515,0.875,1.296,1.388,2.321,1.388c0.996,0,1.811-0.78,1.811-1.96
			c0-2.018-3.017-3.736-6.089-3.736c-3.865,0-6.093,2.045-6.093,4.973c0,1.902,1.144,3.291,3.857,4.953
			c2.113,1.295,2.897,2.074,2.897,2.957c0,1.236-1.146,2.111-2.628,2.111c-0.965,0-2.049-0.273-2.83-0.788l0.54-1.808
			c-0.511-0.969-1.326-1.482-2.228-1.482c-1.06,0-1.812,0.848-1.812,1.967C235.503,155.591,239.091,157.182,241.985,157.182
			 M216.462,153.444c-0.813,0-1.265-0.483-1.265-1.75c0-4.164,2.776-8.834,5.704-8.834c0.664,0,1.266,0.332,1.596,0.78l-0.964,4.1
			c-0.304,1.266-1.084,2.719-2.261,3.86C218.002,152.843,217.158,153.444,216.462,153.444 M221.833,157.067l4.284-0.638l0.361-1.322
			c-2.261-0.55-2.536-0.883-2.201-2.119l3.346-12.449l-1.145-0.246l-1.569,1.086c-0.967-0.658-1.899-1.113-3.617-1.113
			c-4.62,0-10.738,5.398-10.738,12.275c0,3.072,1.506,4.83,3.917,4.556c2.084-0.239,3.805-2.169,6.038-5.191l0.24,0.123
			l-0.363,1.267c-0.148,0.549-0.3,1.148-0.3,1.75C220.086,156.041,220.809,156.675,221.833,157.067 M196.525,142.281
			c1.208,0,1.688,0.875,1.688,1.844c0,3.203-3.38,4.252-6.248,4.678C192.51,145.664,194.109,142.281,196.525,142.281
			 M193.171,157.153c2.476,0,4.86-1.235,6.971-2.854l-0.963-1.541c-1.688,1.086-3.229,1.722-4.585,1.722
			c-2.354,0-2.811-1.872-2.811-3.563v-0.543c7.338-0.455,10.561-2.719,10.561-6.065c0-2.624-2.232-4.069-5.245-4.069
			c-5.464,0-9.834,5.098-9.834,10.707C187.264,154.296,189.345,157.153,193.171,157.153 M172.631,157.067l4.793-0.638l0.364-1.322
			c-2.262-0.55-2.537-0.848-2.204-2.111l2.143-8.023c0.722-2.684-0.272-4.68-2.835-4.68c-2.29,0-3.586,1.664-6.033,5.01
			l-0.181-0.094l0.696-2.869v-1.619h-6.396l-0.481,1.742l1.81,0.332l0.604,1.266l-3.38,12.646h4.345l2.023-7.636
			c0.357-1.388,0.873-2.292,2.232-3.649c1.114-1.114,1.536-1.447,2.201-1.447c0.724,0,1.236,0.456,0.904,1.627l-2.144,7.91
			c-0.148,0.6-0.211,1.02-0.211,1.539C170.879,156.041,171.606,156.675,172.631,157.067 M141.615,157.153
			c3.982,0,7.21-1.952,8.418-6.515l3.045-11.459l1.026-1.301l1.688-0.305l0.573-2.105h-7.962l-0.515,1.837l1.932,0.333l0.331,1.236
			l-2.955,10.981c-0.784,2.929-2.202,4.347-4.557,4.347c-1.932,0-3.316-0.818-3.316-2.625c0-0.486,0.089-0.998,0.24-1.599
			l2.955-11.104l0.995-1.236l1.963-0.333l0.515-1.837h-10.077l-0.569,2.105l1.806,0.305l0.363,1.301l-2.744,10.137
			c-0.211,0.788-0.392,1.684-0.392,2.355C134.378,155.048,136.939,157.153,141.615,157.153"/>
	</g>
	<g>
		<defs>
			<rect id="SVGID_11_" x="134.378" y="-0.073" width="439.122" height="162.084"/>
		</defs>
		<clipPath id="SVGID_12_">
			<use xlink:href="#SVGID_11_"  overflow="visible"/>
		</clipPath>
		<path clip-path="url(#SVGID_12_)" fill="#EC1B2E" d="M352.793,21.78h-0.801c-1.435,0-2.169-0.698-2.169-2.129v-2.936
			c0-0.601-0.329-0.937-0.929-0.937h-0.067c-0.598,0-0.933,0.336-0.933,0.937v2.899c0,2.668,1.334,4.027,4.032,4.027h0.932
			c2.766,0,4.095-1.396,4.095-4.092v-4.934c0-1.866-0.73-2.831-2.162-3.229c1.332-0.433,2.095-1.463,2.095-3.531V3.987
			c0-2.665-1.328-4.06-4.094-4.06h-0.767c-2.732,0-4.065,1.396-4.065,4.06v2.432c0,0.604,0.333,0.937,0.933,0.937h0.066
			c0.6,0,0.929-0.332,0.929-0.937V3.921c0-1.435,0.738-2.132,2.102-2.132h0.801c1.399,0,2.099,0.698,2.099,2.132v4.4
			c0,1.533-0.732,2.299-2.232,2.299h-1.632c-0.569,0-0.904,0.3-0.904,0.896v0.065c0,0.567,0.335,0.868,0.904,0.868h1.698
			c1.499,0,2.233,0.767,2.233,2.299v4.902C354.959,21.082,354.259,21.78,352.793,21.78"/>
	</g>
</g>
<line display="none" fill="none" stroke="#231F20" stroke-width="0.5" x1="335.819" y1="81.746" x2="369.135" y2="81.746"/>
</svg>
