<?xml version="1.0" encoding="utf-8"?>
<!-- Generator: Adobe Illustrator 16.2.1, SVG Export Plug-In . SVG Version: 6.00 Build 0)  -->
<!DOCTYPE svg PUBLIC "-//W3C//DTD SVG 1.1//EN" "http://www.w3.org/Graphics/SVG/1.1/DTD/svg11.dtd">
<svg version="1.1" id="Layer_1" xmlns="http://www.w3.org/2000/svg" xmlns:xlink="http://www.w3.org/1999/xlink" x="0px" y="0px"
	 width="440px" height="162.335px" viewBox="144 0 440 162.335" enable-background="new 144 0 440 162.335" xml:space="preserve">
<g>
	<g>
		<defs>
			<rect id="SVGID_1_" x="307.222" width="93.555" height="162.335"/>
		</defs>
		<clipPath id="SVGID_2_">
			<use xlink:href="#SVGID_1_"  overflow="visible"/>
		</clipPath>
		<path clip-path="url(#SVGID_2_)" fill="#231F20" d="M385.609,161.835h4.483l1.746-6.541c0.718-2.674,2.183-4.764,3.988-6.228
			l1.43,1.403c1.84-0.098,3.521-1.403,3.521-3.271c0-1.246-0.84-2.246-2.146-2.246c-1.496,0-2.68,1.217-5.572,5.488l-0.188-0.1
			l0.84-3.336v-1.674h-6.604l-0.5,1.799l1.869,0.346l0.625,1.307L385.609,161.835z M366.852,160.067
			c-1.375,0-2.055-1.21-2.055-3.585c0-4.359,2.119-9.378,4.801-9.378c1.465,0,2.082,1.218,2.082,3.585
			C371.68,155.08,369.598,160.067,366.852,160.067 M366.916,162.335c5.299,0,9.559-5.01,9.559-10.469
			c0-4.33-2.584-7.033-6.938-7.033c-5.302,0-9.566,5.01-9.566,10.461C359.969,159.632,362.556,162.335,366.916,162.335
			 M344.762,162.216l4.951-0.656l0.374-1.375c-2.336-0.553-2.613-0.866-2.277-2.18l2.218-8.289c0.746-2.771-0.28-4.822-2.925-4.822
			c-2.367,0-3.709,1.718-6.233,5.175l-0.216-0.098l1.027-2.964l1.713-6.914v-1.613h-6.978l-0.471,1.8l1.87,0.343l0.654,1.314
			l-4.95,19.898h4.483l1.932-7.879c0.344-1.433,0.844-2.365,2.244-3.77c1.153-1.157,1.59-1.494,2.273-1.494
			c0.75,0,1.276,0.463,0.938,1.682l-2.215,8.16c-0.157,0.629-0.219,1.062-0.219,1.59
			C342.957,161.158,343.704,161.806,344.762,162.216 M307.627,161.835h10.777l0.593-2.172l-2.18-0.314l-0.373-1.344l4.174-15.516
			h1.991l1.561,1.245l-0.562,3.771h2.617l2.024-7.6h-19.001l-2.025,7.6h2.619l1.43-3.771l2.243-1.245h1.996l-4.175,15.516
			l-1.059,1.344l-2.057,0.314L307.627,161.835z"/>
	</g>
	<g>
		<defs>
			<rect id="SVGID_3_" x="307.222" width="93.555" height="162.335"/>
		</defs>
		<clipPath id="SVGID_4_">
			<use xlink:href="#SVGID_3_"  overflow="visible"/>
		</clipPath>
		<path clip-path="url(#SVGID_4_)" fill="#EC1B2E" d="M351.895,23.322c0,0.652,0.343,0.962,0.963,0.962h0.066
			c0.62,0,0.964-0.31,0.964-0.962V0.583c0-0.377-0.239-0.586-0.553-0.586h-0.101c-0.414,0-0.549,0.175-0.754,0.482
			c-0.243,0.414-0.377,0.552-0.481,0.657c-0.377,0.41-0.896,0.616-1.718,0.787c-0.448,0.135-0.691,0.344-0.691,0.788v0.138
			c0,0.415,0.243,0.725,0.825,0.725h1.479L351.895,23.322L351.895,23.322z"/>
	</g>
</g>
<line fill="none" stroke="#231F20" stroke-width="0.5" x1="335.226" y1="84.429" x2="369.633" y2="84.429"/>
</svg>
