<?xml version="1.0" encoding="utf-8"?>
<!-- Generator: Adobe Illustrator 16.2.1, SVG Export Plug-In . SVG Version: 6.00 Build 0)  -->
<!DOCTYPE svg PUBLIC "-//W3C//DTD SVG 1.1//EN" "http://www.w3.org/Graphics/SVG/1.1/DTD/svg11.dtd">
<svg version="1.1" id="Layer_1" xmlns="http://www.w3.org/2000/svg" xmlns:xlink="http://www.w3.org/1999/xlink" x="0px" y="0px"
	 width="928px" height="187.912px" viewBox="0 0 928 187.912" enable-background="new 0 0 928 187.912" xml:space="preserve">
<g>
	<defs>
		<rect id="SVGID_1_" width="623.757" height="187.912"/>
	</defs>
	<clipPath id="SVGID_2_">
		<use xlink:href="#SVGID_1_"  overflow="visible"/>
	</clipPath>
	<line clip-path="url(#SVGID_2_)" fill="none" stroke="#EC1B2E" x1="1.092" y1="187.413" x2="313.092" y2="187.413"/>
	<path clip-path="url(#SVGID_2_)" fill="#000002" d="M615.486,160.576c0,1.53,1.122,2.652,2.652,2.652
		c1.529,0,2.651-1.122,2.651-2.652s-1.122-2.652-2.651-2.652C616.608,157.924,615.486,159.046,615.486,160.576 M588.286,162.82
		h12.036v-1.088h-2.992c-0.612,0-0.816-0.204-0.816-0.816v-10.472h1.904c2.38,0,3.265,1.903,3.265,3.876v4.216
		c0,3.468,1.938,5.1,4.726,5.1c3.264,0,4.046-2.991,4.046-6.936h-1.088c0,2.414-0.408,5.032-1.7,5.032
		c-0.611,0-0.952-0.408-0.952-1.429v-3.773c0-4.25-2.312-5.712-5.508-6.29v-0.238c3.536-0.408,6.256-2.142,6.256-5.406
		c0-3.739-3.332-5.983-8.16-5.983h-11.016v1.088h2.38c0.612,0,0.816,0.204,0.816,0.815v20.4c0,0.612-0.204,0.816-0.816,0.816h-2.38
		V162.82z M596.514,149.356v-8.841c0-0.611,0.204-0.815,0.816-0.815h1.462c2.55,0,3.23,1.768,3.23,4.624
		c0,2.855-0.681,5.032-3.23,5.032H596.514z M567.75,155.816v-10.2c0-4.896,1.7-6.528,4.284-6.528s4.284,1.632,4.284,6.528v10.2
		c0,4.896-1.7,6.527-4.284,6.527S567.75,160.712,567.75,155.816 M561.97,150.716c0,6.528,4.692,12.716,10.064,12.716
		s10.064-6.188,10.064-12.716c0-6.527-4.692-12.716-10.064-12.716S561.97,144.188,561.97,150.716 M534.907,148.744h1.088
		c0,0,0.136-1.156,0.714-3.196c0.782-2.788,2.584-5.848,4.896-5.848c0.748,0,1.258,0.408,1.258,1.156v20.06
		c0,0.612-0.204,0.816-0.816,0.816h-2.72v1.088h12.104v-1.088h-2.721c-0.611,0-0.815-0.204-0.815-0.816v-20.06
		c0-0.748,0.51-1.156,1.258-1.156c2.312,0,4.114,3.06,4.896,5.848c0.578,2.04,0.715,3.196,0.715,3.196h1.088l-0.272-10.132H535.18
		L534.907,148.744z M508.794,162.82h8.67v-1.088h-1.598c-1.122,0-1.769-0.782-1.769-1.53c0-0.442,0.137-1.122,0.375-1.734
		l0.714-2.073h7.14l1.088,3.264c0.103,0.306,0.204,0.782,0.204,0.986c0,0.577-0.374,1.088-0.918,1.088h-2.448v1.088h11.935v-1.088
		h-1.36c-0.884,0-1.598-0.544-2.006-1.734L521.544,138h-1.428l-7.174,20.979c-0.477,1.359-1.53,2.754-2.992,2.754h-1.156V162.82z
		 M515.628,155.136l3.196-9.35l3.094,9.35H515.628z M483.567,162.82h19.38l0.204-9.384h-1.088c0,0-0.272,2.21-0.714,3.468
		c-0.646,1.836-2.244,4.828-5.032,4.828h-3.706c-0.612,0-0.816-0.204-0.816-0.816v-9.792h1.734c1.904,0,3.399,2.72,3.399,4.727
		h1.089v-10.643h-1.089c0,1.972-1.495,4.692-3.399,4.692h-1.734v-9.385c0-0.611,0.204-0.815,0.816-0.815h3.74
		c1.768,0,3.128,1.258,4.08,2.924c1.02,1.7,1.359,3.876,1.359,3.876h1.088l-0.204-7.888h-19.107v1.088h2.38
		c0.612,0,0.816,0.204,0.816,0.815v20.4c0,0.612-0.204,0.816-0.816,0.816h-2.38V162.82z M456.367,162.82h12.036v-1.088h-2.992
		c-0.612,0-0.816-0.204-0.816-0.816v-10.472h1.904c2.38,0,3.265,1.903,3.265,3.876v4.216c0,3.468,1.938,5.1,4.726,5.1
		c3.264,0,4.046-2.991,4.046-6.936h-1.088c0,2.414-0.408,5.032-1.7,5.032c-0.612,0-0.952-0.408-0.952-1.429v-3.773
		c0-4.25-2.312-5.712-5.508-6.29v-0.238c3.536-0.408,6.256-2.142,6.256-5.406c0-3.739-3.332-5.983-8.16-5.983h-11.016v1.088h2.38
		c0.612,0,0.816,0.204,0.816,0.815v20.4c0,0.612-0.204,0.816-0.816,0.816h-2.38V162.82z M464.595,149.356v-8.841
		c0-0.611,0.204-0.815,0.816-0.815h1.462c2.55,0,3.23,1.768,3.23,4.624c0,2.855-0.681,5.032-3.23,5.032H464.595z M431.819,150.716
		c0,6.393,3.264,12.716,9.86,12.716c3.4,0,5.814-1.666,7.174-4.317c0.816-1.599,1.258-3.774,1.394-5.645h-1.224
		c-0.17,1.599-0.51,3.639-1.326,5.168c-1.02,1.904-2.822,3.706-6.018,3.706c-1.904,0-4.08-1.632-4.08-6.527v-10.2
		c0-4.896,1.836-6.528,3.74-6.528c3.4,0,6.12,3.809,7.14,9.622h1.088v-10.438h-1.122l-0.612,1.258
		c-0.17,0.374-0.34,0.646-0.748,0.646c-0.272,0-0.68-0.204-1.156-0.51c-1.36-0.918-2.754-1.666-4.59-1.666
		C435.355,138,431.819,143.916,431.819,150.716 M397.14,152.416l0.204,10.744h1.054l0.17-1.088c0.102-0.748,0.408-1.156,0.884-1.156
		c0.442,0,0.884,0.34,1.768,1.021c0.918,0.748,2.482,1.495,4.658,1.495c5.202,0,7.582-3.638,7.582-7.004
		c0-2.277-1.19-4.624-3.06-5.848l-7.31-4.726c-1.564-1.021-3.026-2.347-3.026-3.91c0-1.904,1.122-2.856,3.536-2.856
		c3.332,0,6.358,3.672,7.616,8.364h1.088l-0.34-8.84h-1.088l-0.204,0.918c-0.068,0.441-0.306,0.782-0.748,0.782
		c-0.34,0-0.782-0.272-1.224-0.612c-0.68-0.477-2.584-1.7-4.828-1.7c-3.4,0-6.664,1.836-6.664,6.528c0,3.128,2.108,5.1,3.808,6.188
		l7.276,4.692c1.36,0.884,2.448,1.802,2.448,3.06c0,1.429-0.578,3.876-4.658,3.876c-3.876,0-6.902-4.93-7.854-9.928H397.14z
		 M369.396,148.744h1.088c0,0,0.136-1.156,0.714-3.196c0.782-2.788,2.584-5.848,4.896-5.848c0.748,0,1.258,0.408,1.258,1.156v20.06
		c0,0.612-0.204,0.816-0.816,0.816h-2.72v1.088h12.104v-1.088h-2.72c-0.612,0-0.816-0.204-0.816-0.816v-20.06
		c0-0.748,0.51-1.156,1.258-1.156c2.312,0,4.114,3.06,4.896,5.848c0.578,2.04,0.714,3.196,0.714,3.196h1.088l-0.272-10.132h-20.4
		L369.396,148.744z M352.124,162.82h11.424v-1.088h-2.38c-0.612,0-0.816-0.204-0.816-0.816v-20.4c0-0.611,0.204-0.815,0.816-0.815
		h2.38v-1.088h-11.424v1.088h2.38c0.612,0,0.816,0.204,0.816,0.815v20.4c0,0.612-0.204,0.816-0.816,0.816h-2.38V162.82z
		 M313.025,162.82h12.036v-1.088h-2.992c-0.612,0-0.816-0.204-0.816-0.816v-10.472h1.904c2.38,0,3.264,1.903,3.264,3.876v4.216
		c0,3.468,1.938,5.1,4.726,5.1c3.264,0,4.046-2.991,4.046-6.936h-1.088c0,2.414-0.408,5.032-1.7,5.032
		c-0.612,0-0.952-0.408-0.952-1.429v-3.773c0-4.25-2.312-5.712-5.508-6.29v-0.238c3.536-0.408,6.256-2.142,6.256-5.406
		c0-3.739-3.332-5.983-8.16-5.983h-11.016v1.088h2.38c0.612,0,0.816,0.204,0.816,0.815v20.4c0,0.612-0.204,0.816-0.816,0.816h-2.38
		V162.82z M321.253,149.356v-8.841c0-0.611,0.204-0.815,0.816-0.815h1.462c2.55,0,3.23,1.768,3.23,4.624
		c0,2.855-0.68,5.032-3.23,5.032H321.253z M292.489,155.816v-10.2c0-4.896,1.7-6.528,4.284-6.528c2.584,0,4.284,1.632,4.284,6.528
		v10.2c0,4.896-1.7,6.527-4.284,6.527C294.189,162.344,292.489,160.712,292.489,155.816 M286.709,150.716
		c0,6.528,4.692,12.716,10.064,12.716c5.372,0,10.064-6.188,10.064-12.716c0-6.527-4.692-12.716-10.064-12.716
		C291.401,138,286.709,144.188,286.709,150.716 M261.277,162.82h12.138v-1.088h-3.094c-0.612,0-0.816-0.204-0.816-0.816v-9.792
		h1.734c1.904,0,3.4,2.72,3.4,4.727h1.088v-10.643h-1.088c0,1.972-1.496,4.692-3.4,4.692h-1.734v-9.385
		c0-0.611,0.204-0.815,0.816-0.815h3.468c2.176,0,3.808,1.972,4.624,3.706c0.85,1.802,1.224,4.521,1.224,4.521h1.088l-0.272-9.315
		h-19.176v1.088h2.38c0.612,0,0.816,0.204,0.816,0.815v20.4c0,0.612-0.204,0.816-0.816,0.816h-2.38V162.82z"/>
	<path clip-path="url(#SVGID_2_)" fill="#231F20" d="M233.349,150.061c-0.4-0.28-0.6-0.561-0.6-1.141v-1.56c0-0.54,0.26-0.8,0.8-0.8
		h0.26c0.54,0,0.8,0.26,0.8,0.8v1.66c0,0.56,0.24,0.8,0.8,0.8h0.5c0.56,0,0.8-0.24,0.8-0.8v-1.74c0-1.72-0.86-2.58-2.58-2.58h-0.9
		c-1.74,0-2.6,0.86-2.6,2.6v1.92c0,1.08,0.28,1.74,1.24,2.42l2.16,1.58c0.4,0.301,0.6,0.561,0.6,1.141v1.92
		c0,0.54-0.26,0.8-0.82,0.8h-0.28c-0.56,0-0.82-0.26-0.82-0.8v-2.08c0-0.561-0.24-0.8-0.8-0.8h-0.48c-0.56,0-0.8,0.239-0.8,0.8v2.16
		c0,1.72,0.84,2.58,2.58,2.58h0.94c1.74,0,2.6-0.86,2.6-2.601v-2.279c0-1.141-0.3-1.74-1.24-2.421L233.349,150.061z M218.05,144.82
		c-0.56,0-0.8,0.24-0.8,0.8v12.4c0,0.56,0.24,0.8,0.8,0.8h0.54c0.56,0,0.8-0.24,0.8-0.8v-12.4c0-0.56-0.24-0.8-0.8-0.8H218.05z
		 M202.67,150.061c-0.4-0.28-0.6-0.561-0.6-1.141v-1.56c0-0.54,0.26-0.8,0.8-0.8h0.26c0.54,0,0.8,0.26,0.8,0.8v1.66
		c0,0.56,0.24,0.8,0.8,0.8h0.5c0.56,0,0.8-0.24,0.8-0.8v-1.74c0-1.72-0.86-2.58-2.58-2.58h-0.9c-1.74,0-2.6,0.86-2.6,2.6v1.92
		c0,1.08,0.28,1.74,1.24,2.42l2.16,1.58c0.4,0.301,0.6,0.561,0.6,1.141v1.92c0,0.54-0.26,0.8-0.82,0.8h-0.28
		c-0.56,0-0.82-0.26-0.82-0.8v-2.08c0-0.561-0.24-0.8-0.8-0.8h-0.48c-0.56,0-0.8,0.239-0.8,0.8v2.16c0,1.72,0.84,2.58,2.58,2.58
		h0.94c1.74,0,2.6-0.86,2.6-2.601v-2.279c0-1.141-0.3-1.74-1.24-2.421L202.67,150.061z M187.37,144.82c-0.56,0-0.8,0.24-0.8,0.8
		v12.4c0,0.56,0.24,0.8,0.8,0.8h0.54c0.56,0,0.8-0.24,0.8-0.8v-12.4c0-0.56-0.24-0.8-0.8-0.8H187.37z M175.29,150.061v-2.641
		c0-1.74-0.86-2.6-2.6-2.6h-2.72c-0.56,0-0.8,0.24-0.8,0.8v12.4c0,0.56,0.24,0.8,0.8,0.8h0.54c0.56,0,0.8-0.24,0.8-0.8v-4.82h0.96
		c0.62,0,0.9,0.28,0.9,0.9v3.92c0,0.56,0.24,0.8,0.8,0.8h0.54c0.56,0,0.8-0.24,0.8-0.8v-3.96c0-1.061-0.36-1.601-1.24-1.841
		C174.85,151.9,175.29,151.3,175.29,150.061 M173.15,150.48c0,0.58-0.28,0.859-0.88,0.859h-0.96v-4.62h1.04
		c0.54,0,0.8,0.261,0.8,0.801V150.48z M155.87,156.24c0,0.56-0.26,0.82-0.8,0.82h-0.4c-0.56,0-0.82-0.261-0.82-0.82v-8.84
		c0-0.561,0.26-0.82,0.82-0.82h0.36c0.54,0,0.8,0.26,0.8,0.82v1.939c0,0.561,0.24,0.8,0.8,0.8h0.5c0.56,0,0.8-0.239,0.8-0.8v-2.06
		c0-1.74-0.84-2.58-2.58-2.58h-1.04c-1.74,0-2.6,0.86-2.6,2.6v9.04c0,1.74,0.86,2.601,2.6,2.601h1.06c1.74,0,2.6-0.86,2.6-2.601
		v-2.46c0-0.56-0.24-0.8-0.8-0.8h-0.5c-0.56,0-0.8,0.24-0.8,0.8V156.24z M126.451,146.76h1.12c0.56,0,0.8-0.239,0.8-0.8v-0.34
		c0-0.56-0.24-0.8-0.8-0.8h-4.38c-0.56,0-0.8,0.24-0.8,0.8v0.34c0,0.561,0.24,0.8,0.8,0.8h1.12v11.261c0,0.56,0.24,0.8,0.8,0.8h0.54
		c0.56,0,0.8-0.24,0.8-0.8V146.76z M107.051,149.38l2.04,8.82c0.1,0.439,0.32,0.62,0.78,0.62h0.88c0.56,0,0.8-0.24,0.8-0.8v-12.4
		c0-0.56-0.24-0.8-0.8-0.8h-0.32c-0.56,0-0.8,0.24-0.8,0.8v5.5l0.02,2.34l-1.86-8.02c-0.1-0.44-0.32-0.62-0.78-0.62h-1.06
		c-0.56,0-0.8,0.24-0.8,0.8v12.4c0,0.56,0.24,0.8,0.8,0.8h0.32c0.56,0,0.8-0.24,0.8-0.8v-6.16L107.051,149.38z M93.371,158.82
		c0.62,0,0.88-0.3,0.78-0.92l-1.78-12.4c-0.08-0.479-0.3-0.68-0.8-0.68h-1.44c-0.5,0-0.72,0.2-0.8,0.68l-1.76,12.4
		c-0.1,0.62,0.16,0.92,0.78,0.92h0.36c0.5,0,0.72-0.2,0.78-0.7l0.2-1.5h2.22l0.18,1.5c0.06,0.5,0.28,0.7,0.8,0.7H93.371z
		 M89.911,154.72l0.88-7.08l0.88,7.08H89.911z M75.851,146.76h1.12c0.56,0,0.8-0.239,0.8-0.8v-0.34c0-0.56-0.24-0.8-0.8-0.8h-4.38
		c-0.56,0-0.8,0.24-0.8,0.8v0.34c0,0.561,0.24,0.8,0.8,0.8h1.12v11.261c0,0.56,0.24,0.8,0.8,0.8h0.54c0.56,0,0.8-0.24,0.8-0.8
		V146.76z M57.831,150.061c-0.4-0.28-0.6-0.561-0.6-1.141v-1.56c0-0.54,0.26-0.8,0.8-0.8h0.26c0.54,0,0.8,0.26,0.8,0.8v1.66
		c0,0.56,0.24,0.8,0.8,0.8h0.5c0.56,0,0.8-0.24,0.8-0.8v-1.74c0-1.72-0.86-2.58-2.58-2.58h-0.9c-1.74,0-2.6,0.86-2.6,2.6v1.92
		c0,1.08,0.28,1.74,1.24,2.42l2.16,1.58c0.4,0.301,0.6,0.561,0.6,1.141v1.92c0,0.54-0.26,0.8-0.82,0.8h-0.28
		c-0.56,0-0.82-0.26-0.82-0.8v-2.08c0-0.561-0.24-0.8-0.8-0.8h-0.48c-0.56,0-0.8,0.239-0.8,0.8v2.16c0,1.72,0.84,2.58,2.58,2.58
		h0.94c1.74,0,2.6-0.86,2.6-2.601v-2.279c0-1.141-0.3-1.74-1.24-2.421L57.831,150.061z M39.392,149.38l2.04,8.82
		c0.1,0.439,0.32,0.62,0.78,0.62h0.88c0.56,0,0.8-0.24,0.8-0.8v-12.4c0-0.56-0.24-0.8-0.8-0.8h-0.32c-0.56,0-0.8,0.24-0.8,0.8v5.5
		l0.02,2.34l-1.86-8.02c-0.1-0.44-0.32-0.62-0.78-0.62h-1.06c-0.56,0-0.8,0.24-0.8,0.8v12.4c0,0.56,0.24,0.8,0.8,0.8h0.32
		c0.56,0,0.8-0.24,0.8-0.8v-6.16L39.392,149.38z M24.112,156.24c0,0.56-0.26,0.82-0.8,0.82h-0.44c-0.56,0-0.82-0.261-0.82-0.82
		v-8.84c0-0.561,0.26-0.82,0.82-0.82h0.44c0.54,0,0.8,0.26,0.8,0.82V156.24z M26.252,147.3c0-1.739-0.86-2.6-2.6-2.6h-1.14
		c-1.74,0-2.6,0.86-2.6,2.6v9.04c0,1.74,0.86,2.601,2.6,2.601h1.14c1.74,0,2.6-0.86,2.6-2.601V147.3z M6.652,156.24
		c0,0.56-0.26,0.82-0.8,0.82h-0.4c-0.56,0-0.82-0.261-0.82-0.82v-8.84c0-0.561,0.26-0.82,0.82-0.82h0.36c0.54,0,0.8,0.26,0.8,0.82
		v1.939c0,0.561,0.24,0.8,0.8,0.8h0.5c0.56,0,0.8-0.239,0.8-0.8v-2.06c0-1.74-0.84-2.58-2.58-2.58h-1.04c-1.74,0-2.6,0.86-2.6,2.6
		v9.04c0,1.74,0.86,2.601,2.6,2.601h1.06c1.74,0,2.6-0.86,2.6-2.601v-2.46c0-0.56-0.24-0.8-0.8-0.8h-0.5c-0.56,0-0.8,0.24-0.8,0.8
		V156.24z"/>
	<path clip-path="url(#SVGID_2_)" fill="#000002" d="M454.592,102.744h1.088c0,0,0.136-1.156,0.714-3.196
		c0.782-2.788,2.584-5.848,4.896-5.848c0.748,0,1.258,0.408,1.258,1.156v20.06c0,0.612-0.204,0.816-0.816,0.816h-2.72v1.088h12.104
		v-1.088h-2.72c-0.612,0-0.816-0.204-0.816-0.816v-20.06c0-0.748,0.51-1.156,1.258-1.156c2.312,0,4.114,3.06,4.896,5.848
		c0.578,2.04,0.714,3.196,0.714,3.196h1.088l-0.271-10.132h-20.4L454.592,102.744z M424.264,116.82h11.424v-1.088h-2.38
		c-0.612,0-0.816-0.204-0.816-0.816v-10.2h8.024v10.2c0,0.612-0.204,0.816-0.816,0.816h-2.38v1.088h11.424v-1.088h-2.38
		c-0.612,0-0.816-0.204-0.816-0.816v-20.4c0-0.611,0.204-0.815,0.816-0.815h2.38v-1.088h-11.492V93.7h2.448
		c0.612,0,0.816,0.204,0.816,0.815v8.977h-8.024v-8.977c0-0.611,0.204-0.815,0.816-0.815h2.38v-1.088h-11.424V93.7h2.38
		c0.612,0,0.816,0.204,0.816,0.815v20.4c0,0.612-0.204,0.816-0.816,0.816h-2.38V116.82z M397.677,104.716
		c0,6.767,3.536,12.716,9.52,12.716c2.584,0,4.454-2.142,5.27-3.399c0.272-0.442,0.578-0.714,1.054-0.714
		c0.442,0,0.714,0.441,0.816,0.85l0.816,3.094h1.088v-10.573c0-0.612,0.204-0.816,0.816-0.816h1.632v-1.088h-11.288v1.088h2.992
		c0.612,0,0.816,0.204,0.816,0.816v4.657c0,2.584-1.564,4.998-4.012,4.998c-2.176,0-3.74-1.632-3.74-6.527v-10.2
		c0-4.896,1.768-6.528,4.352-6.528c3.4,0,5.848,3.332,7.378,8.977h1.054v-9.792h-1.122l-0.578,1.258
		c-0.17,0.374-0.374,0.646-0.748,0.646c-0.306,0-0.68-0.204-1.156-0.51c-1.36-0.918-2.686-1.666-4.828-1.666
		C401.825,92,397.677,97.916,397.677,104.716 M368.233,93.7h2.176c0.612,0,0.816,0.204,0.816,0.815v14.246
		c0,4.387,2.482,8.67,8.942,8.67c5.134,0,8.126-3.434,8.126-7.684V96.76c0-2.176,1.768-3.06,3.536-3.06v-1.088h-8.432V93.7
		c1.768,0,3.536,0.884,3.536,3.06v13.328c0,3.265-2.414,5.984-5.814,5.984c-3.298,0-4.862-1.802-4.862-5.984V94.516
		c0-0.611,0.204-0.815,0.816-0.815h2.176v-1.088h-11.016V93.7z M347.494,109.816v-10.2c0-4.896,1.7-6.528,4.284-6.528
		s4.284,1.632,4.284,6.528v10.2c0,4.896-1.7,6.527-4.284,6.527S347.494,114.712,347.494,109.816 M341.714,104.716
		c0,6.528,4.692,12.716,10.064,12.716s10.064-6.188,10.064-12.716c0-6.527-4.692-12.716-10.064-12.716
		S341.714,98.188,341.714,104.716 M314.242,116.82h12.036v-1.088h-2.992c-0.612,0-0.816-0.204-0.816-0.816v-10.472h1.904
		c2.38,0,3.264,1.903,3.264,3.876v4.216c0,3.468,1.938,5.1,4.726,5.1c3.264,0,4.046-2.991,4.046-6.936h-1.088
		c0,2.414-0.408,5.032-1.7,5.032c-0.612,0-0.952-0.408-0.952-1.429v-3.773c0-4.25-2.312-5.712-5.508-6.29v-0.238
		c3.536-0.408,6.256-2.142,6.256-5.406c0-3.739-3.332-5.983-8.16-5.983h-11.016V93.7h2.38c0.612,0,0.816,0.204,0.816,0.815v20.4
		c0,0.612-0.204,0.816-0.816,0.816h-2.38V116.82z M322.47,103.356v-8.841c0-0.611,0.204-0.815,0.816-0.815h1.462
		c2.55,0,3.23,1.768,3.23,4.624c0,2.855-0.68,5.032-3.23,5.032H322.47z M295.95,103.628v-9.112c0-0.611,0.204-0.815,0.816-0.815
		h2.516c1.802,0,2.924,1.7,2.924,4.692c0,3.128-0.51,5.235-3.128,5.235H295.95z M287.722,116.82h12.41
		c4.284,0,7.99-2.312,7.99-6.597c0-3.535-3.672-5.508-6.562-5.949v-0.204c2.72-0.714,5.746-2.38,5.746-5.678
		c0-3.4-3.57-5.78-7.616-5.78h-11.968V93.7h2.38c0.612,0,0.816,0.204,0.816,0.815v20.4c0,0.612-0.204,0.816-0.816,0.816h-2.38
		V116.82z M295.95,114.916v-10.2h3.128c2.244,0,3.604,1.156,3.604,5.508c0,4.353-1.36,5.509-3.604,5.509h-2.312
		C296.154,115.732,295.95,115.528,295.95,114.916"/>
	<path clip-path="url(#SVGID_2_)" fill="#231F20" d="M259.794,104.06c-0.4-0.279-0.6-0.56-0.6-1.14v-1.56
		c0-0.54,0.26-0.801,0.8-0.801h0.26c0.54,0,0.8,0.261,0.8,0.801v1.659c0,0.561,0.24,0.801,0.8,0.801h0.5c0.56,0,0.8-0.24,0.8-0.801
		v-1.739c0-1.721-0.86-2.58-2.58-2.58h-0.9c-1.74,0-2.6,0.859-2.6,2.6v1.92c0,1.08,0.28,1.74,1.24,2.42l2.16,1.58
		c0.4,0.3,0.6,0.561,0.6,1.141v1.92c0,0.54-0.26,0.8-0.82,0.8h-0.28c-0.56,0-0.82-0.26-0.82-0.8v-2.08c0-0.561-0.24-0.8-0.8-0.8
		h-0.48c-0.56,0-0.8,0.239-0.8,0.8v2.16c0,1.72,0.84,2.58,2.58,2.58h0.94c1.74,0,2.6-0.86,2.6-2.601v-2.28
		c0-1.14-0.3-1.739-1.24-2.42L259.794,104.06z M242.574,104.06c-0.4-0.279-0.6-0.56-0.6-1.14v-1.56c0-0.54,0.26-0.801,0.8-0.801
		h0.26c0.54,0,0.8,0.261,0.8,0.801v1.659c0,0.561,0.24,0.801,0.8,0.801h0.5c0.56,0,0.8-0.24,0.8-0.801v-1.739
		c0-1.721-0.86-2.58-2.58-2.58h-0.9c-1.74,0-2.6,0.859-2.6,2.6v1.92c0,1.08,0.28,1.74,1.24,2.42l2.16,1.58
		c0.4,0.3,0.6,0.561,0.6,1.141v1.92c0,0.54-0.26,0.8-0.82,0.8h-0.28c-0.56,0-0.82-0.26-0.82-0.8v-2.08c0-0.561-0.24-0.8-0.8-0.8
		h-0.48c-0.56,0-0.8,0.239-0.8,0.8v2.16c0,1.72,0.84,2.58,2.58,2.58h0.94c1.74,0,2.6-0.86,2.6-2.601v-2.28
		c0-1.14-0.3-1.739-1.24-2.42L242.574,104.06z M223.994,112.02c0,0.561,0.24,0.801,0.8,0.801h3.2c0.56,0,0.8-0.24,0.8-0.801v-0.34
		c0-0.56-0.24-0.8-0.8-0.8h-1.86v-4.22h1.72c0.56,0,0.8-0.24,0.8-0.8v-0.341c0-0.56-0.24-0.8-0.8-0.8h-1.72v-3.96h1.82
		c0.56,0,0.8-0.24,0.8-0.8v-0.34c0-0.561-0.24-0.8-0.8-0.8h-3.16c-0.56,0-0.8,0.239-0.8,0.8V112.02z M210.694,110.24
		c0,0.56-0.26,0.819-0.8,0.819h-0.4c-0.56,0-0.82-0.26-0.82-0.819v-8.84c0-0.561,0.26-0.82,0.82-0.82h0.36c0.54,0,0.8,0.26,0.8,0.82
		v1.939c0,0.561,0.24,0.8,0.8,0.8h0.5c0.56,0,0.8-0.239,0.8-0.8v-2.06c0-1.74-0.84-2.58-2.58-2.58h-1.04c-1.74,0-2.6,0.859-2.6,2.6
		v9.04c0,1.74,0.86,2.601,2.6,2.601h1.06c1.74,0,2.6-0.86,2.6-2.601v-2.46c0-0.56-0.24-0.8-0.8-0.8h-0.5c-0.56,0-0.8,0.24-0.8,0.8
		V110.24z M193.275,110.24c0,0.56-0.26,0.819-0.8,0.819h-0.4c-0.56,0-0.82-0.26-0.82-0.819v-8.84c0-0.561,0.26-0.82,0.82-0.82h0.36
		c0.54,0,0.8,0.26,0.8,0.82v1.939c0,0.561,0.24,0.8,0.8,0.8h0.5c0.56,0,0.8-0.239,0.8-0.8v-2.06c0-1.74-0.84-2.58-2.58-2.58h-1.04
		c-1.74,0-2.6,0.859-2.6,2.6v9.04c0,1.74,0.86,2.601,2.6,2.601h1.06c1.74,0,2.6-0.86,2.6-2.601v-2.46c0-0.56-0.24-0.8-0.8-0.8h-0.5
		c-0.56,0-0.8,0.24-0.8,0.8V110.24z M176.555,98.82c-0.56,0-0.8,0.239-0.8,0.8v10.62c0,0.56-0.26,0.819-0.8,0.819h-0.34
		c-0.56,0-0.82-0.26-0.82-0.819V99.62c0-0.561-0.24-0.8-0.8-0.8h-0.54c-0.56,0-0.8,0.239-0.8,0.8v10.72c0,1.74,0.86,2.601,2.6,2.601
		h1.04c1.74,0,2.6-0.86,2.6-2.601V99.62c0-0.561-0.24-0.8-0.8-0.8H176.555z M157.115,104.06c-0.4-0.279-0.6-0.56-0.6-1.14v-1.56
		c0-0.54,0.26-0.801,0.8-0.801h0.26c0.54,0,0.8,0.261,0.8,0.801v1.659c0,0.561,0.24,0.801,0.8,0.801h0.5c0.56,0,0.8-0.24,0.8-0.801
		v-1.739c0-1.721-0.86-2.58-2.58-2.58h-0.9c-1.74,0-2.6,0.859-2.6,2.6v1.92c0,1.08,0.28,1.74,1.24,2.42l2.16,1.58
		c0.4,0.3,0.6,0.561,0.6,1.141v1.92c0,0.54-0.26,0.8-0.82,0.8h-0.28c-0.56,0-0.82-0.26-0.82-0.8v-2.08c0-0.561-0.24-0.8-0.8-0.8
		h-0.48c-0.56,0-0.8,0.239-0.8,0.8v2.16c0,1.72,0.84,2.58,2.58,2.58h0.94c1.74,0,2.6-0.86,2.6-2.601v-2.28
		c0-1.14-0.3-1.739-1.24-2.42L157.115,104.06z"/>
	<path clip-path="url(#SVGID_2_)" fill="#000002" d="M121.515,106.416l0.204,10.744h1.054l0.17-1.088
		c0.102-0.748,0.408-1.156,0.884-1.156c0.442,0,0.884,0.34,1.768,1.021c0.918,0.748,2.482,1.495,4.658,1.495
		c5.202,0,7.582-3.638,7.582-7.004c0-2.277-1.19-4.624-3.06-5.848l-7.31-4.726c-1.564-1.021-3.026-2.347-3.026-3.91
		c0-1.904,1.122-2.856,3.536-2.856c3.332,0,6.358,3.672,7.616,8.364h1.088l-0.34-8.84h-1.088l-0.204,0.918
		c-0.068,0.441-0.306,0.782-0.748,0.782c-0.34,0-0.782-0.272-1.224-0.612c-0.68-0.477-2.584-1.7-4.828-1.7
		c-3.4,0-6.664,1.836-6.664,6.528c0,3.128,2.108,5.1,3.808,6.188l7.276,4.692c1.36,0.884,2.448,1.802,2.448,3.06
		c0,1.429-0.578,3.876-4.658,3.876c-3.876,0-6.902-4.93-7.854-9.928H121.515z M108.119,94.89c0,1.666,1.293,2.448,2.414,2.448
		c0.442,0,0.748-0.102,1.157-0.306c0.271-0.136,0.577-0.272,0.815-0.272c0.409,0,0.578,0.341,0.578,0.612
		c0,2.176-1.938,4.318-4.76,5.372l0.477,0.952c3.263-1.19,5.847-3.842,5.847-7.752c0-2.244-1.36-3.944-3.604-3.944
		C109.649,92,108.119,92.952,108.119,94.89 M79.56,116.82h12.648c5.644,0,10.268-5.236,10.268-12.309
		c0-7.071-4.624-11.899-10.268-11.899H79.56V93.7h2.38c0.612,0,0.816,0.204,0.816,0.815v20.4c0,0.612-0.204,0.816-0.816,0.816h-2.38
		V116.82z M87.788,114.916v-20.4c0-0.611,0.204-0.815,0.816-0.815h3.026c2.72,0,5.066,1.836,5.066,5.916v10.2
		c0,4.08-2.346,5.916-5.066,5.916h-3.026C87.992,115.732,87.788,115.528,87.788,114.916 M50.932,116.82h8.67v-1.088h-1.598
		c-1.122,0-1.768-0.782-1.768-1.53c0-0.442,0.136-1.122,0.374-1.734l0.714-2.073h7.14l1.088,3.264
		c0.102,0.306,0.204,0.782,0.204,0.986c0,0.577-0.374,1.088-0.918,1.088H62.39v1.088h11.934v-1.088h-1.36
		c-0.884,0-1.598-0.544-2.006-1.734L63.682,92h-1.428l-7.174,20.979c-0.476,1.359-1.53,2.754-2.992,2.754h-1.156V116.82z
		 M57.766,109.136l3.196-9.35l3.094,9.35H57.766z M33.252,109.816v-10.2c0-4.896,1.7-6.528,4.284-6.528s4.284,1.632,4.284,6.528
		v10.2c0,4.896-1.7,6.527-4.284,6.527S33.252,114.712,33.252,109.816 M27.472,104.716c0,6.528,4.692,12.716,10.064,12.716
		S47.6,111.244,47.6,104.716C47.6,98.188,42.908,92,37.536,92S27.472,98.188,27.472,104.716 M0,116.82h12.036v-1.088H9.044
		c-0.612,0-0.816-0.204-0.816-0.816v-10.472h1.904c2.38,0,3.264,1.903,3.264,3.876v4.216c0,3.468,1.938,5.1,4.726,5.1
		c3.264,0,4.046-2.991,4.046-6.936H21.08c0,2.414-0.408,5.032-1.7,5.032c-0.612,0-0.952-0.408-0.952-1.429v-3.773
		c0-4.25-2.312-5.712-5.508-6.29v-0.238c3.536-0.408,6.256-2.142,6.256-5.406c0-3.739-3.332-5.983-8.16-5.983H0V93.7h2.38
		c0.612,0,0.816,0.204,0.816,0.815v20.4c0,0.612-0.204,0.816-0.816,0.816H0V116.82z M8.228,103.356v-8.841
		c0-0.611,0.204-0.815,0.816-0.815h1.462c2.55,0,3.23,1.768,3.23,4.624c0,2.855-0.68,5.032-3.23,5.032H8.228z"/>
	<path clip-path="url(#SVGID_2_)" fill="#000002" d="M600.365,70.82h11.151v-1.088h-2.107c-0.612,0-0.816-0.204-0.816-0.816V60.45
		l1.462-1.666l4.931,9.384c0.102,0.204,0.17,0.646,0.17,0.851c0,0.374-0.307,0.714-0.714,0.714h-1.36v1.088h10.676v-1.088h-0.918
		c-1.122,0-1.496-0.442-2.04-1.496l-7.174-13.566l4.556-5.27c0.681-0.816,1.769-1.7,2.822-1.7h1.19v-1.088h-8.398V47.7h0.986
		c0.748,0,1.224,0.612,1.224,1.428c0,0.748-0.271,1.156-0.85,1.836l-6.562,7.616V48.516c0-0.611,0.204-0.815,0.816-0.815h2.107
		v-1.088h-11.151V47.7h2.38c0.612,0,0.815,0.204,0.815,0.815v20.4c0,0.612-0.203,0.816-0.815,0.816h-2.38V70.82z M575.205,70.82
		h19.244l0.271-10.473h-1.088c0,0-0.476,2.211-0.85,3.469c-0.578,1.87-2.312,5.916-5.101,5.916h-3.434
		c-0.612,0-0.816-0.307-0.816-0.918V48.516c0-0.611,0.204-0.815,0.816-0.815h2.38v-1.088h-11.424V47.7h2.38
		c0.612,0,0.816,0.204,0.816,0.815v20.299c0,0.611-0.204,0.918-0.816,0.918h-2.38V70.82z M557.866,70.82h11.424v-1.088h-2.38
		c-0.612,0-0.816-0.204-0.816-0.816v-20.4c0-0.611,0.204-0.815,0.816-0.815h2.38v-1.088h-11.424V47.7h2.38
		c0.612,0,0.815,0.204,0.815,0.815v20.4c0,0.612-0.203,0.816-0.815,0.816h-2.38V70.82z M535.358,60.416l0.203,10.744h1.055
		l0.17-1.088c0.102-0.748,0.408-1.156,0.884-1.156c0.442,0,0.884,0.34,1.768,1.021c0.918,0.748,2.482,1.495,4.658,1.495
		c5.202,0,7.582-3.638,7.582-7.004c0-2.277-1.189-4.624-3.06-5.848l-7.311-4.726c-1.563-1.021-3.025-2.347-3.025-3.91
		c0-1.904,1.122-2.856,3.536-2.856c3.332,0,6.357,3.672,7.615,8.364h1.088l-0.34-8.84h-1.088l-0.204,0.918
		c-0.067,0.441-0.306,0.782-0.748,0.782c-0.34,0-0.781-0.272-1.224-0.612c-0.68-0.476-2.584-1.7-4.828-1.7
		c-3.4,0-6.664,1.836-6.664,6.528c0,3.128,2.108,5.1,3.809,6.188l7.275,4.692c1.36,0.884,2.448,1.802,2.448,3.06
		c0,1.429-0.578,3.876-4.658,3.876c-3.876,0-6.901-4.93-7.854-9.928H535.358z M510.062,68.678c0,1.666,1.291,2.448,2.413,2.448
		c0.442,0,0.748-0.102,1.156-0.306c0.272-0.136,0.578-0.272,0.816-0.272c0.407,0,0.578,0.34,0.578,0.612
		c0,2.176-1.938,4.318-4.761,5.372l0.477,0.952c3.264-1.19,5.848-3.842,5.848-7.752c0-2.244-1.359-3.944-3.604-3.944
		C511.592,65.788,510.062,66.74,510.062,68.678 M488.098,60.416l0.204,10.744h1.055l0.17-1.088c0.102-0.748,0.407-1.156,0.884-1.156
		c0.441,0,0.884,0.34,1.768,1.021c0.918,0.748,2.482,1.495,4.658,1.495c5.202,0,7.582-3.638,7.582-7.004
		c0-2.277-1.19-4.624-3.06-5.848l-7.311-4.726c-1.563-1.021-3.025-2.347-3.025-3.91c0-1.904,1.121-2.856,3.535-2.856
		c3.332,0,6.358,3.672,7.616,8.364h1.088l-0.34-8.84h-1.088l-0.204,0.918c-0.067,0.441-0.306,0.782-0.748,0.782
		c-0.34,0-0.782-0.272-1.224-0.612c-0.681-0.476-2.584-1.7-4.828-1.7c-3.4,0-6.664,1.836-6.664,6.528c0,3.128,2.108,5.1,3.808,6.188
		l7.276,4.692c1.36,0.884,2.448,1.802,2.448,3.06c0,1.429-0.578,3.876-4.658,3.876c-3.876,0-6.902-4.93-7.854-9.928H488.098z
		 M461.307,70.82h19.38l0.203-9.384h-1.088c0,0-0.271,2.21-0.714,3.468c-0.646,1.836-2.244,4.828-5.032,4.828h-3.706
		c-0.611,0-0.815-0.204-0.815-0.816v-9.792h1.733c1.904,0,3.4,2.72,3.4,4.727h1.088V53.208h-1.088c0,1.972-1.496,4.692-3.4,4.692
		h-1.733v-9.385c0-0.611,0.204-0.815,0.815-0.815h3.74c1.769,0,3.128,1.258,4.08,2.924c1.021,1.7,1.36,3.876,1.36,3.876h1.088
		l-0.204-7.888h-19.108V47.7h2.38c0.612,0,0.816,0.204,0.816,0.815v20.4c0,0.612-0.204,0.816-0.816,0.816h-2.38V70.82z
		 M432.475,70.82h9.928v-1.088c-2.448,0-4.284-1.429-4.284-3.536V53.242h0.136l12.716,18.189h1.292V51.236
		c0-2.108,1.836-3.536,4.284-3.536v-1.088h-9.928V47.7c2.448,0,4.284,1.428,4.284,3.536V62.15l-10.88-15.538h-7.548V47.7h0.612
		c1.088,0,1.496,0.238,1.938,0.884l1.36,2.04c0.306,0.442,0.374,0.544,0.374,1.054v14.519c0,2.107-1.836,3.536-4.284,3.536V70.82z
		 M407.111,70.82h19.38l0.204-9.384h-1.088c0,0-0.272,2.21-0.714,3.468c-0.646,1.836-2.244,4.828-5.032,4.828h-3.706
		c-0.612,0-0.816-0.204-0.816-0.816v-9.792h1.734c1.904,0,3.4,2.72,3.4,4.727h1.088V53.208h-1.088c0,1.972-1.496,4.692-3.4,4.692
		h-1.734v-9.385c0-0.611,0.204-0.815,0.816-0.815h3.74c1.768,0,3.128,1.258,4.08,2.924c1.02,1.7,1.36,3.876,1.36,3.876h1.088
		l-0.204-7.888h-19.108V47.7h2.38c0.612,0,0.816,0.204,0.816,0.815v20.4c0,0.612-0.204,0.816-0.816,0.816h-2.38V70.82z
		 M382.564,58.716c0,6.393,3.264,12.716,9.86,12.716c3.4,0,5.814-1.666,7.174-4.317c0.816-1.599,1.258-3.774,1.394-5.645h-1.224
		c-0.17,1.599-0.51,3.639-1.326,5.168c-1.02,1.904-2.822,3.706-6.018,3.706c-1.904,0-4.08-1.632-4.08-6.527v-10.2
		c0-4.896,1.836-6.528,3.74-6.528c3.4,0,6.12,3.809,7.14,9.622h1.088V46.272h-1.122l-0.612,1.258
		c-0.17,0.374-0.34,0.646-0.748,0.646c-0.272,0-0.68-0.204-1.156-0.51c-1.36-0.918-2.754-1.666-4.59-1.666
		C386.1,46,382.564,51.916,382.564,58.716 M359.784,60.416l0.204,10.744h1.054l0.17-1.088c0.102-0.748,0.408-1.156,0.884-1.156
		c0.442,0,0.884,0.34,1.768,1.021c0.918,0.748,2.482,1.495,4.658,1.495c5.202,0,7.582-3.638,7.582-7.004
		c0-2.277-1.19-4.624-3.06-5.848l-7.31-4.726c-1.564-1.021-3.026-2.347-3.026-3.91c0-1.904,1.122-2.856,3.536-2.856
		c3.332,0,6.358,3.672,7.616,8.364h1.088l-0.34-8.84h-1.088l-0.204,0.918c-0.068,0.441-0.306,0.782-0.748,0.782
		c-0.34,0-0.782-0.272-1.224-0.612c-0.68-0.476-2.584-1.7-4.828-1.7c-3.4,0-6.664,1.836-6.664,6.528c0,3.128,2.108,5.1,3.808,6.188
		l7.276,4.692c1.36,0.884,2.448,1.802,2.448,3.06c0,1.429-0.578,3.876-4.658,3.876c-3.876,0-6.902-4.93-7.854-9.928H359.784z
		 M321.092,70.82h19.38l0.204-9.384h-1.088c0,0-0.272,2.21-0.714,3.468c-0.646,1.836-2.244,4.828-5.032,4.828h-3.706
		c-0.612,0-0.816-0.204-0.816-0.816v-9.792h1.734c1.904,0,3.4,2.72,3.4,4.727h1.088V53.208h-1.088c0,1.972-1.496,4.692-3.4,4.692
		h-1.734v-9.385c0-0.611,0.204-0.815,0.816-0.815h3.74c1.768,0,3.128,1.258,4.08,2.924c1.02,1.7,1.36,3.876,1.36,3.876h1.088
		l-0.204-7.888h-19.108V47.7h2.38c0.612,0,0.816,0.204,0.816,0.815v20.4c0,0.612-0.204,0.816-0.816,0.816h-2.38V70.82z
		 M290.697,70.82h11.424v-1.088h-2.38c-0.612,0-0.816-0.204-0.816-0.816v-10.2h8.024v10.2c0,0.612-0.204,0.816-0.816,0.816h-2.38
		v1.088h11.424v-1.088h-2.38c-0.612,0-0.816-0.204-0.816-0.816v-20.4c0-0.611,0.204-0.815,0.816-0.815h2.38v-1.088h-11.492V47.7
		h2.448c0.612,0,0.816,0.204,0.816,0.815v8.977h-8.024v-8.977c0-0.611,0.204-0.815,0.816-0.815h2.38v-1.088h-11.424V47.7h2.38
		c0.612,0,0.816,0.204,0.816,0.815v20.4c0,0.612-0.204,0.816-0.816,0.816h-2.38V70.82z M263.905,56.744h1.088
		c0,0,0.136-1.156,0.714-3.196c0.782-2.788,2.584-5.848,4.896-5.848c0.748,0,1.258,0.408,1.258,1.156v20.06
		c0,0.612-0.204,0.816-0.816,0.816h-2.72v1.088h12.104v-1.088h-2.72c-0.612,0-0.816-0.204-0.816-0.816v-20.06
		c0-0.748,0.51-1.156,1.258-1.156c2.312,0,4.114,3.06,4.896,5.848c0.578,2.04,0.714,3.196,0.714,3.196h1.088l-0.272-10.132h-20.4
		L263.905,56.744z M222.969,70.82h12.648c5.644,0,10.268-5.236,10.268-12.309c0-7.071-4.624-11.899-10.268-11.899h-12.648V47.7h2.38
		c0.612,0,0.816,0.204,0.816,0.815v20.4c0,0.612-0.204,0.816-0.816,0.816h-2.38V70.82z M231.197,68.916v-20.4
		c0-0.611,0.204-0.815,0.816-0.815h3.026c2.72,0,5.066,1.836,5.066,5.916v10.2c0,4.08-2.346,5.916-5.066,5.916h-3.026
		C231.401,69.732,231.197,69.528,231.197,68.916 M194.137,70.82h9.928v-1.088c-2.448,0-4.284-1.429-4.284-3.536V53.242h0.136
		l12.716,18.189h1.292V51.236c0-2.108,1.836-3.536,4.284-3.536v-1.088h-9.928V47.7c2.448,0,4.284,1.428,4.284,3.536V62.15
		l-10.88-15.538h-7.548V47.7h0.612c1.088,0,1.496,0.238,1.938,0.884l1.36,2.04c0.306,0.442,0.374,0.544,0.374,1.054v14.519
		c0,2.107-1.836,3.536-4.284,3.536V70.82z M177.274,70.82h11.424v-1.088h-2.38c-0.612,0-0.816-0.204-0.816-0.816v-20.4
		c0-0.611,0.204-0.815,0.816-0.815h2.38v-1.088h-11.424V47.7h2.38c0.612,0,0.816,0.204,0.816,0.815v20.4
		c0,0.612-0.204,0.816-0.816,0.816h-2.38V70.82z M146.878,70.82h11.424v-1.088h-2.38c-0.612,0-0.816-0.204-0.816-0.816v-10.2h8.024
		v10.2c0,0.612-0.204,0.816-0.816,0.816h-2.38v1.088h11.424v-1.088h-2.38c-0.612,0-0.816-0.204-0.816-0.816v-20.4
		c0-0.611,0.204-0.815,0.816-0.815h2.38v-1.088h-11.492V47.7h2.448c0.612,0,0.816,0.204,0.816,0.815v8.977h-8.024v-8.977
		c0-0.611,0.204-0.815,0.816-0.815h2.38v-1.088h-11.424V47.7h2.38c0.612,0,0.816,0.204,0.816,0.815v20.4
		c0,0.612-0.204,0.816-0.816,0.816h-2.38V70.82z M121.039,70.82h19.38l0.204-9.384h-1.088c0,0-0.272,2.21-0.714,3.468
		c-0.646,1.836-2.244,4.828-5.032,4.828h-3.706c-0.612,0-0.816-0.204-0.816-0.816v-9.792h1.734c1.904,0,3.4,2.72,3.4,4.727h1.088
		V53.208h-1.088c0,1.972-1.496,4.692-3.4,4.692h-1.734v-9.385c0-0.611,0.204-0.815,0.816-0.815h3.74c1.768,0,3.128,1.258,4.08,2.924
		c1.02,1.7,1.36,3.876,1.36,3.876h1.088l-0.204-7.888h-19.108V47.7h2.38c0.612,0,0.816,0.204,0.816,0.815v20.4
		c0,0.612-0.204,0.816-0.816,0.816h-2.38V70.82z M102.747,57.628v-9.112c0-0.611,0.204-0.815,0.816-0.815h2.516
		c1.802,0,2.924,1.7,2.924,4.692c0,3.128-0.51,5.235-3.128,5.235H102.747z M94.519,70.82h12.41c4.284,0,7.99-2.312,7.99-6.597
		c0-3.535-3.672-5.508-6.562-5.949V58.07c2.72-0.714,5.746-2.38,5.746-5.678c0-3.4-3.57-5.78-7.616-5.78H94.519V47.7h2.38
		c0.612,0,0.816,0.204,0.816,0.815v20.4c0,0.612-0.204,0.816-0.816,0.816h-2.38V70.82z M102.747,68.916v-10.2h3.128
		c2.244,0,3.604,1.156,3.604,5.508c0,4.353-1.36,5.509-3.604,5.509h-2.312C102.951,69.732,102.747,69.528,102.747,68.916
		 M55.827,56.744h1.088c0,0,0.136-1.156,0.714-3.196c0.782-2.788,2.584-5.848,4.896-5.848c0.748,0,1.258,0.408,1.258,1.156v20.06
		c0,0.612-0.204,0.816-0.816,0.816h-2.72v1.088h12.104v-1.088h-2.72c-0.612,0-0.816-0.204-0.816-0.816v-20.06
		c0-0.748,0.51-1.156,1.258-1.156c2.312,0,4.114,3.06,4.896,5.848c0.578,2.04,0.714,3.196,0.714,3.196h1.088l-0.272-10.132h-20.4
		L55.827,56.744z M26.724,47.7H28.9c0.612,0,0.816,0.204,0.816,0.815v14.246c0,4.387,2.482,8.67,8.942,8.67
		c5.134,0,8.126-3.434,8.126-7.684V50.76c0-2.176,1.768-3.06,3.536-3.06v-1.088h-8.432V47.7c1.768,0,3.536,0.884,3.536,3.06v13.328
		c0,3.265-2.414,5.984-5.814,5.984c-3.298,0-4.862-1.802-4.862-5.984V48.516c0-0.611,0.204-0.815,0.816-0.815h2.176v-1.088H26.724
		V47.7z M8.228,57.628v-9.112c0-0.611,0.204-0.815,0.816-0.815h2.516c1.802,0,2.924,1.7,2.924,4.692c0,3.128-0.51,5.235-3.128,5.235
		H8.228z M0,70.82h12.41c4.284,0,7.99-2.312,7.99-6.597c0-3.535-3.672-5.508-6.562-5.949V58.07c2.72-0.714,5.746-2.38,5.746-5.678
		c0-3.4-3.57-5.78-7.616-5.78H0V47.7h2.38c0.612,0,0.816,0.204,0.816,0.815v20.4c0,0.612-0.204,0.816-0.816,0.816H0V70.82z
		 M8.228,68.916v-10.2h3.128c2.244,0,3.604,1.156,3.604,5.508c0,4.353-1.36,5.509-3.604,5.509H9.044
		C8.432,69.732,8.228,69.528,8.228,68.916"/>
	<path clip-path="url(#SVGID_2_)" fill="#231F20" d="M465.408,18.16c-0.56,0-0.8,0.24-0.8,0.8v1.061c0,0.56,0.24,0.8,0.8,0.8h0.421
		c0.56,0,0.8-0.24,0.8-0.8V18.96c0-0.56-0.24-0.8-0.8-0.8H465.408z M448.809,20.021c0,0.56,0.24,0.8,0.8,0.8h3.2
		c0.56,0,0.8-0.24,0.8-0.8V19.68c0-0.56-0.24-0.8-0.8-0.8h-1.86v-4.22h1.72c0.56,0,0.8-0.24,0.8-0.8v-0.34
		c0-0.561-0.24-0.801-0.8-0.801h-1.72V8.76h1.82c0.56,0,0.8-0.239,0.8-0.8V7.62c0-0.56-0.24-0.8-0.8-0.8h-3.16
		c-0.56,0-0.8,0.24-0.8,0.8V20.021z M435.509,18.24c0,0.56-0.26,0.82-0.8,0.82h-0.4c-0.56,0-0.82-0.261-0.82-0.82V9.4
		c0-0.561,0.26-0.82,0.82-0.82h0.36c0.54,0,0.8,0.26,0.8,0.82v1.939c0,0.561,0.24,0.8,0.8,0.8h0.5c0.56,0,0.8-0.239,0.8-0.8V9.28
		c0-1.74-0.84-2.58-2.58-2.58h-1.04c-1.74,0-2.6,0.86-2.6,2.6v9.04c0,1.74,0.86,2.601,2.6,2.601h1.06c1.74,0,2.6-0.86,2.6-2.601
		v-2.46c0-0.56-0.24-0.8-0.8-0.8h-0.5c-0.56,0-0.8,0.24-0.8,0.8V18.24z M419.708,20.82c0.62,0,0.88-0.3,0.78-0.92l-1.78-12.4
		c-0.08-0.479-0.3-0.68-0.8-0.68h-1.44c-0.5,0-0.72,0.2-0.8,0.68l-1.76,12.4c-0.1,0.62,0.16,0.92,0.78,0.92h0.36
		c0.5,0,0.72-0.2,0.78-0.7l0.2-1.5h2.22l0.18,1.5c0.06,0.5,0.28,0.7,0.8,0.7H419.708z M416.249,16.72l0.88-7.08l0.88,7.08H416.249z
		 M399.129,20.021c0,0.56,0.24,0.8,0.8,0.8h0.54c0.56,0,0.8-0.24,0.8-0.8v-5.28h1.62c0.56,0,0.8-0.24,0.8-0.8v-0.34
		c0-0.561-0.24-0.801-0.8-0.801h-1.62V8.76h1.72c0.56,0,0.8-0.239,0.8-0.8V7.62c0-0.56-0.24-0.8-0.8-0.8h-3.06
		c-0.56,0-0.8,0.24-0.8,0.8V20.021z M370.649,20.021c0,0.56,0.24,0.8,0.8,0.8h3.2c0.56,0,0.8-0.24,0.8-0.8V19.68
		c0-0.56-0.24-0.8-0.8-0.8h-1.86v-4.22h1.72c0.56,0,0.8-0.24,0.8-0.8v-0.34c0-0.561-0.24-0.801-0.8-0.801h-1.72V8.76h1.82
		c0.56,0,0.8-0.239,0.8-0.8V7.62c0-0.56-0.24-0.8-0.8-0.8h-3.16c-0.56,0-0.8,0.24-0.8,0.8V20.021z M357.129,20.84
		c0.48,0,0.72-0.2,0.78-0.68l1.84-12.42c0.1-0.62-0.16-0.92-0.78-0.92h-0.42c-0.5,0-0.72,0.2-0.78,0.7l-1.22,9.699l-1.18-9.699
		c-0.06-0.5-0.28-0.7-0.78-0.7h-0.54c-0.62,0-0.88,0.3-0.78,0.92l1.82,12.42c0.08,0.479,0.3,0.68,0.8,0.68H357.129z M342.349,20.82
		c0.62,0,0.88-0.3,0.78-0.92l-1.78-12.4c-0.08-0.479-0.3-0.68-0.8-0.68h-1.44c-0.5,0-0.72,0.2-0.8,0.68l-1.76,12.4
		c-0.1,0.62,0.16,0.92,0.78,0.92h0.36c0.5,0,0.72-0.2,0.78-0.7l0.2-1.5h2.22l0.18,1.5c0.06,0.5,0.28,0.7,0.8,0.7H342.349z
		 M338.889,16.72l0.88-7.08l0.88,7.08H338.889z M325.53,12.061V9.42c0-1.74-0.86-2.6-2.6-2.6h-2.72c-0.56,0-0.8,0.24-0.8,0.8v12.4
		c0,0.56,0.24,0.8,0.8,0.8h0.54c0.56,0,0.8-0.24,0.8-0.8V15.2h0.96c0.62,0,0.9,0.28,0.9,0.9v3.92c0,0.56,0.24,0.8,0.8,0.8h0.54
		c0.56,0,0.8-0.24,0.8-0.8v-3.96c0-1.061-0.36-1.601-1.24-1.841C325.09,13.9,325.53,13.3,325.53,12.061 M323.39,12.48
		c0,0.58-0.28,0.859-0.88,0.859h-0.96V8.72h1.04c0.54,0,0.8,0.261,0.8,0.801V12.48z M305.209,14.601c0.6,0,0.88,0.279,0.88,0.88
		v2.659c0,0.54-0.26,0.801-0.8,0.801h-1.06v-4.34H305.209z M306.05,11.9c0,0.58-0.28,0.88-0.88,0.88h-0.94V8.7h1.02
		c0.54,0,0.8,0.26,0.8,0.8V11.9z M308.17,11.48V9.42c0-1.74-0.86-2.6-2.6-2.6h-2.66c-0.56,0-0.8,0.24-0.8,0.8v12.4
		c0,0.56,0.24,0.8,0.8,0.8h2.7c1.74,0,2.6-0.86,2.6-2.601v-2.58c0-1.14-0.4-1.739-1.22-2.02C307.75,13.34,308.17,12.72,308.17,11.48
		 M277.79,20.82c0.62,0,0.88-0.3,0.78-0.92l-1.78-12.4c-0.08-0.479-0.3-0.68-0.8-0.68h-1.44c-0.5,0-0.72,0.2-0.8,0.68l-1.76,12.4
		c-0.1,0.62,0.16,0.92,0.78,0.92h0.36c0.5,0,0.72-0.2,0.78-0.7l0.2-1.5h2.22l0.18,1.5c0.06,0.5,0.28,0.7,0.8,0.7H277.79z
		 M274.33,16.72l0.88-7.08l0.88,7.08H274.33z"/>
	<path clip-path="url(#SVGID_2_)" fill="#000002" d="M232.966,24.82h9.928v-1.088c-2.448,0-4.284-1.429-4.284-3.536V7.242h0.136
		l12.716,18.189h1.292V5.236c0-2.108,1.836-3.536,4.284-3.536V0.612h-9.928V1.7c2.448,0,4.284,1.428,4.284,3.536V16.15
		l-10.88-15.538h-7.548V1.7h0.612c1.088,0,1.496,0.238,1.938,0.884l1.36,2.04c0.306,0.442,0.374,0.544,0.374,1.054v14.519
		c0,2.107-1.836,3.536-4.284,3.536V24.82z M212.906,17.816v-10.2c0-4.896,1.7-6.528,4.284-6.528s4.284,1.632,4.284,6.528v10.2
		c0,4.896-1.7,6.527-4.284,6.527S212.906,22.712,212.906,17.816 M207.126,12.716c0,6.528,4.692,12.716,10.064,12.716
		s10.064-6.188,10.064-12.716C227.254,6.188,222.562,0,217.19,0S207.126,6.188,207.126,12.716 M168.163,10.744h1.088
		c0,0,0.136-1.156,0.714-3.196c0.782-2.788,2.584-5.848,4.896-5.848c0.748,0,1.258,0.408,1.258,1.156v20.06
		c0,0.612-0.204,0.816-0.816,0.816h-2.72v1.088h12.104v-1.088h-2.72c-0.612,0-0.816-0.204-0.816-0.816V2.856
		c0-0.748,0.51-1.156,1.258-1.156c2.312,0,4.114,3.06,4.896,5.848c0.578,2.04,0.714,3.196,0.714,3.196h1.088l-0.272-10.132h-20.4
		L168.163,10.744z M139.059,1.7h2.176c0.612,0,0.816,0.204,0.816,0.815v14.246c0,4.387,2.482,8.67,8.942,8.67
		c5.134,0,8.126-3.434,8.126-7.684V4.76c0-2.176,1.768-3.06,3.536-3.06V0.612h-8.432V1.7c1.768,0,3.536,0.884,3.536,3.06v13.328
		c0,3.265-2.414,5.984-5.814,5.984c-3.298,0-4.862-1.802-4.862-5.984V2.516c0-0.611,0.204-0.815,0.816-0.815h2.176V0.612h-11.016
		V1.7z M120.835,12.309V2.516c0-0.611,0.204-0.815,0.816-0.815h2.55c2.55,0,3.23,2.244,3.23,5.236c0,2.991-0.68,5.372-3.23,5.372
		H120.835z M112.607,24.82h12.036v-1.088h-2.992c-0.612,0-0.816-0.204-0.816-0.816v-9.52h3.876c4.828,0,8.16-2.721,8.16-6.46
		c0-3.74-3.332-6.324-8.16-6.324h-12.104V1.7h2.38c0.612,0,0.816,0.204,0.816,0.815v20.4c0,0.612-0.204,0.816-0.816,0.816h-2.38
		V24.82z M78.199,14.416l0.204,10.744h1.054l0.17-1.088c0.102-0.748,0.408-1.156,0.884-1.156c0.442,0,0.884,0.34,1.768,1.021
		c0.918,0.748,2.482,1.495,4.658,1.495c5.202,0,7.582-3.638,7.582-7.004c0-2.277-1.19-4.624-3.06-5.848l-7.31-4.726
		c-1.564-1.021-3.026-2.347-3.026-3.91c0-1.904,1.122-2.856,3.536-2.856c3.332,0,6.358,3.672,7.616,8.364h1.088l-0.34-8.84h-1.088
		L91.731,1.53c-0.068,0.441-0.306,0.782-0.748,0.782c-0.34,0-0.782-0.272-1.224-0.612C89.079,1.225,87.175,0,84.931,0
		c-3.4,0-6.664,1.836-6.664,6.528c0,3.128,2.108,5.1,3.808,6.188l7.276,4.692c1.36,0.884,2.448,1.802,2.448,3.06
		c0,1.429-0.578,3.876-4.658,3.876c-3.876,0-6.902-4.93-7.854-9.928H78.199z M54.74,14.416l0.204,10.744h1.054l0.17-1.088
		c0.102-0.748,0.408-1.156,0.884-1.156c0.442,0,0.884,0.34,1.768,1.021c0.918,0.748,2.482,1.495,4.658,1.495
		c5.202,0,7.582-3.638,7.582-7.004c0-2.277-1.19-4.624-3.06-5.848l-7.31-4.726c-1.564-1.021-3.026-2.347-3.026-3.91
		c0-1.904,1.122-2.856,3.536-2.856c3.332,0,6.358,3.672,7.616,8.364h1.088l-0.34-8.84h-1.088L68.272,1.53
		c-0.068,0.441-0.306,0.782-0.748,0.782c-0.34,0-0.782-0.272-1.224-0.612C65.62,1.225,63.716,0,61.472,0
		c-3.4,0-6.664,1.836-6.664,6.528c0,3.128,2.108,5.1,3.808,6.188l7.276,4.692c1.36,0.884,2.448,1.802,2.448,3.06
		c0,1.429-0.578,3.876-4.658,3.876c-3.876,0-6.902-4.93-7.854-9.928H54.74z M33.252,17.816v-10.2c0-4.896,1.7-6.528,4.284-6.528
		S41.82,2.72,41.82,7.616v10.2c0,4.896-1.7,6.527-4.284,6.527S33.252,22.712,33.252,17.816 M27.472,12.716
		c0,6.528,4.692,12.716,10.064,12.716S47.6,19.244,47.6,12.716C47.6,6.188,42.908,0,37.536,0S27.472,6.188,27.472,12.716 M0,24.82
		h12.036v-1.088H9.044c-0.612,0-0.816-0.204-0.816-0.816V12.444h1.904c2.38,0,3.264,1.903,3.264,3.876v4.216
		c0,3.468,1.938,5.1,4.726,5.1c3.264,0,4.046-2.991,4.046-6.936H21.08c0,2.414-0.408,5.032-1.7,5.032
		c-0.612,0-0.952-0.408-0.952-1.429V18.53c0-4.25-2.312-5.712-5.508-6.29v-0.238c3.536-0.408,6.256-2.142,6.256-5.406
		c0-3.739-3.332-5.983-8.16-5.983H0V1.7h2.38c0.612,0,0.816,0.204,0.816,0.815v20.4c0,0.612-0.204,0.816-0.816,0.816H0V24.82z
		 M8.228,11.356V2.516c0-0.611,0.204-0.815,0.816-0.815h1.462c2.55,0,3.23,1.768,3.23,4.624c0,2.855-0.68,5.032-3.23,5.032H8.228z"
		/>
</g>
<g>
</g>
<g>
</g>
<g>
</g>
<g>
</g>
<g>
</g>
<g>
</g>
<g>
</g>
<g>
</g>
<g>
</g>
<g>
</g>
<g>
</g>
<g>
</g>
<g>
</g>
<g>
</g>
<g>
</g>
</svg>
